<svg width="165" height="63" viewBox="0 0 165 63" fill="none" xmlns="http://www.w3.org/2000/svg">
<path d="M4.95619 41V25.832H6.70819V39.368H17.5082V41H4.95619ZM21.951 41C21.087 41 20.423 40.8 19.959 40.4C19.495 40 19.263 39.384 19.263 38.552C19.263 37.72 19.495 37.104 19.959 36.704C20.423 36.288 21.087 36.08 21.951 36.08H30.303C30.159 35.248 29.663 34.832 28.815 34.832H20.031V33.2H28.815C29.791 33.2 30.575 33.512 31.167 34.136C31.775 34.744 32.079 35.568 32.079 36.608V41H21.951ZM20.967 38.552C20.967 38.872 21.047 39.096 21.207 39.224C21.367 39.336 21.615 39.392 21.951 39.392H30.351V37.712H21.951C21.615 37.712 21.367 37.776 21.207 37.904C21.047 38.016 20.967 38.232 20.967 38.552Z" fill="#61B3C1"/>
<path d="M120.762 52.1947L117.307 52.9182L103.427 55.6588L96.7487 58.4372L82.9371 59.8511L76.2281 53.0431L76.2611 50.663L72.526 50.359L71.4491 48.6458L70.5677 49.0087L67.5514 47.7385L63.5052 49.7628L51.9347 45.1299V36.7453L53.2473 34.4006L51.355 30.4699L54.138 22.962L71.885 9.18106L77.946 5.74996L86.1279 4.52457L94.5807 2.60165L99.4752 2.35657L121.506 6.17414L150.906 19.809L162.3 36.8467L126.703 60.0467L120.762 52.1947Z" fill="#E9EEDB"/>
<path d="M99.4181 0C99.3993 0 99.3781 0 99.3592 0L94.4647 0.245081C94.328 0.25215 94.1937 0.271 94.0594 0.301635L91.9456 0.782368C91.3117 0.926116 90.9134 1.55766 91.0572 2.19157C91.1821 2.73828 91.6675 3.10826 92.2048 3.10826C92.2896 3.10826 92.3768 3.09883 92.464 3.07998L94.5825 2.59925L94.7923 2.58982L95.346 2.56154L96.1308 2.52149L97.0286 2.47671L97.9264 2.43194L98.7112 2.39187L99.2649 2.36359L99.4747 2.35417L103.74 3.09412C103.806 3.1059 103.874 3.11062 103.938 3.11062C104.501 3.11062 104.998 2.70764 105.097 2.13265C105.208 1.49168 104.779 0.881338 104.138 0.770581L99.8776 0.0329876C99.8093 0.021205 99.7409 0.0164974 99.675 0.0164974C99.6561 0.0164974 99.6373 0.0164974 99.6184 0.0164974C99.5524 0.00471478 99.4865 0 99.4181 0ZM78.4003 3.31092C78.3413 3.31092 78.2824 3.31563 78.2235 3.32505L77.5943 3.41932C77.3092 3.46174 77.0335 3.556 76.7837 3.69975L71.1846 6.86927C70.619 7.18976 70.4187 7.9085 70.7392 8.47406C70.956 8.85582 71.3542 9.07262 71.7666 9.07262C71.9622 9.07262 72.1625 9.02314 72.3463 8.91945C72.3463 8.91945 75.8104 6.95882 77.288 6.12226C77.3163 6.10576 77.3445 6.08926 77.3728 6.07512H77.3752L77.3775 6.07276C77.3775 6.07276 77.3869 6.0657 77.3917 6.06334C77.3917 6.06334 77.3964 6.05862 77.3987 6.05862H77.4011C77.4011 6.05862 77.4034 6.05627 77.4058 6.05391C77.4058 6.05391 77.427 6.03977 77.4388 6.03506H77.4412C77.4412 6.03506 77.4412 6.03271 77.4435 6.03271L77.4506 6.02799C77.4506 6.02799 77.4553 6.02563 77.4577 6.02328C77.4577 6.02328 77.46 6.02328 77.4624 6.02092H77.4647C77.4647 6.02092 77.4647 6.01857 77.4671 6.01857C77.4671 6.01857 77.4718 6.01385 77.4741 6.01385L77.4859 6.00678C77.4859 6.00678 77.4906 6.00443 77.4906 6.00207H77.4953V5.99971L77.5048 5.995L77.5213 5.98557L77.5283 5.98086L77.5354 5.97614C77.5354 5.97614 77.5354 5.97614 77.5378 5.97614C77.5378 5.97614 77.5448 5.97143 77.5496 5.96908C77.5496 5.96908 77.5496 5.96908 77.5519 5.96908L77.5684 5.95965L77.5849 5.95023L77.6155 5.93137L77.6603 5.90545L77.6674 5.90074H77.6697C77.6697 5.90074 77.6745 5.89603 77.6768 5.89367L77.6862 5.88895L77.7004 5.88189L77.7734 5.83947L77.9125 5.76171H77.9195H77.9384V5.75935H77.9407H77.9431H77.9502C77.9502 5.75935 77.9525 5.75935 77.9549 5.75935C77.9549 5.75935 77.9596 5.75935 77.962 5.75935C77.962 5.75935 77.9667 5.75935 77.969 5.75935C78.134 5.73578 78.5275 5.67687 78.5275 5.67687C79.1708 5.58025 79.6139 4.98169 79.5173 4.33601C79.4301 3.75159 78.9281 3.33212 78.3531 3.33212L78.4003 3.31092ZM60.4129 15.4187C60.1608 15.4187 59.9062 15.4989 59.6918 15.6662L54.1092 20.0022C53.5955 20.4004 53.5012 21.1404 53.9018 21.6565C54.1351 21.9558 54.4815 22.1113 54.8326 22.1113C55.0848 22.1113 55.3393 22.0311 55.5537 21.8638C55.5537 21.8638 57.8914 20.0493 59.541 18.7674C59.541 18.7674 59.5551 18.7556 59.5622 18.7509C59.5622 18.7509 59.5669 18.7462 59.5693 18.7462L59.5763 18.7391C59.5975 18.7226 59.6211 18.7061 59.6423 18.6872H59.6447C59.6447 18.6872 59.6447 18.6825 59.647 18.6825H59.6494C59.6494 18.6825 59.6541 18.6778 59.6541 18.6755H59.6565C59.6565 18.6755 59.6565 18.6707 59.6588 18.6707H59.6612C59.6612 18.6707 59.6659 18.666 59.6659 18.6637L59.6706 18.659L59.6777 18.6542L59.6894 18.6448C59.6894 18.6448 59.6894 18.6448 59.6918 18.6425L59.7154 18.6236C59.7154 18.6236 59.7201 18.6189 59.7224 18.6189L59.7743 18.5789C59.7743 18.5789 59.7766 18.5765 59.779 18.5741L59.8026 18.5553C59.8026 18.5553 59.8026 18.5553 59.8049 18.5553L59.8096 18.5506L59.8167 18.5459L59.8238 18.5411C59.8238 18.5411 59.8332 18.5341 59.8403 18.5294H59.845V18.5246L59.885 18.4916L59.9392 18.4492L60.0453 18.3668L61.1222 17.5302C61.6359 17.1319 61.7278 16.392 61.3296 15.8783C61.0963 15.579 60.7499 15.4235 60.3988 15.4235L60.4129 15.4187ZM51.1989 26.3224C50.7205 26.3224 50.2704 26.617 50.0937 27.0906L49.1464 29.6474C48.9248 30.2484 48.9555 30.9129 49.2335 31.4879L50.5956 34.3157L49.8816 35.593C49.686 35.9441 49.5823 36.34 49.5823 36.7429V41.1049C49.5823 41.7553 50.1102 42.2831 50.7606 42.2831C51.411 42.2831 51.9388 41.7553 51.9388 41.1049V36.7429V36.7382H51.9412L51.9695 36.6887L51.9813 36.6675C51.9813 36.6675 51.9813 36.6675 51.9813 36.6652C51.9813 36.6652 51.9813 36.6652 51.9813 36.6628L51.9907 36.6463L52.0284 36.578L52.0449 36.5497L52.0802 36.4884L52.092 36.4649L52.1344 36.3871V36.3824C52.1344 36.3824 52.1391 36.3824 52.1391 36.38L52.1792 36.3093L52.1933 36.2858L52.1957 36.2811L52.2004 36.2716L52.2075 36.2575C52.2075 36.2575 52.2075 36.2575 52.2075 36.2551C52.2075 36.2551 52.2169 36.2363 52.224 36.2269L52.2499 36.1797C52.2499 36.1797 52.2546 36.1727 52.2546 36.1703L52.3088 36.0713L52.3347 36.0242C52.3347 36.0242 52.3347 36.0242 52.3347 36.0218L52.3559 35.9841L52.3583 35.9794L52.4549 35.8074C52.4549 35.8074 52.4573 35.8027 52.4596 35.8003L52.5751 35.593V35.5882C52.5751 35.5882 52.5822 35.5788 52.5845 35.5741V35.5694C52.5845 35.5694 52.5869 35.5694 52.5892 35.5694L52.6128 35.5293C52.6128 35.5293 52.6128 35.5293 52.6128 35.527L52.6199 35.5152V35.5105C52.6199 35.5105 52.6246 35.5081 52.6246 35.5058C52.6246 35.5058 52.6246 35.5011 52.6269 35.5011L52.634 35.4893C52.634 35.4893 52.6364 35.4846 52.6387 35.4822V35.4775C52.6387 35.4775 52.6481 35.4681 52.6505 35.4633C52.6505 35.4633 52.6505 35.4563 52.6529 35.4563V35.4492C52.6529 35.4492 52.6623 35.4374 52.6646 35.4327L52.6953 35.3785L52.7542 35.2748C52.7542 35.2748 52.7542 35.2725 52.7542 35.2701L52.8107 35.1688L52.8626 35.0769L52.8767 35.0533C52.8767 35.0533 52.8767 35.0486 52.8791 35.0486C52.8791 35.0486 52.8791 35.0439 52.8815 35.0415L52.8932 35.0203L52.9027 35.0038L52.9474 34.9237V34.919L52.9521 34.9143L52.9639 34.8931C52.9639 34.8931 52.9639 34.8931 52.9639 34.8907C52.9639 34.8907 52.9663 34.8813 52.9686 34.8789L52.9804 34.8554V34.8507H52.9828L52.9922 34.8318L52.9969 34.8247L53.0016 34.8177L53.0087 34.8059C53.0087 34.8059 53.0087 34.8035 53.0087 34.8012V34.7941H53.0111L53.0181 34.7823C53.0181 34.7823 53.0181 34.78 53.0205 34.7776V34.7729L53.0629 34.6975L53.0935 34.6409V34.6362C53.0935 34.6362 53.0959 34.6362 53.0983 34.6338L53.1572 34.5302L53.1807 34.4877L53.1878 34.4736V34.4689L53.1949 34.4571V34.4548L53.2019 34.4406L53.209 34.4288L51.6207 31.1273L51.5806 31.0449L51.5759 31.0331C51.5759 31.0331 51.5759 31.0331 51.5759 31.0307L51.5594 30.9954L51.5524 30.9789L51.4958 30.8611C51.4958 30.8611 51.4958 30.8563 51.4935 30.854L51.4534 30.7715V30.7644H51.451L51.4251 30.7126L51.3733 30.6066C51.3733 30.6042 51.3709 30.5995 51.3686 30.5971V30.5924C51.3686 30.5924 51.3686 30.5901 51.3686 30.5877L51.3474 30.5453L51.3285 30.5076L51.3521 30.444L51.3591 30.4227L51.3639 30.411V30.4062C51.3639 30.4062 51.3709 30.3945 51.3733 30.3874C51.3733 30.3874 51.3733 30.3874 51.3733 30.385L51.378 30.3756C51.378 30.3756 51.378 30.3709 51.3803 30.3662V30.3638C51.3803 30.3638 51.3803 30.3615 51.3803 30.3591C51.3803 30.3591 51.3803 30.3568 51.3803 30.3544C51.3803 30.3544 51.3803 30.352 51.3803 30.3497C51.3803 30.3497 51.3851 30.3379 51.3851 30.3332C51.5995 29.7558 52.2687 27.9484 52.2687 27.9484C52.495 27.338 52.1839 26.6594 51.5736 26.4331C51.4392 26.3837 51.3002 26.3601 51.1635 26.3601L51.1989 26.3224ZM54.326 46.1761C53.8594 46.1761 53.4164 46.4565 53.2326 46.9161C52.9899 47.5193 53.2844 48.2051 53.8877 48.4478L62.6304 51.9472C62.9132 52.0604 63.2101 52.1169 63.507 52.1169C63.8699 52.1169 64.2305 52.0344 64.5604 51.8671L68.6065 49.8429L68.3638 49.3574C68.616 48.7565 68.3355 48.0661 67.7346 47.8139C67.7346 47.8139 67.5862 47.7503 67.5555 47.7385L67.5037 47.7621L67.4 47.8139H67.3953V47.8162C67.3953 47.8162 67.3882 47.8186 67.3859 47.821L66.9075 48.059L65.8659 48.5798L65.5949 48.7164L65.5666 48.7306L65.3003 48.8625H65.2956V48.8649L65.2791 48.8743L65.2367 48.8955C65.2367 48.8955 65.232 48.8979 65.2296 48.9003L65.2037 48.912L65.1825 48.9238C65.1825 48.9238 65.1802 48.9238 65.1778 48.9238H65.1707C65.1707 48.9238 65.166 48.9285 65.1613 48.9309L65.0883 48.9662L64.7772 49.1218C64.7772 49.1218 64.7748 49.1218 64.7725 49.1218L63.7026 49.6567C63.7026 49.6567 63.7026 49.6567 63.7003 49.6567H63.6955L63.6508 49.6779L63.6343 49.685H63.6272V49.6897L63.5188 49.7439L54.7761 46.2421C54.6323 46.1855 54.4839 46.1573 54.3378 46.1573L54.326 46.1761ZM73.4445 50.4391C72.8365 50.4391 72.3204 50.9057 72.2709 51.5231C72.2191 52.1711 72.7022 52.739 73.3502 52.7932L73.8734 52.8357V53.0124C73.8616 53.6416 74.1067 54.2496 74.5497 54.6973L75.9259 56.0947C76.1569 56.328 76.4608 56.4458 76.7648 56.4458C77.0688 56.4458 77.361 56.3327 77.592 56.1065C78.0562 55.6494 78.0609 54.9047 77.6038 54.4405C77.6038 54.4405 76.7248 53.5473 76.3713 53.1891C76.3713 53.1891 76.3713 53.1891 76.3713 53.1868C76.3713 53.1868 76.3713 53.1844 76.3713 53.1821C76.3713 53.1821 76.3642 53.1726 76.3595 53.1703C76.3595 53.1703 76.3572 53.1656 76.3548 53.1656H76.3524V53.1609V53.1561H76.3477L76.3407 53.1491L76.3336 53.142L76.3194 53.1279L76.3053 53.1137C76.3053 53.1137 76.3053 53.1137 76.3053 53.1114L76.2935 53.0996L76.2817 53.0878L76.2488 53.0525V52.9511L76.2535 52.6825L76.2582 52.3007L76.2629 51.8648L76.2676 51.4288L76.2723 51.0471L76.277 50.7784V50.6771L73.5552 50.4556C73.5246 50.4532 73.494 50.4509 73.4633 50.4509L73.4445 50.4391ZM96.5997 58.4583C96.5596 58.4583 96.5196 58.4583 96.4772 58.4654L89.4453 59.1841C88.7972 59.2501 88.326 59.8298 88.3919 60.4755C88.4532 61.0811 88.9669 61.5336 89.5631 61.5336C89.6032 61.5336 89.6432 61.5336 89.6857 61.5265L96.7175 60.8078C97.3656 60.7418 97.8369 60.1621 97.7709 59.5164C97.7096 58.9108 97.1959 58.4583 96.5997 58.4583ZM117.099 52.9818C117.024 52.9818 116.946 52.9888 116.871 53.0053C116.871 53.0053 115.313 53.314 113.675 53.6369H113.67C113.654 53.6416 113.637 53.6439 113.621 53.6463H113.609C113.609 53.6463 113.597 53.651 113.593 53.651H113.588C113.569 53.6557 113.553 53.6581 113.534 53.6628H113.527C113.527 53.6628 113.508 53.6675 113.498 53.6699C113.498 53.6699 113.479 53.6746 113.47 53.6769C113.47 53.6769 113.465 53.6769 113.463 53.6769H113.458C113.458 53.6769 113.449 53.6793 113.444 53.6816L113.411 53.6887C113.411 53.6887 113.404 53.6887 113.402 53.6887L113.326 53.7029L109.938 54.3721C109.299 54.4994 108.884 55.1191 109.012 55.7554C109.122 56.3162 109.615 56.7051 110.166 56.7051C110.242 56.7051 110.319 56.698 110.395 56.6815L117.33 55.3124C117.969 55.1851 118.383 54.5653 118.259 53.9291C118.148 53.3682 117.655 52.9794 117.104 52.9794L117.099 52.9818ZM121.687 54.1954C121.44 54.1954 121.19 54.2731 120.978 54.4334C120.46 54.8269 120.356 55.5645 120.749 56.0829L124.821 61.4676C125.283 62.078 125.988 62.4031 126.702 62.4031C127.145 62.4031 127.59 62.2783 127.986 62.0214L134.177 57.987C134.721 57.6312 134.877 56.9007 134.521 56.3563C134.295 56.0099 133.918 55.8214 133.534 55.8214C133.312 55.8214 133.09 55.8826 132.89 56.0123C132.89 56.0123 129.751 58.0577 127.944 59.236C127.944 59.236 127.939 59.2407 127.937 59.2407C127.887 59.2737 127.84 59.3043 127.793 59.3349C127.727 59.3774 127.663 59.4198 127.602 59.4599L127.595 59.4646C127.595 59.4646 127.593 59.4646 127.59 59.4669H127.588C127.574 59.4787 127.56 59.4881 127.546 59.4975C127.546 59.4975 127.541 59.4999 127.541 59.5023L127.52 59.5164C127.52 59.5164 127.52 59.5164 127.517 59.5164L127.508 59.5235L127.496 59.5305C127.496 59.5305 127.496 59.5305 127.494 59.5305L127.473 59.5447C127.473 59.5447 127.47 59.5447 127.468 59.547H127.465C127.465 59.547 127.465 59.547 127.465 59.5494L127.449 59.5612L127.428 59.5753C127.428 59.5753 127.428 59.5753 127.425 59.5753L127.381 59.6036C127.381 59.6036 127.381 59.6036 127.378 59.6036L127.334 59.6319L127.301 59.6531L127.293 59.6578C127.293 59.6578 127.289 59.6578 127.289 59.6601L127.27 59.6719L127.128 59.7638L126.989 59.8534L126.726 60.0254V60.0231C126.726 60.0231 126.726 60.0183 126.723 60.0183V60.0136C126.723 60.0136 126.718 60.0089 126.716 60.0042V60.0018C126.716 60.0018 126.716 59.9971 126.714 59.9948L126.709 59.9901V59.9877C126.709 59.9877 126.709 59.9853 126.709 59.983V59.9783L126.704 59.9712C126.704 59.9712 126.702 59.9665 126.7 59.9641V59.9618L126.693 59.95L126.676 59.9288L122.694 54.662C122.463 54.358 122.111 54.1977 121.756 54.1977L121.687 54.1954ZM151.302 44.2438C151.083 44.2438 150.859 44.305 150.661 44.4346L141.567 50.3613C141.567 50.3613 141.56 50.366 141.558 50.3684L141.329 50.5168C141.329 50.5168 141.324 50.5192 141.322 50.5215L141.152 50.6323L141.1 50.6653C141.093 50.67 141.086 50.6747 141.079 50.6794L141.044 50.703C141.044 50.703 141.037 50.7077 141.034 50.7101L140.99 50.7383C140.99 50.7383 140.983 50.7431 140.978 50.7454L140.935 50.7737C140.935 50.7737 140.928 50.7784 140.926 50.7808L140.919 50.7855C139.668 51.6008 138.812 52.1593 138.812 52.1593C138.268 52.5152 138.112 53.2457 138.468 53.7901C138.694 54.1365 139.071 54.325 139.455 54.325C139.677 54.325 139.899 54.2637 140.099 54.1341L151.945 46.4141C152.489 46.0583 152.645 45.3278 152.289 44.7834C152.063 44.437 151.686 44.2485 151.302 44.2485V44.2438ZM163.143 34.8106C162.917 34.8106 162.691 34.8742 162.491 35.0085C161.949 35.3691 161.805 36.102 162.165 36.644C162.165 36.644 162.26 36.7854 162.29 36.8325C162.29 36.8325 162.29 36.8372 162.293 36.8396L162.229 36.882L162.154 36.9315L162.13 36.9456L162.106 36.9621L162.102 36.9668L162.095 36.9715L162.083 36.9786C162.083 36.9786 162.083 36.9786 162.08 36.9786H162.076V36.9833H162.071C162.055 36.9974 162.038 37.0092 162.019 37.021C162.003 37.0304 161.989 37.0422 161.972 37.0516C160.754 37.8458 156.585 40.5629 156.585 40.5629C156.041 40.9187 155.885 41.6492 156.241 42.1936C156.467 42.54 156.844 42.7285 157.228 42.7285C157.45 42.7285 157.671 42.6673 157.872 42.5376L163.591 38.812C164.119 38.4679 164.486 37.9283 164.614 37.3109C164.741 36.6935 164.614 36.0525 164.265 35.5293L164.128 35.3267C163.902 34.9873 163.527 34.8035 163.148 34.8035L163.143 34.8106ZM150.536 17.1579C150.09 17.1579 149.666 17.41 149.466 17.8413C149.193 18.4304 149.447 19.1303 150.036 19.406L150.906 19.809L151.047 20.021L151.05 20.0257L151.066 20.0517L151.085 20.08L151.125 20.1389C151.125 20.1389 151.125 20.1389 151.125 20.1412L151.146 20.1719L151.167 20.2048L151.179 20.2213L151.191 20.2378L151.196 20.2449L151.2 20.252C151.2 20.252 151.2 20.252 151.2 20.2543L151.205 20.259C151.205 20.259 151.205 20.259 151.205 20.2614C151.205 20.2614 151.215 20.2779 151.219 20.285C151.219 20.285 151.219 20.2897 151.222 20.2897L151.226 20.2968L151.231 20.3038C151.231 20.3038 151.231 20.3062 151.233 20.3085L151.238 20.3156L151.243 20.3227C151.243 20.3227 151.243 20.3227 151.243 20.325C151.243 20.325 151.243 20.3274 151.243 20.3297C151.243 20.3297 151.243 20.3345 151.245 20.3368C151.245 20.3368 151.252 20.3462 151.255 20.351C151.255 20.351 151.255 20.3557 151.257 20.3557V20.3604C151.257 20.3604 151.266 20.3698 151.271 20.3769C151.271 20.3769 151.281 20.391 151.285 20.3957V20.3981C151.285 20.3981 151.29 20.4075 151.292 20.4099C151.302 20.424 151.309 20.4358 151.318 20.4499C151.318 20.4499 151.328 20.4641 151.33 20.4711C151.33 20.4711 151.33 20.4759 151.332 20.4759C152.258 21.8638 154.278 24.8826 154.278 24.8826C154.504 25.2219 154.879 25.4057 155.258 25.4057C155.485 25.4057 155.711 25.3421 155.911 25.2077C156.453 24.8448 156.597 24.1143 156.236 23.5723L152.838 18.4893C152.598 18.1288 152.263 17.8436 151.87 17.6622L151.002 17.2615C150.842 17.1861 150.673 17.1508 150.508 17.1508L150.536 17.1579ZM131.295 8.23606C130.849 8.23606 130.425 8.48821 130.225 8.91945C129.952 9.51094 130.208 10.2108 130.798 10.4842C130.798 10.4842 135.812 12.8101 136.974 13.3474C136.974 13.3474 136.976 13.3474 136.979 13.3497C136.998 13.3591 137.014 13.3662 137.031 13.3733H137.033H137.038V13.3756H137.042C137.042 13.3756 137.049 13.3827 137.054 13.3827C137.054 13.3827 137.054 13.3827 137.057 13.3827H137.061V13.3851H137.066V13.3874L137.087 13.3968L137.106 13.4063H137.111H137.115H137.12C137.12 13.4063 137.125 13.4086 137.127 13.4086H137.13H137.137V13.4133L137.148 13.4181L137.16 13.4228H137.165V13.4251H137.17C137.17 13.4251 137.17 13.4251 137.17 13.4275H137.174H137.179H137.184V13.4298H137.186C137.346 13.5052 137.516 13.5406 137.681 13.5406C138.126 13.5406 138.551 13.2884 138.751 12.8572C139.024 12.2657 138.767 11.5658 138.178 11.2925L131.764 8.31853C131.604 8.24312 131.434 8.20778 131.269 8.20778L131.295 8.23606ZM110.901 1.96298C110.338 1.96298 109.841 2.36595 109.742 2.94095C109.631 3.58192 110.06 4.1899 110.699 4.30302L121.506 6.17645L124.388 7.5126C124.548 7.58566 124.715 7.621 124.88 7.621C125.326 7.621 125.75 7.36886 125.95 6.93761C126.224 6.34612 125.967 5.64623 125.378 5.37287L122.498 4.03673C122.309 3.94954 122.111 3.88827 121.909 3.85292L111.106 1.97948C111.038 1.9677 110.97 1.96298 110.904 1.96298H110.901Z" fill="#75B0BE"/>
<path d="M82.0881 50.6866L82.147 46.1667L87.1028 40.8763L92.683 38.8427L99.8139 34.7753L99.1682 32.8547L96.2909 32.4494L90.4608 35.0204L86.5419 39.5967L81.6828 45.2548L75.9069 44.7882L74.3139 42.2549L74.8041 40.9659L70.593 42.6956L68.3142 41.7365L66.9168 41.5385L63.2406 43.379L57.7617 41.185V38.2653L60.7945 32.8429L58.6713 32.2326L57.6792 30.173L59.0224 26.5463L75.1245 14.0426L79.8753 11.3538L87.2065 10.2533L95.3789 8.39635L99.1187 8.20782L119.752 11.785L146.97 24.4066L154.179 35.1853L128.071 52.1994L124.44 47.3992L121.68 46.0489L116.178 47.2012L101.727 50.055L95.3011 52.7273L85.1256 53.7689L82.0881 50.6866Z" fill="#F1F6E5"/>
<path d="M99.0602 9.18338L119.461 12.7205L146.316 25.1748L152.824 34.9096L128.3 50.8939L125.076 46.6309L121.808 45.0309L115.978 46.2515L101.443 49.1218L95.0588 51.7776L85.4889 52.7579L83.0641 50.2953L83.1136 46.5579L87.6546 41.7105L93.0911 39.7287L100.99 35.2253L99.8967 31.9804L96.1522 31.4502L89.865 34.2215L85.8023 38.9675L81.266 44.2485L76.4681 43.8597L75.3936 42.1488L76.6802 38.7554L77.7477 36.9008L76.3998 37.0611L74.5759 40.0091L70.5957 41.6445L68.5714 40.7915L66.7498 40.5346L63.1915 42.3138L58.7282 40.5275V38.5174L62.2371 32.2443L59.3527 31.4172L58.7282 30.1211L59.8334 27.1401L75.6599 14.8508L80.1938 12.2846L87.3836 11.2076L95.5065 9.36012L99.0555 9.18338M99.178 7.23218L98.9612 7.24396L95.4123 7.4207L95.2426 7.43013L95.0776 7.46783L87.0254 9.29885L79.9063 10.3664L79.5505 10.4206L79.2371 10.5973L74.7031 13.1635L74.5806 13.2342L74.4698 13.3214L58.6434 25.6107L58.2051 25.9501L58.0118 26.4685L56.9066 29.4495L56.6191 30.2224L56.9773 30.9671L57.6018 32.2632L57.9789 33.0479L58.8154 33.2883L59.3433 33.4391L57.0315 37.5724L56.7841 38.0155V41.8472L58.0048 42.335L62.468 44.1212L63.2787 44.4464L64.0587 44.0552L67.075 42.5471L68.0459 42.6837L69.8369 43.4378L70.5816 43.7512L71.3286 43.4449L73.3764 42.6036L73.7416 43.1833L74.8162 44.8942L75.3347 45.719L76.3055 45.7967L81.1034 46.1855L81.1694 46.1903L81.1647 46.532L81.1152 50.2694L81.1034 51.0801L81.6737 51.6574L84.0986 54.12L84.7537 54.7845L85.6798 54.6902L95.2497 53.7099L95.5348 53.6816L95.7987 53.5709L102.003 50.9905L116.348 48.158H116.359L116.371 48.1532L121.548 47.0692L123.801 48.1721L126.745 52.0651L127.838 53.5096L129.356 52.5199L153.88 36.5356L155.527 35.4634L154.434 33.8303L147.925 24.0955L147.621 23.643L147.126 23.4144L120.271 10.9602L120.038 10.8518L119.786 10.807L99.3854 7.26988L99.1733 7.23218H99.178ZM91.055 35.8192L96.4303 33.4485L98.438 33.7337L98.6383 34.3275L92.271 37.9589L87.8384 39.5755L91.0527 35.8215L91.055 35.8192Z" fill="#121212"/>
<path d="M68.312 39.8889L67.2397 39.0523L70.3386 35.0792L76.343 30.4628L81.9044 27.3192L86.5703 23.9282L88.8609 22.1396L89.6974 23.2118L87.381 25.0216L82.6066 28.4833L77.0523 31.6222L71.3048 36.0525L68.312 39.8889Z" fill="#121212"/>
<path d="M80.0474 35.7886L78.9492 34.9874L81.0725 32.0771L86.0329 28.5211L90.7837 26.3955L93.4583 26.8291L95.4213 28.9523L94.4245 29.8761L92.7773 28.0969L90.9675 27.8023L86.714 29.7064L82.041 33.055L80.0474 35.7886Z" fill="#121212"/>
<path d="M102.802 33.5334L98.1339 28.9994L96.9226 25.6697L93.3383 23.9117L89.311 22.9055L80.6249 23.7632L73.4516 27.6232L68.1542 32.0111L63.9171 33.3213L63.5142 32.0205L67.4967 30.7904L72.6881 26.4897L80.2219 22.4365L89.4124 21.5293L93.8073 22.6297L98.0113 24.6894L99.3051 28.243L102.321 31.1698L102.998 29.5603L105.314 26.3625L107.404 25.1607L108.083 26.3389L106.245 27.397L104.19 30.2295L102.802 33.5334Z" fill="#121212"/>
<path d="M85.3242 47.7244V49.6567L86.6274 51.04L89.533 50.7997L92.8109 50.5263L93.327 49.2844L92.7567 46.1243L91.3428 45.6129L88.4348 46.4377L85.3242 47.7244Z" fill="#121212"/>
<path d="M101.855 32.5337L101.239 33.1773L102.221 34.1173L102.837 33.4736L101.855 32.5337Z" fill="#121212"/>
</svg>
