<svg width="161" height="75" viewBox="0 0 161 75" fill="none" xmlns="http://www.w3.org/2000/svg">
<path d="M10.0342 31.024H22.8742V32.776H17.3302V46H15.6022V32.776H10.0342V31.024ZM27.1848 33.712V46H25.4568V33.712H27.1848ZM25.0008 31.384C25.0008 31.016 25.1208 30.712 25.3608 30.472C25.6168 30.216 25.9288 30.088 26.2968 30.088C26.6648 30.088 26.9688 30.216 27.2088 30.472C27.4648 30.712 27.5928 31.016 27.5928 31.384C27.5928 31.752 27.4648 32.064 27.2088 32.32C26.9688 32.56 26.6648 32.68 26.2968 32.68C25.9288 32.68 25.6168 32.56 25.3608 32.32C25.1208 32.064 25.0008 31.752 25.0008 31.384Z" fill="#61B3C1"/>
<path d="M91.993 71.9942L82.8827 61.8187L77.4603 60.1573L70.108 55.8685L70.2564 44.2107L71.4135 42.9052L69.0122 38.1663L68.6116 29.8194L70.6453 28.0426L67.2542 26.2634L60.9929 24.9084L52.7074 20.4098L50.874 7.36411L60.1729 2.21039L71.1991 3.38629L85.3453 8.73561L102.546 13.1682L117.535 20.4334L133.404 25.5094L158.235 35.8074L141.294 69.8097L132.895 66.9253L130.518 66.7768L127.815 68.1695L120.889 69.7154L112.311 68.5749L106.667 67.3636L106.613 67.5686L99.9204 71.9942H91.993Z" fill="#E9EEDB"/>
<path d="M59.6001 0C59.4068 0 59.2112 0.0471317 59.0298 0.148462L52.8463 3.57484C52.276 3.89062 52.071 4.60701 52.3867 5.17729C52.6012 5.56612 53.0041 5.78527 53.4189 5.78527C53.6121 5.78527 53.8077 5.73813 53.9892 5.6368C53.9892 5.6368 57.795 3.52771 59.4351 2.6181C59.4351 2.6181 59.4375 2.61575 59.4398 2.61575L59.4469 2.61103C59.4469 2.61103 59.461 2.60397 59.4681 2.59925H59.4704C59.4704 2.59925 59.4728 2.59689 59.4752 2.59454H59.4775C59.4775 2.59454 59.4775 2.59218 59.4799 2.59218C59.4799 2.59218 59.4822 2.59218 59.4846 2.58982C59.4846 2.58982 59.5034 2.57803 59.5129 2.57332C59.5129 2.57332 59.5199 2.56862 59.5223 2.56626H59.5246C59.5246 2.56626 59.527 2.5639 59.5294 2.56154C59.5294 2.56154 59.5317 2.56154 59.5341 2.55918H59.5364V2.55684H59.5411V2.55448H59.5435C59.5435 2.55448 59.5482 2.54976 59.5529 2.5474H59.5576V2.54504L59.5671 2.54034L59.5765 2.53562C59.5765 2.53562 59.593 2.5262 59.6001 2.52148H59.6024C59.6024 2.52148 59.6024 2.51913 59.6048 2.51913C59.6048 2.51913 59.6071 2.51677 59.6095 2.51677L59.6283 2.50735L59.6684 2.48613L59.7061 2.46493L59.7344 2.44843L59.7414 2.44372C59.7414 2.44372 59.7414 2.44372 59.7438 2.44372L59.7603 2.43429L59.7768 2.42486L59.7933 2.41544L59.8098 2.40602L59.8428 2.38716L59.8593 2.37774L59.8711 2.37066C59.8711 2.37066 59.8734 2.37066 59.8758 2.3683L60.069 2.25991L60.1373 2.2222C60.7076 1.90643 60.9126 1.19005 60.5969 0.619767C60.3824 0.230941 59.9794 0.0117797 59.5647 0.0117797L59.6001 0ZM51.1802 16.8232C51.126 16.8232 51.0694 16.8279 51.0152 16.835C50.3719 16.9246 49.9218 17.5208 50.0114 18.1665L50.3743 20.7398C50.4779 21.4797 50.928 22.1254 51.5831 22.4836L55.5115 24.6163C55.6906 24.7129 55.8838 24.76 56.0723 24.76C56.4894 24.76 56.8948 24.5361 57.1092 24.1426C57.4203 23.57 57.2082 22.8559 56.6355 22.5449C56.6355 22.5449 52.8533 20.49 52.7119 20.4146L52.349 17.8365C52.2642 17.2498 51.7599 16.8256 51.1849 16.8256L51.1802 16.8232ZM68.4064 26.8691L67.0608 28.045C66.5188 28.5187 66.2219 29.2138 66.2572 29.9326L66.4151 33.2435C66.4458 33.8751 66.9665 34.3652 67.591 34.3652C67.6099 34.3652 67.6287 34.3652 67.6476 34.3652C68.298 34.3346 68.7999 33.7808 68.7669 33.1328C68.7669 33.1328 68.6798 31.2947 68.635 30.3591C68.635 30.3591 68.635 30.3544 68.635 30.352C68.635 30.352 68.635 30.3332 68.635 30.3238V30.3167C68.635 30.3167 68.635 30.3096 68.635 30.3073C68.635 30.3073 68.635 30.3026 68.635 30.3002V30.2931V30.2837C68.635 30.2837 68.635 30.2813 68.635 30.279V30.2554C68.635 30.2554 68.635 30.2554 68.635 30.2531V30.2437C68.635 30.2437 68.635 30.2413 68.635 30.2389C68.635 30.2389 68.635 30.2295 68.635 30.2248V30.2201V30.1753V30.1517C68.635 30.1517 68.635 30.1517 68.635 30.1494V30.14C68.635 30.14 68.635 30.1376 68.635 30.1352V30.1305C68.635 30.1305 68.635 30.1258 68.635 30.1235V30.1187V30.1023C68.635 30.1023 68.635 30.1022 68.635 30.0999V30.0952V30.0575V30.0386V30.0009V29.9703C68.635 29.9703 68.635 29.9656 68.635 29.9632L68.6279 29.8218L68.7151 29.7464L70.6616 28.045L68.4229 26.8715L68.4064 26.8691ZM68.8753 39.3281C68.6962 39.3281 68.5148 39.3681 68.3428 39.4553C67.7631 39.7499 67.5298 40.4592 67.8243 41.0389L68.5855 42.54L68.4912 42.646C68.1165 43.0702 67.9045 43.6146 67.8974 44.1801L67.7819 53.2881C67.7725 53.9385 68.2933 54.4734 68.946 54.4805C68.9507 54.4805 68.9555 54.4805 68.9625 54.4805C69.6059 54.4805 70.1314 53.9644 70.1408 53.3187L70.2563 44.2084C70.2563 44.2084 70.2563 44.2084 70.2586 44.2061L70.2633 44.2013C70.2633 44.2013 70.2633 44.2013 70.2633 44.199V44.1966V44.1919C70.2633 44.1919 70.2657 44.1919 70.268 44.1919L70.2751 44.1848C70.2751 44.1848 70.2798 44.1801 70.2798 44.1778C70.2798 44.1778 70.2798 44.1754 70.2822 44.1731V44.1707H70.2845V44.166C70.2845 44.166 70.2845 44.1636 70.2869 44.1613C70.2869 44.1613 70.2916 44.1566 70.294 44.1542L70.2987 44.1495L70.3057 44.1401C70.3057 44.1401 70.3128 44.1306 70.3175 44.1283C70.3175 44.1283 70.3222 44.1212 70.3246 44.1189C70.3246 44.1189 70.3246 44.1189 70.3246 44.1165L70.3387 44.1C70.3387 44.1 70.3411 44.0977 70.3435 44.0953L70.3482 44.0882H70.3505C70.3505 44.0882 70.3505 44.0835 70.3529 44.0835C70.3529 44.0835 70.3599 44.0765 70.3647 44.0717C70.3647 44.0717 70.367 44.067 70.3694 44.0647C70.3694 44.0647 70.3764 44.0576 70.3788 44.0529V44.0482H70.3835L70.3906 44.0411C70.3906 44.0411 70.3929 44.0387 70.3953 44.0364L70.4 44.0317C70.4 44.0317 70.4047 44.0246 70.4094 44.0222L70.4142 44.0175L70.4236 44.0057C70.4236 44.0057 70.4259 44.001 70.4283 44.001L70.4424 43.9846C70.4424 43.9846 70.4613 43.9657 70.4683 43.9539C70.4683 43.9539 70.4872 43.9303 70.499 43.9186H70.5013C70.5013 43.9186 70.5013 43.9139 70.5013 43.9115L70.5061 43.9068V43.9044C70.5061 43.9044 70.5131 43.895 70.5178 43.8903C70.5178 43.8903 70.532 43.8714 70.539 43.8644L70.5603 43.8384L70.5673 43.8314C70.5673 43.8314 70.5744 43.8243 70.5767 43.8219C70.5767 43.8219 70.5838 43.8149 70.5862 43.8102L70.6286 43.763C70.6286 43.763 70.6309 43.7583 70.6333 43.7583C70.6333 43.7583 70.6333 43.7536 70.6357 43.7536L70.6427 43.7465L70.6663 43.7183L70.671 43.7135H70.6734C70.6734 43.7135 70.6734 43.7088 70.6757 43.7065V43.7041H70.6781C70.6781 43.7041 70.6781 43.6994 70.6804 43.697V43.6947L70.6969 43.6758C70.6969 43.6758 70.6993 43.6711 70.7016 43.6711V43.6664C70.7158 43.6546 70.7252 43.6452 70.7346 43.6334C70.7346 43.6334 70.7346 43.6334 70.737 43.6311L70.7441 43.6216C70.7441 43.6216 70.7441 43.6216 70.7464 43.6193L70.7582 43.6051C70.7582 43.6051 70.7582 43.6028 70.7606 43.6004V43.5957C70.7606 43.5957 70.7653 43.5863 70.77 43.5839V43.5792C70.7723 43.5745 70.7771 43.5722 70.7794 43.5674L70.7912 43.5557C70.7912 43.5557 70.7912 43.5533 70.7912 43.5509L70.8572 43.4755C70.8572 43.4755 70.8572 43.4755 70.8595 43.4732L70.8713 43.459L70.8831 43.4449L70.8925 43.4331L70.909 43.4143L70.9255 43.3954L70.9396 43.3789C70.9396 43.3789 70.942 43.3766 70.9444 43.3742C70.9444 43.3742 70.9491 43.3671 70.9538 43.3648L70.9585 43.3601L70.9679 43.3483L70.9938 43.32V43.3153V43.3129L70.9986 43.3059L71.0033 43.3012C71.0033 43.3012 71.008 43.2964 71.008 43.2941L71.0127 43.2894L71.0174 43.2823C71.0174 43.2823 71.0198 43.2799 71.0221 43.2776L71.0292 43.2705L71.0363 43.2635L71.041 43.2587C71.041 43.2587 71.041 43.2587 71.041 43.2564L71.0457 43.2517L71.0504 43.247V43.2422L71.0551 43.2375H71.0575V43.2328H71.0598C71.0598 43.2328 71.0598 43.2281 71.0622 43.2257C71.0622 43.2257 71.0622 43.2257 71.0622 43.2234L71.0693 43.2163C71.0693 43.2163 71.0693 43.2163 71.0693 43.214L71.074 43.2092C71.074 43.2092 71.074 43.2093 71.0763 43.2069C71.0763 43.2069 71.0763 43.2045 71.0763 43.2022V43.1998H71.0787V43.1951C71.0787 43.1951 71.0787 43.1904 71.0811 43.1904L71.0905 43.181C71.0905 43.181 71.1023 43.1692 71.107 43.1621H71.1093V43.1574H71.1117C71.1117 43.1574 71.1164 43.1503 71.1164 43.148C71.1164 43.148 71.1187 43.1433 71.1211 43.1409C71.1211 43.1409 71.1211 43.1409 71.1211 43.1385C71.1211 43.1385 71.1211 43.1362 71.1211 43.1338L71.1352 43.1173C71.1352 43.1173 71.14 43.1103 71.1447 43.1079L71.1517 43.0985C71.1517 43.0985 71.1517 43.0985 71.1541 43.0961L71.1612 43.0867L71.1659 43.0796C71.1659 43.0796 71.1659 43.0796 71.1682 43.0773L71.18 43.0631C71.18 43.0631 71.1824 43.0608 71.1847 43.0584L71.2059 43.0349C71.2059 43.0349 71.2059 43.0349 71.2059 43.0325C71.2059 43.0325 71.2059 43.0278 71.2083 43.0278L71.213 43.0231L71.2177 43.0184C71.2177 43.0184 71.2177 43.0184 71.2177 43.016H71.2201C71.2201 43.016 71.2224 43.0089 71.2248 43.0066L71.2295 43.0019L71.2342 42.9972H71.2366C71.2366 42.9972 71.2389 42.9924 71.2413 42.9901V42.9877V42.983H71.246C71.246 42.983 71.246 42.9783 71.2484 42.9783L69.7614 40.0421C69.554 39.6344 69.1393 39.3987 68.7104 39.3987L68.8753 39.3281ZM73.4187 57.9847C73.0134 57.9847 72.6199 58.1944 72.4007 58.5691C72.0731 59.1323 72.2617 59.8534 72.8249 60.181L76.2748 62.1934C76.4304 62.2853 76.5977 62.3584 76.772 62.4102L81.5652 63.8807L84.1126 66.725C84.3459 66.9842 84.6664 67.1162 84.9916 67.1162C85.272 67.1162 85.5525 67.0172 85.7763 66.8146C86.2594 66.381 86.3018 65.6387 85.8706 65.1532L82.8825 61.8164L77.4602 60.155L77.4225 60.1315L77.347 60.0867L77.3305 60.0773H77.3282H77.3258V60.0749H77.3211C77.3211 60.0749 77.3164 60.0702 77.314 60.0678H77.3093L77.2999 60.0631L77.2905 60.0584H77.2858V60.0561H77.2834C77.2834 60.0561 77.2834 60.0537 77.2811 60.0537H77.2764V60.0513H77.2716V60.049C77.2716 60.049 77.2669 60.0466 77.2646 60.0443C77.2622 60.0443 77.2575 60.0395 77.2551 60.0395C77.2551 60.0395 77.2528 60.0395 77.2504 60.0372C77.2504 60.0372 77.241 60.0325 77.2363 60.0301C77.2363 60.0301 77.2339 60.0301 77.2316 60.0278C77.2316 60.0278 77.2245 60.0231 77.2198 60.0207C77.2198 60.0207 77.2198 60.0207 77.2174 60.0207H77.2151V60.0183C76.3832 59.5329 74.0573 58.1756 74.0573 58.1756C73.8712 58.0672 73.6662 58.0153 73.4659 58.0153L73.4187 57.9847ZM89.7047 70.0289C89.4242 70.0289 89.1438 70.1278 88.9199 70.3281C88.4345 70.7617 88.3944 71.5064 88.828 71.9919L90.2372 73.566C90.685 74.0656 91.3236 74.3507 91.9929 74.3507H96.9486C97.599 74.3507 98.1269 73.8229 98.1269 73.1725C98.1269 72.522 97.599 71.9942 96.9486 71.9942H91.9929L90.5813 70.4177C90.348 70.1585 90.0275 70.0265 89.7047 70.0265V70.0289ZM109.283 67.9528C108.738 67.9528 108.251 68.3298 108.133 68.8836C107.996 69.5199 108.401 70.1467 109.038 70.2834L111.818 70.8819C111.88 70.8961 111.941 70.9055 112.002 70.9149L116.192 71.471C116.244 71.4781 116.298 71.4805 116.35 71.4805C116.932 71.4805 117.439 71.0492 117.516 70.4578C117.601 69.8144 117.151 69.2229 116.508 69.1357L112.313 68.5772L112.283 68.5702L112.266 68.5655L112.25 68.5607C112.25 68.5607 112.247 68.5607 112.245 68.5607H112.242C112.242 68.5607 112.235 68.5607 112.231 68.5584C112.231 68.5584 112.231 68.5584 112.228 68.5584H112.224H112.221C112.221 68.5584 112.2 68.5537 112.188 68.5513C112.188 68.5513 112.188 68.5513 112.186 68.5513C112.186 68.5513 112.174 68.549 112.167 68.5466C111.576 68.4194 109.547 67.9834 109.547 67.9834C109.464 67.9646 109.379 67.9575 109.297 67.9575L109.283 67.9528ZM130.517 66.7769L130.14 66.9725C129.563 67.2717 129.337 67.981 129.634 68.5584C129.843 68.9637 130.256 69.197 130.682 69.197C130.772 69.197 130.861 69.1876 130.951 69.1664L132.431 69.2583L136.161 70.5402C136.288 70.5826 136.418 70.6039 136.543 70.6039C137.033 70.6039 137.49 70.2975 137.658 69.8074C137.87 69.1923 137.542 68.5207 136.927 68.311C136.927 68.311 133.477 67.1256 132.959 66.9489C132.959 66.9489 132.959 66.9489 132.956 66.9489H132.952C132.952 66.9489 132.952 66.9489 132.949 66.9489L132.909 66.9347L130.529 66.7863L130.517 66.7769ZM149.749 54.3061C149.318 54.3061 148.901 54.5441 148.696 54.9565L142.387 67.6181C142.1 68.2002 142.338 68.9048 142.917 69.1947C143.087 69.2795 143.266 69.3195 143.443 69.3195C143.876 69.3195 144.291 69.0792 144.499 68.6668L150.805 56.0122C151.095 55.4302 150.859 54.7232 150.274 54.4334C150.105 54.3486 149.926 54.3085 149.749 54.3085V54.3061ZM159.206 35.3243C158.774 35.3243 158.36 35.5623 158.152 35.9747L151.844 48.6363C151.556 49.2184 151.792 49.9253 152.374 50.2128C152.544 50.2977 152.723 50.3377 152.9 50.3377C153.333 50.3377 153.748 50.0974 153.955 49.685L160.261 37.0304C160.551 36.4484 160.316 35.7414 159.731 35.4492C159.561 35.3644 159.382 35.3243 159.206 35.3243ZM145.802 28.1958C145.34 28.1958 144.902 28.4692 144.713 28.924C144.463 29.5249 144.748 30.2154 145.349 30.4628L145.63 30.5783L145.646 30.5853L145.776 30.6395L145.903 30.6937L145.927 30.7032L145.948 30.7126C145.948 30.7126 145.948 30.7126 145.95 30.7126L146.143 30.7927H146.148L146.172 30.8021L146.198 30.8116L146.249 30.8328C146.249 30.8328 146.266 30.8398 146.273 30.8422H146.278C146.278 30.8422 146.282 30.8446 146.282 30.8469H146.285C146.285 30.8469 146.287 30.8469 146.29 30.8493L146.294 30.8516C146.294 30.8516 146.297 30.8516 146.299 30.854H146.301C146.301 30.854 146.304 30.8563 146.306 30.8563L146.318 30.8611H146.323C146.323 30.8611 146.323 30.8634 146.325 30.8634C146.325 30.8634 146.339 30.8705 146.346 30.8728C146.36 30.8776 146.374 30.8846 146.389 30.8893H146.391C146.391 30.8893 146.391 30.8893 146.393 30.8917H146.398C146.398 30.8917 146.4 30.8941 146.403 30.8941L146.412 30.8988C146.412 30.8988 146.426 30.9035 146.431 30.9082H146.438C146.438 30.9082 146.443 30.9129 146.445 30.9153C146.459 30.9223 146.473 30.927 146.487 30.9341H146.49C146.49 30.9341 146.497 30.9388 146.502 30.9412L146.516 30.9459L146.525 30.9506C146.563 30.9671 146.603 30.9836 146.641 31.0001C146.641 31.0001 146.662 31.0095 146.671 31.0142C146.697 31.026 146.723 31.0354 146.749 31.0472C146.749 31.0472 146.751 31.0472 146.754 31.0496H146.758C146.758 31.0496 146.763 31.0519 146.763 31.0543H146.768C146.768 31.0543 146.782 31.0614 146.789 31.0637C146.789 31.0637 146.791 31.0637 146.794 31.0661H146.799C146.829 31.0802 146.862 31.0944 146.895 31.1085C146.909 31.1132 146.921 31.1203 146.935 31.125C148.87 31.9262 151.856 33.1657 151.856 33.1657C152.004 33.227 152.157 33.2553 152.306 33.2553C152.768 33.2553 153.206 32.9819 153.394 32.5271C153.644 31.9262 153.359 31.2357 152.758 30.9883L146.228 28.2807C146.08 28.2194 145.927 28.1911 145.778 28.1911L145.802 28.1958ZM125.88 20.6879C125.38 20.6879 124.918 21.0061 124.758 21.508C124.56 22.1278 124.902 22.79 125.519 22.9879L128.255 23.8622C128.255 23.8622 128.26 23.8622 128.262 23.8645L128.295 23.8763L128.33 23.8881C128.33 23.8881 128.335 23.8881 128.34 23.8905L128.373 23.9022C128.373 23.9022 128.375 23.9022 128.378 23.9022L128.392 23.907C128.392 23.907 128.394 23.907 128.396 23.907H128.401C128.401 23.907 128.418 23.914 128.427 23.9164H128.429C128.429 23.9164 128.434 23.9187 128.437 23.9187H128.446C128.446 23.9187 128.453 23.9235 128.458 23.9258C128.458 23.9258 128.462 23.9258 128.465 23.9282H128.467C130.277 24.5079 132.252 25.1394 132.252 25.1394C132.372 25.1771 132.492 25.196 132.61 25.196C133.109 25.196 133.571 24.8778 133.732 24.3759C133.93 23.7561 133.588 23.094 132.968 22.8936L126.236 20.7398C126.115 20.7021 125.995 20.6832 125.877 20.6832L125.88 20.6879ZM106.509 12.6003C106.071 12.6003 105.651 12.8454 105.449 13.2649C105.166 13.8493 105.409 14.5515 105.991 14.8367L112.358 17.9237C112.523 18.0039 112.697 18.0416 112.869 18.0416C113.308 18.0416 113.727 17.7965 113.93 17.377C114.213 16.7926 113.97 16.0856 113.383 15.8029L107.023 12.7182C106.858 12.6381 106.681 12.6003 106.509 12.6003ZM86.012 6.51344C85.4865 6.51344 85.0081 6.86692 84.8714 7.39714C84.7088 8.02633 85.0882 8.66965 85.7174 8.83225C85.7174 8.83225 86.6365 9.07027 87.9985 9.41904H88.0033C88.0386 9.42846 88.0739 9.43789 88.1093 9.44732L88.1305 9.45202C88.1305 9.45202 88.1376 9.45202 88.1399 9.45438H88.1494C88.1494 9.45438 88.1493 9.45674 88.1517 9.45674L88.2295 9.47559C88.2295 9.47559 88.2342 9.47559 88.2389 9.47559L88.352 9.50387C88.352 9.50387 88.3591 9.50387 88.3614 9.50623L99.4136 12.3529C99.5125 12.3788 99.6091 12.3906 99.7058 12.3906C100.231 12.3906 100.71 12.0371 100.846 11.5069C101.009 10.8777 100.63 10.2344 100 10.0718L86.3089 6.54408C86.2099 6.51815 86.111 6.50636 86.0144 6.50636L86.012 6.51344ZM65.6563 0.431248C65.0625 0.431248 64.5511 0.878981 64.4851 1.48461C64.4168 2.1303 64.8834 2.71 65.5291 2.7807L71.1989 3.38633L71.5359 3.51359C71.5359 3.51359 71.5358 3.51359 71.5382 3.51359L71.6066 3.53951L71.6207 3.54421C71.6207 3.54421 71.6254 3.54421 71.6278 3.54421L71.8186 3.61727L71.8446 3.6267C71.8446 3.6267 71.8469 3.6267 71.8493 3.6267L71.8705 3.63612C71.8705 3.63612 71.8705 3.63612 71.8728 3.63612L71.927 3.65733C71.927 3.65733 71.927 3.65733 71.9294 3.65733H71.9365C71.9365 3.65733 71.9412 3.66203 71.9435 3.66203L71.9553 3.66675C71.9553 3.66675 71.9577 3.66675 71.96 3.66675C71.96 3.66675 71.9695 3.66911 71.9742 3.67147C71.9742 3.67147 71.9789 3.67147 71.9812 3.67383C71.9812 3.67383 71.9883 3.67618 71.993 3.67853L72.0119 3.68561C72.0119 3.68561 72.0142 3.68561 72.0166 3.68561L72.0401 3.69503C72.0401 3.69503 72.0449 3.69503 72.0472 3.69739C72.0472 3.69739 72.0496 3.69739 72.0519 3.69739H72.0566C72.0566 3.69739 72.059 3.69975 72.0614 3.69975H72.0637C72.0637 3.69975 72.0731 3.70445 72.0779 3.70681L72.1014 3.71624C72.1014 3.71624 72.1038 3.71624 72.1061 3.71624L72.1344 3.72567L72.1485 3.73038H72.1556C72.1556 3.73038 72.1627 3.73509 72.1674 3.73745H72.1698C72.1698 3.73745 72.1768 3.74216 72.1815 3.74216H72.1886C72.1886 3.74216 72.1886 3.74452 72.191 3.74452H72.1957C72.1957 3.74452 72.198 3.74688 72.2004 3.74688L72.2145 3.75158C72.2145 3.75158 72.2169 3.75158 72.2192 3.75158H72.2263C72.2263 3.75158 72.2334 3.7563 72.2357 3.75866L72.2475 3.76338C72.2475 3.76338 72.2593 3.76808 72.2664 3.77044C72.2664 3.77044 72.2852 3.7775 72.2923 3.77986H72.2947L72.2994 3.78222H72.3041C72.3041 3.78222 72.3135 3.78694 72.3159 3.7893L72.33 3.79401L72.3441 3.79872C72.3441 3.79872 72.3489 3.79872 72.3512 3.80108H72.3606C72.3606 3.80108 72.3677 3.80815 72.3724 3.80815L72.3818 3.81286C72.3818 3.81286 72.3913 3.81522 72.3936 3.81757C72.4195 3.827 72.4478 3.83878 72.4737 3.84821H72.4808L72.4855 3.85293L72.4973 3.85763C72.4973 3.85763 72.5067 3.86235 72.5114 3.86235H72.5162C72.5162 3.86235 72.5162 3.86471 72.5185 3.86471H72.5209C72.5209 3.86471 72.5256 3.86705 72.5279 3.86941C72.5279 3.86941 72.5397 3.87413 72.5444 3.87649H72.5468C72.5468 3.87649 72.568 3.88591 72.5774 3.88827H72.5845V3.89063L72.601 3.89769C72.601 3.89769 72.6104 3.90241 72.6151 3.90241C72.6151 3.90241 72.6199 3.90241 72.6199 3.90476H72.6246C72.6246 3.90476 72.6269 3.90712 72.6293 3.90712H72.634C72.634 3.90712 72.6387 3.91184 72.6411 3.91184C72.6411 3.91184 72.6458 3.91183 72.6481 3.91418H72.6528C72.6528 3.91418 72.6693 3.92127 72.6788 3.92598C72.6929 3.93069 72.707 3.93775 72.7235 3.94246H72.7259C72.7259 3.94246 72.7471 3.95189 72.7589 3.9566H72.766C72.766 3.9566 72.766 3.95896 72.7683 3.96132H72.773C72.773 3.96132 72.7872 3.9684 72.7919 3.97075H72.799C72.799 3.97075 72.8178 3.98018 72.8272 3.98489H72.8319C72.8319 3.98489 72.839 3.9896 72.8414 3.9896L72.8508 3.99431C72.8508 3.99431 72.8579 3.99667 72.8626 3.99903H72.8673H72.872C72.872 3.99903 72.8838 4.00609 72.8909 4.00845C72.8909 4.00845 72.8956 4.00845 72.9003 4.01081H72.9026C72.9026 4.01081 72.9121 4.01552 72.9191 4.01787H72.9262C72.9262 4.01787 72.9474 4.0273 72.9592 4.03201H72.9663V4.03437H72.9733C73.004 4.04851 73.0346 4.0603 73.0676 4.07208H73.0747C73.0747 4.07208 73.0935 4.08151 73.1029 4.08622C73.1029 4.08622 73.1077 4.08622 73.11 4.08858H73.1147C73.1147 4.08858 73.1171 4.09093 73.1194 4.09328L73.1336 4.098C73.1336 4.098 73.1383 4.098 73.143 4.10036C73.143 4.10036 73.1477 4.10036 73.1501 4.10272H73.1548C73.1784 4.11214 73.1996 4.12157 73.2231 4.131H73.2278C73.2278 4.131 73.2302 4.13334 73.2325 4.13334H73.2396C73.2396 4.13334 73.2585 4.14278 73.2655 4.14513H73.2679C73.2679 4.14513 73.2797 4.14984 73.2868 4.1522C73.2868 4.1522 73.2985 4.15692 73.3056 4.15927H73.3103C73.3527 4.17812 73.3975 4.19461 73.4423 4.21111H73.447C73.48 4.22525 73.5153 4.23938 73.5483 4.25117C75.8742 5.13251 79.0791 6.34376 79.0791 6.34376C79.2158 6.39561 79.3572 6.41917 79.4962 6.41917C79.9722 6.41917 80.42 6.12932 80.599 5.65802C80.83 5.05004 80.5213 4.369 79.9133 4.13806L72.0189 1.15234C71.8304 1.08165 71.6348 1.03451 71.4345 1.0133L65.7671 0.407674C65.7247 0.402961 65.6822 0.400612 65.6398 0.400612L65.6563 0.431248Z" fill="#75B0BE"/>
<path d="M94.5969 66.1688L86.1417 56.7239L79.8144 54.7845L75.978 52.5458L76.0557 46.4541L78.4028 43.8078L74.7714 36.6416L74.5664 32.355L78.5749 28.8533L84.0962 27.9248L84.1598 27.7598L75.6693 24.0954L69.2571 20.735L63.0383 19.3895L58.0684 16.6912L57.2012 10.5195L61.3864 8.1983L69.8369 9.10086L83.5801 14.2994L100.528 18.666L115.365 25.8581L131.396 30.9859L150.234 38.7978L138.355 62.6411L134.045 61.1588L129.275 60.8596L125.811 62.6458L120.629 63.8029L113.31 62.8296L102.477 60.5014L101.558 63.9254L98.1694 66.1688H94.5969Z" fill="#F1F6E5"/>
<path d="M61.589 9.19751L69.6106 10.0529L83.2879 15.2255L100.191 19.5804L115.004 26.7607L131.062 31.8956L148.901 39.2927L137.865 61.4417L134.236 60.1951L129.068 59.8699L125.477 61.7197L120.585 62.8132L113.475 61.8682L101.78 59.3538L100.714 63.3151L97.8748 65.1932H95.0281L86.6813 55.8708L80.2032 53.8843L76.9535 51.9873L77.0195 46.8241L79.5669 43.9539L75.7305 36.3847L75.5585 32.7722L79.0061 29.7605L84.8031 28.7873L85.3993 27.232L76.0863 23.2141L69.5918 19.8089L63.3799 18.4657L58.9615 16.0668L58.2545 11.0403L61.589 9.19279M61.1837 7.20152L60.6464 7.49845L57.3119 9.34597L56.1431 9.99401L56.3292 11.316L57.0362 16.3425L57.1729 17.311L58.033 17.7776L62.4515 20.1765L62.6966 20.3085L62.9676 20.3674L68.9225 21.6565L75.1838 24.9391L75.2498 24.9721L75.3181 25.0004L81.0138 27.4582L78.6856 27.8494L78.1436 27.9413L77.7288 28.3019L74.2812 31.3135L73.5743 31.9309L73.6191 32.8688L73.7911 36.4813L73.8099 36.8961L73.9984 37.2661L77.2363 43.657L75.5655 45.5398L75.0848 46.0818L75.0754 46.8053L75.0094 51.9684L74.9953 53.0996L75.9732 53.6699L79.2229 55.5668L79.4161 55.68L79.6306 55.7459L85.5926 57.5746L93.5788 66.494L94.1585 67.1397H98.4568L98.9446 66.8169L101.784 64.9388L102.397 64.5334L102.588 63.8241L103.172 61.6467L113.063 63.7723L113.138 63.7888L113.213 63.7982L120.323 64.7432L120.665 64.7879L121.002 64.7125L125.894 63.6191L126.139 63.5649L126.36 63.4494L129.476 61.8446L133.847 62.118L137.229 63.2797L138.838 63.8336L139.597 62.3089L150.633 40.1599L151.561 38.2959L149.638 37.4994L131.799 30.1022L131.724 30.0716L131.646 30.048L115.721 24.9556L101.033 17.8342L100.858 17.7493L100.67 17.6998L83.8676 13.3709L70.2893 8.23604L70.056 8.14885L69.8086 8.12293L61.7869 7.26751L61.1766 7.20152H61.1837Z" fill="#121212"/>
<path d="M97.0238 45.6671H95.6641V40.5723L92.8033 35.567L86.1484 28.9452L87.1075 27.9813L93.892 34.7328L97.0238 40.2117V45.6671Z" fill="#121212"/>
<path d="M89.3887 40.8527L86.8813 39.0712L87.6684 37.9636L89.721 39.4223L91.7735 39.0877L94.705 37.4946L95.3554 38.6894L92.2189 40.3932L89.3887 40.8527Z" fill="#121212"/>
<path d="M89.5963 39.4159L88.3853 40.034L90.5568 44.2886L91.7679 43.6704L89.5963 39.4159Z" fill="#121212"/>
<path d="M97.8658 47.1635L92.2997 45.2806L86.7783 44.2956L81.1227 44.675L81.0308 43.3176L86.8537 42.9288L92.6885 43.9751L98.0237 45.7826L105.982 45.0002L109.978 43.3671L110.494 44.6255L106.314 46.334L97.8658 47.1635Z" fill="#121212"/>
<path d="M99.2796 59.7638L93.3035 57.9705L88.3618 56.976L88.6305 55.6423L93.664 56.6579L99.6708 58.463L99.2796 59.7638Z" fill="#121212"/>
<path d="M78.6247 49.4752L78.561 50.8632L80.0928 52.0863L86.1231 54.0092L87.0775 53.6934L87.8905 51.7964L87.2755 50.5474L79.949 48.7824L78.6247 49.4752Z" fill="#121212"/>
</svg>
