<svg width="169" height="76" viewBox="0 0 169 76" fill="none" xmlns="http://www.w3.org/2000/svg">
<path d="M131.464 47V32.024H138.736C139.984 32.024 141.056 32.184 141.952 32.504C142.848 32.824 143.576 33.304 144.136 33.944C144.696 34.584 145.104 35.376 145.36 36.32C145.632 37.264 145.768 38.36 145.768 39.608C145.768 40.824 145.648 41.896 145.408 42.824C145.168 43.736 144.768 44.504 144.208 45.128C143.664 45.752 142.944 46.224 142.048 46.544C141.152 46.848 140.048 47 138.736 47H131.464ZM138.952 45.416C140.76 45.416 142.056 44.92 142.84 43.928C143.64 42.936 144.04 41.496 144.04 39.608C144.04 37.672 143.64 36.192 142.84 35.168C142.056 34.128 140.76 33.608 138.952 33.608H133.192V45.416H138.952ZM151.991 47.024C150.631 47.024 149.591 46.696 148.871 46.04C148.151 45.384 147.791 44.408 147.791 43.112C147.791 41.816 148.151 40.84 148.871 40.184C149.591 39.528 150.631 39.2 151.991 39.2H161.543V40.832H152.087C150.375 40.832 149.519 41.592 149.519 43.112C149.519 44.632 150.375 45.392 152.087 45.392H157.247C158.143 45.392 158.751 45.232 159.071 44.912C159.407 44.576 159.575 44.056 159.575 43.352V41.408H161.303V43.352C161.303 44.648 160.983 45.584 160.343 46.16C159.703 46.736 158.703 47.024 157.343 47.024H151.991Z" fill="#61B3C1"/>
<path d="M59.0014 68.4446L51.8983 67.3394L38.579 72.7141H22.1385L16.8549 67.1908L15.6155 65.0548L12.2162 64.0096L8.94872 57.4746V57.3979L6.13432 53.0661L2.39697 36.719L3.67472 30.5485L22.5437 9.92232L30.1958 4.24558L36.1817 2.3757L56.9829 6.49182L74.9001 9.69218L80.0782 12.799L85.17 19.3029L91.4149 37.3951L92.8581 42.9831L98.7386 53.5695L64.4576 73.1169L59.0014 68.4446Z" fill="#E9EEDB"/>
<path d="M17.7612 12.1758C17.4376 12.1758 17.1139 12.3076 16.8766 12.5641L12.0221 17.8693C11.5762 18.3583 11.6098 19.1159 12.0964 19.5618C12.3266 19.7727 12.6166 19.8758 12.9043 19.8758C13.2279 19.8758 13.5516 19.7439 13.7889 19.4874C13.7889 19.4874 16.4235 16.6059 17.8115 15.0908C17.8115 15.0908 17.8187 15.0836 17.8211 15.0789L17.8283 15.0693V15.0645C17.8331 15.0597 17.8379 15.0549 17.8427 15.0501L17.8475 15.0453C17.8475 15.0453 17.8475 15.0453 17.8499 15.0429L17.8571 15.0357C17.8571 15.0357 17.8667 15.0237 17.8739 15.0189C17.8739 15.0189 17.8835 15.0093 17.8859 15.0045L17.8906 14.9997L17.9002 14.9902L18.6386 14.1847C19.0845 13.6956 19.0509 12.9381 18.5619 12.4922C18.3317 12.2812 18.0417 12.1782 17.754 12.1782L17.7612 12.1758ZM3.19536 28.096C2.87173 28.096 2.54809 28.2279 2.31076 28.4844L1.90323 28.9279C1.61076 29.2467 1.41179 29.6375 1.32548 30.0594L0.0501352 36.2324C-0.0193857 36.5704 -0.0169884 36.918 0.0597243 37.2512L0.124451 37.5317C0.251506 38.0879 0.745345 38.4643 1.29192 38.4643C1.38062 38.4643 1.46932 38.4547 1.56042 38.4331C2.20528 38.2869 2.60803 37.6444 2.46179 36.9995L2.39707 36.719L2.4522 36.4529L2.59604 35.7529L2.79981 34.7653L3.03474 33.6314L3.26967 32.4974L3.47344 31.5098L3.61728 30.8098L3.67242 30.5437L4.07995 30.0978C4.52585 29.6087 4.49228 28.8512 4.00324 28.4053C3.7731 28.1943 3.48303 28.0913 3.19536 28.0913V28.096ZM2.8957 43.079C2.807 43.079 2.7183 43.0886 2.6272 43.1102C1.98234 43.2588 1.5772 43.9013 1.72583 44.5461L3.79468 53.603C3.85701 53.8787 3.96728 54.14 4.12071 54.375L6.89675 58.6469C7.12689 58.9993 7.51045 59.1935 7.9036 59.1935C8.12655 59.1935 8.35429 59.1312 8.55566 58.9993C8.98957 58.7164 9.18135 58.2034 9.07108 57.7264L8.94642 57.4794V57.4075C8.93443 57.3859 8.92245 57.3644 8.90806 57.3452L6.12962 53.0732L6.07928 52.8503L6.0625 52.7736C6.0625 52.7736 6.0625 52.7736 6.0625 52.7712L6.05291 52.7304C6.05291 52.7304 6.05291 52.7304 6.05291 52.728L6.04811 52.7089C6.04572 52.6969 6.04332 52.6825 6.03852 52.6705V52.6633C6.03852 52.6633 6.03613 52.6561 6.03373 52.6537V52.6417C6.03373 52.6417 6.02894 52.6345 6.02894 52.6321L6.02414 52.6106L6.01935 52.589C6.01935 52.589 6.01935 52.5818 6.01695 52.577V52.5722V52.5626C6.01695 52.5626 6.01455 52.5626 6.01455 52.5602L6.00976 52.5434V52.5387C6.00976 52.5387 6.00976 52.5363 6.00976 52.5339V52.5291L6.00496 52.5099C6.00496 52.5099 6.00496 52.5075 6.00496 52.5051V52.4955C6.00496 52.4955 6.00257 52.4931 6.00257 52.4907C6.00257 52.4907 5.99777 52.4715 5.99777 52.4619V52.4547C5.99777 52.4547 5.99777 52.45 5.99777 52.4476V52.4428V52.438C5.52551 50.3787 4.07276 44.0163 4.07276 44.0163C3.9457 43.4602 3.45187 43.0838 2.90529 43.0838L2.8957 43.079ZM11.0249 63.1106C10.8451 63.1106 10.6629 63.1514 10.4903 63.2377C9.89814 63.5326 9.65841 64.2541 9.95327 64.8463L10.0707 65.0836C10.3632 65.6685 10.8834 66.1096 11.5091 66.3038L14.0095 67.0733L14.779 68.3966C14.8749 68.5596 14.9875 68.7131 15.1194 68.8497L20.403 74.373C20.8561 74.8453 21.4818 75.1138 22.1362 75.1138H22.5869C23.2486 75.1138 23.7855 74.5768 23.7855 73.9151C23.7855 73.2535 23.2486 72.7165 22.5869 72.7165H22.1362L16.8526 67.1932L15.6132 65.0572L12.2163 64.012L12.0964 63.7699C11.8855 63.3528 11.4636 63.1106 11.0249 63.1106ZM36.9729 72.7141H29.7811C29.1195 72.7141 28.5825 73.2511 28.5825 73.9128C28.5825 74.5744 29.1195 75.1114 29.7811 75.1114H36.9729C37.6346 75.1114 38.1716 74.5744 38.1716 73.9128C38.1716 73.2511 37.6346 72.7141 36.9729 72.7141ZM51.8984 67.3394L50.424 67.9339C49.8127 68.1833 49.5179 68.8809 49.7648 69.4922C49.9542 69.9596 50.4025 70.2425 50.8771 70.2425C51.0258 70.2425 51.1792 70.2138 51.3254 70.1562L52.1836 69.811L57.0717 70.5709C57.134 70.5805 57.1963 70.5853 57.2563 70.5853C57.8364 70.5853 58.347 70.1634 58.4381 69.5713C58.5388 68.9168 58.0929 68.3055 57.4385 68.2024H57.4337H57.4289C57.4289 68.2024 57.4289 68.2024 57.4241 68.2024C57.4241 68.2024 57.4217 68.2024 57.4193 68.2024C57.4193 68.2024 57.4169 68.2024 57.4145 68.2024H57.4121H57.4001C57.4001 68.2024 57.4001 68.2024 57.3977 68.2024C57.3977 68.2024 57.3953 68.2024 57.3929 68.2024H57.3905H57.3833H57.3713H57.3666L57.3258 68.1952H57.3162H57.3042L57.2802 68.1905H57.2755H57.2683H57.2635H57.2611H57.2587H57.2539H57.2419C57.2419 68.1905 57.2371 68.1881 57.2347 68.1881H57.2323H57.2299H57.2275H57.2203L57.1916 68.1833L57.1604 68.1785C57.1604 68.1785 57.1556 68.1785 57.1532 68.1785H57.134V68.1761H57.1316C57.1316 68.1761 57.1268 68.1761 57.1244 68.1761C57.1244 68.1761 57.1244 68.1761 57.122 68.1761H57.11H57.1005H57.0933L57.0621 68.1713C57.0621 68.1713 57.0573 68.1713 57.0549 68.1713L57.0189 68.1665H56.9998C56.9998 68.1665 56.9974 68.1641 56.995 68.1641H56.9878H56.983H56.9782L56.8128 68.1377C56.8128 68.1377 56.8128 68.1377 56.8104 68.1377H56.8008H56.7912C56.7912 68.1377 56.7912 68.1377 56.7888 68.1377H56.7696C56.7696 68.1377 56.7696 68.1353 56.7672 68.1353H56.7576L56.7241 68.1305C56.7241 68.1305 56.7241 68.1305 56.7217 68.1305H56.7001V68.1281H56.6905H56.6881C56.6881 68.1281 56.6785 68.1281 56.6713 68.1257H56.6689C56.6689 68.1257 56.6665 68.1257 56.6641 68.1257C56.6641 68.1257 56.6618 68.1257 56.6594 68.1257H56.6546H56.645C56.645 68.1257 56.645 68.1257 56.6426 68.1257C56.6426 68.1257 56.633 68.1257 56.6282 68.1233H56.621H56.6114C56.6114 68.1233 56.6114 68.1233 56.609 68.1233H56.5874V68.1185L56.5515 68.1137H56.5419C56.5419 68.1137 56.5395 68.1137 56.5371 68.1137H56.5131V68.1089H56.5011H56.4891L56.4628 68.1041H56.4508C56.4508 68.1041 56.4508 68.1041 56.4484 68.1041H56.4436C56.4436 68.1041 56.4364 68.1041 56.4316 68.1041C56.4316 68.1041 56.4268 68.1041 56.4244 68.1041C56.4244 68.1041 56.4196 68.1041 56.4172 68.1041C56.4172 68.1041 56.4148 68.1041 56.4124 68.1041H56.4076C56.4076 68.1041 56.4076 68.1041 56.4052 68.1041L56.3813 68.0994H56.3645C56.3645 68.0994 56.3645 68.097 56.3621 68.097H56.3597C56.3597 68.097 56.3573 68.097 56.3549 68.097H56.3525C56.3525 68.097 56.3501 68.097 56.3477 68.097H56.3453C56.3453 68.097 56.3429 68.097 56.3405 68.097H56.3357H56.3333C56.3333 68.097 56.3309 68.097 56.3285 68.097L56.3022 68.0922L56.2758 68.0874L56.2494 68.0826H56.2302C56.2302 68.0826 56.223 68.0778 56.2183 68.0778L56.1655 68.0706L56.1104 68.061C56.1104 68.061 56.1056 68.061 56.1032 68.061L55.9977 68.0442C55.9977 68.0442 55.9929 68.0442 55.9905 68.0442H55.9713C55.9713 68.0442 55.9665 68.0394 55.9641 68.0394L55.9354 68.0346L55.8778 68.025C55.8778 68.025 55.8778 68.025 55.8754 68.025L55.7724 68.0083C55.7724 68.0083 55.77 68.0083 55.7676 68.0083C55.7676 68.0083 55.7532 68.0059 55.746 68.0059H55.7436C55.7436 68.0059 55.7412 68.0059 55.7388 68.0059H55.734H55.7292L55.7028 68.0011C55.7028 68.0011 55.7004 68.0011 55.698 68.0011L55.6405 67.9915C55.6405 67.9915 55.6405 67.9915 55.6381 67.9915L55.3888 67.9531L55.2617 67.9339L55.0076 67.8932C55.0076 67.8932 55.0076 67.8932 55.0052 67.8932H55.0004L54.8806 67.874L54.8182 67.8644C54.8182 67.8644 54.8182 67.8644 54.8134 67.8644H54.7991C54.7991 67.8644 54.7967 67.862 54.7943 67.862H54.7847C54.7847 67.862 54.7823 67.862 54.7799 67.862H54.7703H54.7655C54.7655 67.862 54.7535 67.8596 54.7487 67.8596H54.7391C54.7391 67.8596 54.7176 67.8548 54.708 67.8524H54.6864C54.6864 67.8524 54.6864 67.8476 54.684 67.8476L54.6289 67.8381C54.6289 67.8381 54.6265 67.8381 54.6241 67.8381H54.6193L54.4946 67.8189C54.4946 67.8189 54.4922 67.8189 54.4898 67.8189L54.2357 67.7805C54.2357 67.7805 54.2309 67.7805 54.2285 67.7805L53.7347 67.7038C53.7347 67.7038 53.7347 67.7038 53.7323 67.7038L53.0491 67.5983L52.946 67.5815L52.8477 67.5672L52.222 67.4689L51.9847 67.4329L51.8984 67.3394ZM76.178 66.6154C75.9766 66.6154 75.7728 66.6658 75.5858 66.7737L69.3385 70.336C68.7632 70.6644 68.5642 71.3956 68.8902 71.971C69.1108 72.3593 69.5159 72.5751 69.9331 72.5751C70.1344 72.5751 70.3382 72.5247 70.5252 72.4168L76.7725 68.8545C77.3478 68.5261 77.5468 67.7949 77.2208 67.2196C77.0002 66.8312 76.5951 66.6154 76.178 66.6154ZM94.9198 55.926C94.7185 55.926 94.5147 55.9763 94.3277 56.0842L81.8283 63.2113C81.2554 63.5397 81.0564 64.2709 81.3848 64.8439C81.6054 65.2322 82.0105 65.448 82.4277 65.448C82.629 65.448 82.8328 65.3976 83.0198 65.2897L95.5144 58.1651C96.0897 57.8366 96.2887 57.1055 95.9627 56.5301C95.7421 56.1418 95.337 55.926 94.9198 55.926ZM92.9229 37.2369C92.8246 37.2369 92.7239 37.2488 92.6233 37.2752C91.9832 37.4406 91.5972 38.0927 91.7626 38.7351L92.8582 42.9855L92.8702 43.0071L92.887 43.0383C92.887 43.0383 92.887 43.0383 92.887 43.0407V43.0431L92.8917 43.0526C92.8917 43.0526 92.8917 43.0526 92.8917 43.055L92.9037 43.0766C92.9037 43.0766 92.9037 43.0766 92.9037 43.079V43.0838L92.9109 43.0958C92.9109 43.0958 92.9109 43.0982 92.9109 43.1006L92.9589 43.1869C92.9589 43.1869 92.9637 43.1965 92.9661 43.2013L92.9804 43.2252C92.9804 43.2252 92.9804 43.23 92.9828 43.2324L92.9924 43.2492L93.002 43.266V43.2708V43.2756H93.0044L93.0092 43.2852C93.0092 43.2852 93.0092 43.2852 93.0092 43.2876L93.014 43.2948C93.026 43.3163 93.038 43.3379 93.0524 43.3619V43.3667C93.0524 43.3667 93.0667 43.3883 93.0715 43.3978C93.0715 43.3978 93.0715 43.4002 93.0739 43.4026V43.4074V43.4146C93.0739 43.4146 93.0835 43.4266 93.0883 43.4338C93.0883 43.4338 93.0979 43.4506 93.1027 43.4578V43.4626C94.1287 45.3037 97.6863 51.7116 97.6863 51.7116C97.9044 52.1047 98.3144 52.3277 98.7363 52.3277C98.9329 52.3277 99.1319 52.2797 99.3164 52.1767C99.8942 51.8554 100.103 51.1243 99.7815 50.5465L95.0757 42.077L94.0568 38.1238C93.9178 37.5845 93.4311 37.2249 92.8965 37.2249L92.9229 37.2369ZM88.3058 23.5173C88.1763 23.5173 88.0445 23.5388 87.915 23.5844C87.2893 23.8001 86.9561 24.4834 87.1743 25.109L89.5212 31.9077C89.6914 32.4039 90.1565 32.7156 90.6551 32.7156C90.7845 32.7156 90.9164 32.694 91.0459 32.6485C91.6715 32.4327 92.0048 31.7495 91.7866 31.1238L89.4397 24.3251C89.2695 23.8289 88.8044 23.5173 88.3058 23.5173ZM73.9916 7.11271C73.4211 7.11271 72.9177 7.52025 72.8122 8.10039C72.6947 8.75245 73.1286 9.37334 73.7807 9.49081L74.9026 9.68978L75.1256 9.82403L75.7129 10.1764L76.5423 10.6751L77.4941 11.2456L78.4458 11.8162L79.2752 12.3148L79.8626 12.6672L80.0855 12.8014L80.0951 12.8134C80.3324 13.1155 80.6848 13.2737 81.0396 13.2737C81.2985 13.2737 81.5574 13.1898 81.778 13.0196C82.2982 12.6121 82.3917 11.8593 81.9842 11.3367L81.9746 11.3247C81.7948 11.0946 81.5718 10.898 81.3201 10.747L76.142 7.64011C75.8927 7.48908 75.617 7.386 75.3293 7.33566L74.2098 7.13668C74.1379 7.1247 74.0684 7.11751 73.9988 7.11751L73.9916 7.11271ZM52.7902 3.24111C52.2292 3.24111 51.7282 3.63666 51.6155 4.20722C51.486 4.85688 51.908 5.48496 52.5576 5.61442L56.9854 6.49182L57.0501 6.5038H57.0669V6.5062H57.0717H57.0765H57.0789C57.0789 6.5062 57.0789 6.5062 57.0813 6.5062C57.0813 6.5062 57.0909 6.5062 57.0957 6.5086H57.1005C57.1005 6.5086 57.1005 6.5086 57.1028 6.5086H57.1076C57.1076 6.5086 57.1172 6.511 57.122 6.511H57.1268C57.1268 6.511 57.1268 6.511 57.1292 6.511C57.1292 6.511 57.1292 6.511 57.1316 6.511C57.707 6.61408 59.6056 6.95209 59.6056 6.95209C59.6775 6.96408 59.747 6.97127 59.8166 6.97127C60.3871 6.97127 60.8905 6.56374 60.996 5.98359C61.1135 5.33154 60.6796 4.70825 60.0275 4.59318L57.4097 4.12571L53.0059 3.2531C52.9268 3.23872 52.8501 3.22913 52.771 3.22913L52.7902 3.24111ZM36.412 0C36.2897 0 36.1699 0.0191782 36.0548 0.0551373C35.9781 0.0407537 35.9014 0.0311646 35.8223 0.0311646C35.7048 0.0311646 35.5825 0.0479455 35.4651 0.0863019L29.4791 1.95618C29.2226 2.03529 28.9804 2.15994 28.7647 2.31816L28.0263 2.86714C27.4941 3.26269 27.3839 4.01304 27.777 4.54283C28.0119 4.85927 28.3739 5.02708 28.7407 5.02708C28.99 5.02708 29.2393 4.95037 29.4551 4.79215C29.4551 4.79215 29.9585 4.41818 30.1359 4.28872H30.1383V4.28633H30.1407V4.28393L30.1479 4.27913H30.1527V4.27674C30.1527 4.27674 30.1527 4.27434 30.1551 4.27194L30.1599 4.26715L30.1791 4.25276L30.4356 4.17126L31.114 3.9603L32.0729 3.66064L33.1709 3.31783L34.2688 2.97502L35.2277 2.67536L35.9062 2.4644L36.1627 2.38289L36.2657 2.40447L36.2945 2.40926H36.3041H36.3185V2.41166H36.3305H36.3329H36.3401H36.3473L36.3784 2.41885C36.3784 2.41885 36.3832 2.41885 36.3856 2.41885L36.4216 2.42604L36.4527 2.43084H36.4599C36.4599 2.43084 36.4623 2.43084 36.4647 2.43084H36.4767C36.4767 2.43084 36.4839 2.43563 36.4887 2.43563H36.5055C36.5055 2.43563 36.5055 2.43803 36.5079 2.44042L36.5342 2.44522C36.5342 2.44522 36.5342 2.44522 36.5366 2.44522C36.5366 2.44522 36.5558 2.45001 36.5654 2.45001H36.5678H36.5702C36.5702 2.45001 36.5726 2.45001 36.575 2.45001H36.5846C36.5846 2.45001 36.587 2.45001 36.5894 2.45241H36.5966C36.5966 2.45241 36.6038 2.45481 36.6062 2.45481H36.6086C36.6086 2.45481 36.6229 2.4596 36.6325 2.4596H36.6349C36.6349 2.4596 36.6373 2.4596 36.6397 2.4596C36.6397 2.4596 36.6565 2.462 36.6661 2.4644H36.6685C36.6685 2.4644 36.6757 2.4644 36.6781 2.46679H36.6805C36.6805 2.46679 36.6805 2.46679 36.6829 2.46679H36.6877C36.6877 2.46679 36.6901 2.46679 36.6925 2.46679H36.6973C36.6973 2.46679 36.7044 2.46679 36.7068 2.46919H36.7116C38.7253 2.86954 45.4713 4.20482 45.4713 4.20482C45.5504 4.2192 45.6271 4.22879 45.7062 4.22879C46.2672 4.22879 46.7682 3.83324 46.8809 3.26269C47.0103 2.61303 46.586 1.98255 45.9387 1.85309L36.6469 0.0239727C36.5678 0.0095891 36.4911 0 36.412 0Z" fill="#75B0BE"/>
<path d="M24.6704 66.7857L21.6283 63.6045L19.5762 60.0733L16.3854 59.0904L14.8776 56.0747V53.8116L13.2043 53.0661L11.6772 50.7192L8.46484 36.6567L9.14807 33.3461L26.5331 14.3429L32.9218 9.60351L36.5106 8.48398L55.8853 12.3172L72.7861 15.3354L76.0871 17.3155L79.8892 22.1748L85.7362 39.1068L87.3088 45.2006L90.7105 51.3233L65.146 65.9011L61.5764 62.847L51.1962 61.2312L37.4287 66.7857H24.6704Z" fill="#F1F6E5"/>
<path d="M36.5656 9.50041L55.6959 13.2857L72.4336 16.2751L75.423 18.0683L79.0093 22.6518L84.7892 39.3896L86.3834 45.5674L89.3728 50.9469L65.261 64.6976L62.0079 61.912L51.0787 60.2123L37.2369 65.798H25.0947L22.4241 63.0052L20.2378 59.2414L17.0806 58.2705L15.8652 55.8421V53.1715L13.873 52.2822L12.6025 50.3284L9.47642 36.6471L10.0638 33.8136L27.1995 15.0813L33.3772 10.4977L36.5656 9.50041ZM36.4553 7.46512L35.9759 7.61615L32.7875 8.61342L32.4687 8.7141L32.2002 8.91307L26.0224 13.4967L25.869 13.6093L25.7419 13.7484L8.60382 32.4807L8.23703 32.881L8.12676 33.4132L7.53943 36.2468L7.45312 36.6687L7.54902 37.0882L10.6751 50.7695L10.7542 51.1123L10.946 51.4072L12.2165 53.3609L12.5353 53.85L13.0699 54.0873L13.8922 54.4541V56.3096L14.1008 56.7267L15.3162 59.1551L15.695 59.9103L16.5028 60.1596L18.9217 60.9028L20.7196 63.9976L20.8371 64.2014L21.0001 64.3716L23.6707 67.1644L24.2532 67.7757H37.6228L37.9776 67.6319L51.3136 62.25L61.1497 63.7795L63.976 66.2007L65.0332 67.1045L66.2415 66.4165L90.3532 52.6657L92.0505 51.6972L91.1012 49.988L88.2341 44.829L86.7022 38.8958L86.683 38.8191L86.6567 38.7447L80.8768 22.007L80.769 21.6953L80.5652 21.434L76.9789 16.8504L76.7535 16.5628L76.4395 16.3734L73.4501 14.5802L73.1384 14.3932L72.7812 14.3285L56.0602 11.3415L36.9492 7.55862L36.4553 7.46033V7.46512Z" fill="#121212"/>
<path d="M21.2875 58.3808L20.3022 57.4099L25.2023 52.438L29.0451 51.8219L31.4136 50.8486L38.8068 45.5746L43.4407 39.4999L48.7867 37.2105L49.3332 38.481L44.3205 40.629L39.7801 46.579L32.0872 52.0664L29.4239 53.1619L25.8687 53.7325L21.2875 58.3808Z" fill="black"/>
<path d="M23.6757 55.5041H20.3435L16.9321 53.814L17.5482 52.5746L20.6671 54.1209H23.6757V55.5041Z" fill="black"/>
<path d="M38.915 46.6558L34.842 43.99L29.2995 43.429L26.1759 44.352L25.7827 43.0263L29.1701 42.0266L35.3167 42.6475L39.6725 45.4979L38.915 46.6558Z" fill="black"/>
<path d="M35.6258 43.7406L34.5303 42.8968L35.7936 41.2571V38.6872H37.1769V41.7269L35.6258 43.7406Z" fill="black"/>
<path d="M29.1362 42.7266H27.753V39.8139L26.5352 36.3906L27.8369 35.9255L29.1362 39.5766V42.7266Z" fill="black"/>
<path d="M44.5628 40.1831L43.2012 39.9458L43.6399 37.4167L44.968 35.0098L46.1786 35.6786L44.9632 37.8817L44.5628 40.1831Z" fill="black"/>
<path d="M24.6465 60.6942L26.7801 59.3349L32.6845 58.9825L33.4085 59.4548L34.6096 63.0579L34.003 64.1798L26.7801 63.9425L25.7324 63.2928L24.6465 61.5812V60.6942Z" fill="black"/>
</svg>
