<svg width="151" height="48" viewBox="0 0 151 48" fill="none" xmlns="http://www.w3.org/2000/svg">
<path d="M3.98106 27.1356V32.5596H2.25306V17.5836H10.7971C11.5651 17.5836 12.2371 17.7036 12.8131 17.9436C13.3891 18.1676 13.8691 18.4876 14.2531 18.9036C14.6531 19.3196 14.9491 19.8236 15.1411 20.4156C15.3331 20.9916 15.4291 21.6396 15.4291 22.3596C15.4291 24.0236 14.9331 25.2796 13.9411 26.1276C14.6771 26.4636 15.1731 26.9036 15.4291 27.4476C15.6851 27.9756 15.8131 28.5276 15.8131 29.1036V32.5596H14.0371V29.1036C14.0371 28.7036 13.9571 28.3756 13.7971 28.1196C13.6371 27.8636 13.4131 27.6636 13.1251 27.5196C12.8531 27.3756 12.5331 27.2796 12.1651 27.2316C11.7971 27.1836 11.4131 27.1516 11.0131 27.1356H10.7971H3.98106ZM10.9651 25.5036C11.5251 25.5036 11.9811 25.4236 12.3331 25.2636C12.7011 25.1036 12.9811 24.8796 13.1731 24.5916C13.3811 24.3036 13.5251 23.9676 13.6051 23.5836C13.6851 23.1996 13.7251 22.7916 13.7251 22.3596C13.7251 21.9276 13.6851 21.5196 13.6051 21.1356C13.5251 20.7516 13.3811 20.4156 13.1731 20.1276C12.9811 19.8396 12.7011 19.6156 12.3331 19.4556C11.9811 19.2956 11.5251 19.2156 10.9651 19.2156H3.98106V25.5036H10.9651ZM19.8008 29.7036V30.1836C19.8008 30.5196 19.8888 30.7276 20.0648 30.8076C20.2568 30.8876 20.6088 30.9276 21.1208 30.9276H29.4008V32.5596H21.3368C20.8088 32.5596 20.3448 32.5356 19.9448 32.4876C19.5448 32.4236 19.2008 32.3116 18.9128 32.1516C18.6408 31.9756 18.4328 31.7356 18.2888 31.4316C18.1448 31.1116 18.0728 30.6956 18.0728 30.1836V27.4716C18.0728 26.4156 18.2808 25.7036 18.6968 25.3356C19.1288 24.9516 19.8168 24.7596 20.7608 24.7596H27.4808C29.2728 24.7596 30.1688 25.5836 30.1688 27.2316C30.1688 28.8796 29.2728 29.7036 27.4808 29.7036H19.8008ZM27.5288 28.1196C27.8488 28.1196 28.0808 28.0636 28.2248 27.9516C28.3688 27.8236 28.4408 27.5836 28.4408 27.2316C28.4408 26.8796 28.3688 26.6476 28.2248 26.5356C28.0808 26.4076 27.8488 26.3436 27.5288 26.3436H20.5928C20.2728 26.3436 20.0568 26.4316 19.9448 26.6076C19.8488 26.7836 19.8008 27.0956 19.8008 27.5436V28.1196H27.5288ZM34.5571 26.3916C34.0931 26.3916 33.7571 26.4476 33.5491 26.5596C33.3411 26.6716 33.2371 26.9356 33.2371 27.3516C33.2371 27.7356 33.3571 27.9996 33.5971 28.1436C33.8371 28.2876 34.1891 28.3596 34.6531 28.3596H42.1891C42.7971 28.3596 43.2691 28.5436 43.6051 28.9116C43.9411 29.2636 44.1091 29.7756 44.1091 30.4476C44.1091 31.0556 43.9411 31.5596 43.6051 31.9596C43.2691 32.3596 42.7971 32.5596 42.1891 32.5596H31.6531V30.9516H41.6611C41.9011 30.9516 42.0931 30.9276 42.2371 30.8796C42.3811 30.8316 42.4531 30.6876 42.4531 30.4476C42.4531 30.2236 42.3811 30.0796 42.2371 30.0156C42.0931 29.9516 41.9011 29.9196 41.6611 29.9196H34.0291C33.2131 29.9196 32.5971 29.6636 32.1811 29.1516C31.7811 28.6396 31.5811 28.0156 31.5811 27.2796C31.5811 26.5116 31.7811 25.9036 32.1811 25.4556C32.5971 24.9916 33.2131 24.7596 34.0291 24.7596H43.6291V26.3916H34.5571ZM49.7196 29.1276C49.7196 29.7516 49.8556 30.2156 50.1276 30.5196C50.4156 30.8236 50.7916 30.9756 51.2556 30.9756H53.5836V32.5596H51.2556C50.7756 32.5596 50.3356 32.4796 49.9356 32.3196C49.5356 32.1596 49.1916 31.9356 48.9036 31.6476C48.6156 31.3436 48.3916 30.9836 48.2316 30.5676C48.0716 30.1356 47.9916 29.6556 47.9916 29.1276V26.2716H45.2796V24.6396H47.9916V16.6236H49.7196V24.6396H54.7356V26.2716H49.7196V29.1276Z" fill="#61B3C1"/>
<mask id="path-2-inside-1_3028_850" fill="white">
<path d="M99.0781 0C88.402 0.000227093 79.7471 10.5932 79.7471 23.6602C79.7471 36.727 88.402 47.3201 99.0781 47.3203C105.677 47.3203 111.503 43.2725 114.991 37.0957C118.479 43.2721 124.304 47.3202 130.902 47.3203C141.579 47.3203 150.234 36.7272 150.234 23.6602C150.234 10.5931 141.579 0 130.902 0C124.304 0.000139577 118.479 4.04753 114.991 10.2236C111.503 4.04712 105.677 0 99.0781 0Z"/>
</mask>
<path d="M99.0781 0C88.402 0.000227093 79.7471 10.5932 79.7471 23.6602C79.7471 36.727 88.402 47.3201 99.0781 47.3203C105.677 47.3203 111.503 43.2725 114.991 37.0957C118.479 43.2721 124.304 47.3202 130.902 47.3203C141.579 47.3203 150.234 36.7272 150.234 23.6602C150.234 10.5931 141.579 0 130.902 0C124.304 0.000139577 118.479 4.04753 114.991 10.2236C111.503 4.04712 105.677 0 99.0781 0Z" fill="#F1F6E5"/>
<path d="M99.0781 0L99.0781 -3H99.0781V0ZM79.7471 23.6602L76.7471 23.6602V23.6602H79.7471ZM99.0781 47.3203V50.3203H99.0781L99.0781 47.3203ZM114.991 37.0957L112.379 35.6206L114.991 30.9947L117.603 35.6205L114.991 37.0957ZM130.902 47.3203V50.3203H130.902L130.902 47.3203ZM150.234 23.6602H153.234V23.6602L150.234 23.6602ZM130.902 0L130.902 -3H130.902V0ZM114.991 10.2236L117.603 11.6989L114.991 16.3244L112.379 11.6988L114.991 10.2236ZM99.0781 0L99.0782 3C90.5971 3.00018 82.7471 11.6549 82.7471 23.6602H79.7471H76.7471C76.7471 9.53152 86.2068 -2.99973 99.0781 -3L99.0781 0ZM79.7471 23.6602L82.7471 23.6601C82.7471 35.6654 90.5971 44.3201 99.0782 44.3203L99.0781 47.3203L99.0781 50.3203C86.2069 50.32 76.7472 37.7887 76.7471 23.6602L79.7471 23.6602ZM99.0781 47.3203V44.3203C104.363 44.3203 109.298 41.0767 112.379 35.6206L114.991 37.0957L117.603 38.5708C113.709 45.4683 106.992 50.3203 99.0781 50.3203V47.3203ZM114.991 37.0957L117.603 35.6205C120.685 41.0766 125.619 44.3202 130.902 44.3203L130.902 47.3203L130.902 50.3203C122.989 50.3201 116.274 45.4675 112.379 38.5709L114.991 37.0957ZM130.902 47.3203V44.3203C139.384 44.3203 147.234 35.6654 147.234 23.6601L150.234 23.6602L153.234 23.6602C153.234 37.789 143.774 50.3203 130.902 50.3203V47.3203ZM150.234 23.6602H147.234C147.234 11.6549 139.384 3 130.902 3V0V-3C143.774 -3 153.234 9.53124 153.234 23.6602H150.234ZM130.902 0L130.902 3C125.618 3.00011 120.685 6.24321 117.603 11.6989L114.991 10.2236L112.379 8.74836C116.274 1.85186 122.989 -2.99983 130.902 -3L130.902 0ZM114.991 10.2236L112.379 11.6988C109.298 6.24315 104.363 3 99.0781 3V0V-3C106.991 -3 113.708 1.85108 117.603 8.74843L114.991 10.2236Z" fill="#121212" mask="url(#path-2-inside-1_3028_850)"/>
<path d="M95.2578 35.6371C91.2918 35.6371 88.0767 30.2271 88.0767 23.5535C88.0767 16.88 91.2918 11.4699 95.2578 11.4699C99.2239 11.4699 102.439 16.88 102.439 23.5535C102.439 30.2271 99.2239 35.6371 95.2578 35.6371Z" fill="#121212"/>
<path d="M125.591 35.3422C121.625 35.3422 118.41 29.9322 118.41 23.2586C118.41 16.585 121.625 11.175 125.591 11.175C129.557 11.175 132.772 16.585 132.772 23.2586C132.772 29.9322 129.557 35.3422 125.591 35.3422Z" fill="#121212"/>
</svg>
