<svg width="169" height="74" viewBox="0 0 169 74" fill="none" xmlns="http://www.w3.org/2000/svg">
<path d="M136.192 40.576V46H134.464V31.024H143.008C143.776 31.024 144.448 31.144 145.024 31.384C145.6 31.608 146.08 31.928 146.464 32.344C146.864 32.76 147.16 33.264 147.352 33.856C147.544 34.432 147.64 35.08 147.64 35.8C147.64 37.464 147.144 38.72 146.152 39.568C146.888 39.904 147.384 40.344 147.64 40.888C147.896 41.416 148.024 41.968 148.024 42.544V46H146.248V42.544C146.248 42.144 146.168 41.816 146.008 41.56C145.848 41.304 145.624 41.104 145.336 40.96C145.064 40.816 144.744 40.72 144.376 40.672C144.008 40.624 143.624 40.592 143.224 40.576H143.008H136.192ZM143.176 38.944C143.736 38.944 144.192 38.864 144.544 38.704C144.912 38.544 145.192 38.32 145.384 38.032C145.592 37.744 145.736 37.408 145.816 37.024C145.896 36.64 145.936 36.232 145.936 35.8C145.936 35.368 145.896 34.96 145.816 34.576C145.736 34.192 145.592 33.856 145.384 33.568C145.192 33.28 144.912 33.056 144.544 32.896C144.192 32.736 143.736 32.656 143.176 32.656H136.192V38.944H143.176ZM152.012 43.144V43.624C152.012 43.96 152.1 44.168 152.276 44.248C152.468 44.328 152.82 44.368 153.332 44.368H161.612V46H153.548C153.02 46 152.556 45.976 152.156 45.928C151.756 45.864 151.412 45.752 151.124 45.592C150.852 45.416 150.644 45.176 150.5 44.872C150.356 44.552 150.284 44.136 150.284 43.624V40.912C150.284 39.856 150.492 39.144 150.908 38.776C151.34 38.392 152.028 38.2 152.972 38.2H159.692C161.484 38.2 162.38 39.024 162.38 40.672C162.38 42.32 161.484 43.144 159.692 43.144H152.012ZM159.74 41.56C160.06 41.56 160.292 41.504 160.436 41.392C160.58 41.264 160.652 41.024 160.652 40.672C160.652 40.32 160.58 40.088 160.436 39.976C160.292 39.848 160.06 39.784 159.74 39.784H152.804C152.484 39.784 152.268 39.872 152.156 40.048C152.06 40.224 152.012 40.536 152.012 40.984V41.56H159.74Z" fill="#61B3C1"/>
<path d="M84.3627 70.3097L83.864 70.3816L78.1417 71.5563L73.817 70.7316L68.3944 68.4494L53.8885 60.9268L49.8635 58.3425L40.3008 53.7589L28.511 43.9037L26.8089 39.114V39.1092L24.8647 37.8314L17.2725 32.1019L10.5985 27.5687L8.42181 24.1142L7.4605 21.633L7.08893 21.3478L2.39746 14.4172V6.66685L8.89168 2.95588L13.1396 2.39731H18.0181L19.7969 2.87437L22.9829 2.79286L27.0678 4.02746L31.7713 7.79837L36.4028 10.8861L43.4748 14.657L51.4241 19.0152L55.394 20.746L60.4235 21.2854L66.467 23.0139L76.3653 27.6862L80.6852 31.4307L89.3058 39.3896L102.213 43.9445L91.1397 71.7217L84.3627 70.3097Z" fill="#E9EEDB"/>
<path d="M18.0179 0H13.1395C13.034 0 12.9309 0.00719826 12.8278 0.0215819L10.5336 0.323633C9.87677 0.409935 9.4141 1.01165 9.5004 1.66851C9.57951 2.27262 10.0949 2.71132 10.687 2.71132C10.7398 2.71132 10.7901 2.70892 10.8429 2.70173L13.1371 2.39967H18.0155L18.0347 2.40447L18.0898 2.41886L18.1785 2.44282H18.1905V2.44522H18.2025V2.45001L18.2888 2.47399L18.423 2.50995L18.5741 2.5507L18.7347 2.59385L18.8905 2.63461C18.8905 2.63461 18.8905 2.63461 18.8929 2.63461H18.9001C18.9001 2.63461 18.9049 2.6394 18.9097 2.6394L19.0655 2.68255L19.2261 2.72571L19.3772 2.76646L19.5114 2.80241L19.6241 2.83358L19.7056 2.85515H19.7104L19.7679 2.86954L19.7871 2.87434H19.8039C19.8039 2.87434 19.8063 2.87434 19.8087 2.87434H19.8111H19.8159C19.9357 2.87194 20.2761 2.86235 20.2761 2.86235C20.9378 2.84556 21.4604 2.29419 21.4436 1.63254C21.4268 0.980484 20.8946 0.465072 20.245 0.465072C20.2354 0.465072 20.2234 0.465072 20.2138 0.465072L20.058 0.469871L18.6172 0.0815138C18.5141 0.0527465 18.4087 0.0407569 18.3056 0.0407569C18.2073 0.0143869 18.1018 0 17.9939 0H18.0179ZM1.19864 10.3994C0.536989 10.3994 0 10.9364 0 11.598V14.4172C0 14.8967 0.143837 15.3641 0.412331 15.7621L2.86235 19.382C3.09488 19.7248 3.47125 19.9094 3.85721 19.9094C4.08735 19.9094 4.32228 19.8422 4.52845 19.7032C5.07503 19.334 5.21886 18.5909 4.85208 18.0419L2.41166 14.4364L2.40686 14.4316V14.4292V11.61C2.40686 10.9484 1.86987 10.4114 1.20823 10.4114L1.19864 10.3994ZM12.5521 29.1461C12.1686 29.1461 11.7922 29.3307 11.5597 29.6711C11.1881 30.2176 11.3295 30.9632 11.8785 31.3372L15.8771 34.0533L17.6631 35.4005C17.8789 35.5636 18.133 35.6427 18.3847 35.6427C18.7491 35.6427 19.1063 35.4773 19.3412 35.1656C19.7392 34.6382 19.6361 33.8855 19.1063 33.4875C19.1063 33.4875 17.4354 32.2266 17.2819 32.1115H17.2796H17.2772V32.1091C17.2772 32.1091 17.2748 32.1091 17.2724 32.1067C17.2724 32.1067 17.2556 32.0947 17.2436 32.0875C17.2436 32.0875 17.2412 32.0875 17.2388 32.0851C16.8001 31.7879 13.233 29.3642 13.233 29.3642C13.0268 29.2252 12.7919 29.158 12.5617 29.158L12.5521 29.1461ZM24.1262 37.5773C23.7618 37.5773 23.4046 37.7427 23.1697 38.0543C22.7717 38.5817 22.8748 39.3345 23.4046 39.7324L23.4214 39.7444C23.4621 39.7756 23.5053 39.8067 23.5508 39.8355L24.819 40.6674L26.2525 44.7044C26.3964 45.1095 26.6457 45.4667 26.9741 45.7424L32.3057 50.1965C32.531 50.3835 32.8019 50.4746 33.0728 50.4746C33.4156 50.4746 33.756 50.3284 33.9933 50.0455C34.4177 49.5373 34.3505 48.7845 33.8447 48.3578L28.5108 43.9013L26.8111 39.1091H26.8087L26.8111 39.1043L24.8669 37.829L24.8501 37.817C24.6344 37.654 24.3803 37.5749 24.1286 37.5749L24.1262 37.5773ZM38.5913 52.6921C38.2485 52.6921 37.9081 52.8383 37.6708 53.1212C37.2464 53.6294 37.3136 54.3846 37.8218 54.8089L38.7615 55.5952C38.9149 55.7222 39.0828 55.8301 39.2626 55.9164L48.691 60.4377L50.7143 61.737C50.9157 61.8665 51.1386 61.9264 51.3616 61.9264C51.7571 61.9264 52.1431 61.7322 52.3708 61.375C52.728 60.8188 52.5674 60.0757 52.0089 59.7185C52.0089 59.7185 50.338 58.6469 49.9424 58.3928C49.9424 58.3928 49.94 58.3928 49.9376 58.3928L49.9304 58.388L49.9136 58.376L49.8849 58.3568L49.8609 58.3425L40.2982 53.7565L40.2574 53.7229L40.2119 53.6846L40.1999 53.6726L40.1855 53.6606L40.1807 53.6558H40.1783V53.6534H40.1759C40.1759 53.6534 40.1759 53.6486 40.1735 53.6486C40.1735 53.6486 40.1639 53.6414 40.1591 53.6366C40.1591 53.6366 40.1543 53.6318 40.1519 53.6294C39.8834 53.4041 39.3704 52.975 39.3704 52.975C39.1451 52.788 38.8742 52.6969 38.6033 52.6969L38.5913 52.6921ZM57.7407 63.0747C57.3068 63.0747 56.8897 63.3096 56.6763 63.7219C56.3719 64.3093 56.602 65.0332 57.1894 65.3377L63.5733 68.6483C63.7507 68.7394 63.9377 68.7826 64.1247 68.7826C64.5586 68.7826 64.9757 68.5477 65.1891 68.1353C65.4935 67.548 65.2658 66.8264 64.6808 66.5219L61.4206 64.8319C61.4206 64.8319 61.4062 64.8247 61.399 64.8199H61.3942C59.8288 64.0048 58.2921 63.2089 58.2921 63.2089C58.1147 63.1178 57.9277 63.0747 57.7407 63.0747ZM84.3625 70.3097L83.8638 70.3816L78.1415 71.5562L78.0552 71.5394C77.9785 71.5251 77.9042 71.5179 77.8299 71.5179C77.2665 71.5179 76.7631 71.9182 76.6528 72.4936C76.5282 73.1432 76.9549 73.7713 77.6069 73.896L77.6956 73.9128C77.8443 73.9415 77.9929 73.9559 78.1439 73.9559C78.3046 73.9559 78.4676 73.9391 78.6258 73.908L84.2762 72.7477H84.2858L84.6166 72.8148C84.6981 72.8316 84.782 72.8412 84.8611 72.8412C85.4173 72.8412 85.9159 72.4528 86.0334 71.8871C86.1676 71.2398 85.7529 70.6069 85.108 70.4703L84.3625 70.3144V70.3097ZM97.9598 56.6524C97.4827 56.6524 97.0321 56.9377 96.8451 57.4075C96.8451 57.4075 96.5214 58.2202 96.0971 59.2798C96.0923 59.2918 96.0875 59.3038 96.0827 59.3157C96.0779 59.3301 96.0707 59.3445 96.066 59.3589V59.3661C96.066 59.3661 96.054 59.3877 96.0516 59.3973L96.0468 59.4092C96.0468 59.4092 96.0468 59.4116 96.0468 59.414L96.0324 59.4476C96.0324 59.4476 96.0324 59.4476 96.0324 59.45L96.018 59.4836L96.0036 59.5171C96.0036 59.5171 96.0036 59.5195 96.0036 59.5219L94.1817 64.0887C93.9396 64.7024 94.2392 65.3976 94.8529 65.6422C94.9992 65.6997 95.1478 65.7285 95.2964 65.7285C95.7735 65.7285 96.2242 65.4432 96.4112 64.9733L99.0745 58.2921C99.3191 57.6784 99.0194 56.9808 98.4057 56.7339C98.2595 56.6764 98.1108 56.6476 97.9622 56.6476L97.9598 56.6524ZM95.9341 39.2578C95.4403 39.2578 94.9776 39.5646 94.805 40.0584C94.5844 40.6817 94.9105 41.365 95.5338 41.5855L102.002 43.8677C102.002 43.8677 102.002 43.8677 102.004 43.8677H102.011V43.8701L102.023 43.8749H102.026C102.026 43.8749 102.028 43.8749 102.03 43.8749H102.038L102.05 43.8797C102.05 43.8797 102.05 43.8797 102.052 43.8797H102.057C102.057 43.8797 102.062 43.8797 102.066 43.8821H102.071C102.071 43.8821 102.086 43.8893 102.093 43.8917C102.093 43.8917 102.095 43.8917 102.097 43.8917C102.097 43.8917 102.107 43.8965 102.114 43.8965H102.119H102.124V43.8989H102.126H102.131C102.131 43.8989 102.138 43.9013 102.141 43.9037C102.141 43.9037 102.143 43.9037 102.145 43.9037C102.181 43.9181 102.201 43.9229 102.201 43.9229L102.169 43.9996L102.133 44.0907L102.097 44.1794L102.086 44.2105C102.086 44.2105 102.086 44.2153 102.083 44.2177L102.071 44.2489L102.057 44.2849L102.026 44.3639C102.026 44.3639 102.026 44.364 102.026 44.3664L102.018 44.3855L102.009 44.4071L101.992 44.4502C101.992 44.4502 101.992 44.4503 101.992 44.4526L101.982 44.4742L101.978 44.4838V44.491C101.978 44.491 101.973 44.4958 101.97 44.5006V44.5054L101.968 44.5078C101.968 44.5078 101.963 44.5198 101.961 44.5246V44.5318C101.961 44.5318 101.954 44.5485 101.951 44.5557C101.951 44.5557 101.949 44.5629 101.946 44.5677V44.5773H101.942C101.942 44.5773 101.942 44.5821 101.942 44.5845C101.942 44.5845 101.942 44.5893 101.942 44.5917L101.937 44.6013V44.6085C101.937 44.6085 101.937 44.6133 101.937 44.6157L101.932 44.6277L101.927 44.6372C101.927 44.6372 101.927 44.6396 101.927 44.642L101.908 44.69V44.6948V44.7044H101.903L101.899 44.714C101.899 44.714 101.896 44.7211 101.894 44.7235V44.7307C101.889 44.7451 101.884 44.7547 101.882 44.7667V44.7715L101.875 44.7883C101.875 44.7883 101.875 44.7883 101.875 44.7931C101.875 44.7931 101.87 44.805 101.867 44.8122L101.863 44.8218C101.863 44.8218 101.863 44.8266 101.86 44.829V44.8362C101.117 46.6917 99.5228 50.6952 99.5228 50.6952C99.2783 51.3113 99.578 52.0065 100.192 52.2534C100.338 52.3109 100.487 52.3397 100.635 52.3397C101.112 52.3397 101.563 52.0544 101.75 51.5845L104.454 44.8027C104.696 44.1961 104.679 43.5177 104.411 42.9232C104.142 42.3287 103.641 41.8708 103.025 41.6526L96.3464 39.2961C96.2146 39.2506 96.0803 39.2266 95.9485 39.2266L95.9341 39.2578ZM79.0237 27.2067C78.6881 27.2067 78.3549 27.3457 78.1176 27.6214C77.6837 28.1224 77.7388 28.8776 78.2374 29.3115L80.6826 31.4307L88.8765 38.9941C89.1067 39.205 89.3967 39.3081 89.6868 39.3081C90.0104 39.3081 90.3317 39.1786 90.569 38.9221C91.0173 38.4355 90.9885 37.678 90.5019 37.2273L82.3104 29.6663C82.2912 29.6495 82.2744 29.6327 82.2553 29.6159L79.81 27.4967C79.5823 27.3002 79.3042 27.2043 79.0261 27.2043L79.0237 27.2067ZM65.8747 20.3984C65.3521 20.3984 64.8726 20.7412 64.7216 21.2686C64.5394 21.9063 64.9086 22.5679 65.5439 22.7501C65.5439 22.7501 66.2583 22.9539 66.4285 23.0018C66.4285 23.0018 66.4285 23.0018 66.4309 23.0018H66.4428V23.0042H66.4524L66.6946 23.1217L67.3322 23.4238L68.2336 23.8505L69.135 24.2772L69.262 24.3371C69.262 24.3371 69.2644 24.3371 69.2668 24.3395L69.3292 24.3683C69.3292 24.3683 69.3292 24.3683 69.3316 24.3683L69.3963 24.3995L69.5257 24.4618C69.5257 24.4618 69.5257 24.4618 69.5281 24.4618L69.787 24.584L70.0435 24.7039L70.1682 24.7638L70.2905 24.8214C70.2905 24.8214 70.2929 24.8214 70.2953 24.8214L70.3528 24.8477C70.3528 24.8477 70.3528 24.8477 70.3552 24.8477L70.4127 24.8741L70.7627 25.0395C70.7627 25.0395 70.7627 25.0395 70.7651 25.0395L70.9833 25.1426L71.187 25.2385C71.187 25.2385 71.1894 25.2385 71.1918 25.2385L71.3788 25.3272L71.4651 25.368L71.5466 25.4063L71.6953 25.4758L71.8151 25.5334H71.8175C71.8175 25.5334 71.8223 25.5358 71.8223 25.5382L71.8751 25.5621L71.923 25.5837L71.9973 25.6197L72.0429 25.6412H72.0501V25.6436H72.0549V25.646H72.0573C72.2227 25.7251 72.3977 25.7611 72.5679 25.7611C73.0162 25.7611 73.4477 25.507 73.6514 25.0731C73.9343 24.4738 73.6778 23.7594 73.0785 23.4765L67.4425 20.8155C67.325 20.7604 67.2028 20.7148 67.0781 20.6789L66.1576 20.4152C66.0473 20.384 65.937 20.3696 65.8267 20.3696L65.8747 20.3984ZM45.9869 13.4679C45.5626 13.4679 45.1527 13.6932 44.9345 14.0912C44.6157 14.6713 44.829 15.4001 45.4092 15.7189L51.4119 19.008L51.4239 19.0152L51.7284 19.147C51.8842 19.2142 52.0472 19.2477 52.2054 19.2477C52.6681 19.2477 53.1092 18.9792 53.3058 18.5285C53.5695 17.922 53.2938 17.2148 52.6873 16.9511L52.4811 16.8624L46.5599 13.6165C46.3777 13.5158 46.1787 13.4679 45.9845 13.4679H45.9869ZM28.005 2.04487C27.6526 2.04487 27.305 2.19831 27.07 2.49317C26.6553 3.01098 26.7392 3.76373 27.257 4.17845C27.257 4.17845 30.992 7.17265 31.6704 7.71443C31.6704 7.71443 31.6704 7.71683 31.6728 7.71922V7.72162C31.6728 7.72162 31.68 7.72881 31.6848 7.73121H31.6872C31.6872 7.73121 31.6872 7.73601 31.6896 7.73601H31.6944C31.6944 7.73601 31.6944 7.7384 31.6944 7.7408C31.6944 7.7408 31.6944 7.74319 31.6968 7.74559C31.6968 7.74559 31.6968 7.74799 31.6992 7.75039L31.7279 7.77436L31.7351 7.78156H31.7375H31.7423V7.78635L31.7495 7.79114L31.7567 7.79594C31.7567 7.79594 31.7663 7.80313 31.7711 7.80552C31.9892 7.94936 32.893 8.55348 32.893 8.55348C33.0968 8.69012 33.3293 8.75485 33.557 8.75485C33.9454 8.75485 34.3242 8.56786 34.5543 8.22025C34.9211 7.66888 34.7725 6.92573 34.2211 6.55895L33.1399 5.83976L28.705 2.2846C28.4844 2.1072 28.2183 2.02091 27.957 2.02091L28.005 2.04487Z" fill="#75B0BE"/>
<path d="M56.859 55.7894L70.9142 63.0771L75.5409 65.0261L78.0988 65.5127L82.8478 64.5394L84.5523 64.2949L87.477 64.9038L94.4219 47.4804L86.1824 44.5725L76.7324 35.8489L73.0981 32.6988L64.3744 28.5803L59.285 27.1252L53.8576 26.5426L48.8113 24.3419L40.627 19.8566L33.3561 15.9803L28.2667 12.5857L24.2537 9.37098L22.18 8.74288L19.0875 8.82439L17.2344 8.32576H13.5283L10.8193 8.68056L8.32617 10.1069V12.6001L11.4618 17.234L12.3872 17.946L13.7416 21.4389L14.9546 23.3615L20.7273 27.281L28.2811 32.9841L32.8431 35.9759L32.7712 38.1862L33.5551 40.3941L43.5325 48.7342L52.7548 53.1572L56.859 55.7894Z" fill="#F1F6E5"/>
<path d="M78.1059 66.5196L75.2532 65.9754L70.4586 63.9521L56.365 56.6428L52.2753 54.0178L42.9954 49.5684L32.7159 40.9766L31.7786 38.3372L31.8385 36.4961L27.6864 33.7704L20.1518 28.0841L14.2281 24.0614L12.8569 21.8823L11.5672 18.5597L10.7329 17.9172L7.33838 12.9021V9.53157L10.5004 7.72642L13.5305 7.33566H17.3662L19.2073 7.8319L22.3165 7.75039L24.7258 8.47917L28.8539 11.7874L33.8666 15.1292L41.0944 18.984L49.2499 23.4525L54.1188 25.5765L59.4791 26.1519L64.7267 27.6502L73.647 31.8622L77.4083 35.1225L86.7097 43.7071L95.7259 46.8907L88.0929 66.0401L84.5282 65.2969L83.0251 65.5127L78.1131 66.5196H78.1059ZM75.8285 64.0743L78.0915 64.5059L82.7087 63.5613L84.5857 63.2928L86.8655 63.7675L93.1224 48.0701L85.6621 45.4379L76.073 36.5872L72.5514 33.5355L64.0243 29.5081L59.0955 28.0985L53.6034 27.5087L48.3366 25.2073L40.1523 20.722L32.8502 16.8265L27.6505 13.3552L23.7861 10.2579L22.0481 9.73294L18.97 9.81205L17.1049 9.30862H13.5953L11.1429 9.63226L9.31613 10.6775V12.2956L12.1929 16.546L13.2117 17.3299L14.6309 20.9905L15.6809 22.659L21.3217 26.4923L28.8491 32.1738L33.8474 35.4533L33.7635 38.0304L34.394 39.8091L44.0694 47.8951L53.2366 52.2917L57.3527 54.9335L71.3312 62.1829L75.8261 64.0767L75.8285 64.0743Z" fill="#121212"/>
<path d="M57.3648 41.7222L56.2237 40.9239L48.4637 38.1982L45.2058 36.6855L37.9709 34.3146L36.0818 34.5927L33.9123 35.8177L33.2314 34.6143L35.6239 33.2622L38.0931 32.8978L45.7524 35.4149L49.0151 36.93L56.8614 39.6821L58.1583 40.5907L57.3648 41.7222Z" fill="black"/>
<path d="M42.0894 28.6139L33.6869 24.107L25.4882 19.9454L19.495 16.2296L17.1265 15.6638H15.5419L13.931 16.8745L13.0991 15.7669L15.0793 14.2806H17.2896L20.0344 14.9351L26.193 18.7539L34.327 22.882L42.7438 27.3937L42.0894 28.6139Z" fill="black"/>
<path d="M43.0144 25.7252L39.548 24.3635L30.6061 18.8498L26.1975 16.1553L22.2253 13.4775L19.9263 12.4131L20.5088 11.1593L22.9516 12.298L26.9575 14.9998L31.3301 17.6703L40.1689 23.1193L43.5202 24.4378L43.0144 25.7252Z" fill="black"/>
<path d="M34.6069 37.6684L35.0816 39.1859L38.2748 41.9044L40.4731 43.2876L41.3409 43.3523L42.6138 40.6746L40.8063 39.2506L36.2539 36.8773L34.6069 37.6684Z" fill="black"/>
</svg>
