<svg width="168" height="45" viewBox="0 0 168 45" fill="none" xmlns="http://www.w3.org/2000/svg">
<path d="M143.168 20.008V31H141.488V16.024H143.144L148.928 29.008L154.688 16.024H156.368V31H154.664V19.984L149.768 31H148.088L143.168 20.008ZM161.318 18.712V31H159.59V18.712H161.318ZM159.134 16.384C159.134 16.016 159.254 15.712 159.494 15.472C159.75 15.216 160.062 15.088 160.43 15.088C160.798 15.088 161.102 15.216 161.342 15.472C161.598 15.712 161.726 16.016 161.726 16.384C161.726 16.752 161.598 17.064 161.342 17.32C161.102 17.56 160.798 17.68 160.43 17.68C160.062 17.68 159.75 17.56 159.494 17.32C159.254 17.064 159.134 16.752 159.134 16.384Z" fill="#61B3C1"/>
<path d="M42.1231 38.6992L38.4529 35.3694L36.2402 35.1728L27.0683 33.7536L19.2124 32.9361L15.71 30.9488L13.7586 29.2779L13.3247 29.206L6.03457 25.3847L2.39551 18.61L6.32464 12.3268L9.74795 9.86477L13.9648 7.59935L15.7124 7.18942L18.4141 5.64798L22.547 4.81372L28.3508 5.8853L33.7423 6.40071L41.555 6.37914L50.3913 6.45346L54.5722 6.11065L59.1366 4.25756L65.149 2.94864L75.8432 2.39487L81.3066 3.62468L92.3628 6.47742L105.677 4.41577L109.012 33.6721L102.443 35.6139L102.072 35.8872L97.6776 39.5526L93.5375 40.8519L87.8032 41.3961L71.8517 41.6263L67.2034 41.2643L56.8592 41.7365L42.1231 38.6992Z" fill="#E9EEDB"/>
<path d="M75.7827 0C75.7612 0 75.742 0 75.7204 0L68.5382 0.371575C67.8765 0.405136 67.3683 0.968496 67.4019 1.63014C67.4354 2.27022 67.9652 2.76645 68.5981 2.76645C68.6197 2.76645 68.6389 2.76645 68.6604 2.76645C68.6604 2.76645 69.3341 2.7305 70.2666 2.68255C70.3529 2.67776 70.4416 2.67296 70.5327 2.66817C70.5807 2.66577 70.6262 2.66337 70.6742 2.66097C70.6933 2.66097 70.7125 2.66097 70.7293 2.65857C70.8875 2.65138 71.0505 2.64179 71.2183 2.6322H71.2231C71.2543 2.6322 71.2855 2.6298 71.3166 2.6274H71.319C71.319 2.6274 71.3334 2.6274 71.3406 2.6274H71.367C71.367 2.6274 71.3814 2.6274 71.3861 2.6274H71.3885C71.3885 2.6274 71.3909 2.6274 71.3933 2.6274H71.4029C71.4029 2.6274 71.4245 2.6274 71.4365 2.6274H71.4413C71.4413 2.6274 71.4533 2.6274 71.4581 2.6274H71.4677C71.5803 2.62021 71.6954 2.61543 71.8105 2.60824H71.8153C71.8344 2.60824 71.8536 2.60823 71.8728 2.60584H71.8752C71.8944 2.60584 71.9159 2.60583 71.9351 2.60344C71.9495 2.60344 71.9615 2.60344 71.9759 2.60344C71.9759 2.60344 71.9879 2.60344 71.9951 2.60344H71.9998C71.9998 2.60344 72.019 2.60344 72.0286 2.60344C72.1101 2.59864 72.1916 2.59385 72.2755 2.59145H72.2827C72.2995 2.59145 72.3163 2.59145 72.3331 2.58905C72.3331 2.58905 72.3451 2.58905 72.3522 2.58905H72.357C72.357 2.58905 72.3714 2.58905 72.3786 2.58905H72.3906C72.3906 2.58905 72.393 2.58905 72.3954 2.58905H72.4098C72.4098 2.58905 72.429 2.58905 72.4386 2.58905H72.4433C72.4433 2.58905 72.4457 2.58905 72.4481 2.58905H72.4505C72.4505 2.58905 72.4577 2.58905 72.4625 2.58905H72.4745C72.4745 2.58905 72.4769 2.58905 72.4793 2.58905H72.4889C72.4889 2.58905 72.4985 2.58905 72.5033 2.58905H72.5201C72.5201 2.58905 72.5273 2.58905 72.532 2.58905C72.532 2.58905 72.5416 2.58905 72.544 2.58905H72.5512C72.5512 2.58905 72.5536 2.58905 72.556 2.58905H72.5608C72.5728 2.58905 72.5848 2.58905 72.5968 2.58905H72.6016C72.6016 2.58905 72.6064 2.58905 72.6088 2.58905H72.6231C72.6231 2.58905 72.6279 2.58905 72.6327 2.58905C72.6327 2.58905 72.6423 2.58905 72.6495 2.58905H72.6663H72.6711H72.707C72.707 2.58905 72.7094 2.58905 72.7118 2.58905H72.7406C72.7406 2.58905 72.743 2.58905 72.7454 2.58905H72.7502C72.7502 2.58905 72.755 2.58905 72.7574 2.58905L72.8365 2.58425C72.8365 2.58425 72.8389 2.58425 72.8413 2.58425H72.8581H72.8773H72.9132C72.9132 2.58425 72.9252 2.58185 72.93 2.58185H72.9372C72.9372 2.58185 72.9372 2.58185 72.942 2.58185H72.9564C72.9564 2.58185 72.9612 2.58185 72.9635 2.58185H72.9803H72.9899H72.9971C72.9971 2.58185 72.9995 2.58185 73.0019 2.58185H73.0403H73.0594C73.0594 2.58185 73.0594 2.58185 73.0618 2.58185H73.069H73.0762H73.081H73.0858C73.0858 2.58185 73.0858 2.58185 73.0882 2.58185H73.117L73.2344 2.57467H73.2392L73.3184 2.56987L73.3975 2.56507H73.4646C73.4646 2.56507 73.4646 2.56029 73.467 2.56029H73.4718H73.4766H73.4934C73.4934 2.56029 73.4933 2.56029 73.4957 2.56029H73.5077C73.5077 2.56029 73.5149 2.56029 73.5173 2.56029H73.5317H73.5461C73.5461 2.56029 73.5557 2.56029 73.5605 2.56029H73.5653C73.5653 2.56029 73.5701 2.56029 73.5725 2.56029H73.5868C73.5868 2.56029 73.5892 2.56029 73.5916 2.56029H73.6252H73.63H73.6468H73.7019L73.7067 2.55789L73.781 2.55309H73.817H73.8338C73.8338 2.55309 73.8338 2.55309 73.8362 2.55309H73.8505C73.8505 2.55309 73.8529 2.55309 73.8553 2.55309H73.8913H73.9081C73.9081 2.55309 73.9081 2.55309 73.9105 2.55309L74.0016 2.5483C74.0016 2.5483 74.0016 2.5483 74.004 2.5483H74.0399H74.0759H74.1382V2.5459H74.1454C74.1454 2.5459 74.1478 2.5459 74.1502 2.5459H74.155H74.1622L74.6848 2.51954H74.6896L75.4999 2.47877L75.8091 2.46199C76.4708 2.42843 76.979 1.86507 76.9454 1.20342C76.9119 0.563349 76.3821 0.0671161 75.7492 0.0671161L75.7827 0ZM54.3176 3.72296C54.2384 3.72296 54.1569 3.73016 54.0754 3.74694L50.3021 4.05618L47.6268 4.0346C47.6268 4.0346 47.6196 4.0346 47.6172 4.0346C46.9603 4.0346 46.4233 4.5644 46.4185 5.22365C46.4137 5.8853 46.9435 6.42708 47.6052 6.43188L50.3908 6.45586L50.5706 6.44147L51.0453 6.40311L51.7141 6.34798L52.4812 6.28565L53.2484 6.22331L53.9172 6.16818L54.3919 6.12983L54.5717 6.11545L54.7682 6.03633C55.3819 5.78702 55.6768 5.08701 55.4275 4.47571C55.2453 4.02981 54.8258 3.75173 54.3751 3.73016H54.3655C54.3487 3.73016 54.3319 3.73016 54.3176 3.73016V3.72296ZM26.3126 3.09247C25.7468 3.09247 25.241 3.49522 25.1355 4.07297C25.0157 4.72502 25.4448 5.34832 26.0968 5.47058C26.0968 5.47058 26.8232 5.60482 27.4489 5.71989H27.4585C27.4585 5.71989 27.4585 5.71989 27.4609 5.71989H27.4657H27.4705C27.4705 5.71989 27.4705 5.71989 27.4729 5.71989H27.4825L27.5064 5.72469L27.5304 5.72948C27.5304 5.72948 27.5352 5.72948 27.54 5.72948H27.5448C27.5448 5.72948 27.5496 5.72948 27.552 5.72948H27.5568C27.5568 5.72948 27.5616 5.72948 27.5664 5.73187H27.5712C27.5712 5.73187 27.5808 5.73428 27.5856 5.73667H27.5951H27.6023C27.6263 5.74147 27.6479 5.74626 27.6695 5.75106H27.679C27.679 5.75106 27.679 5.75106 27.6814 5.75106H27.691H27.7078V5.75346H27.7126C27.7126 5.75346 27.7222 5.75584 27.727 5.75824C27.727 5.75824 27.7294 5.75824 27.7318 5.75824H27.7342L27.7917 5.76784L27.8133 5.77262C27.8133 5.77262 27.8133 5.77262 27.8157 5.77262L27.902 5.78941C27.902 5.78941 27.902 5.78941 27.9044 5.78941L27.938 5.79661C27.938 5.79661 27.938 5.79661 27.9404 5.79661C27.9404 5.79661 27.9403 5.79661 27.9427 5.79661L27.9715 5.80139H27.9739C27.9739 5.80139 27.9787 5.80139 27.9811 5.80139H27.9979V5.80379H28.0171C28.0171 5.80379 28.0171 5.80619 28.0171 5.80859H28.0243H28.0338H28.053V5.81099L28.2328 5.84455L28.3263 5.86132H28.3407L33.2048 6.32639C33.2431 6.33119 33.2815 6.33119 33.3198 6.33119C33.9311 6.33119 34.4513 5.86613 34.5113 5.24524C34.5736 4.58599 34.0918 4.00105 33.4325 3.93872L28.6595 3.48323L26.5068 3.08529C26.4325 3.07091 26.3605 3.06611 26.2886 3.06611L26.3126 3.09247ZM18.7995 3.14762C18.7204 3.14762 18.6413 3.15481 18.5622 3.17159L17.9413 3.29625C17.6896 3.34659 17.4499 3.43769 17.2269 3.56474L14.8273 4.93358L13.4201 5.262C13.2163 5.30995 13.0173 5.38428 12.8327 5.48496L8.61592 7.75038C8.52483 7.80072 8.43373 7.85586 8.34983 7.91579L5.05597 10.2867C4.51898 10.6727 4.39672 11.423 4.78268 11.96C5.01762 12.286 5.3844 12.4586 5.75598 12.4586C5.9981 12.4586 6.24023 12.3867 6.45119 12.2357L9.74983 9.86237L9.93203 9.76409L10.4091 9.50758L11.0851 9.14559L11.8594 8.73087L12.6338 8.31614L13.3098 7.95415L13.7868 7.69764L13.969 7.59935L14.0434 7.58258L14.2423 7.53703L14.5228 7.4723L14.844 7.39798L15.1653 7.32367L15.4458 7.25894L15.6447 7.21339L15.719 7.19661L15.8341 7.12949L16.141 6.95449L16.5749 6.70757L17.0711 6.42469L17.5673 6.14181L18.0013 5.89489L18.3081 5.71989L18.4232 5.65276H18.4304H18.4352C18.5478 5.63119 19.0321 5.5329 19.0321 5.5329C19.6817 5.40105 20.1013 4.77058 19.9694 4.12091C19.8543 3.55276 19.3557 3.15961 18.7948 3.15961L18.7995 3.14762ZM1.57993 16.4549C1.17958 16.4549 0.788825 16.6539 0.563481 17.0182L0.364508 17.3371C-0.0909745 18.0659 -0.122139 18.984 0.285397 19.7415L3.92446 26.5162C4.1522 26.9382 4.4998 27.2834 4.92412 27.5063L10.517 30.4382C10.6944 30.5317 10.8861 30.5748 11.0731 30.5748C11.5046 30.5748 11.9218 30.3423 12.1351 29.9324C12.442 29.3474 12.2166 28.6234 11.6341 28.3166L6.03646 25.3823L4.23371 22.0285C4.23371 22.0285 4.23371 22.0261 4.23131 22.0238L4.21932 22.0022C4.21932 22.0022 4.21693 21.9974 4.21453 21.995L4.20734 21.9806C4.20734 21.9806 4.20494 21.9758 4.20254 21.9734L4.19295 21.9542L4.14501 21.8655L4.13062 21.8368L3.55528 20.7676C3.55528 20.7676 3.55048 20.758 3.54809 20.7532L3.0974 19.9142C3.0974 19.9142 3.0974 19.9142 3.0974 19.9118L3.03267 19.7919L3.02548 19.7775C3.02548 19.7775 3.02548 19.7751 3.02308 19.7727L3.01829 19.7631C3.01829 19.7631 3.01829 19.7631 3.01829 19.7607V19.7559C3.01829 19.7559 3.01589 19.7559 3.0135 19.7559L3.00151 19.7344C3.00151 19.7344 2.99911 19.7272 2.99671 19.7248L2.98233 19.6984C2.98233 19.6984 2.98233 19.696 2.97993 19.6936L2.97514 19.6864L2.94158 19.6265C2.94158 19.6265 2.94158 19.6241 2.94158 19.6217V19.6169C2.94158 19.6169 2.93678 19.6145 2.93678 19.6121L2.92719 19.5953C2.92719 19.5953 2.92719 19.5929 2.92719 19.5905L2.91521 19.5689C2.91521 19.5689 2.91521 19.5689 2.91521 19.5665L2.91041 19.5569C2.91041 19.5569 2.90562 19.5474 2.90322 19.545V19.5402C2.90322 19.5402 2.89843 19.5402 2.89843 19.5378L2.88165 19.5042L2.87925 19.497L2.82171 19.3915C2.82171 19.3915 2.81932 19.3867 2.81692 19.3844L2.745 19.2525C2.745 19.2525 2.745 19.2525 2.745 19.2501V19.2453H2.7426L2.64431 19.0607L2.60596 18.9912L2.56041 18.9049L2.55562 18.8977V18.8929C2.55562 18.8929 2.55562 18.8929 2.55562 18.8905L2.52685 18.8402L2.51486 18.821L2.50767 18.8066L2.50288 18.797L2.41418 18.6316L2.41897 18.622V18.6172H2.42137V18.6148C2.46931 18.5381 2.60596 18.3176 2.60596 18.3176C2.95596 17.7566 2.78575 17.0158 2.22479 16.6658C2.02822 16.5412 1.80767 16.4837 1.58951 16.4837L1.57993 16.4549ZM17.0927 31.9101C16.6756 31.9101 16.2704 32.1283 16.0499 32.5166C15.7238 33.092 15.9252 33.8231 16.5006 34.1516L18.03 35.0194C18.3177 35.1824 18.6365 35.2855 18.965 35.319L24.3684 35.88C24.4116 35.8848 24.4523 35.8872 24.4931 35.8872C25.0996 35.8872 25.6198 35.4293 25.6845 34.8132C25.754 34.1563 25.2746 33.5666 24.6177 33.4971L19.2143 32.9338L19.1759 32.9122L19.1639 32.905L19.1543 32.8978C19.1543 32.8978 19.1543 32.8978 19.1519 32.8978H19.1495H19.1448L19.1376 32.893C19.1376 32.893 19.1352 32.893 19.1328 32.8906H19.128C18.7732 32.6868 17.7112 32.0851 17.7112 32.0851C17.5242 31.9796 17.3204 31.9293 17.1215 31.9293L17.0927 31.9101ZM37.9562 35.3382C37.6301 35.3382 37.3041 35.4701 37.0692 35.7314C36.6233 36.2204 36.6616 36.9803 37.1507 37.4238L40.5117 40.4756C40.8305 40.7632 41.2188 40.9622 41.6384 41.0485L44.2346 41.5831C44.3161 41.5999 44.3976 41.6071 44.4767 41.6071C45.0329 41.6071 45.5315 41.2163 45.649 40.6506C45.7833 40.0033 45.3685 39.3704 44.7213 39.2362L42.1202 38.6992L38.7568 35.6474C38.5267 35.4389 38.239 35.3382 37.9538 35.3382H37.9562ZM66.0858 41.317C66.069 41.317 66.0522 41.317 66.0354 41.317L59.1553 41.6311H59.1193H59.0881C59.0881 41.6311 59.0881 41.6311 59.0857 41.6311H59.0546H59.033C59.033 41.6311 59.033 41.6311 59.0306 41.6311C59.0306 41.6311 59.021 41.6311 59.0162 41.6311H59.0114C59.0114 41.6311 59.0114 41.6311 59.009 41.6311H59.0042C59.0042 41.6311 59.0042 41.6311 59.0018 41.6311C59.0018 41.6311 58.9994 41.6311 58.997 41.6311H58.9874C58.9874 41.6311 58.9731 41.6311 58.9659 41.6311H58.9635C58.9635 41.6311 58.9635 41.6311 58.9611 41.6311C58.9611 41.6311 58.9515 41.6311 58.9467 41.6311H58.9443C58.8844 41.6334 58.8508 41.6358 58.8508 41.6358C58.1891 41.667 57.6785 42.2256 57.7073 42.8872C57.7361 43.5297 58.2659 44.0307 58.9035 44.0307C58.9227 44.0307 58.9395 44.0307 58.9587 44.0307L66.1433 43.7023C66.805 43.6711 67.3156 43.1126 67.2868 42.4509C67.258 41.8084 66.7282 41.3074 66.0906 41.3074L66.0858 41.317ZM87.6061 41.3985C87.6061 41.3985 87.5941 41.3985 87.5893 41.3985C87.5893 41.3985 85.4749 41.4297 82.8667 41.4656H82.8643H82.8595H82.8547H82.8499C82.8499 41.4656 82.8451 41.4656 82.8427 41.4656H82.8355C82.8355 41.4656 82.8235 41.4656 82.8187 41.4656H82.8092C82.8092 41.4656 82.8068 41.4656 82.8044 41.4656H82.7708C82.7708 41.4656 82.766 41.4656 82.7636 41.4656H82.7372H82.73H82.7253L73.2129 41.6023C72.5512 41.6143 72.0262 42.1561 72.0358 42.8177C72.0454 43.4746 72.58 43.9996 73.2344 43.9996C73.2392 43.9996 73.2464 43.9996 73.2512 43.9996L87.6325 43.791C88.2941 43.7814 88.8239 43.2372 88.8143 42.5756C88.8047 41.9187 88.2701 41.3937 87.6157 41.3937L87.6061 41.3985ZM107.652 34.1228C107.539 34.1228 107.427 34.1396 107.314 34.1707L102.44 35.6115L102.069 35.8848L97.6747 39.5502L94.6924 40.4875C94.0644 40.6865 93.7144 41.3602 93.9133 41.9882C94.0739 42.5013 94.5462 42.8273 95.0568 42.8273C95.1767 42.8273 95.2966 42.8105 95.4164 42.7722L98.3938 41.8372C98.6935 41.7437 98.9692 41.5927 99.2113 41.3913L103.529 37.7906L107.993 36.4721C108.628 36.2851 108.99 35.6187 108.803 34.9834C108.649 34.4608 108.172 34.1252 107.655 34.1252L107.652 34.1228ZM108.774 19.8039C108.728 19.8039 108.683 19.8063 108.637 19.8111C107.981 19.8854 107.508 20.4799 107.583 21.1368L107.657 21.7936C107.657 21.7936 107.657 21.796 107.657 21.7984L107.662 21.8487V21.8751H107.664V21.8991C107.664 21.8991 107.666 21.9015 107.666 21.9039V21.9135V21.9231V21.9279V21.9375C107.666 21.9375 107.669 21.9542 107.671 21.9614C107.887 23.8457 108.39 28.2782 108.39 28.2782C108.46 28.8895 108.978 29.3402 109.58 29.3402C109.625 29.3402 109.671 29.3378 109.716 29.333C110.373 29.2587 110.845 28.6642 110.771 28.0073L109.956 20.8611C109.886 20.2498 109.369 19.7991 108.767 19.7991L108.774 19.8039ZM105.677 2.0185C105.554 2.0185 105.432 2.02809 105.31 2.04727L100.621 2.77365C99.9665 2.87433 99.5182 3.48803 99.6188 4.14248C99.7099 4.73461 100.221 5.15892 100.803 5.15892C100.863 5.15892 100.925 5.15413 100.985 5.14454L105.674 4.41817L105.952 6.8514C106.022 7.4627 106.542 7.9134 107.141 7.9134C107.187 7.9134 107.233 7.911 107.278 7.9062C107.935 7.83189 108.407 7.23736 108.333 6.5805L108.055 4.14968C107.981 3.50242 107.645 2.91029 107.127 2.51474C106.708 2.1935 106.195 2.0233 105.672 2.0233L105.677 2.0185ZM80.1746 0.942127C79.6256 0.942127 79.1317 1.32089 79.0071 1.87705C78.8608 2.52192 79.2684 3.1644 79.9133 3.31063C79.9133 3.31063 81.0016 3.55516 81.2557 3.61269C81.2557 3.61269 81.2581 3.61269 81.2605 3.61269C81.2605 3.61269 81.2605 3.61269 81.2629 3.61269C81.2629 3.61269 81.2653 3.61269 81.2677 3.61269H81.2725H81.2797H81.2941L81.3564 3.63186L81.4091 3.64624H81.4187V3.64864H81.4235H81.4283H81.4379V3.65104H81.4499V3.65344H81.4619V3.65584C81.4619 3.65584 81.4619 3.65584 81.4643 3.65584C81.4643 3.65584 81.4787 3.66063 81.4859 3.66063C81.4859 3.66063 81.4955 3.66063 81.4978 3.66303C82.5263 3.92912 86.8605 5.04626 86.8605 5.04626C86.9612 5.07263 87.0619 5.08461 87.1602 5.08461C87.6948 5.08461 88.1814 4.72502 88.3205 4.18563C88.4859 3.54556 88.0999 2.89111 87.4599 2.7257L81.879 1.28494C81.855 1.27774 81.8311 1.27295 81.8071 1.26815L80.4119 0.95411C80.3232 0.934932 80.2345 0.925344 80.1482 0.925344L80.1746 0.942127Z" fill="#75B0BE"/>
<path d="M72.0384 35.6954L87.4816 35.4724L92.3577 35.0098L94.7789 34.2474L98.4108 31.2197L99.7653 30.2224L102.558 29.3978L100.484 11.2192L92.0628 12.521L79.9134 9.38771L75.337 8.35689L65.9397 8.84353L60.8935 9.94148L55.9623 11.9456L50.6091 12.3843L41.5043 12.3076L33.4662 12.3292L27.5282 11.7634L22.5946 10.8524L20.5234 11.2696L17.9031 12.7655L16.0788 13.1922L12.8952 14.9038L10.7329 16.4597L9.24658 18.8354L10.3973 20.9785L15.2302 23.5124L16.3545 23.697L19.1305 26.0727L21.0603 27.1683L27.8302 27.8731L36.9543 29.2851L42.2546 29.7526L43.2136 31.6848L44.906 33.2214L57.3287 35.7817L67.2966 35.3262L72.0384 35.6954Z" fill="#F1F6E5"/>
<path d="M57.252 36.7742L44.4433 34.1348L42.4129 32.2913L41.617 30.6899L36.8032 30.2632L27.7032 28.8536L20.7511 28.1296L18.56 26.8854L15.923 24.6272L14.9137 24.4618L9.67089 21.7121L8.10547 18.797L9.99931 15.7692L12.4302 14.0312L15.7312 12.2596L17.5411 11.8353L20.1757 10.3322L22.5898 9.84559L27.6672 10.7829L33.5142 11.3415L41.5019 11.3175L50.5732 11.3942L55.7321 10.9723L60.6034 8.99455L65.8102 7.86064L65.8918 7.85584L75.4257 7.36201L80.1651 8.4288L92.1155 11.5141L101.352 10.0853L103.634 30.1097L100.214 31.1214L99.0245 31.9964L95.2656 35.132L92.5566 35.9831L87.4984 36.4577L72.012 36.6807L67.2846 36.3139L57.2544 36.7718L57.252 36.7742ZM45.3711 32.308L57.4078 34.7892L67.3133 34.3361L72.0695 34.7053L87.4265 34.4848L92.1587 34.0365L94.2947 33.3652L97.8234 30.4238L99.3169 29.3258L101.479 28.6858L99.6166 12.3531L92.01 13.5302L79.6809 10.349L75.2507 9.35176L66.0692 9.82641L61.1859 10.8908L56.1924 12.9189L50.6427 13.372L41.4947 13.2953L33.4207 13.3192L27.3484 12.7367L22.6042 11.8593L20.8757 12.2069L18.2675 13.6956L16.4312 14.1247L13.4178 15.7429L11.4664 17.1477L10.3877 18.8737L11.1236 20.245L15.5466 22.5631L16.786 22.7669L19.6987 25.2601L21.3648 26.2046L27.9789 26.8926L37.0693 28.3022L42.8899 28.8152L44.0118 31.0758L45.3663 32.3057L45.3711 32.308Z" fill="black"/>
<path d="M43.1152 29.1317L41.9453 28.3933L43.3789 26.1231L45.3399 24.6679L53.0878 23.2943L56.5903 23.0905L64.6067 21.8344L66.141 22.0165L65.978 23.3902L64.6331 23.2296L56.7053 24.469L53.2101 24.6727L45.9032 25.972L44.4121 27.0796L43.1152 29.1317Z" fill="black"/>
<path d="M17.2006 22.0717L15.9468 21.4892L16.9632 19.2933L18.8691 18.2696L21.5348 17.5648L28.5924 18.0035L37.4863 17.7974L46.8021 17.7902V19.1734L37.5031 19.1806L28.566 19.3868H28.5349L21.6715 18.9576L19.3797 19.5666L18.0252 20.2929L17.2006 22.0717Z" fill="black"/>
<path d="M42.6575 16.6946L32.4283 16.0833L27.3557 15.798L22.7793 15.0692L19.3296 15.0333L19.344 13.6501L22.9471 13.6956L27.5379 14.4244L32.5074 14.7025L42.6167 15.3042L46.1047 14.8894L46.2678 16.2631L42.6575 16.6946Z" fill="black"/>
<path d="M44.5537 30.3926L45.6613 31.4786L49.6599 32.3392L52.1866 32.5142L52.9633 32.169L52.8219 29.2803L50.6116 28.8895L45.6037 28.9519L44.5537 30.3926Z" fill="black"/>
</svg>
