<svg width="165" height="74" viewBox="0 0 165 74" fill="none" xmlns="http://www.w3.org/2000/svg">
<path d="M130.464 46V31.024H142.824V32.656H132.192V39.184H142.824V40.816H132.192V46H130.464ZM147.459 46C146.595 46 145.931 45.8 145.467 45.4C145.003 45 144.771 44.384 144.771 43.552C144.771 42.72 145.003 42.104 145.467 41.704C145.931 41.288 146.595 41.08 147.459 41.08H155.811C155.667 40.248 155.171 39.832 154.323 39.832H145.539V38.2H154.323C155.299 38.2 156.083 38.512 156.675 39.136C157.283 39.744 157.587 40.568 157.587 41.608V46H147.459ZM146.475 43.552C146.475 43.872 146.555 44.096 146.715 44.224C146.875 44.336 147.123 44.392 147.459 44.392H155.859V42.712H147.459C147.123 42.712 146.875 42.776 146.715 42.904C146.555 43.016 146.475 43.232 146.475 43.552Z" fill="#61B3C1"/>
<path d="M11.7444 71.0911L8.49133 66.0257L6.50639 60.3034L12.5188 51.1338L14.7698 49.964L9.95846 49.1729L2.39746 41.9091V32.1187L4.08275 28.5779L8.72866 24.1477L10.2533 23.4333L12.9551 18.6052L17.4643 15.0908L19.8089 14.3477L20.1397 13.7364L23.8794 9.90312L30.038 7.44832L32.4928 7.15104L33.8281 5.50892L37.6973 4.49248L49.7628 2.39726H53.1645L61.0588 6.01714L70.0773 11.7586L77.0773 16.0929L84.8061 19.5617L95.9511 32.8498L76.9335 65.3233L66.5701 64.6281L54.2697 64.7791L47.2289 65.9346L42.4583 66.3301L34.5041 68.6771L28.3527 70.523L22.7671 71.0911H11.7444Z" fill="#E9EEDB"/>
<path d="M53.1643 0H49.7602C49.6236 0 49.4845 0.0119776 49.3503 0.0359503L45.6177 0.683217C44.9657 0.795889 44.5294 1.41679 44.642 2.06885C44.7427 2.65139 45.2485 3.06371 45.8215 3.06371C45.8886 3.06371 45.9581 3.05891 46.0277 3.04693C46.0277 3.04693 49.1082 2.51234 49.6715 2.41406C49.6715 2.41406 49.6739 2.41406 49.6763 2.41406C49.6763 2.41406 49.6787 2.41406 49.6811 2.41406C49.6811 2.41406 49.6883 2.41406 49.6907 2.41406C49.6907 2.41406 49.6955 2.41406 49.6979 2.41406H49.7027H49.7075H49.7123L49.7482 2.40686H53.1524L53.4904 2.56269L54.3846 2.97261L55.6479 3.55276L57.0983 4.2168L58.5486 4.88085L59.812 5.46098L60.7062 5.87092L61.0442 6.02675L63.4175 7.53703C63.6165 7.66169 63.837 7.72401 64.0576 7.72401C64.4531 7.72401 64.8415 7.52743 65.0692 7.16784C65.424 6.60928 65.261 5.86853 64.7024 5.51373L62.3315 4.00345C62.2404 3.94592 62.1421 3.89317 62.0438 3.84762L54.1496 0.225344C53.9866 0.151029 53.8188 0.115064 53.651 0.115064C53.5 0.0455435 53.3298 0.00718421 53.15 0.00718421L53.1643 0ZM32.205 4.77297L29.7502 5.06784C29.544 5.09181 29.3426 5.14454 29.1485 5.22125L24.9412 6.89935C24.3251 7.14387 24.0255 7.84148 24.2724 8.45757C24.4594 8.92744 24.9101 9.21272 25.3871 9.21272C25.5358 9.21272 25.6844 9.18636 25.8306 9.12642C25.8306 9.12642 29.0981 7.8247 29.8724 7.51545C29.8724 7.51545 29.8748 7.51545 29.8772 7.51545H29.8796H29.882H29.8844C29.8844 7.51545 29.8868 7.51545 29.8892 7.51545H29.894H29.8988L29.9108 7.51065H29.9132L29.9683 7.48908L30.0163 7.4699L30.1217 7.45792L30.3998 7.42435L30.793 7.3764L31.2437 7.32127L31.6944 7.26614L32.0875 7.21819L32.3656 7.18462L32.4711 7.17264C32.4926 7.14627 32.5885 7.02881 32.5885 7.02881C33.0057 6.51579 32.929 5.76064 32.4135 5.34352C32.356 5.29557 32.2937 5.25482 32.2313 5.22125L32.181 4.79933L32.205 4.77297ZM13.7508 15.2658C13.4943 15.2658 13.233 15.3473 13.0148 15.5199L11.4805 16.7162C11.2288 16.9128 11.0179 17.1573 10.862 17.4354L8.29936 22.0142C7.97573 22.5919 8.18189 23.3231 8.75964 23.6467C8.94423 23.7498 9.1456 23.8001 9.34457 23.8001C9.39492 23.8001 9.44526 23.7977 9.4956 23.7905L10.1668 23.4765C10.2555 23.395 10.3323 23.2967 10.3922 23.1864C10.3922 23.1864 12.2429 19.8782 12.799 18.8857C12.799 18.8857 12.8014 18.8809 12.8038 18.8785C12.8038 18.8785 12.8038 18.8785 12.8038 18.8761C12.8038 18.8761 12.8038 18.8713 12.8062 18.8713C12.8062 18.8713 12.8134 18.8546 12.8182 18.8474C12.8182 18.8474 12.8182 18.8426 12.8206 18.8402V18.8354H12.823C12.823 18.8354 12.8278 18.8258 12.8302 18.8234C12.8302 18.8234 12.8302 18.8234 12.8302 18.821C12.8302 18.821 12.8374 18.8066 12.8422 18.8018C12.8422 18.8018 12.8422 18.8018 12.8422 18.7994V18.797V18.7922H12.8446V18.7874H12.847L12.8518 18.7778L12.8566 18.7683L12.8662 18.7491L12.8758 18.7299L12.8806 18.7227L12.9093 18.67L12.9381 18.6196L12.9549 18.6076L12.974 18.5933C12.974 18.5933 12.974 18.5933 12.9764 18.5933C12.9764 18.5933 12.9788 18.5909 12.9812 18.5885C12.9812 18.5885 12.9908 18.5813 12.9956 18.5765C13.2809 18.3535 14.4699 17.4282 14.4699 17.4282C14.9925 17.0206 15.086 16.2679 14.6785 15.7453C14.4412 15.4432 14.0888 15.2826 13.7316 15.2826L13.7508 15.2658ZM4.12091 25.6868C3.82365 25.6868 3.52639 25.7971 3.29385 26.0176L2.42844 26.8447C2.21748 27.046 2.04487 27.2858 1.91782 27.5495L0.232536 31.0902C0.0791103 31.4115 0 31.7639 0 32.1211V41.3865C0 42.0482 0.536989 42.5852 1.19864 42.5852C1.86028 42.5852 2.39727 42.0482 2.39727 41.3865V32.1211L2.46919 31.97L2.66097 31.5697L2.93187 31.0015L3.24111 30.3519L3.55036 29.7022L3.82125 29.1341L4.01304 28.7337L4.08495 28.5827L4.95517 27.7532C5.43222 27.2954 5.449 26.5402 4.99112 26.0608C4.75619 25.8138 4.43975 25.6892 4.12331 25.6892L4.12091 25.6868ZM6.37675 46.1931C6.06271 46.1931 5.74866 46.3153 5.51133 46.5622C5.05345 47.0393 5.06784 47.7992 5.54489 48.2571L8.29696 50.9013C8.60621 51.1986 8.98978 51.4071 9.4069 51.5054L8.78121 52.4571C8.41923 53.0109 8.57265 53.7541 9.12642 54.1161C9.33019 54.2479 9.55793 54.3126 9.78327 54.3126C10.174 54.3126 10.5552 54.1232 10.7853 53.7732L12.5186 51.1315L14.7696 49.9616L9.96067 49.1705L7.20621 46.5239C6.97367 46.3033 6.67641 46.1931 6.37914 46.1931H6.37675ZM5.84216 57.9301C5.4514 57.9301 5.06784 58.1195 4.8377 58.4719L4.49968 58.9873C4.09215 59.6082 3.99625 60.3849 4.23838 61.0873L6.22332 66.8096C6.28565 66.9894 6.36956 67.1596 6.47024 67.3178L6.75072 67.7542C6.98086 68.1114 7.36682 68.3055 7.75997 68.3055C7.98292 68.3055 8.20587 68.2432 8.40724 68.1161C8.96341 67.7589 9.12642 67.0158 8.76923 66.4596C8.76923 66.4596 8.57505 66.1576 8.51032 66.0569C8.51032 66.0569 8.50792 66.0521 8.50553 66.0497V66.0473L8.49594 66.0329L6.511 60.3106V60.3058H6.51339V60.301C6.57812 60.2075 6.84182 59.8048 6.84182 59.8048C7.20381 59.251 7.05038 58.5079 6.49661 58.1459C6.29284 58.014 6.0651 57.9493 5.83976 57.9493L5.84216 57.9301ZM27.9139 70.5758C27.8731 70.5758 27.8323 70.5757 27.7916 70.5829C27.7916 70.5829 23.8649 70.9809 22.9539 71.0744C22.9539 71.0744 22.9539 71.0744 22.9515 71.0744C22.9515 71.0744 22.9515 71.0744 22.9491 71.0744C22.9491 71.0744 22.9491 71.0744 22.9467 71.0744C22.9467 71.0744 22.9299 71.0744 22.9227 71.0768H22.9179C22.9179 71.0768 22.9131 71.0768 22.9107 71.0768H22.906C22.906 71.0768 22.9036 71.0768 22.9012 71.0768C22.9012 71.0768 22.8964 71.0768 22.894 71.0768H22.8868H22.8772H22.8724H22.87H22.8628H22.8604H22.858H22.8556H22.8532H22.8508L22.8101 71.0816H22.7957H20.6549C19.9933 71.0816 19.4563 71.6186 19.4563 72.2802C19.4563 72.9419 19.9933 73.4788 20.6549 73.4788H22.7957C22.8772 73.4788 22.9563 73.474 23.0378 73.4669L28.0625 72.9562C28.7217 72.8891 29.2012 72.3018 29.1341 71.6425C29.0717 71.024 28.5515 70.5638 27.9426 70.5638L27.9139 70.5758ZM48.9116 65.6733C48.8492 65.6733 48.7845 65.6781 48.7198 65.6877L47.2263 65.9322L47.1736 65.937L46.7876 65.9682L46.1212 66.0233L45.2869 66.0928L44.8554 66.1288H44.8482L44.3975 66.1672L43.5633 66.2367L42.8968 66.2918L42.5109 66.323L42.4581 66.3278L42.4222 66.3398L42.391 66.3494H42.3862H42.3814L42.355 66.3565L42.3406 66.3613H42.3335H42.3287L42.3143 66.3661L42.2663 66.3805C42.2663 66.3805 42.2663 66.3805 42.2639 66.3805L42.1944 66.4021L42.1776 66.4069H42.168V66.4093H42.1585V66.4117H42.1537L42.1393 66.4165H42.1321H42.1201C42.1201 66.4165 42.1153 66.4213 42.1129 66.4213H42.1033C42.1033 66.4213 42.0985 66.4261 42.0961 66.4261H42.0937H42.0913C42.0913 66.4261 42.0889 66.4261 42.0865 66.4261H42.0793V66.4285H42.0746H42.0722C42.0722 66.4285 42.0626 66.4333 42.0578 66.4333C42.0578 66.4333 42.0506 66.4357 42.0458 66.4381C42.0458 66.4381 42.0386 66.4381 42.0362 66.4405C42.0362 66.4405 42.0362 66.4405 42.0338 66.4405C42.0338 66.4405 42.0098 66.4476 41.9978 66.4524H41.9954C41.9954 66.4524 41.9954 66.4524 41.993 66.4524H41.9882C41.9882 66.4524 41.9859 66.4524 41.9835 66.4524C41.9835 66.4524 41.9811 66.4524 41.9787 66.4524C41.9787 66.4524 41.9787 66.4524 41.9763 66.4524C41.9763 66.4524 41.9619 66.4572 41.9523 66.4596C41.9523 66.4596 41.9475 66.4596 41.9451 66.462C41.9451 66.462 41.9427 66.462 41.9403 66.462C41.9403 66.462 41.9235 66.4668 41.9163 66.4692C41.9163 66.4692 41.9139 66.4692 41.9115 66.4692H41.9091C41.9091 66.4692 41.9067 66.4692 41.9043 66.4692H41.9019H41.8972H41.8924C41.8708 66.4764 41.8492 66.4812 41.83 66.4884C41.8132 66.4932 41.7989 66.498 41.7869 66.5028C41.7869 66.5028 41.7869 66.5028 41.7845 66.5028C41.7845 66.5028 41.7797 66.5028 41.7773 66.5052C41.7773 66.5052 41.7749 66.5052 41.7725 66.5052C41.7725 66.5052 41.7677 66.5052 41.7653 66.5052C41.7653 66.5052 41.7605 66.5052 41.7581 66.5052C41.7581 66.5052 41.7509 66.5052 41.7461 66.5076C41.7461 66.5076 41.7365 66.51 41.7317 66.5124C41.7174 66.5172 41.7078 66.5196 41.6982 66.5219L41.6838 66.5267C41.0485 66.7137 40.6865 67.3802 40.8735 68.0154C41.0269 68.5381 41.504 68.8761 42.0218 68.8761C42.1345 68.8761 42.2495 68.8593 42.3622 68.8257L42.9855 68.6411L47.5092 68.2672C47.5739 68.2624 47.6362 68.2552 47.6986 68.2432L49.1873 67.9987C49.8417 67.8908 50.2828 67.2747 50.1749 66.6227C50.079 66.0353 49.5708 65.6182 48.9931 65.6182L48.9116 65.6733ZM66.5699 64.6281L55.8301 64.76C55.1685 64.7696 54.6411 65.3113 54.6483 65.973C54.6554 66.6298 55.1924 67.1572 55.8469 67.1572C55.8517 67.1572 55.8565 67.1572 55.8613 67.1572L66.5028 67.0278L70.0459 67.2651C70.0723 67.2651 70.1011 67.2675 70.1274 67.2675C70.7531 67.2675 71.2805 66.7832 71.3213 66.148C71.3644 65.4887 70.8682 64.9182 70.209 64.8726L66.5675 64.6281H66.5699ZM85.4652 51.9297C85.0553 51.9297 84.6549 52.1407 84.432 52.5195L77.1587 64.9374C76.8254 65.5079 77.0196 66.2415 77.5878 66.5747C77.7772 66.6874 77.9857 66.7401 78.1919 66.7401C78.6042 66.7401 79.0046 66.5267 79.2275 66.148L86.496 53.7373C86.8316 53.1667 86.6399 52.4308 86.0669 52.0975C85.8775 51.9849 85.669 51.9321 85.4628 51.9321L85.4652 51.9297ZM92.7361 39.5167C92.3262 39.5167 91.9259 39.7276 91.7029 40.1064L89.2193 44.3496C89.2193 44.3496 89.2193 44.3544 89.2169 44.3568L89.181 44.4191C89.181 44.4191 89.181 44.4191 89.181 44.4215L89.1474 44.479C89.1474 44.479 89.1474 44.479 89.1474 44.4814C89.1474 44.4814 89.145 44.4886 89.1426 44.491L89.1354 44.503L89.1115 44.5437V44.5485C89.1115 44.5485 89.1067 44.5509 89.1067 44.5533L89.0995 44.5653C89.0995 44.5653 89.0995 44.5677 89.0971 44.5701L89.0899 44.5821C89.0899 44.5821 89.0899 44.5869 89.0875 44.5869V44.5917C89.0755 44.6061 89.0683 44.6204 89.0587 44.6348V44.6396H89.0563V44.6444C89.0563 44.6444 89.0515 44.6492 89.0491 44.6516L89.0443 44.6588C89.0443 44.6588 89.0324 44.6804 89.0252 44.69C89.0252 44.69 89.0252 44.6972 89.0228 44.6972V44.702C88.481 45.6201 88.0782 46.3105 88.0782 46.3105C87.7426 46.8811 87.9344 47.6171 88.5073 47.9503C88.6967 48.063 88.9053 48.1157 89.1115 48.1157C89.5238 48.1157 89.9241 47.9023 90.1471 47.5236L93.7814 41.317C94.117 40.7465 93.9252 40.0105 93.3522 39.6773C93.1629 39.5646 92.9543 39.5119 92.7481 39.5119L92.7361 39.5167ZM88.4115 20.7964C88.1406 20.7964 87.8673 20.8874 87.6419 21.0768C87.1361 21.5011 87.069 22.2539 87.4909 22.7621L92.1176 28.2782C92.355 28.5587 92.693 28.705 93.0334 28.705C93.3043 28.705 93.5776 28.6138 93.8029 28.4245C94.3111 28.0001 94.3759 27.2426 93.9516 26.7368L89.3296 21.2279C89.0923 20.945 88.7519 20.7988 88.4115 20.7988V20.7964ZM70.1418 9.17916C69.7463 9.17916 69.3579 9.37574 69.1302 9.73533C68.7754 10.2939 68.9384 11.0347 69.497 11.3895C69.497 11.3895 69.9477 11.6747 70.0531 11.7442L70.0603 11.749L70.0675 11.7538L75.598 15.1795C75.7946 15.3018 76.0128 15.3593 76.2261 15.3593C76.6265 15.3593 77.0196 15.158 77.2474 14.7912C77.595 14.2278 77.4224 13.4895 76.859 13.1419L71.3429 9.72574L70.7747 9.36375C70.5757 9.2367 70.3528 9.17676 70.1322 9.17676L70.1418 9.17916Z" fill="#75B0BE"/>
<path d="M41.363 60.4712L46.5028 60.0469L53.7497 58.8579L66.7333 58.6972L73.6711 59.1647L88.7259 33.4587L81.1386 24.4138L74.2896 21.3405L66.9251 16.7785L58.2182 11.236L51.8703 8.32332H50.2737L38.9609 10.2891L37.2061 10.7494L35.5808 12.7511L31.515 13.2401L27.2431 14.9446L24.9609 17.2819L23.8869 19.2765L20.2694 20.42L17.5437 22.544L15.4964 26.2022V27.5207L12.1211 29.1029L8.96624 32.1139L8.32617 33.4587V39.3824L12.7396 43.6208L23.3235 45.3636L27.3797 44.1026L28.305 42.017L32.5243 41.7293L35.4825 46.09L35.6119 47.7393L34.0921 49.2975L27.0009 52.9893L24.3687 53.7924L18.9269 54.4828L16.6279 55.6791L13.0632 61.1137L13.8615 63.4151L14.9834 65.1627H22.4677L27.1927 64.6832L32.8095 62.998L41.363 60.4712Z" fill="#F1F6E5"/>
<path d="M22.5275 66.3613H14.3264L12.773 63.9425L11.735 60.9483L15.7959 54.7585L18.5624 53.3202L24.1145 52.6153L26.5429 51.8746L33.3656 48.3218L34.3724 47.2886L34.3101 46.4975L31.9152 42.9687L29.1056 43.1605L28.2522 45.0831L23.4049 46.5886L12.1737 44.7403L7.125 39.8906V33.1831L7.97603 31.3947L11.4329 28.0984L14.2952 26.756V25.8857L16.6134 21.7456L19.6987 19.3412L23.0597 18.2792L23.985 16.5651L26.5621 13.9233L31.2152 12.0679L34.955 11.6172L36.5228 9.68976L38.757 9.10723L50.1704 7.12468H52.1338L58.8654 10.2243L67.5723 15.7668L74.8576 20.2785L81.884 23.4309L90.1905 33.3341L74.335 60.4089L66.7044 59.8959L53.8599 60.0517L46.6057 61.2383L41.5882 61.6531L33.1546 64.1438L27.4323 65.8627L22.5347 66.3589L22.5275 66.3613ZM15.6377 63.964H22.4076L26.9576 63.5014L32.4666 61.8472L41.1423 59.2845L46.3564 58.8531L53.6465 57.6568L66.7668 57.4962L73.0117 57.9157L87.2635 33.5786L80.3977 25.3919L73.7261 22.4001L66.2921 17.7973L57.6428 12.2908L51.6064 9.52195H50.3742L39.2149 11.459L37.8868 11.809L36.2015 13.8826L31.8097 14.4124L27.9214 15.9634L25.934 18.0011L24.7066 20.2737L20.8326 21.4987L18.4689 23.3422L16.6925 26.5138V28.283L12.8041 30.1049L9.95139 32.8258L9.52227 33.7272V38.8718L13.298 42.4989L23.2371 44.1338L26.5022 43.1197L27.4994 40.8687L33.1258 40.4851L36.6498 45.6776L36.8488 48.1852L34.8135 50.2708L27.4539 54.1016L24.6203 54.9671L19.2888 55.6431L17.4572 56.5948L14.3863 61.2767L14.9449 62.8853L15.6353 63.9616L15.6377 63.964Z" fill="black"/>
<path d="M44.8342 15.5367L41.7321 14.1175L38.6372 13.8634L38.7523 12.4826L42.0869 12.7607L45.4095 14.2781L44.8342 15.5367Z" fill="black"/>
<path d="M41.4659 20.6933L38.5244 19.334L31.0401 18.9504L27.6456 19.3388L27.4897 17.9652L30.997 17.5624L31.0545 17.5648L38.8624 17.9676L42.046 19.4395L41.4659 20.6933Z" fill="black"/>
<path d="M34.6625 28.8056H32.143L24.4501 27.3553L22.0744 26.5402L18.4545 27.1875L18.2124 25.8258L22.1823 25.1138L24.8505 26.0296L32.27 27.4224H34.6625V28.8056Z" fill="black"/>
<path d="M27.5666 41.0485L25.9149 41.0413L21.9043 40.4276L18.0039 39.1642L15.4053 37.1314L16.2563 36.043L18.6632 37.9248L22.2759 39.0947L26.0707 39.6653H27.5666V41.0485Z" fill="black"/>
<path d="M15.3071 40.6194L14.9883 39.2721L16.4962 38.9197L17.9561 37.9656L18.7112 39.1235L17.0499 40.2095L15.3071 40.6194Z" fill="black"/>
<path d="M16.1387 61.3702L16.5007 62.5329L17.6418 62.9908L21.0747 63.089L24.1623 62.8014L25.1596 61.9479L24.7353 59.9462L23.8507 59.4835L20.3051 59.8L17.8455 60.3514L16.1387 61.3702Z" fill="black"/>
</svg>
