<svg width="165" height="64" viewBox="0 0 165 64" fill="none" xmlns="http://www.w3.org/2000/svg">
<path d="M10.1472 27.656C9.61919 27.656 9.17919 27.736 8.82719 27.896C8.47519 28.056 8.18719 28.28 7.96319 28.568C7.75519 28.84 7.60319 29.168 7.50719 29.552C7.41119 29.936 7.36319 30.352 7.36319 30.8C7.36319 31.248 7.42719 31.672 7.55519 32.072C7.69919 32.456 7.89119 32.792 8.13119 33.08C8.38719 33.368 8.69919 33.6 9.06719 33.776C9.43519 33.936 9.85919 34.016 10.3392 34.016H15.0192C15.5312 34.016 16.0112 34.096 16.4592 34.256C16.9072 34.4 17.2912 34.624 17.6112 34.928C17.9472 35.216 18.2112 35.584 18.4032 36.032C18.5952 36.464 18.6912 36.968 18.6912 37.544C18.6912 38.12 18.5952 38.624 18.4032 39.056C18.2112 39.488 17.9472 39.848 17.6112 40.136C17.2912 40.424 16.9072 40.64 16.4592 40.784C16.0112 40.928 15.5312 41 15.0192 41H5.77919V39.368H15.1632C16.3152 39.368 16.8912 38.76 16.8912 37.544C16.8912 36.936 16.7392 36.464 16.4352 36.128C16.1472 35.792 15.7232 35.624 15.1632 35.624H10.2912C9.52319 35.624 8.84319 35.504 8.25119 35.264C7.67519 35.024 7.19519 34.688 6.81119 34.256C6.42719 33.824 6.13919 33.32 5.94719 32.744C5.75519 32.152 5.65919 31.504 5.65919 30.8C5.65919 30.096 5.75519 29.456 5.94719 28.88C6.13919 28.288 6.42719 27.784 6.81119 27.368C7.19519 26.936 7.67519 26.608 8.25119 26.384C8.84319 26.144 9.52319 26.024 10.2912 26.024H17.7312V27.656H10.1472ZM24.9128 41.024C23.5528 41.024 22.5128 40.696 21.7928 40.04C21.0728 39.384 20.7128 38.408 20.7128 37.112C20.7128 35.816 21.0728 34.84 21.7928 34.184C22.5128 33.528 23.5528 33.2 24.9128 33.2H34.4648V34.832H25.0088C23.2968 34.832 22.4408 35.592 22.4408 37.112C22.4408 38.632 23.2968 39.392 25.0088 39.392H30.1688C31.0648 39.392 31.6728 39.232 31.9928 38.912C32.3288 38.576 32.4968 38.056 32.4968 37.352V35.408H34.2248V37.352C34.2248 38.648 33.9048 39.584 33.2648 40.16C32.6248 40.736 31.6248 41.024 30.2648 41.024H24.9128ZM38.4593 25.064V41H36.7313V25.064H38.4593Z" fill="#61B3C1"/>
<path d="M112.611 60.1128H84.3563L76.7928 53.1186L76.8686 51.9893L73.0398 51.5922L67.3999 44.7151L67.1933 43.5673L63.9613 42.3186L59.9673 34.5715L64.1174 24.6989L64.6477 24.5611L67.3265 16.7612L75.124 14.3028H88.3021L88.6924 14.2638L90.6504 5.76841L100.17 3.74154L109.838 2.29541L129.861 3.16308L136.219 4.66889L152.347 13.5063L161.71 14.7504L161.901 54.9068L151.032 54.8517L147.315 57.34L141.35 59.6652L124.988 61.5544L112.611 60.1128Z" fill="#E9EEDB"/>
<path d="M89.2733 5.48379C88.75 5.48379 88.2771 5.84418 88.1555 6.37442L86.6106 13.084C86.5004 13.566 86.7093 14.0458 87.0996 14.3029H88.3047L88.3666 14.296C88.6008 14.1399 88.7798 13.8966 88.8487 13.5982C88.8487 13.5982 88.991 12.9853 89.1861 12.1291C89.1953 12.0878 89.2045 12.0464 89.216 12.0051V11.9914H89.2183V11.9776C89.2183 11.9776 89.2228 11.973 89.2228 11.9707L89.2366 11.9064L90.3935 6.88631C90.5335 6.26883 90.1479 5.65595 89.5327 5.51364C89.4455 5.49298 89.3583 5.48379 89.2733 5.48379ZM75.604 12.0074H75.122C74.8878 12.0074 74.656 12.0442 74.431 12.113L68.3229 14.0389C67.7192 14.2294 67.3818 14.8744 67.5723 15.4781C67.7261 15.9671 68.1783 16.2815 68.6672 16.2815C68.7797 16.2815 68.8968 16.2655 69.0092 16.2287L75.122 14.3029H75.604C76.2376 14.3029 76.7517 13.7887 76.7517 13.1551C76.7517 12.5216 76.2376 12.0074 75.604 12.0074ZM64.579 20.0782C64.1016 20.0782 63.6563 20.3766 63.4933 20.854L62.823 22.8052C62.4627 23.0508 62.1757 23.3997 62.0013 23.8106L58.0898 33.1163C57.8442 33.7016 58.1197 34.3741 58.7027 34.6198C58.8473 34.6817 58.9988 34.7093 59.148 34.7093C59.5957 34.7093 60.0203 34.4453 60.2062 34.0069L64.1177 24.6989L64.1406 24.692L64.2003 24.6759L64.2852 24.653L64.3816 24.6277L64.478 24.6025L64.563 24.5795L64.6227 24.5635L64.6456 24.5566L64.6571 24.5244L64.664 24.5061V24.4969H64.6686V24.4877H64.6732V24.4831V24.4762V24.4671C64.6732 24.4671 64.68 24.4602 64.68 24.4556C64.8637 23.923 65.6602 21.6 65.6602 21.6C65.8668 21.0009 65.5477 20.3467 64.9463 20.1424C64.8224 20.1011 64.6961 20.0805 64.5744 20.0805L64.579 20.0782ZM61.8199 39.5251C61.6432 39.5251 61.4641 39.5664 61.2943 39.6537C60.7319 39.9429 60.5092 40.6361 60.8008 41.1985L61.9209 43.37C62.178 43.8704 62.6096 44.2583 63.1352 44.4603L65.1667 45.2453C65.247 45.5851 65.4031 45.8995 65.6258 46.1704L69.8723 51.3489C70.0996 51.6266 70.4278 51.769 70.7606 51.769C71.0177 51.769 71.2748 51.684 71.4883 51.5096C71.9772 51.1079 72.0507 50.3848 71.649 49.8959L67.4001 44.7174L67.1935 43.5697L63.9593 42.3209L62.8391 40.1472C62.6348 39.7524 62.2331 39.5251 61.8176 39.5251H61.8199ZM75.0256 51.7988C74.7409 51.9893 74.5458 52.3061 74.5206 52.6734L74.4999 52.9649C74.454 53.6581 74.7226 54.3353 75.2322 54.8058L80.0755 59.2819C80.2959 59.4862 80.5759 59.5872 80.8537 59.5872C81.1636 59.5872 81.4712 59.4633 81.6961 59.2177C82.1254 58.754 82.0978 58.0286 81.6364 57.5994L76.7908 53.121V53.1187V53.1141C76.7931 53.0636 76.8091 52.8317 76.8091 52.8317C76.8321 52.4943 76.7058 52.1798 76.4878 51.9549L75.0256 51.8034V51.7988ZM101.308 60.1129H94.422C93.7885 60.1129 93.2743 60.627 93.2743 61.2606C93.2743 61.8941 93.7885 62.4083 94.422 62.4083H101.308C101.942 62.4083 102.456 61.8941 102.456 61.2606C102.456 60.627 101.942 60.1129 101.308 60.1129ZM114.929 60.3906C114.356 60.3906 113.86 60.8222 113.791 61.4052C113.717 62.0342 114.167 62.6057 114.799 62.6792L121.639 63.4757C121.685 63.4803 121.728 63.4826 121.774 63.4826C122.348 63.4826 122.844 63.051 122.913 62.468C122.986 61.839 122.536 61.2721 121.91 61.1963L117.578 60.6913C117.578 60.6913 117.565 60.6913 117.558 60.689C116.206 60.5306 115.065 60.3975 115.065 60.3975C115.019 60.3929 114.975 60.3906 114.929 60.3906ZM142.775 59.1947C142.638 59.1947 142.498 59.2199 142.36 59.2727L141.348 59.6676L128.739 61.1229C128.112 61.1986 127.662 61.7656 127.736 62.3945C127.802 62.9799 128.3 63.4114 128.874 63.4114C128.918 63.4114 128.961 63.4091 129.007 63.4045L141.612 61.9492C141.807 61.9263 141.999 61.8781 142.181 61.8069L143.191 61.4144C143.781 61.1848 144.075 60.5192 143.843 59.9292C143.666 59.4747 143.232 59.197 142.773 59.197L142.775 59.1947ZM151.032 54.8517L148.615 56.47C148.089 56.8235 147.949 57.5351 148.303 58.0607C148.523 58.3913 148.888 58.5703 149.258 58.5703C149.478 58.5703 149.698 58.5084 149.896 58.3752L151.725 57.1495L161.887 57.2H161.894C162.525 57.2 163.039 56.6904 163.042 56.0591C163.044 55.4256 162.534 54.9091 161.901 54.9045H161.894H161.885H161.871H161.855H161.834H161.782H161.635H161.49H161.465H161.44C161.44 54.9045 161.435 54.9045 161.433 54.9045H161.32H161.192H160.905C160.905 54.9045 160.9 54.9045 160.898 54.9045H160.822H160.742H160.574C160.574 54.9045 160.574 54.9045 160.572 54.9045H160.257H160.234H160.223H160.218C160.218 54.9045 160.211 54.9045 160.207 54.9045H160.117H160.021C160.021 54.9045 160.021 54.9045 160.016 54.9045H159.819C159.819 54.9045 159.819 54.9045 159.817 54.9045H159.394L158.508 54.8999H158.483C158.483 54.8999 158.478 54.8999 158.474 54.8999H158.446H158.416L157.498 54.8953C157.498 54.8953 157.494 54.8953 157.491 54.8953H156.993C156.993 54.8953 156.989 54.8931 156.986 54.8931H156.743H156.738H156.615C156.615 54.8931 156.612 54.8931 156.61 54.8931H156.488C156.488 54.8931 156.484 54.8931 156.481 54.8931H156.424C156.424 54.8931 156.419 54.8931 156.417 54.8931H156.229L154.494 54.8839C154.494 54.8839 154.489 54.8839 154.487 54.8839L153.571 54.8793L152.749 54.8747L151.519 54.8678H151.053L151.032 54.8517ZM162.984 39.9842H162.98C162.346 39.9865 161.834 40.503 161.837 41.1365L161.869 48.0228C161.871 48.6541 162.385 49.1659 163.017 49.1659H163.021C163.655 49.1636 164.167 48.6472 164.164 48.0136L164.132 41.1273C164.13 40.4961 163.616 39.9842 162.984 39.9842ZM162.886 19.3253H162.881C162.248 19.3276 161.736 19.844 161.738 20.4776C161.738 20.4776 161.738 20.6956 161.74 21.0537V21.0583C161.74 21.0583 161.74 21.0721 161.74 21.079C161.74 21.1088 161.74 21.1387 161.74 21.1708C161.74 21.1708 161.74 21.1754 161.74 21.1777V21.1823C161.74 21.1823 161.74 21.1892 161.74 21.1938V21.2098C161.74 21.2098 161.74 21.219 161.74 21.2236V21.2305V21.2351C161.74 21.2351 161.74 21.242 161.74 21.2466V21.2534V21.2626C161.74 21.2626 161.74 21.2672 161.74 21.2695V21.3062C161.74 21.3062 161.74 21.3062 161.74 21.3085V21.3131C161.74 21.3131 161.74 21.3246 161.74 21.3315V21.3407V21.3751V21.545C161.74 21.545 161.74 21.5495 161.74 21.5518L161.768 27.3639C161.772 27.9951 162.284 28.5047 162.916 28.5047H162.92C163.554 28.5024 164.066 27.986 164.063 27.3524L164.031 20.4661C164.029 19.8349 163.515 19.323 162.883 19.323L162.886 19.3253ZM148.089 8.71577C147.683 8.71577 147.29 8.93154 147.082 9.31258C146.776 9.86808 146.981 10.5659 147.536 10.8712C147.536 10.8712 151.044 12.7925 152.07 13.3548H152.072C152.072 13.3548 152.074 13.3571 152.076 13.3594C152.076 13.3594 152.076 13.3594 152.079 13.3594C152.079 13.3594 152.088 13.364 152.093 13.3663C152.093 13.3663 152.099 13.3709 152.102 13.3709C152.102 13.3709 152.109 13.3755 152.111 13.3755C152.111 13.3755 152.111 13.3755 152.113 13.3755H152.115C152.115 13.3755 152.129 13.3847 152.136 13.3893C152.136 13.3893 152.143 13.3939 152.148 13.3962C152.148 13.3962 152.15 13.3985 152.152 13.3985H152.157V13.4008H152.161V13.403H152.166V13.4053L152.205 13.4283L152.269 13.4627L152.322 13.4926L153.713 13.6785C153.764 13.6854 153.814 13.6877 153.862 13.6877C154.429 13.6877 154.923 13.2676 154.999 12.6915C155.081 12.0625 154.64 11.4864 154.011 11.4014L153.047 11.2729L148.613 8.84202C148.438 8.74561 148.248 8.6997 148.062 8.6997L148.089 8.71577ZM128.691 0.814879C128.08 0.814879 127.57 1.29692 127.545 1.9121C127.518 2.54564 128.009 3.08047 128.642 3.10802C128.642 3.10802 129.634 3.15163 129.829 3.15852C129.829 3.15852 129.831 3.15852 129.834 3.15852H129.838H129.843H129.847H129.85H129.864L130.137 3.22279L130.857 3.39265L131.877 3.63367L133.043 3.91142L134.209 4.18917L135.228 4.43019L135.949 4.60005L136.222 4.66433L141.504 7.55658C141.678 7.65069 141.866 7.69659 142.05 7.69659C142.456 7.69659 142.849 7.48082 143.058 7.09978C143.363 6.54429 143.159 5.84647 142.603 5.54118L137.326 2.64893C137.145 2.55023 136.952 2.47677 136.752 2.42857L130.394 0.92047C130.254 0.886039 130.109 0.867675 129.965 0.860788L128.746 0.807993C128.73 0.807993 128.711 0.807993 128.695 0.807993L128.691 0.814879ZM109.886 0C109.829 0 109.772 0.00458982 109.716 0.0114761C109.7 0.0114761 109.684 0.0114761 109.668 0.0114761C109.611 0.0114761 109.554 0.0160682 109.496 0.0252499L102.686 1.04442C102.059 1.13854 101.627 1.72158 101.721 2.35053C101.806 2.91979 102.295 3.32838 102.855 3.32838C102.911 3.32838 102.968 3.32379 103.023 3.31691L109.836 2.29773L121.763 2.8142C121.779 2.8142 121.795 2.8142 121.811 2.8142C122.422 2.8142 122.931 2.33216 122.957 1.71699C122.984 1.08345 122.493 0.548608 121.859 0.521063L109.935 0.0045901C109.918 0.0045901 109.9 0.0045901 109.884 0.0045901L109.886 0Z" fill="#75B0BE"/>
<path d="M112.942 54.4363H86.5789L82.6399 50.7934L82.9016 46.9095L75.9487 46.1865L72.7259 42.259L72.2186 39.4218L68.018 37.8012L66.2275 34.3282L68.2682 29.478L70.4994 28.8904L69.8268 26.9553L71.7641 21.3131L75.9969 19.9795H88.5828L97.4501 19.1026L95.8318 17.7001L94.3306 15.081L95.3704 10.5659L101.182 9.33095L110.139 7.99042L129.079 8.80989L134.166 10.015L150.55 18.9924L156.059 19.7247L156.199 49.2004L149.32 49.1659L144.674 52.2785L139.971 54.1103L124.991 55.8411L112.942 54.4363Z" fill="#F1F6E5"/>
<path d="M110.187 8.93845L128.946 9.75104L133.821 10.9056L150.25 19.906L155.116 20.5534L155.247 48.2478L149.033 48.2157L144.233 51.4316L139.741 53.183L124.991 54.8862L112.995 53.4883H86.9484L83.6132 50.4032L83.907 46.0602L76.433 45.2844L73.6142 41.8458L73.0564 38.7286L68.6951 37.0461L67.2719 34.2869L68.9591 30.2745L71.7274 29.5469L70.8276 26.953L72.5033 22.0706L76.1415 20.9229H88.6287L99.7317 19.828L96.5732 17.0895L95.3359 14.9295L96.1577 11.3647L101.352 10.2606L110.19 8.93845M110.089 7.04013L109.91 7.06767L101.072 8.38984L101.015 8.39903L100.957 8.4105L95.7629 9.51461L94.583 9.76481L94.3122 10.9401L93.4904 14.5049L93.3229 15.2279L93.6924 15.8707L94.9297 18.0307L95.088 18.3084L95.1661 18.3773L88.5323 19.0315H75.8477L75.57 19.1187L71.9317 20.2664L71.0204 20.5534L70.7105 21.4555L69.0349 26.3379L68.8237 26.9553L69.0371 27.5728L69.2667 28.2362L68.4748 28.4451L67.5727 28.6815L67.2123 29.54L65.5251 33.5524L65.1831 34.3673L65.5871 35.1523L67.0103 37.9114L67.3408 38.5519L68.0111 38.8113L71.3785 40.1105L71.7503 42.181L71.8376 42.6653L72.1497 43.0463L74.9685 46.4849L75.4621 47.0863L76.2356 47.1666L81.8939 47.7543L81.724 50.277L81.662 51.1791L82.3254 51.7942L85.6607 54.8793L86.2047 55.382H112.882L124.768 56.7662L124.986 56.7914L125.204 56.7662L139.955 55.0629L140.198 55.0354L140.425 54.9459L144.917 53.1945L145.11 53.1187L145.282 53.0039L149.6 50.1094L155.233 50.1369L157.143 50.1461L157.134 48.2363L157.003 20.5419L156.996 18.8938L155.362 18.6757L150.844 18.0743L134.726 9.24375L134.501 9.12209L134.253 9.06241L129.377 7.90781L129.203 7.86649L129.024 7.8596L110.265 7.04702L110.084 7.04013H110.089Z" fill="#121212"/>
<path d="M124.435 22.6008L112.379 19.8303L107.956 20.6314H101.127V19.3069H107.837L112.411 18.4782L124.731 21.3108L124.435 22.6008Z" fill="#121212"/>
<path d="M103.797 32.2394L103.035 30.8897L91.1786 30.527L81.0122 30.9287L78.8659 31.3465L72.519 30.2516L72.7463 28.9478L78.8521 30.0014L80.9089 29.6065L91.174 29.2003L91.197 29.2025L103.82 29.5882L104.951 31.5875L103.797 32.2394Z" fill="#121212"/>
<path d="M90.5748 39.3529L90.5472 39.3506L78.953 38.6276L74.4975 38.988L74.3896 37.6681L78.9415 37.3008L90.6 38.0285L104.357 37.6658L104.391 38.9903L90.5748 39.3529Z" fill="#121212"/>
<path d="M105.123 47.5086L95.0208 47.0541L84.9415 47.5063L84.8818 46.1841L95.0208 45.7296H95.0506L105.068 46.1818L108.307 45.7733L108.472 47.0862L105.123 47.5086Z" fill="#121212"/>
</svg>
