<svg width="66" height="124" viewBox="0 0 66 124" fill="none" xmlns="http://www.w3.org/2000/svg">
<path d="M61.5488 37.3094C63.6617 37.3094 65.3745 35.5964 65.3745 33.4834C65.3745 31.3704 63.6617 29.6574 61.5488 29.6574C59.436 29.6574 57.7231 31.3704 57.7231 33.4834C57.7231 35.5964 59.436 37.3094 61.5488 37.3094Z" fill="#121212"/>
<path d="M61.5488 17.3293C63.6617 17.3293 65.3745 15.6164 65.3745 13.5033C65.3745 11.3903 63.6617 9.67737 61.5488 9.67737C59.436 9.67737 57.7231 11.3903 57.7231 13.5033C57.7231 15.6164 59.436 17.3293 61.5488 17.3293Z" fill="#121212"/>
<path d="M45.6825 119.79C45.6825 99.7464 45.6825 36.8468 45.6825 36.8468C40.8691 41.423 34.0686 44.3362 26.2422 44.3362C11.7521 44.3362 0 34.4087 0 22.1681C0 9.92752 11.7521 0 26.2422 0C35.919 0 44.358 4.43863 48.8963 11.0278C49.5464 11.8655 50.1215 12.7282 50.5716 13.6785C51.0717 14.7162 51.4718 15.9165 51.7968 17.2294C51.9218 17.6795 52.0094 18.1296 52.0969 18.5922C52.1719 18.9673 52.2344 19.3424 52.2969 19.73C52.2969 19.8175 52.3219 19.8926 52.3344 19.9801C52.647 22.0431 52.8955 24.6349 52.8955 27.223V119.79" fill="#121212"/>
<circle cx="49.2886" cy="119.79" r="3.60651" fill="#121212"/>
</svg>
