<svg width="43" height="33" viewBox="0 0 43 33" fill="none" xmlns="http://www.w3.org/2000/svg">
<path d="M11.2135 27.9044L9.71594 26.3443L9.12316 25.3147L7.92719 24.9507L7.08481 23.245V22.8602L6.81442 22.7354L5.99284 21.4769L4.74487 16.0063L5.09846 14.311L11.6295 7.16584L14.1566 5.29374L15.8622 4.75293L23.1212 6.18819L29.3818 7.31144L30.9002 8.2163L32.5017 10.2652L34.6649 16.5367L35.2265 18.6896L36.8904 21.6745L26.1371 27.8108L24.5148 26.4275L21.3428 25.9283L16.455 27.9044H11.2135Z" fill="#E9EFDA"/>
<path d="M15.9246 5.82427L22.9132 7.20753L29.0074 8.29959L30.2034 9.01721L31.5762 10.7749L33.6873 16.88L34.2593 19.0745L35.4864 21.2794L26.2619 26.542L24.9723 25.4396L21.2284 24.8572L16.2574 26.8645H11.6503L10.5479 25.7204L9.80952 24.4411L8.65516 24.0875L8.11437 22.9955V22.1738L7.51119 21.9034L6.96 21.061L5.80563 15.9855L6.05523 14.7895L12.3263 7.93556L14.635 6.22988L15.9246 5.82427ZM15.8102 3.68177L15.3006 3.83777L14.011 4.24339L13.6782 4.3474L13.3974 4.5554L11.0887 6.26108L10.9327 6.37549L10.7975 6.5211L4.52647 13.375L4.14167 13.8014L4.02727 14.3631L3.77769 15.5591L3.68408 16.0063L3.78809 16.4432L4.94246 21.5186L5.02566 21.8826L5.22325 22.1946L5.77444 23.0371L6.04482 23.4531V23.4843L6.26323 23.9211L6.804 25.0132L7.19919 25.814L8.05198 26.074L8.42637 26.1884L8.75915 26.7605L8.88394 26.9789L9.05034 27.1557L10.1527 28.2997L10.7663 28.9446H16.6629L17.0373 28.7886L21.478 26.9997L24.0779 27.4053L24.9203 28.1229L26.0331 29.0798L27.3019 28.3517L36.5264 23.0891L38.3152 22.0698L37.3168 20.2705L36.2144 18.2944L35.7152 16.3496L35.6944 16.2664L35.6632 16.1831L33.5521 10.0781L33.4377 9.74525L33.2193 9.47483L31.8465 7.71715L31.6073 7.41554L31.2746 7.21793L30.0786 6.50029L29.7458 6.30268L29.3714 6.24028L23.2772 5.14822L16.3198 3.77537L15.7998 3.67136L15.8102 3.68177Z" fill="#121212"/>
<path d="M22.9448 29.839L21.78 29.6518L17.1625 31.5135H9.66433L6.81482 28.5286L6.71082 28.3518L5.39005 27.9461L3.73649 24.6388L2.61332 22.9123L1.04297 16.0376L1.76055 12.6054L9.19635 4.47222L12.4931 2.0281L15.665 1.02966L23.7768 2.64174L30.6718 3.86899L33.3341 5.47068L35.7156 8.51801L38.1388 15.5383L38.6068 17.3376L41.7787 23.0475L25.7215 32.2103L22.9448 29.839Z" fill="#E9EFDA"/>
<path d="M8.20798 4.2538C8.06238 4.2538 7.92719 4.3058 7.82319 4.42021L6.41922 5.95949C6.22163 6.1675 6.24243 6.50031 6.45042 6.69792C6.55442 6.79152 6.67921 6.83313 6.80401 6.83313C6.9392 6.83313 7.08481 6.78112 7.18881 6.66672L8.36397 5.38746C8.48876 5.24186 8.58237 5.14824 8.58237 5.14824C8.77996 4.94023 8.75916 4.60742 8.55117 4.40981C8.44717 4.31621 8.32238 4.2746 8.19758 4.2746L8.20798 4.2538ZM2.59213 10.3901C2.44654 10.3901 2.31133 10.4421 2.20733 10.5565L0.980172 11.8878C0.855375 12.023 0.772172 12.1998 0.730573 12.3766L0.678571 12.6366C0.616173 12.9174 0.803367 13.1878 1.08416 13.2502C1.11536 13.2502 1.15696 13.2606 1.18816 13.2606C1.42736 13.2606 1.64576 13.0942 1.69776 12.8446L1.74974 12.5742L2.97692 11.2325C3.16411 11.0245 3.15371 10.6917 2.94572 10.5045C2.84172 10.4109 2.71693 10.3693 2.59213 10.3693V10.3901ZM0.772181 14.2799C0.532987 14.2799 0.314587 14.4463 0.262589 14.6959L0.0233994 15.84C-0.00779979 15.9856 -0.00779979 16.1416 0.0233994 16.2872L1.15697 21.2378C1.20896 21.477 1.42736 21.6434 1.66656 21.6434C1.70816 21.6434 1.73936 21.6434 1.78096 21.633C2.06175 21.5706 2.23853 21.2898 2.17613 21.009C2.17613 21.009 1.61455 18.5337 1.28176 17.0776C1.28176 17.0776 1.27137 17.0152 1.26097 16.984C1.26097 16.984 1.26097 16.9632 1.26097 16.9528C1.26097 16.9528 1.26097 16.932 1.26097 16.9216C1.26097 16.9216 1.24016 16.8176 1.22976 16.776C1.22976 16.776 1.22976 16.7656 1.22976 16.7552C1.22976 16.7552 1.22976 16.7552 1.22976 16.7448V16.724C1.22976 16.724 1.22976 16.6928 1.22976 16.6824C1.22976 16.6824 1.22976 16.6824 1.22976 16.672C1.22976 16.672 1.22976 16.672 1.22976 16.6616C1.22976 16.6616 1.22976 16.6512 1.22976 16.6408C1.22976 16.6408 1.22976 16.6408 1.22976 16.6304V16.6096V16.5888L1.20897 16.4952L1.18816 16.412V16.3912L1.16736 16.3184L1.15697 16.256L1.14657 16.204V16.152L1.16736 16.0584V16.0168V15.9752V15.9336V15.8919V15.8712V15.8504V15.8295V15.8087V15.7983V15.788V15.7775C1.16736 15.7775 1.16736 15.7775 1.16736 15.7671C1.16736 15.7671 1.16736 15.7567 1.16736 15.7463V15.7256C1.16736 15.7256 1.16736 15.7255 1.16736 15.7151C1.16736 15.7151 1.16736 15.6839 1.16736 15.6735V15.6527C1.16736 15.6527 1.16736 15.6423 1.16736 15.6319C1.16736 15.6319 1.16736 15.6319 1.16736 15.6215C1.16736 15.6215 1.16736 15.6215 1.16736 15.6111C1.16736 15.6111 1.16736 15.5903 1.16736 15.5799C1.16736 15.5799 1.16736 15.5695 1.16736 15.5591C1.16736 15.5591 1.16736 15.5279 1.16736 15.5175C1.16736 15.5175 1.16736 15.5175 1.16736 15.5071C1.16736 15.5071 1.16736 15.4759 1.16736 15.4655V15.4447C1.22976 15.1639 1.04256 14.8935 0.761771 14.8311C0.730572 14.8311 0.688982 14.8207 0.657783 14.8207L0.772181 14.2799ZM2.23853 22.7667C2.14493 22.7667 2.04095 22.7979 1.95775 22.8499C1.71856 23.0059 1.64575 23.3283 1.80174 23.5675L2.83132 25.1484L4.46407 28.4037C4.58887 28.6533 4.81767 28.851 5.08806 28.9342L5.64964 29.111C5.64964 29.111 5.75364 29.1318 5.80564 29.1318C6.02404 29.1318 6.23203 28.9862 6.30483 28.7678C6.38802 28.4973 6.23203 28.2061 5.96163 28.1229C5.96163 28.1229 5.54565 27.9981 5.43125 27.9565L3.7777 24.6492L2.71692 23.0163C2.61293 22.8603 2.44653 22.7771 2.28014 22.7771L2.23853 22.7667ZM7.18881 29.1526C7.06401 29.1526 6.92881 29.2046 6.82481 29.2982C6.61682 29.4958 6.60641 29.8286 6.80401 30.0366L8.23917 31.5447C8.34317 31.6487 8.47837 31.7007 8.61357 31.7007C8.73836 31.7007 8.87357 31.6487 8.97756 31.5551C9.18556 31.3575 9.19595 31.0247 8.99835 30.8167L7.83359 29.5998C7.67759 29.4334 7.5632 29.319 7.5632 29.319C7.4592 29.215 7.32401 29.163 7.18881 29.163V29.1526ZM17.0269 31.5135H14.947C14.6558 31.5135 14.427 31.7423 14.427 32.0335C14.427 32.3247 14.6558 32.5535 14.947 32.5535H17.0269C17.3181 32.5535 17.5469 32.3247 17.5469 32.0335C17.5469 31.7423 17.3181 31.5135 17.0269 31.5135ZM22.8092 29.8182C22.5596 29.8182 22.3308 30.0054 22.2996 30.255C22.2788 30.359 22.2996 30.463 22.3412 30.5463L22.2788 30.619L23.818 31.9295C23.9116 32.0127 24.0364 32.0543 24.1508 32.0543C24.2964 32.0543 24.442 31.9919 24.5459 31.8775C24.7331 31.6591 24.7123 31.3263 24.4939 31.1495C24.4939 31.1495 23.1004 29.9534 22.9652 29.839H22.9132C22.882 29.839 22.8612 29.839 22.83 29.839L22.8092 29.8182ZM31.7946 28.8198C31.7114 28.8198 31.6178 28.8406 31.5346 28.8926L26.1163 31.9815C25.8667 32.1271 25.7835 32.4391 25.9187 32.6888C26.0123 32.8552 26.1891 32.9488 26.3659 32.9488C26.4491 32.9488 26.5427 32.928 26.6259 32.876L32.0441 29.787C32.2937 29.6414 32.3769 29.3294 32.2417 29.0798C32.1481 28.9134 31.9714 28.8198 31.7946 28.8198ZM39.012 24.7012C38.9288 24.7012 38.8352 24.722 38.752 24.774L33.3337 27.8629C33.0841 28.0085 33.0009 28.3205 33.1361 28.5701C33.2297 28.7366 33.4065 28.8302 33.5833 28.8302C33.6665 28.8302 33.7601 28.8094 33.8433 28.7574L39.2616 25.6684C39.5111 25.5228 39.5943 25.2108 39.4592 24.9612C39.3656 24.7948 39.1888 24.7012 39.012 24.7012ZM41.9031 21.6746C41.8199 21.6746 41.7263 21.6954 41.6535 21.737C41.4039 21.8722 41.3103 22.1946 41.4455 22.4443L41.7783 23.0475H41.7679L41.7263 23.0787H41.6951V23.0891H41.6847H41.6743H41.6535V23.0995C41.6535 23.0995 41.6327 23.0995 41.6327 23.1099C41.6327 23.1099 41.6327 23.1099 41.6223 23.1099C41.6223 23.1099 41.6015 23.1203 41.5911 23.1307C41.2271 23.3387 40.6759 23.6507 40.6759 23.6507C40.4263 23.7963 40.3431 24.1083 40.4783 24.3579C40.5719 24.5244 40.7487 24.618 40.9255 24.618C41.0087 24.618 41.1023 24.5972 41.1855 24.5452L42.4023 23.8587C42.9015 23.5779 43.0678 22.9435 42.7975 22.4547L42.4647 21.8618C42.3711 21.6954 42.1943 21.5914 42.0071 21.5914L41.9031 21.6746ZM38.4296 14.2695C38.3776 14.2695 38.3152 14.2695 38.2632 14.3007C37.9928 14.3943 37.8472 14.6855 37.9408 14.9663L38.1384 15.5383V15.5591V15.5799V15.6007C38.1384 15.6007 38.1384 15.6111 38.1384 15.6215C38.1384 15.6215 38.1384 15.6215 38.1384 15.6319C38.232 16.0064 38.4608 16.8904 38.4608 16.8904C38.5232 17.1296 38.7312 17.2856 38.96 17.2856C39.0016 17.2856 39.0432 17.2856 39.0952 17.2648C39.3759 17.192 39.5423 16.9112 39.4695 16.6304L39.1056 15.2055C39.1056 15.2055 39.0952 15.1535 39.0848 15.1223L38.8872 14.5503C38.8144 14.3319 38.6064 14.1967 38.3984 14.1967L38.4296 14.2695ZM35.2057 6.48991C35.0913 6.48991 34.9769 6.52111 34.8833 6.60432C34.6545 6.78113 34.6129 7.10354 34.7897 7.33235C34.7897 7.33235 35.4865 8.22679 35.6737 8.4556C35.6737 8.4556 35.6737 8.4556 35.6737 8.466H35.684V8.4868L35.8713 9.04842C35.944 9.26683 36.152 9.40205 36.36 9.40205C36.412 9.40205 36.4744 9.40205 36.5264 9.37085C36.7968 9.27725 36.9424 8.98603 36.8488 8.70522L36.6616 8.15398C36.62 8.04998 36.568 7.94598 36.4952 7.85237L35.5696 6.66672C35.4657 6.53151 35.3097 6.46911 35.1641 6.46911L35.2057 6.48991ZM27.9571 2.34011C27.7075 2.34011 27.4891 2.51692 27.4475 2.76653C27.3955 3.04735 27.5827 3.31776 27.8634 3.36976C27.8634 3.36976 30.1202 3.77539 30.5882 3.85859H30.609H30.6298L30.7442 3.93138L31.0458 4.10819L31.4722 4.3682L31.9609 4.65943L32.4497 4.95064L32.8761 5.21066L33.1777 5.38746L33.2921 5.46026C33.3337 5.51226 33.4481 5.66826 33.4481 5.66826C33.5521 5.80347 33.7081 5.86588 33.8537 5.86588C33.9681 5.86588 34.0825 5.83467 34.1761 5.75147C34.4049 5.57466 34.4465 5.25225 34.2697 5.02344L34.0929 4.80504C34.0097 4.70103 33.9161 4.61782 33.8121 4.55542L31.1498 2.95374C31.0458 2.89133 30.921 2.83934 30.7962 2.81854L27.9883 2.31932C27.9883 2.31932 27.9259 2.31932 27.8947 2.31932L27.9571 2.34011ZM19.7933 0.800842C19.5541 0.800842 19.3357 0.967244 19.2837 1.21686C19.2317 1.49767 19.4085 1.76809 19.6893 1.8305L23.7764 2.64173L25.8251 3.00574C25.8251 3.00574 25.8875 3.00574 25.9187 3.00574C26.1683 3.00574 26.3867 2.82894 26.4283 2.57933C26.4803 2.29852 26.2931 2.02811 26.0123 1.9761L23.974 1.61208L19.9077 0.811237C19.9077 0.811237 19.8349 0.811237 19.8037 0.811237L19.7933 0.800842ZM15.7686 0C15.7166 0 15.6646 4.44403e-06 15.6126 0.0208054C15.5814 0.0208054 15.5502 0.0208054 15.5086 0.0208054C15.4566 0.0208054 15.4046 0.0208099 15.3526 0.0416109L13.3662 0.665631C13.0959 0.748835 12.9399 1.04005 13.0231 1.32087C13.0959 1.53928 13.2934 1.68489 13.5222 1.68489C13.5742 1.68489 13.6262 1.68489 13.6782 1.66408C13.6782 1.66408 14.947 1.26887 15.4566 1.11286C15.4566 1.11286 15.4774 1.11286 15.4878 1.11286H15.5086H15.519H15.5606V1.10245H15.5814H15.5918H15.6438V1.11286H15.6542C15.6542 1.11286 15.6542 1.11286 15.6646 1.11286C15.6646 1.11286 15.7062 1.11285 15.727 1.12325C15.727 1.12325 15.7582 1.12325 15.779 1.12325C16.3614 1.23766 17.3597 1.43527 17.3597 1.43527C17.3909 1.43527 17.4325 1.43527 17.4637 1.43527C17.7029 1.43527 17.9213 1.26887 17.9733 1.01926C18.0253 0.738446 17.8485 0.468021 17.5677 0.405619L15.5814 0.0104106C15.5814 0.0104106 15.5086 0.0104106 15.4774 0.0104106L15.7686 0Z" fill="#61B3C1"/>
<path d="M11.2135 27.9044L9.71594 26.3443L9.12316 25.3147L7.92719 24.9507L7.08481 23.245V22.8602L6.81442 22.7354L5.99284 21.4769L4.74487 16.0063L5.09846 14.311L11.6295 7.16584L14.1566 5.29374L15.8622 4.75293L23.1212 6.18819L29.3818 7.31144L30.9002 8.2163L32.5017 10.2652L34.6649 16.5367L35.2265 18.6896L36.8904 21.6745L26.1371 27.8108L24.5148 26.4275L21.3428 25.9283L16.455 27.9044H11.2135Z" fill="#E9EFDA"/>
<path d="M15.9246 5.82427L22.9132 7.20753L29.0074 8.29959L30.2034 9.01721L31.5762 10.7749L33.6873 16.88L34.2593 19.0745L35.4864 21.2794L26.2619 26.542L24.9723 25.4396L21.2284 24.8572L16.2574 26.8645H11.6503L10.5479 25.7204L9.80952 24.4411L8.65516 24.0875L8.11437 22.9955V22.1738L7.51119 21.9034L6.96 21.061L5.80563 15.9855L6.05523 14.7895L12.3263 7.93556L14.635 6.22988L15.9246 5.82427ZM15.8102 3.68177L15.3006 3.83777L14.011 4.24339L13.6782 4.3474L13.3974 4.5554L11.0887 6.26108L10.9327 6.37549L10.7975 6.5211L4.52647 13.375L4.14167 13.8014L4.02727 14.3631L3.77769 15.5591L3.68408 16.0063L3.78809 16.4432L4.94246 21.5186L5.02566 21.8826L5.22325 22.1946L5.77444 23.0371L6.04482 23.4531V23.4843L6.26323 23.9211L6.804 25.0132L7.19919 25.814L8.05198 26.074L8.42637 26.1884L8.75915 26.7605L8.88394 26.9789L9.05034 27.1557L10.1527 28.2997L10.7663 28.9446H16.6629L17.0373 28.7886L21.478 26.9997L24.0779 27.4053L24.9203 28.1229L26.0331 29.0798L27.3019 28.3517L36.5264 23.0891L38.3152 22.0698L37.3168 20.2705L36.2144 18.2944L35.7152 16.3496L35.6944 16.2664L35.6632 16.1831L33.5521 10.0781L33.4377 9.74525L33.2193 9.47483L31.8465 7.71715L31.6073 7.41554L31.2746 7.21793L30.0786 6.50029L29.7458 6.30268L29.3714 6.24028L23.2772 5.14822L16.3198 3.77537L15.7998 3.67136L15.8102 3.68177Z" fill="#121212"/>
<path d="M9.6123 23.5676L11.7962 21.3523L13.273 21.113L14.0114 20.8114L16.5593 18.9914L18.2441 16.7864L20.688 15.736L21.2496 17.0464L19.1488 17.9513L17.5577 20.0314L14.7082 22.0595L13.6578 22.4963L12.4826 22.6835L10.6315 24.566L9.6123 23.5676Z" fill="#121212"/>
<path d="M10.621 23.9108L10.2778 23.5572L12.025 21.7891L13.3977 21.5707L14.2401 21.2171L16.8816 19.3346L18.5352 17.1609L20.4488 16.3496L20.6464 16.7969L18.8576 17.5665L17.2353 19.6882L14.4793 21.6539L13.5329 22.0491L12.2642 22.2467L10.621 23.9108Z" fill="#121212"/>
<path d="M11.8276 24.7323L12.5868 24.2539L14.698 24.1187L14.958 24.2955L15.3843 25.5747L15.166 25.9804L12.5868 25.8972L12.2124 25.658L11.8276 25.0547V24.7323Z" fill="#121212"/>
</svg>
