<svg width="42" height="33" viewBox="0 0 42 33" fill="none" xmlns="http://www.w3.org/2000/svg">
<path d="M5.60553 31.2948L3.51518 28.0498L2.28802 24.5137L3.97277 21.9551L1.04004 19.147V13.9364L2.1008 11.7107L4.43036 9.49537L4.63833 9.39135L5.48071 7.88329L7.88304 6.01119L8.43426 5.83439L10.015 4.22232L13.0621 3.00545L13.2909 2.97425L13.6653 2.52703L15.9636 1.91341L20.7163 1.09177H22.7235L26.2698 2.71424L29.7329 4.92955L32.1352 6.40642L35.3383 7.85209L40.923 14.5084L32.2808 29.2667L27.0394 28.9131L22.8067 28.9651L20.3003 29.3811L18.6988 29.5163L16.0156 30.3067L13.5405 31.0452L11.1278 31.2948H5.60553Z" fill="#E9EFDA"/>
<path d="M7.5706 27.6757L6.79062 26.4588L6.29142 25.0131L8.02819 22.361L9.27617 21.7058L11.3769 21.4354L12.1673 21.1962L14.5384 19.9585L14.6008 19.8961L14.0704 19.1057L13.7376 19.1265L13.4568 19.7505L11.2833 20.4265L6.83223 19.6985L4.65869 17.608V14.7479L5.07467 13.8638L6.49943 12.5118L7.28982 12.1373V12.0437L8.27778 10.2757L9.59856 9.2564L10.7009 8.90279L10.9713 8.41396L12.0633 7.29071L13.9664 6.53147L15.1728 6.38586L15.724 5.72023L16.6911 5.46022L21.0278 4.70099H21.9326L24.5325 5.89704L27.7981 7.97714L30.4396 9.61002L33.1123 10.8061L36.5234 14.8727L30.294 25.5124L27.1013 25.3044L22.4838 25.3564L19.8943 25.7828L18.0327 25.9388L14.996 26.8436L12.8329 27.4885L10.9505 27.6757H7.5706Z" fill="#E9EFDA"/>
<path d="M21.7042 5.74098L24.0338 6.81223L27.2369 8.85073L29.9408 10.5252L32.4576 11.6589L35.2447 14.987L29.712 24.4411L27.1641 24.2747L22.3906 24.3371L19.7283 24.7739L17.8355 24.9299L14.6948 25.8555L12.6253 26.4796L10.8885 26.6564H8.13262L7.71663 26.0115L7.42544 25.1691L8.73579 23.1722L9.57816 22.7354L11.5749 22.4858L12.5421 22.1946L15.1524 20.8425L15.714 20.2705L15.662 19.6672L14.57 18.0656L13.0205 18.1696L12.6773 18.9392L11.1901 19.4072L7.30062 18.7624L5.67827 17.2023V15.0286L5.91747 14.5294L7.08223 13.4269L8.3198 12.8445V12.3557L9.06859 11.014L10.067 10.234L11.3981 9.81797L11.7933 9.08994L12.6357 8.2267L14.2061 7.60267L15.7036 7.42586L16.2964 6.68742L16.9412 6.52102L21.1011 5.80338H21.6835M22.1618 3.66088H20.9451L20.7683 3.69209L16.6084 4.40972H16.5252L16.442 4.45132L15.7972 4.61773L15.142 4.79453L14.7156 5.32496L14.6532 5.40817L13.998 5.49137L13.7277 5.52257L13.4781 5.62658L11.9077 6.2506L11.5021 6.41701L11.1901 6.72903L10.3478 7.59227L10.1398 7.80028L10.0046 8.04989L9.47419 8.2163L9.12057 8.3307L8.82938 8.55951L7.83102 9.33955L7.49822 9.59956L7.29024 9.96358L6.54146 11.3052L6.49985 11.378L6.22945 11.5029L5.91747 11.6485L5.66789 11.8877L4.50309 12.9901L4.22231 13.2501L4.05591 13.5933L3.81674 14.0926L3.61914 14.519V18.0552L4.25351 18.6688L5.87586 20.2289L6.34386 20.6761L6.97823 20.7801L8.37179 21.0089L7.78941 21.3105L7.31103 21.5601L7.00943 22.0177L5.69909 24.0146L5.13749 24.8675L5.47029 25.8347L5.76148 26.6772L5.84467 26.906L5.97987 27.114L6.39585 27.7588L7.00943 28.7157H11.1069L12.8437 28.5285L13.0413 28.5077L13.2285 28.4557L15.298 27.8316L18.2307 26.9684L19.9051 26.8332H19.9883L20.0715 26.8124L22.5778 26.3964L27.1121 26.3444L29.5768 26.5108L30.856 26.594L31.5112 25.4811L37.0438 16.0271L37.7822 14.7582L36.8359 13.635L34.0487 10.3068L33.7471 9.94278L33.3103 9.74517L30.9184 8.67392L28.3289 7.07224L25.1466 5.04414L25.0218 4.97134L24.897 4.90894L22.5674 3.83769L22.1514 3.65048L22.1618 3.66088Z" fill="#121212"/>
<path d="M5.60553 31.2948L3.51518 28.0498L2.28802 24.5136L3.97277 21.9551L1.04004 19.147V13.9363L2.1008 11.7106L4.43036 9.49533L4.63833 9.39132L5.48071 7.88326L7.88304 6.01116L8.43426 5.83436L10.015 4.22229L13.0621 3.00542L13.2909 2.97422L13.6653 2.527L15.9636 1.91338L20.7163 1.09174H22.7235L26.2698 2.71421L29.7329 4.92952L32.1352 6.40639L35.3383 7.85205L40.923 14.5084L32.2808 29.2667L27.0394 28.913L22.8067 28.965L20.3003 29.3811L18.6988 29.5163L16.0156 30.3067L13.5405 31.0451L11.1278 31.2948H5.60553Z" fill="#E9EFDA"/>
<path d="M22.7234 0.0520056H20.7163C20.6539 0.0520056 20.6019 0.0520079 20.5395 0.0624083H20.4667C20.1859 0.124811 19.9987 0.39522 20.0403 0.676033C20.0819 0.925645 20.3003 1.10246 20.5499 1.10246C20.5811 1.10246 20.6122 1.10246 20.633 1.10246H20.7059L22.713 1.09205L22.765 1.11285H22.7858C22.7858 1.11285 22.7858 1.11285 22.7962 1.11285C23.1602 1.27926 24.0546 1.68488 24.0546 1.68488C24.1274 1.71608 24.2002 1.73688 24.273 1.73688C24.4705 1.73688 24.6578 1.62248 24.741 1.43527C24.8657 1.17526 24.741 0.863242 24.481 0.748837L23.077 0.104003C23.0042 0.0728019 22.9314 0.0520056 22.8586 0.0520056C22.7962 0.0208042 22.7234 0 22.6402 0L22.7234 0.0520056ZM14.3932 1.26886C14.3932 1.26886 14.31 1.26887 14.258 1.28967L13.3948 1.51847C13.1869 1.57047 12.9893 1.69528 12.8541 1.87209L12.7293 2.0281C12.7293 2.0281 12.6981 2.0385 12.6773 2.0489L12.3341 2.1841C12.0637 2.28811 11.9389 2.58972 12.0429 2.86014C12.1261 3.06814 12.3237 3.19295 12.5213 3.19295C12.5837 3.19295 12.6461 3.18255 12.7085 3.15135C12.7085 3.15135 12.9893 3.03694 13.0413 3.01614H13.0725H13.1141H13.1556H13.1973H13.2389H13.2701L13.2908 2.99535L13.3325 2.94334L13.3948 2.87054L13.4677 2.78733L13.5404 2.70413L13.6028 2.63132L13.6444 2.57933L13.6653 2.55852L14.5284 2.32972C14.8092 2.25691 14.9756 1.9761 14.9028 1.69529C14.8404 1.46647 14.6324 1.31046 14.4036 1.31046L14.3932 1.26886ZM7.1758 5.38745C7.06141 5.38745 6.94701 5.41866 6.85341 5.50186L5.21027 6.78112C4.98148 6.95793 4.93988 7.28034 5.11668 7.50916C5.22068 7.64436 5.37666 7.70677 5.52225 7.70677C5.63665 7.70677 5.75104 7.67557 5.84464 7.59236L7.48781 6.3131C7.71661 6.13629 7.7582 5.81388 7.58141 5.58507C7.47741 5.44986 7.3214 5.38745 7.1758 5.38745ZM4.19109 8.4556L3.98308 8.5492C3.87908 8.60121 3.78551 8.66361 3.71271 8.73641L1.38315 10.9621C1.28955 11.0453 1.21676 11.1493 1.16476 11.2637L0.114413 13.479C0.0520151 13.6142 0.0104099 13.7702 0.0104099 13.9263V14.1343C0.0104099 14.4255 0.239204 14.6543 0.530396 14.6543C0.821588 14.6543 1.05038 14.4255 1.05038 14.1343V13.9263L1.09196 13.8327L1.20637 13.583L1.37277 13.2294L1.57037 12.8238L1.76797 12.4182L1.93437 12.0646L2.04875 11.815L2.09035 11.7214L2.12155 11.7006L2.19436 11.6277L2.30874 11.5133L2.45435 11.3677L2.63113 11.2013L2.82873 11.0141L3.03673 10.8165L3.25512 10.6085L3.4735 10.4005L3.68151 10.2029L3.87911 10.0157L4.05589 9.84927L4.2015 9.70366L4.31588 9.58925L4.38868 9.51645L4.41988 9.49565L4.44067 9.48525H4.47187L4.51348 9.45405L4.55508 9.43324H4.58628L4.60707 9.40204L4.66947 9.28764C4.80466 9.03803 4.72146 8.71561 4.47187 8.58041C4.38867 8.5388 4.30548 8.518 4.22229 8.518C4.22229 8.518 4.2119 8.518 4.2015 8.518L4.1703 8.4556H4.19109ZM0.519986 15.7047C0.228794 15.7047 0 15.9335 0 16.2248V19.1473C0 19.4281 0.114394 19.6985 0.322389 19.8961L2.71434 22.1947C2.71434 22.1947 2.78712 22.257 2.81832 22.2778C2.81832 22.2778 2.79752 22.2778 2.78712 22.2778C2.62072 22.2778 2.45434 22.3611 2.35035 22.5171L1.40397 23.9523C1.22717 24.2227 1.18556 24.5556 1.28956 24.8676L1.40397 25.2108C1.47677 25.4292 1.68476 25.5644 1.89276 25.5644C1.94476 25.5644 2.00716 25.5644 2.05916 25.5332C2.32955 25.4396 2.47514 25.1484 2.38155 24.878L2.25675 24.5348V24.514C2.40235 24.2955 3.1719 23.1099 3.1719 23.1099C3.3279 22.8707 3.26552 22.5483 3.02632 22.3923C3.01592 22.3923 3.00553 22.3819 2.99513 22.3715C2.99513 22.3715 3.01592 22.3715 3.02632 22.3715C3.16152 22.3715 3.2967 22.3195 3.4007 22.2154C3.59829 22.0074 3.58791 21.6746 3.39032 21.477C3.39032 21.477 1.66396 19.8233 1.14398 19.3137C1.14398 19.3137 1.13356 19.3033 1.12316 19.2929L1.10237 19.2721L1.07117 19.2409L1.03997 19.2201V16.2976C1.03997 16.0064 0.811179 15.7775 0.519986 15.7775V15.7047ZM4.62789 30.2134C4.53429 30.2134 4.43027 30.2446 4.34708 30.2966C4.10788 30.4526 4.03509 30.7751 4.19109 31.0143L4.73186 31.8463C4.91906 32.1479 5.25188 32.3247 5.60547 32.3247H6.69742C6.98862 32.3247 7.21741 32.0959 7.21741 31.8047C7.21741 31.5135 6.98862 31.2847 6.69742 31.2847H5.60547L5.58465 31.2535C5.44945 31.0455 5.09586 30.4942 5.09586 30.4942C4.99186 30.3382 4.82548 30.255 4.65909 30.255L4.62789 30.2134ZM15.09 30.6086C15.09 30.6086 14.986 30.6086 14.9444 30.6294C14.9444 30.6294 13.79 30.9727 13.582 31.0351H13.5716H13.5508C13.3844 31.0559 12.9997 31.0871 12.9997 31.0871C12.7189 31.1183 12.5109 31.3679 12.5317 31.6591C12.5629 31.9295 12.7812 32.1271 13.0516 32.1271C13.0724 32.1271 13.0829 32.1271 13.1037 32.1271L13.7276 32.0647C13.79 32.0647 13.8628 32.0439 13.9252 32.0231L15.3188 31.6071C15.5892 31.5239 15.7452 31.2327 15.6724 30.9623C15.61 30.7335 15.402 30.5878 15.1732 30.5878L15.09 30.6086ZM23.0666 28.9654C23.0666 28.9654 22.8794 28.9654 22.8274 28.9654L20.3211 29.371L18.7195 29.5062L16.9412 30.0262C16.6708 30.1094 16.5148 30.4006 16.5876 30.6711C16.65 30.8999 16.8579 31.0455 17.0867 31.0455C17.1387 31.0455 17.1804 31.0455 17.2324 31.0247L18.8963 30.5358L20.3939 30.411C20.3939 30.411 20.4459 30.411 20.4771 30.411L22.9002 30.0158H23.077C23.3682 30.0158 23.597 29.7766 23.5866 29.4854C23.5866 29.2046 23.3474 28.9758 23.0666 28.9758V28.9654ZM27.0393 28.9134H27.0185H27.0081H26.9977H26.9769C26.9769 28.9134 26.9665 28.9134 26.9561 28.9134C26.5089 28.9134 25.1985 28.9342 25.1985 28.9342C24.9074 28.9342 24.6785 29.1734 24.6889 29.4646C24.6889 29.7454 24.9281 29.9742 25.2089 29.9742L27.0705 29.9534L31.3552 30.2446C31.3552 30.2446 31.376 30.2446 31.3864 30.2446C31.6568 30.2446 31.8855 30.0366 31.9063 29.7558C31.9271 29.4646 31.7087 29.2254 31.4176 29.2046C31.4176 29.2046 27.9441 28.9758 27.2265 28.9238C27.2265 28.9238 27.2265 28.9238 27.2161 28.9238C27.2161 28.9238 27.2161 28.9238 27.2057 28.9238H27.1849H27.1641H27.1329L27.0393 28.9134ZM34.3711 26.2092C34.1943 26.2092 34.0175 26.3028 33.9239 26.4693C33.9239 26.4693 33.7263 26.8125 33.4975 27.1869C33.4975 27.1869 33.4975 27.1869 33.4975 27.1973L32.8735 28.2581C32.7279 28.5077 32.8111 28.8198 33.0607 28.9654C33.1439 29.0174 33.2375 29.0382 33.3207 29.0382C33.4975 29.0382 33.6743 28.9446 33.7679 28.7782L34.8183 26.9789C34.9639 26.7293 34.8807 26.4172 34.6311 26.2716C34.5479 26.2196 34.4543 26.1988 34.3711 26.1988V26.2092ZM38.5726 19.0329C38.3958 19.0329 38.219 19.1265 38.1254 19.2929C38.1254 19.2929 37.5742 20.229 37.2726 20.749C37.2726 20.749 37.2726 20.7594 37.2622 20.7698L37.0854 21.0714C36.9398 21.321 37.023 21.633 37.2726 21.7786C37.3558 21.8306 37.4494 21.8514 37.5326 21.8514C37.7094 21.8514 37.8862 21.7578 37.9798 21.5914L39.0302 19.7921C39.1758 19.5425 39.0926 19.2305 38.843 19.0849C38.7598 19.0329 38.6662 19.0121 38.583 19.0121L38.5726 19.0329ZM39.5397 11.5237C39.4253 11.5237 39.3006 11.5654 39.207 11.6486C38.9886 11.8358 38.9574 12.1582 39.1446 12.3766C39.1446 12.3766 39.5502 12.855 39.9141 13.2918C39.9141 13.2918 39.9142 13.3022 39.9246 13.3126L40.4653 13.9575C40.5693 14.0823 40.7149 14.1447 40.8605 14.1447C40.9749 14.1447 41.0997 14.1031 41.1933 14.0199C41.4117 13.8327 41.4429 13.5102 41.2557 13.2918L39.9141 11.7006C39.8102 11.5757 39.6645 11.5133 39.519 11.5133L39.5397 11.5237ZM33.3623 5.86588C33.1647 5.86588 32.9775 5.98028 32.8839 6.17789C32.7695 6.43791 32.8839 6.74992 33.1439 6.86432L35.3383 7.85237L37.803 10.7853C37.907 10.9101 38.0526 10.9725 38.1982 10.9725C38.3126 10.9725 38.4374 10.9309 38.531 10.8477C38.7494 10.6605 38.7806 10.3381 38.5934 10.1197L36.1286 7.18674C36.0246 7.06194 35.8999 6.96833 35.7543 6.90593L33.5599 5.91788C33.4871 5.88668 33.4143 5.87628 33.3519 5.87628L33.3623 5.86588ZM26.2281 1.61208C26.0305 1.61208 25.8433 1.72649 25.7601 1.91369C25.6457 2.17371 25.7601 2.48572 26.0201 2.60012L26.2801 2.71453L26.4257 2.80814L26.8209 3.05775L27.3721 3.41136L28.0065 3.81698L28.6409 4.2226L29.192 4.57622L29.5872 4.82583L29.7328 4.91944L31.3032 5.88668C31.3864 5.93868 31.48 5.95948 31.5736 5.95948C31.7504 5.95948 31.9168 5.87628 32.0208 5.70988C32.1768 5.47066 32.0936 5.14825 31.8544 4.99224L30.284 4.02499L26.8209 1.82009C26.8209 1.82009 26.7377 1.76808 26.6961 1.74728L26.4465 1.63288C26.3737 1.60168 26.3009 1.58088 26.2281 1.58088V1.61208Z" fill="#61B3C1"/>
<path d="M7.5706 27.6757L6.79062 26.4588L6.29142 25.0131L8.02819 22.361L9.27617 21.7058L11.3769 21.4354L12.1673 21.1962L14.5384 19.9585L14.6008 19.8961L14.0704 19.1057L13.7376 19.1265L13.4568 19.7505L11.2833 20.4265L6.83223 19.6985L4.65869 17.608V14.7479L5.07467 13.8638L6.49943 12.5118L7.28982 12.1373V12.0437L8.27778 10.2757L9.59856 9.2564L10.7009 8.90279L10.9713 8.41396L12.0633 7.29071L13.9664 6.53147L15.1728 6.38586L15.724 5.72023L16.6911 5.46022L21.0278 4.70099H21.9326L24.5325 5.89704L27.7981 7.97714L30.4396 9.61002L33.1123 10.8061L36.5234 14.8727L30.294 25.5124L27.1013 25.3044L22.4838 25.3564L19.8943 25.7828L18.0327 25.9388L14.996 26.8436L12.8329 27.4885L10.9505 27.6757H7.5706Z" fill="#E9EFDA"/>
<path d="M21.7042 5.74098L24.0338 6.81223L27.2369 8.85073L29.9408 10.5252L32.4576 11.6589L35.2447 14.987L29.712 24.4411L27.1641 24.2747L22.3906 24.3371L19.7283 24.7739L17.8355 24.9299L14.6948 25.8555L12.6253 26.4796L10.8885 26.6564H8.13262L7.71663 26.0115L7.42544 25.1691L8.73579 23.1722L9.57816 22.7354L11.5749 22.4858L12.5421 22.1946L15.1524 20.8425L15.714 20.2705L15.662 19.6672L14.57 18.0656L13.0205 18.1696L12.6773 18.9392L11.1901 19.4072L7.30062 18.7624L5.67827 17.2023V15.0286L5.91747 14.5294L7.08223 13.4269L8.3198 12.8445V12.3557L9.06859 11.014L10.067 10.234L11.3981 9.81797L11.7933 9.08994L12.6357 8.2267L14.2061 7.60267L15.7036 7.42586L16.2964 6.68742L16.9412 6.52102L21.1011 5.80338H21.6835M22.1618 3.66088H20.9451L20.7683 3.69209L16.6084 4.40972H16.5252L16.442 4.45132L15.7972 4.61773L15.142 4.79453L14.7156 5.32496L14.6532 5.40817L13.998 5.49137L13.7277 5.52257L13.4781 5.62658L11.9077 6.2506L11.5021 6.41701L11.1901 6.72903L10.3478 7.59227L10.1398 7.80028L10.0046 8.04989L9.47419 8.2163L9.12057 8.3307L8.82938 8.55951L7.83102 9.33955L7.49822 9.59956L7.29024 9.96358L6.54146 11.3052L6.49985 11.378L6.22945 11.5029L5.91747 11.6485L5.66789 11.8877L4.50309 12.9901L4.22231 13.2501L4.05591 13.5933L3.81674 14.0926L3.61914 14.519V18.0552L4.25351 18.6688L5.87586 20.2289L6.34386 20.6761L6.97823 20.7801L8.37179 21.0089L7.78941 21.3105L7.31103 21.5601L7.00943 22.0177L5.69909 24.0146L5.13749 24.8675L5.47029 25.8347L5.76148 26.6772L5.84467 26.906L5.97987 27.114L6.39585 27.7588L7.00943 28.7157H11.1069L12.8437 28.5285L13.0413 28.5077L13.2285 28.4557L15.298 27.8316L18.2307 26.9684L19.9051 26.8332H19.9883L20.0715 26.8124L22.5778 26.3964L27.1121 26.3444L29.5768 26.5108L30.856 26.594L31.5112 25.4811L37.0438 16.0271L37.7822 14.7582L36.8359 13.635L34.0487 10.3068L33.7471 9.94278L33.3103 9.74517L30.9184 8.67392L28.3289 7.07224L25.1466 5.04414L25.0218 4.97134L24.897 4.90894L22.5674 3.83769L22.1514 3.65048L22.1618 3.66088Z" fill="#121212"/>
<path d="M8.65234 25.221L8.80833 25.741L9.31791 25.949L10.8571 25.9906L12.2402 25.8554L12.6874 25.481L12.4898 24.5866L12.0947 24.3786L10.5139 24.5138L9.4115 24.7634L8.65234 25.221Z" fill="#121212"/>
</svg>
