<svg width="44" height="28" viewBox="0 0 44 28" fill="none" xmlns="http://www.w3.org/2000/svg">
<path d="M25.2714 22.9645L21.6419 23.6821L19.3748 24.6181L13.1869 25.2526L9.99422 22.0076L9.26622 21.9556L9.07904 21.654L8.09105 22.1428L1.46643 19.4907V14.1864L1.52883 14.0616L1.04004 13.032L2.62082 8.75738L9.12065 3.71315L11.6998 2.24668L14.7469 1.79945L17.6068 1.14423L19.7283 1.04022L27.4969 2.38189L38.0215 7.25972L43.6789 15.7361L27.6945 26.1574L25.2714 22.9645Z" fill="#E9EFDA"/>
<path d="M12.9063 19.8237L12.9271 18.6277L11.3568 18.5029L10.8576 17.702L10.244 17.962L9.23521 17.5356L7.92487 18.1908L5.07532 17.0468V15.1331L5.60572 14.1866L4.96094 12.845L5.64732 10.9833L11.1384 6.71909L12.8959 5.72064L15.4543 5.34623L18.0958 4.7326L19.5101 4.6702L26.4156 5.86625L35.5777 10.1096L38.6456 14.7067L28.5371 21.2902L26.9356 19.1685L26.5819 19.0021L25.1572 19.3037L20.5917 20.2085L18.4702 21.0822L14.5495 21.4878L12.9063 19.8237Z" fill="#E9EFDA"/>
<path d="M19.4475 5.71013L26.1033 6.86458L34.8807 10.9312L37.1999 14.4049L28.7865 19.886L27.6113 18.3363L26.7169 17.8995L24.9386 18.2739L20.2795 19.1892L18.21 20.0524L14.934 20.3852L13.9565 19.3868L13.9773 17.9307L15.5788 16.225L17.378 15.5698L19.6763 14.2593L19.4683 13.6353L18.5428 13.5001L16.6604 14.3321L15.402 15.809L13.8317 17.6291L11.9701 17.4835L11.4605 16.6618L11.6165 16.2458L10.2542 16.8075L9.5158 16.4954L9.06859 16.433L7.88304 17.0259L6.11507 16.3186V15.3722L7.09265 13.6249L6.40626 13.4273L6.08387 12.7617L6.52067 11.5968L11.7101 7.56142L13.2389 6.69817L15.5996 6.34456L18.2307 5.74133L19.4371 5.67893M19.5723 3.61963H19.3435L18.1371 3.69243H17.9604L17.7836 3.74444L15.2252 4.32686L12.9373 4.67008L12.5525 4.72209L12.2197 4.90929L10.6909 5.77253L10.5558 5.84534L10.4414 5.93894L5.25191 9.97434L4.78391 10.3383L4.57593 10.8896L4.13913 12.0544L3.82715 12.8865L4.21193 13.6873L4.43032 14.1449L4.29512 14.3841L4.03512 14.8626V17.7539L5.3455 18.2739L7.11343 18.9812L7.97663 19.3244L8.80859 18.9084L9.27659 18.6795L9.44299 18.7523L10.2438 19.0852L10.4518 19.002L10.7637 19.5012L11.8037 19.5844H11.8869V20.25L12.5005 20.874L13.4781 21.8725L14.1749 22.5797L15.1628 22.4757L18.4388 22.1429L18.7404 22.1117L19.0211 21.9973L20.9035 21.2173L25.3546 20.3332L26.3425 20.1252L27.1225 21.1549L28.2873 22.7045L29.9096 21.6437L38.323 16.1626L40.091 15.0186L38.9262 13.2713L36.6071 9.79751L36.2847 9.30871L35.7543 9.05909L26.9769 4.99249L26.7273 4.87809L26.4569 4.82609L19.8011 3.67163L19.5723 3.63003V3.61963Z" fill="#121212"/>
<path d="M25.2714 22.9643L21.6419 23.682L19.3748 24.618L13.1869 25.2524L9.99422 22.0075L9.26622 21.9555L9.07904 21.6539L8.09105 22.1427L1.46643 19.4906V14.1863L1.52883 14.0615L1.04004 13.0319L2.62082 8.75725L9.12065 3.71303L11.6998 2.24655L14.7469 1.79933L17.6068 1.1441L19.7283 1.0401L27.4969 2.38176L38.0215 7.2596L43.6789 15.736L27.6945 26.1573L25.2714 22.9643Z" fill="#E9EFDA"/>
<path d="M19.7074 0C19.7074 0 19.6866 0 19.6762 0L17.5962 0.104003C17.305 0.114404 17.0866 0.364012 17.1074 0.644825C17.1178 0.925639 17.3466 1.14405 17.6274 1.14405C17.6274 1.14405 17.6482 1.14405 17.6586 1.14405C17.6586 1.14405 18.8546 1.08165 19.4369 1.06085C19.4369 1.06085 19.437 1.06085 19.4474 1.06085H19.4578H19.489H19.5202H19.5617H19.645L25.0736 1.99689C25.0736 1.99689 25.136 1.99689 25.1568 1.99689C25.4064 1.99689 25.6248 1.82008 25.6664 1.57047C25.7184 1.28966 25.5208 1.01925 25.24 0.967246L19.8114 0.0312002C19.8114 0.0312002 19.749 0.0312002 19.7178 0.0312002H19.6969C19.6657 0.0312002 19.6346 0.0312002 19.6138 0.0312002L19.7074 0ZM11.294 1.36246C11.2108 1.36246 11.1172 1.38326 11.034 1.42486L9.22444 2.45452C8.97485 2.60012 8.89165 2.91214 9.02685 3.16175C9.12044 3.32816 9.29724 3.42176 9.48444 3.42176C9.56764 3.42176 9.66123 3.40096 9.74443 3.35935L11.554 2.32971C11.8036 2.1841 11.8868 1.87209 11.7516 1.62247C11.658 1.45607 11.4812 1.36246 11.294 1.36246ZM4.43015 6.17789C4.31576 6.17789 4.20136 6.20909 4.10777 6.29229L2.46462 7.57155C2.23583 7.74836 2.1942 8.07078 2.371 8.29959C2.47499 8.4348 2.63102 8.49719 2.78701 8.49719C2.90141 8.49719 3.0054 8.466 3.1094 8.3932L4.21177 7.54035C4.50296 7.31154 4.74213 7.12433 4.74213 7.12433C4.97093 6.94753 5.01255 6.62511 4.83576 6.3963C4.73176 6.2611 4.57574 6.19869 4.41974 6.19869L4.43015 6.17789ZM1.62222 9.43324C1.41422 9.43324 1.21663 9.55805 1.13343 9.77646L0.0622576 12.6782C-0.0313399 12.9382 -0.0209313 13.2398 0.103865 13.4894L0.426254 14.1551C0.426254 14.1551 0.426254 14.1863 0.426254 14.1967V16.0584C0.426254 16.3496 0.655048 16.5784 0.946241 16.5784C1.23743 16.5784 1.46623 16.3496 1.46623 16.0584V14.1967V14.1759V14.1655V14.1447V14.1239H1.47664V14.1135L1.23743 13.6246L1.21664 13.5934L1.19586 13.5622V13.5414L1.14384 13.427L1.01905 13.1774L0.987848 13.1254L2.05902 10.2133C2.16302 9.94287 2.01743 9.64126 1.74704 9.54765C1.68464 9.52685 1.62223 9.51645 1.57023 9.51645L1.62222 9.43324ZM0.946241 17.608C0.655048 17.608 0.426254 17.8368 0.426254 18.1281V19.4905C0.426254 19.9169 0.686252 20.3017 1.08144 20.4578L5.60533 22.2674C5.66773 22.2882 5.73013 22.3091 5.80293 22.3091C6.01092 22.3091 6.20851 22.1842 6.2813 21.9866C6.3853 21.7162 6.26051 21.4146 5.99011 21.3106C5.99011 21.3106 3.29659 20.229 2.05902 19.7401C2.05902 19.7401 2.04863 19.7401 2.03823 19.7401C2.03823 19.7401 1.98622 19.7193 1.96542 19.7089C1.96542 19.7089 1.94464 19.7089 1.94464 19.6985C1.94464 19.6985 1.93422 19.6985 1.92382 19.6985H1.91341H1.90303H1.87183V19.6881H1.86142H1.85101L1.79903 19.6673H1.77824H1.76783L1.72622 19.6465L1.58064 19.5841V18.2217C1.58064 17.9304 1.35185 17.7016 1.06065 17.7016L0.946241 17.608ZM9.07883 21.6538L8.92284 21.7266L8.86045 21.7578L8.64203 21.8618L8.60045 21.8826H8.59004L8.52765 21.9138L8.44446 21.9554L8.38204 21.9866L8.22605 22.0698L8.17406 22.0906H8.16365L8.14286 22.101L7.97646 22.0386C7.91407 22.0178 7.85167 21.997 7.77887 21.997C7.57087 21.997 7.37329 22.1218 7.30049 22.3195C7.19649 22.5899 7.32129 22.8915 7.59168 22.9955L7.76846 23.0683C7.89325 23.1203 8.02845 23.1411 8.15324 23.1411C8.30924 23.1411 8.47565 23.0995 8.62124 23.0267L8.93322 22.8707C9.02682 22.9123 9.13084 22.9331 9.24523 22.9435L9.682 22.9747C9.682 22.9747 9.71321 22.9747 9.72361 22.9747C9.994 22.9747 10.2228 22.7667 10.2436 22.4963C10.2644 22.205 10.0564 21.9554 9.76522 21.9346C9.76522 21.9346 9.42202 21.9034 9.33883 21.9034L9.15164 21.6018L9.07883 21.6538ZM16.7018 24.8988C16.7018 24.8988 16.6706 24.8988 16.6498 24.8988L14.5803 25.1068C14.2995 25.138 14.0915 25.3876 14.1227 25.6788C14.1539 25.9492 14.3723 26.1468 14.6427 26.1468C14.6635 26.1468 14.6739 26.1468 14.6947 26.1468L16.7642 25.9388C17.045 25.9076 17.253 25.658 17.2322 25.3668C17.201 25.0964 16.9826 24.8988 16.7122 24.8988H16.7018ZM24.8032 23.0579C24.8032 23.0579 24.7408 23.0579 24.6992 23.0579L23.6072 23.2763H23.5968C23.1185 23.3699 22.6609 23.4635 22.6609 23.4635C22.3801 23.5155 22.1929 23.7963 22.2553 24.0771C22.3073 24.3267 22.5257 24.4932 22.7649 24.4932C22.7961 24.4932 22.8273 24.4932 22.8689 24.4932L24.9072 24.0875C25.188 24.0355 25.3752 23.7547 25.3128 23.4739C25.2608 23.2243 25.0424 23.0579 24.8032 23.0579ZM25.76 23.9523C25.6456 23.9523 25.5416 23.9835 25.448 24.0563C25.2192 24.2331 25.1776 24.5556 25.344 24.7844L26.8624 26.7813C27.0704 27.0517 27.3719 27.1973 27.6943 27.1973C27.8919 27.1973 28.0895 27.1453 28.2663 27.0309L31.3966 24.9924C31.6358 24.8364 31.7086 24.514 31.5526 24.2747C31.4486 24.1187 31.2822 24.0355 31.1159 24.0355C31.0223 24.0355 30.9183 24.0667 30.8351 24.1187C30.8351 24.1187 28.5575 25.606 27.8919 26.0428C27.8919 26.0428 27.8711 26.0532 27.8711 26.0636C27.8711 26.0636 27.8607 26.0636 27.8503 26.074L27.8087 26.1052L27.7775 26.126C27.7775 26.126 27.7775 26.126 27.7671 26.1052C27.5903 25.866 26.2696 24.1291 26.2696 24.1291C26.1656 23.9939 26.0096 23.9211 25.8536 23.9211L25.76 23.9523ZM38.0733 19.4905C37.9797 19.4905 37.8757 19.5217 37.7925 19.5737L32.5614 22.9851C32.3222 23.1411 32.2494 23.4635 32.4054 23.7027C32.5094 23.8587 32.6758 23.9419 32.8422 23.9419C32.9358 23.9419 33.0398 23.9107 33.123 23.8587L38.354 20.4474C38.5932 20.2914 38.666 19.9689 38.51 19.7297C38.406 19.5737 38.2397 19.4905 38.0733 19.4905ZM41.5572 17.2232C41.4636 17.2232 41.3596 17.2544 41.2764 17.3064L39.5604 18.4297C39.3212 18.5857 39.2484 18.9081 39.4044 19.1473C39.5084 19.3033 39.6748 19.3865 39.8412 19.3865C39.9348 19.3865 40.0388 19.3553 40.122 19.3033L41.8692 18.1697C42.1084 18.0136 42.1811 17.6912 42.0252 17.452C41.9212 17.296 41.7548 17.2128 41.5884 17.2128L41.5572 17.2232ZM41.0892 10.4005C40.9852 10.4005 40.8916 10.4317 40.798 10.4837C40.5588 10.6397 40.4964 10.9621 40.6524 11.2013L41.8068 12.9382C41.9108 13.0838 42.0668 13.167 42.2436 13.167C42.3476 13.167 42.4412 13.1358 42.5348 13.0838C42.774 12.9278 42.8363 12.6054 42.6803 12.3662L41.526 10.6397C41.422 10.4941 41.266 10.4109 41.0892 10.4109V10.4005ZM34.995 4.77382C34.7974 4.77382 34.6102 4.88823 34.527 5.07544C34.4022 5.33545 34.5269 5.64747 34.7765 5.76187L36.4613 6.54191H36.4717C36.5549 6.58351 36.6069 6.60431 36.6069 6.60431C36.6797 6.63551 36.7525 6.65632 36.8253 6.65632C37.0229 6.65632 37.2101 6.5419 37.2933 6.35469C37.4181 6.09468 37.2933 5.78268 37.0437 5.66827L35.1613 4.79463C35.0885 4.76343 35.0157 4.74262 34.9429 4.74262L34.995 4.77382ZM27.2991 1.30006C27.0495 1.30006 26.8312 1.47687 26.7896 1.72648C26.7376 2.00729 26.9352 2.27771 27.216 2.32971C27.216 2.32971 27.3927 2.36091 27.4759 2.37131L32.8734 4.87782C32.9462 4.90903 33.019 4.92983 33.0918 4.92983C33.2894 4.92983 33.4766 4.81542 33.5598 4.62822C33.6846 4.3682 33.5598 4.05619 33.3102 3.94179L27.9127 1.43526C27.8295 1.39366 27.7463 1.37286 27.6527 1.35206L27.3615 1.30006C27.3615 1.30006 27.2991 1.30006 27.2679 1.30006H27.2991Z" fill="#61B3C1"/>
<path d="M12.9063 19.8237L12.9271 18.6277L11.3568 18.5029L10.8576 17.702L10.244 17.962L9.23521 17.5356L7.92487 18.1908L5.07532 17.0468V15.1331L5.60572 14.1866L4.96094 12.845L5.64732 10.9833L11.1384 6.71909L12.8959 5.72064L15.4543 5.34623L18.0958 4.7326L19.5101 4.6702L26.4156 5.86625L35.5777 10.1096L38.6456 14.7067L28.5371 21.2902L26.9356 19.1685L26.5819 19.0021L25.1572 19.3037L20.5917 20.2085L18.4702 21.0822L14.5495 21.4878L12.9063 19.8237Z" fill="#E9EFDA"/>
<path d="M19.4475 5.71013L26.1033 6.86458L34.8807 10.9312L37.1999 14.4049L28.7865 19.886L27.6113 18.3363L26.7169 17.8995L24.9386 18.2739L20.2795 19.1892L18.21 20.0524L14.934 20.3852L13.9565 19.3868L13.9773 17.9307L15.5788 16.225L17.378 15.5698L19.6763 14.2593L19.4683 13.6353L18.5428 13.5001L16.6604 14.3321L15.402 15.809L13.8317 17.6291L11.9701 17.4835L11.4605 16.6618L11.6165 16.2458L10.2542 16.8075L9.5158 16.4954L9.06859 16.433L7.88304 17.0259L6.11507 16.3186V15.3722L7.09265 13.6249L6.40626 13.4273L6.08387 12.7617L6.52067 11.5968L11.7101 7.56142L13.2389 6.69817L15.5996 6.34456L18.2307 5.74133L19.4371 5.67893M19.5723 3.61963H19.3435L18.1371 3.69243H17.9604L17.7836 3.74444L15.2252 4.32686L12.9373 4.67008L12.5525 4.72209L12.2197 4.90929L10.6909 5.77253L10.5558 5.84534L10.4414 5.93894L5.25191 9.97434L4.78391 10.3383L4.57593 10.8896L4.13913 12.0544L3.82715 12.8865L4.21193 13.6873L4.43032 14.1449L4.29512 14.3841L4.03512 14.8626V17.7539L5.3455 18.2739L7.11343 18.9812L7.97663 19.3244L8.80859 18.9084L9.27659 18.6795L9.44299 18.7523L10.2438 19.0852L10.4518 19.002L10.7637 19.5012L11.8037 19.5844H11.8869V20.25L12.5005 20.874L13.4781 21.8725L14.1749 22.5797L15.1628 22.4757L18.4388 22.1429L18.7404 22.1117L19.0211 21.9973L20.9035 21.2173L25.3546 20.3332L26.3425 20.1252L27.1225 21.1549L28.2873 22.7045L29.9096 21.6437L38.323 16.1626L40.091 15.0186L38.9262 13.2713L36.6071 9.79751L36.2847 9.30871L35.7543 9.05909L26.9769 4.99249L26.7273 4.87809L26.4569 4.82609L19.8011 3.67163L19.5723 3.63003V3.61963Z" fill="#121212"/>
<path d="M14.9028 19.0749L15.1524 19.5533L15.6932 19.6677L17.2116 19.4389L18.5427 19.0645L18.9171 18.6068L18.5739 17.7644L18.1475 17.6292L16.6084 18.0452L15.5684 18.4924L14.9028 19.0749Z" fill="#121212"/>
<path d="M23.2537 13.396L21.4858 13.9472L20.373 13.0736L19.9882 12.2104L18.9691 11.8151L17.7211 11.5551L14.9236 11.7839L12.594 12.8032L10.7533 14.0408L8.76693 14.5401L8.36133 13.4584L10.0773 13.0216L11.814 11.8567L14.5076 10.6815L17.8251 10.4111L19.4578 10.7439L21.101 11.3991L21.569 12.4496L22.9105 11.8463L24.1065 11.2847L24.8033 12.2624" fill="#121212"/>
</svg>
