<svg width="44" height="21" viewBox="0 0 44 21" fill="none" xmlns="http://www.w3.org/2000/svg">
<path d="M17.7008 14.8936L16.7856 14.0616L16.64 13.7704L15.4648 13.6663L12.3865 13.1879L9.99456 12.9383L9.07939 12.4287L8.30981 11.763L8.04981 11.7215L6.03226 10.6606L5.21069 9.14212L6.13627 7.67566L7.06184 6.99962L8.29941 6.33399L8.89219 6.19878L9.76576 5.69956L10.8161 5.48116L12.6361 5.82438L14.508 6.00118L17.056 5.98038L20.0719 6.01158L21.5903 5.88678L23.1502 5.25235L24.991 4.84673L28.3189 4.66992L29.9724 5.04434L33.7995 6.03238L37.4394 5.47075L38.3442 13.4167L36.7635 13.8848L36.4619 14.1032L35.1515 15.1952L34.0595 15.5488L32.3332 15.7048L27.1541 15.788L25.5629 15.6632L22.2038 15.8192L17.7008 14.8936Z" fill="#E9EFDA"/>
<path d="M28.2252 5.72035L29.7332 6.06356L33.7475 7.10361L36.5242 6.67719L37.2106 12.6783L36.285 12.9487L35.8378 13.2815L34.6419 14.2799L33.8411 14.5296L32.2291 14.6856L27.1333 14.7584L25.5629 14.6336L22.2766 14.7792L18.1791 13.9367L17.6175 13.4271L17.3055 12.7927L15.5584 12.6367L12.5425 12.1686L10.3065 11.9398L9.67214 11.5758L8.75696 10.7958L8.38258 10.7334L6.79141 9.90135L6.40662 9.19411L6.89541 8.41407L7.613 7.90445L8.66336 7.34282L9.26655 7.19721L10.1297 6.70839L10.8161 6.57318L12.4489 6.8748L14.4144 7.062H17.0663L20.0719 7.08281L21.8398 6.9372L23.4726 6.27157L25.1365 5.90755L28.2357 5.75155M28.4124 3.62985H28.1316L25.0325 3.80666H24.8661L24.6997 3.84825L23.0358 4.21228L22.859 4.25387L22.6926 4.31627L21.3614 4.8571L20.0095 4.97151L17.0975 4.9507H14.5184L12.7505 4.78431L11.2113 4.50349L10.8161 4.43068L10.4209 4.51388L9.73453 4.6491L9.40175 4.7115L9.11056 4.87791L8.50737 5.22113L8.19538 5.29392L7.92499 5.35632L7.68579 5.49153L6.63542 6.05315L6.51063 6.11557L6.39623 6.19876L5.67865 6.70839L5.34585 6.9476L5.12746 7.29081L4.63867 8.07085L3.9939 9.09011L4.56587 10.1509L4.95067 10.8582L5.25225 11.4198L5.81385 11.711L7.405 12.5431L7.70659 12.6991L7.83138 12.7199L8.30978 13.1255L8.46576 13.2607L8.64257 13.3647L9.27694 13.7287L9.65133 13.9471L10.0881 13.9887L12.2721 14.2175L15.236 14.6752H15.3088L15.3816 14.696L16.0056 14.748L16.2344 14.956L16.796 15.4656L17.2119 15.8504L17.7735 15.9648L21.871 16.8073L22.131 16.8593H22.391L25.5525 16.7033L26.9877 16.8177H27.0813H27.1749L32.2707 16.7449H32.3539H32.4371L34.0491 16.5889L34.2675 16.568L34.4755 16.5056L35.2763 16.256L35.6714 16.1312L35.9834 15.8712L37.1378 14.9144L37.2418 14.8416L37.8138 14.6752L39.4881 14.1759L39.2905 12.4391L38.6042 6.43798L38.3546 4.28507L36.2122 4.6179L33.8515 4.9819L30.2532 4.05626H30.222L30.1908 4.04587L28.6828 3.70265L28.4021 3.64025L28.4124 3.62985Z" fill="#121212"/>
<path d="M15.9953 18.2321L14.9034 17.2336L11.9498 16.776L8.86113 16.4536L6.98917 15.3927L6.54199 15.0079L3.37007 13.3439L1.04053 8.99644L3.44288 5.14826L5.14843 3.9314L7.00998 2.93295L7.55077 2.79776L8.48673 2.26732L10.7851 1.80971L13.0938 2.23612L14.6226 2.38173L17.0457 2.37133L19.8952 2.39214L20.748 2.32974L22.0792 1.7785L24.5127 1.25847L28.631 1.04007L30.9085 1.56009L33.9869 2.35053L40.6011 1.33128L42.2754 16.0168L38.4588 17.1504L36.9196 18.4297L34.7772 19.1057L32.4893 19.3241L26.9982 19.3969L25.5007 19.2825L21.9128 19.4489L15.9953 18.2321Z" fill="#E9EFDA"/>
<path d="M28.5997 0C28.5997 0 28.5789 0 28.5685 0L26.4885 0.104011C26.1973 0.114412 25.9789 0.364022 25.9997 0.655236C26.0101 0.936049 26.2389 1.14406 26.5197 1.14406C26.5197 1.14406 26.5405 1.14406 26.5509 1.14406C26.5509 1.14406 28.0485 1.07125 28.4957 1.04005H28.5165H28.5373C28.8285 1.02965 29.0469 0.780038 29.0261 0.488824C29.0157 0.208011 28.7869 0 28.5061 0H28.5997ZM20.4359 1.31046C20.4359 1.31046 20.4047 1.31046 20.3943 1.31046L19.8639 1.35207H18.4079V1.34166C18.1272 1.34166 17.888 1.57047 17.888 1.86168C17.888 2.15289 18.1168 2.38171 18.4079 2.38171C18.4079 2.38171 19.4999 2.38172 19.8223 2.39212H19.8327H19.8431L20.4255 2.34011C20.7167 2.31931 20.9247 2.06969 20.9039 1.77848C20.8831 1.50806 20.6543 1.30006 20.3839 1.30006L20.4359 1.31046ZM10.7849 0.769642C10.7122 0.769642 10.6497 0.769631 10.5769 0.790432L9.93216 0.915248C9.65137 0.967251 9.46418 1.24806 9.52658 1.52887C9.57857 1.77849 9.79697 1.94489 10.0362 1.94489C10.0674 1.94489 10.0986 1.94489 10.1402 1.94489L10.7849 1.80969H10.8161C10.8161 1.80969 10.8369 1.80969 10.8473 1.80969C11.2009 1.87209 12.1057 2.03849 12.1057 2.03849C12.1369 2.03849 12.1681 2.03849 12.1993 2.03849C12.4489 2.03849 12.6673 1.86169 12.7089 1.61208C12.7609 1.33127 12.5737 1.06085 12.2929 1.00885L10.8889 0.748837C10.8265 0.738436 10.7641 0.728031 10.7017 0.728031L10.7849 0.769642ZM7.88342 1.48726C7.80022 1.48726 7.70662 1.50807 7.62342 1.56007L7.16583 1.82009L6.77065 1.91369C6.67706 1.93449 6.59385 1.96569 6.52106 2.00729L4.65951 3.00574C4.65951 3.00574 4.57631 3.04733 4.54511 3.07854L2.83956 4.3058C2.72516 4.38901 2.64195 4.48261 2.56916 4.59701L2.15317 5.27304C1.99718 5.51225 2.06998 5.83467 2.31957 5.99068C2.40277 6.04268 2.49636 6.07388 2.58996 6.07388C2.76676 6.07388 2.93315 5.99068 3.02675 5.83468L3.45314 5.15863L3.52593 5.10664L3.72353 4.97143L3.99393 4.77382L4.30591 4.54501L4.6179 4.3162L4.88831 4.11859L5.08589 3.98339L5.15869 3.93138L5.24189 3.88979L5.44988 3.77538L5.75147 3.61937L6.09466 3.43217L6.43786 3.24495L6.73946 3.08895L6.94745 2.97454L7.03065 2.93293H7.05144L7.11385 2.91214L7.19703 2.89134L7.30103 2.87053L7.40504 2.84974L7.48824 2.82893H7.55063L7.57142 2.80813L8.16421 2.47532C8.41381 2.32972 8.49701 2.01769 8.36181 1.76808C8.26821 1.60167 8.09141 1.50807 7.91461 1.50807L7.88342 1.48726ZM1.47718 6.79152C1.30039 6.79152 1.13399 6.87472 1.0404 7.03073L0.156429 8.44519C-0.0411663 8.75721 -0.0515647 9.16283 0.125231 9.48524L2.28838 13.5102C2.38197 13.6871 2.55875 13.7807 2.74595 13.7807C2.82915 13.7807 2.91235 13.7599 2.99555 13.7183C3.24514 13.583 3.33875 13.271 3.21395 13.011L1.05081 8.97563V8.95482L1.082 8.91321V8.89242H1.0924C1.0924 8.89242 1.0924 8.89241 1.0924 8.88201C1.0924 8.88201 1.0924 8.88202 1.0924 8.87162C1.0924 8.87162 1.0924 8.85082 1.1132 8.84042C1.3524 8.4556 1.87238 7.62356 1.87238 7.62356C2.02837 7.38435 1.95557 7.06193 1.70598 6.90593C1.62278 6.85392 1.52919 6.82272 1.43559 6.82272L1.47718 6.79152ZM4.65951 14.0823C4.47232 14.0823 4.29552 14.1863 4.20192 14.3631C4.06672 14.6127 4.17071 14.9351 4.42031 15.0599L5.95948 15.8607L6.04268 15.9335C6.13627 16.0167 6.26106 16.0584 6.37546 16.0584C6.52106 16.0584 6.66666 15.996 6.77065 15.8816C6.95785 15.6631 6.93705 15.3303 6.71865 15.1535C6.71865 15.1535 6.59385 15.0495 6.55225 15.0183L6.47946 14.9767L6.43786 14.9559L6.41705 14.9455H6.40666H6.39626H6.38585C5.93867 14.7167 4.9611 14.1967 4.9611 14.1967C4.8883 14.1551 4.80511 14.1343 4.72191 14.1343L4.65951 14.0823ZM12.4801 16.8696C12.2305 16.8696 12.0017 17.0568 11.9705 17.3064C11.9289 17.5872 12.1161 17.8576 12.4073 17.8992L14.4664 18.2217C14.4664 18.2217 14.5184 18.2217 14.5496 18.2217C14.7992 18.2217 15.028 18.0345 15.0592 17.7848C15.1008 17.504 14.9136 17.2336 14.6225 17.192L12.5633 16.8696C12.5633 16.8696 12.5113 16.8696 12.4801 16.8696ZM20.2695 19.1161C20.0303 19.1161 19.8119 19.2825 19.7599 19.5321C19.6975 19.8129 19.8847 20.0833 20.1655 20.1457L21.7047 20.4682C21.7775 20.4786 21.8399 20.489 21.9127 20.489C21.9335 20.489 21.9439 20.489 21.9647 20.489L22.4638 20.4682C22.755 20.4578 22.9734 20.2082 22.963 19.9273C22.9526 19.6465 22.7238 19.4281 22.443 19.4281C22.443 19.4281 22.4326 19.4281 22.4222 19.4281L21.923 19.4489L20.3735 19.1265C20.3735 19.1265 20.3007 19.1161 20.2695 19.1161ZM25.5006 19.2825H25.4797H25.4694C25.2302 19.2929 24.5438 19.3241 24.5438 19.3241C24.2526 19.3345 24.0342 19.5841 24.0446 19.8649C24.055 20.1458 24.2838 20.3642 24.5646 20.3642H24.5854L25.5214 20.3226L26.9461 20.437C26.9461 20.437 26.9981 20.437 27.0293 20.437C27.0293 20.437 27.0293 20.437 27.0397 20.437L30.7732 20.385C31.0644 20.385 31.2932 20.1457 31.2828 19.8545C31.2828 19.5737 31.0436 19.3449 30.7628 19.3449C30.7628 19.3449 27.7573 19.3865 27.1333 19.3969H27.1021H27.0709L26.3221 19.3345L25.5838 19.2721L25.5006 19.2825ZM38.4586 17.1504L36.9194 18.4297L34.7771 19.1057H34.6939H34.6003H34.5379H34.5171C34.5171 19.1057 34.4963 19.1057 34.4859 19.1057C34.4859 19.1057 34.4755 19.1057 34.4651 19.1057C33.8827 19.1577 33.0196 19.2409 33.0196 19.2409C32.7284 19.2721 32.5204 19.5217 32.5516 19.8025C32.5724 20.0729 32.8012 20.2706 33.0716 20.2706C33.0924 20.2706 33.1028 20.2706 33.1236 20.2706L35.0891 20.0833C35.1619 20.0833 35.2347 20.0626 35.3075 20.0417L37.4498 19.3657C37.5746 19.3241 37.6994 19.2617 37.8034 19.1681L38.989 18.1801C39.0098 18.2633 39.0202 18.2945 39.0202 18.2945C39.0202 18.2945 39.0098 18.2529 38.989 18.1801L39.3322 17.8888L38.6666 17.088L38.4586 17.1504ZM42.7745 15.2575C42.7745 15.2575 42.7329 15.2575 42.7121 15.2575C42.4313 15.2887 42.2233 15.5487 42.2545 15.8295C42.2545 15.8295 42.2649 15.9335 42.2753 15.9855H42.2545H42.2337C42.2337 15.9855 42.2337 15.9855 42.2233 15.9855C41.8385 16.1 40.5178 16.4848 40.5178 16.4848C40.2474 16.568 40.081 16.8592 40.1642 17.1296C40.2266 17.3584 40.4346 17.504 40.6634 17.504C40.7154 17.504 40.757 17.504 40.809 17.4832L42.6185 16.9424C43.1073 16.7968 43.4193 16.3288 43.3569 15.8295L43.3361 15.6423C43.3049 15.3719 43.0761 15.1847 42.8161 15.1847L42.7745 15.2575ZM41.8281 6.98913C41.8281 6.98913 41.7865 6.98913 41.7657 6.98913C41.4849 7.02033 41.2769 7.28035 41.3081 7.56116L41.4641 8.91321C41.5057 9.28763 41.5369 9.58925 41.5369 9.58925C41.5681 9.85967 41.7969 10.0469 42.0569 10.0469C42.0777 10.0469 42.0985 10.0469 42.1193 10.0469C42.4001 10.0157 42.6081 9.75566 42.5769 9.47485L42.3377 7.40514C42.3065 7.13473 42.0777 6.94752 41.8177 6.94752L41.8281 6.98913ZM40.601 0.291212C40.549 0.291212 40.497 0.291207 40.445 0.301607L38.4274 0.613625C38.1466 0.655227 37.949 0.925647 37.9906 1.20646C38.0322 1.46647 38.2506 1.64328 38.5002 1.64328C38.5314 1.64328 38.5522 1.64328 38.5834 1.64328L40.601 1.33126V1.37286C40.6322 1.63287 40.861 1.83048 41.1209 1.83048C41.1417 1.83048 41.1625 1.83048 41.1833 1.83048C41.4641 1.79928 41.6721 1.53926 41.6409 1.25845V1.21686C41.6097 0.936042 41.4641 0.676038 41.2353 0.50963C41.0481 0.374423 40.8298 0.291212 40.601 0.291212ZM30.5444 0.426424C30.3052 0.426424 30.0972 0.592831 30.0348 0.832042C29.9724 1.11286 30.1492 1.39366 30.43 1.45606L30.898 1.56007L31.0332 1.59127L31.3868 1.68487L31.8756 1.80969L32.4372 1.9553L32.9988 2.1009L33.4876 2.2257L33.8411 2.3193L33.9763 2.35051H33.9971H34.0179C34.4651 2.2777 36.4723 1.96569 36.4723 1.96569C36.7531 1.92409 36.9507 1.65367 36.9091 1.37286C36.8675 1.11284 36.6491 0.936038 36.3995 0.936038C36.3683 0.936038 36.3475 0.936038 36.3163 0.936038L33.9867 1.30006L31.1164 0.56162L30.6172 0.447213C30.6172 0.447213 30.5444 0.436819 30.5028 0.436819L30.5444 0.426424Z" fill="#61B3C1"/>
<path d="M17.7008 14.8936L16.7856 14.0616L16.64 13.7704L15.4648 13.6663L12.3865 13.1879L9.99456 12.9383L9.07939 12.4287L8.30981 11.763L8.04981 11.7215L6.03226 10.6606L5.21069 9.14212L6.13627 7.67566L7.06184 6.99962L8.29941 6.33399L8.89219 6.19878L9.76576 5.69956L10.8161 5.48116L12.6361 5.82438L14.508 6.00118L17.056 5.98038L20.0719 6.01158L21.5903 5.88678L23.1502 5.25235L24.991 4.84673L28.3189 4.66992L29.9724 5.04434L33.7995 6.03238L37.4394 5.47075L38.3442 13.4167L36.7635 13.8848L36.4619 14.1032L35.1515 15.1952L34.0595 15.5488L32.3332 15.7048L27.1541 15.788L25.5629 15.6632L22.2038 15.8192L17.7008 14.8936Z" fill="#E9EFDA"/>
<path d="M28.2252 5.72035L29.7332 6.06356L33.7475 7.10361L36.5242 6.67719L37.2106 12.6783L36.285 12.9487L35.8378 13.2815L34.6419 14.2799L33.8411 14.5296L32.2291 14.6856L27.1333 14.7584L25.5629 14.6336L22.2766 14.7792L18.1791 13.9367L17.6175 13.4271L17.3055 12.7927L15.5584 12.6367L12.5425 12.1686L10.3065 11.9398L9.67214 11.5758L8.75696 10.7958L8.38258 10.7334L6.79141 9.90135L6.40662 9.19411L6.89541 8.41407L7.613 7.90445L8.66336 7.34282L9.26655 7.19721L10.1297 6.70839L10.8161 6.57318L12.4489 6.8748L14.4144 7.062H17.0663L20.0719 7.08281L21.8398 6.9372L23.4726 6.27157L25.1365 5.90755L28.2357 5.75155M28.4124 3.62985H28.1316L25.0325 3.80666H24.8661L24.6997 3.84825L23.0358 4.21228L22.859 4.25387L22.6926 4.31627L21.3614 4.8571L20.0095 4.97151L17.0975 4.9507H14.5184L12.7505 4.78431L11.2113 4.50349L10.8161 4.43068L10.4209 4.51388L9.73453 4.6491L9.40175 4.7115L9.11056 4.87791L8.50737 5.22113L8.19538 5.29392L7.92499 5.35632L7.68579 5.49153L6.63542 6.05315L6.51063 6.11557L6.39623 6.19876L5.67865 6.70839L5.34585 6.9476L5.12746 7.29081L4.63867 8.07085L3.9939 9.09011L4.56587 10.1509L4.95067 10.8582L5.25225 11.4198L5.81385 11.711L7.405 12.5431L7.70659 12.6991L7.83138 12.7199L8.30978 13.1255L8.46576 13.2607L8.64257 13.3647L9.27694 13.7287L9.65133 13.9471L10.0881 13.9887L12.2721 14.2175L15.236 14.6752H15.3088L15.3816 14.696L16.0056 14.748L16.2344 14.956L16.796 15.4656L17.2119 15.8504L17.7735 15.9648L21.871 16.8073L22.131 16.8593H22.391L25.5525 16.7033L26.9877 16.8177H27.0813H27.1749L32.2707 16.7449H32.3539H32.4371L34.0491 16.5889L34.2675 16.568L34.4755 16.5056L35.2763 16.256L35.6714 16.1312L35.9834 15.8712L37.1378 14.9144L37.2418 14.8416L37.8138 14.6752L39.4881 14.1759L39.2905 12.4391L38.6042 6.43798L38.3546 4.28507L36.2122 4.6179L33.8515 4.9819L30.2532 4.05626H30.222L30.1908 4.04587L28.6828 3.70265L28.4021 3.64025L28.4124 3.62985Z" fill="#121212"/>
<path d="M16.6921 11.9919L17.5033 10.7127L18.3561 10.0783L21.2368 9.56863L22.5472 9.48543L25.4279 9.0278L26.4991 9.16301L26.3327 10.5775L25.4487 10.4735L22.6824 10.8999L21.3928 10.9831L18.9385 11.4199L18.5641 11.7007L17.8985 12.7512L16.6921 11.9919Z" fill="#121212"/>
<path d="M17.7529 12.1063L17.3369 11.8463L17.8465 11.035L18.5537 10.515L21.32 10.0262L22.568 9.95338L25.4279 9.50616L25.9791 9.56856L25.9271 10.0574L25.4383 10.0054L22.6096 10.4422L21.3616 10.515L18.7513 10.983L18.2209 11.3783L17.7529 12.1063Z" fill="#121212"/>
<path d="M18.2207 13.1256L18.6783 13.5832L20.3318 13.9368L21.3822 14.0096L21.7046 13.864L21.6422 12.668L20.727 12.512L18.6575 12.5328L18.2207 13.1256Z" fill="#121212"/>
</svg>
