<svg width="42" height="32" viewBox="0 0 42 32" fill="none" xmlns="http://www.w3.org/2000/svg">
<path d="M27.5808 25.8661L25.9481 25.1901L21.237 22.746L19.8538 21.8619L16.7443 20.3746L13.1356 17.3585L12.7196 16.1728L12.73 15.8296L11.7108 15.164L9.16289 13.2399L7.11414 11.8566L6.55257 10.9518L6.16776 9.97416L5.95977 9.81814L4.64941 7.88367V6.13637L6.17817 5.26274L7.34294 5.10672H8.7677L9.37088 5.27313L10.4109 5.24193L11.4404 5.55395L12.9276 6.75L14.5292 7.81085L16.8483 9.0381L19.5626 10.5254L20.9874 11.1494L22.7137 11.3366L24.5649 11.8566L27.6432 13.3231L28.9536 14.4464L31.9383 17.2129L35.4846 18.461L32.4687 26.0221L30.8255 25.6789L30.4407 25.7413L28.7352 26.0949L27.5808 25.8661Z" fill="#E9EFDA"/>
<path d="M8.6323 6.1469L9.24588 6.31331L10.2651 6.28211L10.9514 6.49012L12.2722 7.55097L13.957 8.67423L16.3593 9.95348L19.0632 11.4304L20.7272 12.1584L22.5159 12.356L24.2007 12.8344L27.0814 14.1969L28.2774 15.2369L31.3973 18.1179L34.122 19.0747L31.8341 24.8262L30.8669 24.6286L30.3053 24.7118L28.735 25.0342L27.8926 24.8782L26.3638 24.2334L21.7256 21.8308L20.3736 20.9572L17.3265 19.5011L14.0298 16.745L13.7698 16.017L13.7906 15.2889L12.2826 14.3009L9.78667 12.4184L7.88352 11.1287L7.48833 10.4943L7.04115 9.33986L6.73955 9.10065L5.69957 7.57178V6.75013L6.52116 6.28211L7.41554 6.16771H8.6427M8.9131 4.0668H7.28034L7.14513 4.08761L6.25076 4.20201L5.84517 4.25402L5.49158 4.46203L4.67001 4.93005L3.61963 5.53328V8.20621L3.97323 8.73663L5.0132 10.2655L5.20039 10.5463L5.31479 10.6295L5.55398 11.2432L5.62678 11.4304L5.73077 11.5968L6.12597 12.2312L6.35476 12.5952L6.71876 12.8448L8.5803 14.1137L11.0346 15.965L11.0866 16.0066L11.149 16.0482L11.7002 16.4122L11.8146 16.7242L12.0746 17.4522L12.2618 17.9931L12.6986 18.3571L15.9953 21.1132L16.1929 21.2796L16.4321 21.394L19.3648 22.7981L20.6128 23.5989L20.696 23.6509L20.7792 23.6925L25.4175 26.0951L25.4903 26.1366L25.563 26.1678L27.0918 26.8127L27.2894 26.8959L27.5078 26.9375L28.3502 27.0935L28.7558 27.1663L29.1614 27.0831L30.6693 26.7711L30.8045 26.7503L31.4077 26.8751L33.1132 27.2287L33.758 25.6062L36.046 19.8548L36.8467 17.8475L34.8084 17.1298L32.4893 16.3082L29.6814 13.7185L29.6605 13.6977L29.6397 13.6769L28.4438 12.6368L28.2254 12.4496L27.9654 12.3248L25.0847 10.9623L24.9287 10.8895L24.7623 10.8479L23.0775 10.3695L22.9007 10.3175L22.7239 10.2967L21.2472 10.1407L19.9576 9.57907L17.3369 8.14381L15.0073 6.89574L13.489 5.88689L12.2306 4.87804L11.9186 4.62844L11.5338 4.51403L10.8474 4.30603L10.525 4.21241H10.1923L9.47468 4.24363L9.15229 4.16042L8.88189 4.08761L8.9131 4.0668Z" fill="#121212"/>
<path d="M30.7624 29.3605L28.7553 29.7766L26.5298 29.3501L24.377 28.4453L19.3852 25.8556L18.0852 25.0235L14.7781 23.4323L10.067 19.4905L9.55742 18.0656L7.08228 16.1935L4.46154 14.415L3.30717 12.5845L3.08879 12.0021L1.04004 8.98599V4.03534L5.00233 1.77844L7.10308 1.49762H9.25581L9.807 1.64324L10.899 1.62244L13.1557 2.29846L15.0277 3.79614L16.3484 4.68018L18.5428 5.85543L21.1115 7.2595L21.9331 7.61311L23.4099 7.77952L25.833 8.46596L29.6393 10.2652L31.428 11.8149L33.8408 14.051L40.2262 16.2975L34.6935 30.1822L30.7624 29.3605Z" fill="#E9EFDA"/>
<path d="M9.25575 0.457608H7.1758C6.88461 0.457608 6.65582 0.686419 6.65582 0.977633C6.65582 1.26885 6.88461 1.49766 7.1758 1.49766H9.27655L9.33895 1.51846L9.42215 1.53927L9.49495 1.56007H9.50535L9.60935 1.59127L9.69255 1.61206L9.75495 1.63287H9.77573L10.7533 1.61206C11.0445 1.61206 11.2629 1.36246 11.2525 1.08164C11.2525 0.800831 11.0133 0.572014 10.7325 0.572014C10.7325 0.572014 10.7325 0.572014 10.7221 0.572014L9.90054 0.59282L9.49495 0.478414C9.49495 0.478414 9.40135 0.457608 9.35975 0.457608C9.31815 0.447208 9.26615 0.436819 9.22455 0.436819L9.25575 0.457608ZM1.22716 2.81852C1.14396 2.81852 1.05036 2.83933 0.967167 2.89134L0.519986 3.14094C0.197595 3.32815 0 3.67137 0 4.04579V5.61626C0 5.90747 0.228794 6.13628 0.519986 6.13628C0.811179 6.13628 1.03997 5.90747 1.03997 5.61626V4.04579L1.48715 3.79617C1.73675 3.65057 1.81995 3.33856 1.68475 3.08895C1.59115 2.92254 1.41437 2.82893 1.23757 2.82893L1.22716 2.81852ZM2.21515 11.1285C2.11115 11.1285 2.01755 11.1597 1.92396 11.2221C1.68476 11.3781 1.62236 11.7109 1.78875 11.9398L2.16314 12.491L2.33994 12.959C2.36074 13.0214 2.39193 13.0838 2.43353 13.1358L2.79753 13.7182C2.90153 13.8742 3.06792 13.9575 3.23431 13.9575C3.32791 13.9575 3.42151 13.9367 3.51511 13.8743C3.75431 13.7182 3.82709 13.3958 3.6815 13.1566C3.6815 13.1566 3.36951 12.6574 3.32791 12.5846L3.25512 12.4078L3.22392 12.3246L3.16151 12.1686L3.09911 12.0126C3.09911 12.0126 3.09911 12.0126 3.09911 12.0022C3.09911 12.0022 3.09911 12.0022 3.09911 11.9918C3.09911 11.9918 3.09911 11.9918 3.09911 11.9814C2.97432 11.7941 2.73513 11.4509 2.73513 11.4509C2.63114 11.3053 2.47514 11.2221 2.30874 11.2221L2.21515 11.1285ZM4.65907 14.6647C4.49268 14.6647 4.32629 14.7479 4.2327 14.8935C4.0663 15.1327 4.12869 15.4551 4.36788 15.6111L6.46863 17.036L8.67337 18.7001L8.75657 18.9393C8.82936 19.1473 9.03736 19.2825 9.24535 19.2825C9.30775 19.2825 9.35975 19.2825 9.42215 19.2513C9.69254 19.1577 9.83814 18.8561 9.73414 18.5857L9.54694 18.0553L7.07182 16.1832L4.93987 14.7375C4.84627 14.6751 4.75268 14.6439 4.64868 14.6439L4.65907 14.6647ZM10.5973 20.0937C10.4517 20.0937 10.3061 20.1562 10.2021 20.281C10.0149 20.4994 10.0461 20.8322 10.2645 21.009L14.1124 24.2227C14.1748 24.2747 14.2476 24.3267 14.3308 24.3579L15.4332 24.8884C15.506 24.9196 15.5788 24.9404 15.662 24.9404C15.8596 24.9404 16.0468 24.8364 16.13 24.6492C16.2548 24.3891 16.1404 24.0771 15.8908 23.9523C15.8908 23.9523 15.4852 23.7547 15.1732 23.6091C15.1732 23.6091 15.1732 23.6091 15.1628 23.6091C15.1628 23.6091 15.142 23.6091 15.142 23.5987H15.1316H15.1108L15.0796 23.5779L15.0276 23.5467L14.9756 23.5259L11.1277 20.3122C11.0341 20.229 10.9093 20.1873 10.7949 20.1873L10.5973 20.0937ZM17.5339 24.8156C17.3363 24.8156 17.1491 24.9196 17.066 25.1068C16.9412 25.3668 17.0555 25.6788 17.3051 25.8036L17.5755 25.9388L18.8131 26.7293C18.8131 26.7293 18.8651 26.7605 18.8963 26.7813L19.0523 26.8645C19.1251 26.9061 19.2083 26.9269 19.2915 26.9269C19.4787 26.9269 19.6659 26.8229 19.7491 26.6461C19.8843 26.386 19.7803 26.074 19.5307 25.9492C19.5307 25.9492 19.4579 25.9076 19.4059 25.8868L18.1163 25.0548C18.0435 25.0132 17.8043 24.9092 17.8043 24.9092C17.7315 24.878 17.6587 24.8572 17.5755 24.8572L17.5339 24.8156ZM24.9074 28.7053C24.6994 28.7053 24.5121 28.8301 24.4289 29.0278C24.3145 29.2878 24.4394 29.5998 24.7098 29.7038L26.1345 30.307C26.1969 30.3382 26.2697 30.359 26.3425 30.3694L26.8729 30.4734C26.8729 30.4734 26.9353 30.4734 26.9665 30.4734C27.2161 30.4734 27.4241 30.2966 27.4761 30.047C27.5281 29.7662 27.3409 29.4958 27.0601 29.4438C27.0601 29.4438 26.6441 29.3606 26.5505 29.3502C26.3425 29.267 25.1569 28.7677 25.1569 28.7677C25.0945 28.7365 25.0217 28.7262 24.9593 28.7262L24.9074 28.7053ZM35.3695 29.371C35.1615 29.371 34.9639 29.4958 34.8911 29.6934C34.8911 29.6934 34.7663 29.995 34.7247 30.1198V30.1406L33.1855 29.8182C33.1543 29.8182 33.1127 29.8078 33.0815 29.8078C32.8423 29.8078 32.6239 29.9742 32.5719 30.2238C32.5095 30.5046 32.6967 30.7854 32.9775 30.8374L34.5063 31.1599C34.5791 31.1703 34.6519 31.1807 34.7143 31.1807C35.1303 31.1807 35.5151 30.931 35.6814 30.5254L35.879 30.0366C35.983 29.7662 35.8582 29.4646 35.5879 29.3606C35.5255 29.3398 35.4631 29.319 35.3903 29.319L35.3695 29.371ZM38.4478 21.6434C38.2398 21.6434 38.0422 21.7682 37.9694 21.9658C37.9694 21.9658 37.6678 22.7251 37.283 23.6923V23.7027C37.283 23.7027 37.283 23.7131 37.283 23.7235V23.7547H37.2726V23.7755C37.2726 23.7755 37.2726 23.7755 37.2622 23.7755L35.6814 27.7381C35.5775 28.0085 35.7023 28.3101 35.9726 28.4141C36.035 28.4349 36.0974 28.4557 36.1702 28.4557C36.3782 28.4557 36.5758 28.3309 36.6486 28.1333L38.9574 22.3403C39.0614 22.0698 38.9366 21.7682 38.6662 21.6642C38.6038 21.6434 38.5414 21.6226 38.479 21.6226L38.4478 21.6434ZM38.3022 14.5503C38.0838 14.5503 37.8862 14.6855 37.8134 14.8935C37.7198 15.1639 37.855 15.4655 38.1358 15.5591L40.2261 16.2976L38.739 20.0313C38.635 20.3018 38.7598 20.6034 39.0302 20.7074C39.0926 20.7282 39.155 20.749 39.2174 20.749C39.4253 20.749 39.623 20.6242 39.6958 20.4266L41.1829 16.6928C41.2869 16.4328 41.2765 16.1311 41.1621 15.8815C41.0477 15.6215 40.8293 15.4239 40.5589 15.3303L38.4686 14.5919C38.4062 14.5711 38.3542 14.5607 38.2918 14.5607L38.3022 14.5503ZM34.3815 13.167C34.1631 13.167 33.9655 13.3022 33.8927 13.5102C33.7991 13.7806 33.9343 14.0823 34.2151 14.1759C34.2151 14.1759 34.9535 14.4359 35.5151 14.6335L36.139 14.8519C36.191 14.8727 36.2534 14.8831 36.3054 14.8831C36.5238 14.8831 36.7214 14.7479 36.7942 14.5399C36.8878 14.2695 36.7526 13.9679 36.4718 13.8743L34.5063 13.1774C34.4439 13.1566 34.3919 13.1462 34.3295 13.1462L34.3815 13.167ZM27.8089 8.29959C27.6113 8.29959 27.4241 8.41399 27.3409 8.60119C27.2161 8.86121 27.3305 9.17322 27.5905 9.29803L29.4728 10.1821C29.5456 10.2133 29.6184 10.2341 29.6912 10.2341C29.8888 10.2341 30.076 10.1197 30.1592 9.93246C30.284 9.67244 30.1696 9.36043 29.9096 9.23563L28.0273 8.35159C27.9545 8.32039 27.8817 8.29959 27.8089 8.29959ZM20.0611 5.57466C19.8739 5.57466 19.6971 5.66826 19.6035 5.84507C19.4683 6.09468 19.5619 6.41709 19.8115 6.5523C19.8115 6.5523 20.5811 6.97873 20.9347 7.16594C20.9347 7.16594 20.9346 7.16594 20.945 7.16594H20.9554L21.0074 7.19714H21.0282H21.049V7.20753C21.049 7.20753 21.049 7.20753 21.0594 7.20753C21.0594 7.20753 21.0594 7.20753 21.0698 7.20753C21.2362 7.28034 21.4858 7.39475 21.4858 7.39475C21.5586 7.42595 21.621 7.43634 21.6938 7.43634C21.8914 7.43634 22.089 7.32194 22.1722 7.12433C22.2866 6.86431 22.1722 6.5523 21.9018 6.43789L21.3922 6.21949L20.1339 5.53305C20.0507 5.49145 19.9675 5.47065 19.8843 5.47065L20.0611 5.57466ZM12.9165 1.16485C12.6981 1.16485 12.4901 1.31046 12.4173 1.53927C12.3341 1.80968 12.4901 2.10089 12.7605 2.18409C12.7605 2.18409 13.0516 2.2673 13.1244 2.2985H13.1349C13.1349 2.2985 13.1452 2.29851 13.1556 2.30891L13.2076 2.35051H13.2181V2.3609C13.2181 2.3609 13.2181 2.36091 13.2285 2.37131L13.2493 2.3921H13.27V2.40251L13.3117 2.43371C13.3117 2.43371 13.3116 2.43371 13.322 2.43371H13.3428V2.45452H13.3532V2.46491H13.3637H13.3844L13.4052 2.49611L13.426 2.51692C13.426 2.51692 13.426 2.51691 13.4364 2.52731L13.4676 2.54812H13.478C13.478 2.54812 13.478 2.54811 13.478 2.55851C13.478 2.55851 13.478 2.55852 13.478 2.56892L13.5092 2.58971H13.5196V2.60012L13.5612 2.63132L13.582 2.65211C13.582 2.65211 13.582 2.65212 13.5924 2.66252C13.5924 2.66252 13.5924 2.66252 13.6028 2.67292L13.6236 2.69372L13.6964 2.74573H13.7068L13.738 2.77693L13.7588 2.79772C13.7588 2.79772 13.7588 2.80812 13.7692 2.81852H13.7796V2.82893L13.8004 2.84972L13.8212 2.87053L13.8524 2.89134C13.8524 2.89134 13.8524 2.89133 13.8628 2.90173L13.894 2.92254H13.9044V2.93293H13.9148H13.9252H13.9356V2.94334H13.946H13.9564H13.9772V2.95374L13.998 2.97454H14.0084C14.0084 2.97454 14.0084 2.97454 14.0084 2.98494C14.0084 2.98494 14.0084 2.98494 14.0188 2.98494L14.0396 3.00574V3.01614H14.05H14.0708V3.02653C14.0708 3.02653 14.0708 3.02654 14.0812 3.03694L14.1956 3.12015H14.2164V3.13054L14.2476 3.15135L14.2892 3.17214L14.4036 3.24495L14.518 3.31774L14.6012 3.36975L14.6948 3.43215H14.7052H14.7156H14.7364V3.44256L14.7572 3.46337L14.7884 3.48415H14.7988L14.8196 3.50496H14.83L16.4628 4.3786C16.5356 4.4202 16.6292 4.441 16.702 4.441C16.8891 4.441 17.0659 4.337 17.1595 4.17059C17.2947 3.92098 17.2011 3.59857 16.9411 3.46337L15.35 2.61052L14.1124 1.78889L12.2821 0.322413C12.1781 0.239209 12.0637 0.176798 11.9285 0.135196L11.5437 0.0207896C11.5437 0.0207896 11.4397 0 11.3981 0L12.9165 1.16485Z" fill="#61B3C1"/>
<path d="M27.5808 25.8661L25.9481 25.1901L21.237 22.746L19.8538 21.8619L16.7443 20.3746L13.1356 17.3585L12.7196 16.1728L12.73 15.8296L11.7108 15.164L9.16289 13.2399L7.11414 11.8566L6.55257 10.9518L6.16776 9.97416L5.95977 9.81814L4.64941 7.88367V6.13637L6.17817 5.26274L7.34294 5.10672H8.7677L9.37088 5.27313L10.4109 5.24193L11.4404 5.55395L12.9276 6.75L14.5292 7.81085L16.8483 9.0381L19.5626 10.5254L20.9874 11.1494L22.7137 11.3366L24.5649 11.8566L27.6432 13.3231L28.9536 14.4464L31.9383 17.2129L35.4846 18.461L32.4687 26.0221L30.8255 25.6789L30.4407 25.7413L28.7352 26.0949L27.5808 25.8661Z" fill="#E9EFDA"/>
<path d="M8.6323 6.1469L9.24588 6.31331L10.2651 6.28211L10.9514 6.49012L12.2722 7.55097L13.957 8.67423L16.3593 9.95348L19.0632 11.4304L20.7272 12.1584L22.5159 12.356L24.2007 12.8344L27.0814 14.1969L28.2774 15.2369L31.3973 18.1179L34.122 19.0747L31.8341 24.8262L30.8669 24.6286L30.3053 24.7118L28.735 25.0342L27.8926 24.8782L26.3638 24.2334L21.7256 21.8308L20.3736 20.9572L17.3265 19.5011L14.0298 16.745L13.7698 16.017L13.7906 15.2889L12.2826 14.3009L9.78667 12.4184L7.88352 11.1287L7.48833 10.4943L7.04115 9.33986L6.73955 9.10065L5.69957 7.57178V6.75013L6.52116 6.28211L7.41554 6.16771H8.6427M8.9131 4.0668H7.28034L7.14513 4.08761L6.25076 4.20201L5.84517 4.25402L5.49158 4.46203L4.67001 4.93005L3.61963 5.53328V8.20621L3.97323 8.73663L5.0132 10.2655L5.20039 10.5463L5.31479 10.6295L5.55398 11.2432L5.62678 11.4304L5.73077 11.5968L6.12597 12.2312L6.35476 12.5952L6.71876 12.8448L8.5803 14.1137L11.0346 15.965L11.0866 16.0066L11.149 16.0482L11.7002 16.4122L11.8146 16.7242L12.0746 17.4522L12.2618 17.9931L12.6986 18.3571L15.9953 21.1132L16.1929 21.2796L16.4321 21.394L19.3648 22.7981L20.6128 23.5989L20.696 23.6509L20.7792 23.6925L25.4175 26.0951L25.4903 26.1366L25.563 26.1678L27.0918 26.8127L27.2894 26.8959L27.5078 26.9375L28.3502 27.0935L28.7558 27.1663L29.1614 27.0831L30.6693 26.7711L30.8045 26.7503L31.4077 26.8751L33.1132 27.2287L33.758 25.6062L36.046 19.8548L36.8467 17.8475L34.8084 17.1298L32.4893 16.3082L29.6814 13.7185L29.6605 13.6977L29.6397 13.6769L28.4438 12.6368L28.2254 12.4496L27.9654 12.3248L25.0847 10.9623L24.9287 10.8895L24.7623 10.8479L23.0775 10.3695L22.9007 10.3175L22.7239 10.2967L21.2472 10.1407L19.9576 9.57907L17.3369 8.14381L15.0073 6.89574L13.489 5.88689L12.2306 4.87804L11.9186 4.62844L11.5338 4.51403L10.8474 4.30603L10.525 4.21241H10.1923L9.47468 4.24363L9.15229 4.16042L8.88189 4.08761L8.9131 4.0668Z" fill="#121212"/>
<path d="M14.7368 16.1209L14.9344 16.7241L16.2136 17.8161L17.0976 18.3778L17.4408 18.3986L17.9503 17.3273L17.2328 16.7553L15.4024 15.7984L14.7368 16.1209Z" fill="#121212"/>
<path d="M22.4223 17.2336L19.708 16.2767L18.5016 15.7255L16.0785 14.9247L15.5897 14.9975L14.4873 15.6215L13.7905 14.3838L15.1217 13.6246L16.2033 13.4686L19.0424 14.4046L20.2592 14.9663L23.0775 15.9543L23.9719 16.5783L23.1607 17.7432L22.4223 17.2336Z" fill="#121212"/>
<path d="M23.0462 17.0986L22.6406 16.8178L19.8639 15.8401L18.6991 15.2993L16.12 14.4464L15.444 14.5504L14.664 14.9873L14.4248 14.5608L15.2776 14.072L16.1616 13.9472L18.8967 14.8416L20.0615 15.3825L22.8694 16.3705L23.327 16.6929L23.0462 17.0986Z" fill="#121212"/>
</svg>
