<svg width="38" height="27" viewBox="0 0 38 27" fill="none" xmlns="http://www.w3.org/2000/svg">
<path d="M26.4986 1.7059C23.2539 1.7059 20.3939 3.71319 18.678 6.77094C16.962 3.71319 14.1021 1.7059 10.8574 1.7059C5.60552 1.7059 1.35205 6.93735 1.35205 13.3961C1.35205 19.8548 5.60552 25.0862 10.8574 25.0862C14.1021 25.0862 16.962 23.0789 18.678 20.0212C20.3939 23.0789 23.2539 25.0862 26.4986 25.0862C31.7504 25.0862 36.0039 19.8548 36.0039 13.3961C36.0039 6.93735 31.7504 1.7059 26.4986 1.7059Z" fill="#F8F8F8"/>
<path d="M26.3945 26.6877C23.4514 26.6877 20.7162 25.3044 18.6779 22.8291C16.6396 25.3044 13.894 26.6877 10.9613 26.6877C4.91905 26.6877 0 20.7074 0 13.3438C0 5.98028 4.91905 0 10.9613 0C13.9044 0 16.6396 1.38327 18.6779 3.85859C20.7162 1.38327 23.4618 0 26.3945 0C32.4367 0 37.3558 5.98028 37.3558 13.3438C37.3558 20.7074 32.4367 26.6877 26.3945 26.6877ZM18.6779 18.5233L19.6867 20.1457C21.3298 22.7771 23.7737 24.2852 26.3945 24.2852C31.1264 24.2852 34.9639 19.3761 34.9639 13.3334C34.9639 7.29075 31.116 2.38172 26.3945 2.38172C23.7737 2.38172 21.3298 3.88979 19.6867 6.52111L18.6779 8.14359L17.6691 6.52111C16.026 3.88979 13.582 2.38172 10.9613 2.38172C6.22941 2.38172 2.39192 7.29075 2.39192 13.3334C2.39192 19.3761 6.23981 24.2852 10.9613 24.2852C13.582 24.2852 16.026 22.7771 17.6691 20.1457L18.6779 18.5233Z" fill="#121212"/>
<path d="M10.306 19.3448L8.81885 17.4727L14.2059 13.1773L8.85005 9.24595L10.2644 7.32187L18.137 13.1045L10.306 19.3448Z" fill="#121212"/>
<path d="M28.381 19.3137C30.328 19.3137 31.9065 16.6409 31.9065 13.3438C31.9065 10.0467 30.328 7.37393 28.381 7.37393C26.4339 7.37393 24.8555 10.0467 24.8555 13.3438C24.8555 16.6409 26.4339 19.3137 28.381 19.3137Z" fill="#121212"/>
</svg>
