<svg width="44" height="29" viewBox="0 0 44 29" fill="none" xmlns="http://www.w3.org/2000/svg">
<path d="M22.1336 26.7813H11.2659L7.99003 23.7443L6.95006 23.6403L4.24612 20.3538L3.19574 19.9482L0.762207 15.2159L3.21653 9.39166L3.28933 9.37086L4.21492 6.68754L8.6244 5.29387H11.7235L12.3267 2.68335L17.4226 1.6017L21.1665 1.04007L28.7479 1.37288L31.587 2.03852L37.1717 5.09626L42.2779 5.78269L42.3715 24.9508L36.6725 24.9196L35.7885 25.5124L33.0845 26.5629L26.6575 27.3013L22.1336 26.7813Z" fill="#E9EFDA"/>
<path d="M22.3415 23.1623H12.6801L10.621 21.2694L10.6834 20.3957L8.80103 20.1981L7.20988 18.274L7.08506 17.5772L5.78509 17.078L4.74512 15.0603L5.8579 12.429L6.07628 12.3666L7.03307 9.57923L9.18582 8.90319H13.7929L14.9577 8.78879L14.7184 8.37276L15.3321 5.74144L18.036 5.16942L21.3639 4.65979L28.2485 4.96141L30.2868 5.43983L36.0275 8.59118L38.6794 8.9448L38.7418 21.3214L35.5803 21.3006L34.1035 22.2886L32.2108 23.0271L26.6678 23.6719L22.3415 23.1623Z" fill="#E9EFDA"/>
<path d="M21.4163 5.70998L28.1137 6.00119L29.9129 6.42761L35.7055 9.59976L37.6502 9.85977L37.7022 20.2811H35.2687L33.6256 21.3731L31.9616 22.018L26.6681 22.6316L22.4042 22.1324H13.0861L11.6925 20.8427L11.7861 19.4698L9.33179 19.2098L8.18781 17.8161L8.01104 16.8177L6.52388 16.2457L5.88948 15.0184L6.60707 13.3023L7.39746 13.0943L7.15825 12.4079L7.84464 10.411L9.3422 9.94298H13.7933L16.9236 9.63097L16.3516 9.13174L15.8212 8.2061L16.1852 6.61482L18.2444 6.178L21.4059 5.69957M21.3019 3.61948L21.1043 3.65068L17.9428 4.12911H17.8804L17.818 4.1499L15.7588 4.58672L14.4588 4.86754L14.1573 6.1572L13.7933 7.74847L13.7725 7.86288H13.6893H9.3422H9.01981L8.71821 7.95649L7.22065 8.42451L6.22228 8.73652L5.87907 9.72457L5.2759 11.4823L5.08872 11.5343L4.69352 12.4807L3.97594 14.1968L3.60156 15.0912L4.04874 15.9545L4.68311 17.1817L5.04711 17.889L5.78548 18.1698L6.18067 18.3258L6.25348 18.7106L6.59666 19.1266L7.74063 20.5203L8.28144 21.1859L9.13419 21.2691L9.59178 21.3211L9.57099 21.6851L10.299 22.3612L11.6925 23.6508L12.2853 24.2021H22.3002L26.4393 24.6805L26.6785 24.7117L26.9177 24.6805L32.2112 24.0668L32.4816 24.0356L32.7312 23.942L34.3951 23.2972L34.6031 23.214L34.7903 23.0892L35.9031 22.3404H37.6919L39.7926 22.3612V20.2603L39.7302 9.83897V8.02929L37.9207 7.79008L36.3607 7.58207L30.9112 4.59713L30.6616 4.46192L30.3912 4.39951L28.5921 3.9731L28.4049 3.93149H28.2073L21.5099 3.62988H21.3123L21.3019 3.61948Z" fill="#121212"/>
<path d="M22.1336 26.7813H11.2659L7.99003 23.7443L6.95006 23.6403L4.24612 20.3538L3.19574 19.9482L0.762207 15.2159L3.21653 9.39166L3.28933 9.37086L4.21492 6.68754L8.6244 5.29387H11.7235L12.3267 2.68335L17.4226 1.6017L21.1665 1.04007L28.7479 1.37288L31.587 2.03852L37.1717 5.09626L42.2779 5.78269L42.3715 24.9508L36.6725 24.9196L35.7885 25.5124L33.0845 26.5629L26.6575 27.3013L22.1336 26.7813Z" fill="#E9EFDA"/>
<path d="M21.0934 0C21.0934 0 21.0414 0 21.0206 0L18.9615 0.31201C18.6807 0.353612 18.4831 0.624024 18.5247 0.904838C18.5662 1.16485 18.7847 1.35206 19.0343 1.35206C19.0551 1.35206 19.0862 1.35206 19.107 1.35206L21.1662 1.04005C21.447 0.998447 21.6446 0.728035 21.603 0.447221C21.5614 0.187209 21.343 0 21.0934 0ZM12.8776 1.51847C12.8776 1.51847 12.8048 1.51847 12.7736 1.52887L12.108 1.67448C11.7128 1.75768 11.4008 2.0593 11.3072 2.45452L10.9953 3.81698C10.9329 4.09779 11.1097 4.3786 11.3905 4.44101C11.4321 4.44101 11.4736 4.45141 11.5048 4.45141C11.744 4.45141 11.952 4.285 12.0144 4.04579L12.3264 2.67293C12.472 2.64172 12.9504 2.53771 12.9504 2.53771C13.2312 2.47531 13.408 2.2049 13.356 1.92409C13.304 1.67448 13.0856 1.50807 12.8464 1.50807L12.8776 1.51847ZM6.68979 4.83623C6.68979 4.83623 6.58577 4.83623 6.53377 4.85703L4.54742 5.48106C4.27703 5.56426 4.12105 5.85548 4.20424 6.13629C4.27704 6.3547 4.47465 6.50031 4.70344 6.50031C4.75544 6.50031 4.80743 6.5003 4.85943 6.4795L6.84578 5.85547C7.11617 5.77227 7.27216 5.48106 7.18896 5.20025C7.11616 4.98183 6.91859 4.83623 6.68979 4.83623ZM3.26827 7.32195C3.04988 7.32195 2.85228 7.45715 2.77949 7.67556L2.41549 8.72601C2.35309 8.79881 2.3011 8.89242 2.2595 8.98602L0.429138 13.3438C0.314741 13.6038 0.439558 13.9159 0.709951 14.0199C0.772349 14.0511 0.845118 14.0615 0.907517 14.0615C1.11551 14.0615 1.30273 13.9367 1.38593 13.739C1.38593 13.739 2.75867 10.4837 3.12266 9.59965C3.12266 9.59965 3.14348 9.55805 3.14348 9.53725V9.50605H3.15386V9.47485H3.16427V9.44365H3.17468L3.19547 9.39164H3.20588H3.21626H3.22667H3.23708L3.70504 8.02918C3.79864 7.75877 3.65305 7.46755 3.38266 7.37394C3.33066 7.35314 3.26826 7.34274 3.21626 7.34274L3.26827 7.32195ZM0.522732 15.3615C0.439534 15.3615 0.356357 15.3823 0.283558 15.4239C0.0235654 15.5591 -0.0700334 15.8711 0.0547633 16.1208L2.26991 20.4266C2.38431 20.6554 2.5819 20.8322 2.82109 20.9154L3.61145 21.217C3.71545 21.3418 3.86105 21.4042 4.00665 21.4042C4.12104 21.4042 4.23545 21.3626 4.33944 21.2898C4.55784 21.1026 4.58905 20.7802 4.41225 20.5618L4.23544 20.3538L3.18506 19.9481L0.969944 15.6423C0.876347 15.4655 0.699549 15.3615 0.512354 15.3615H0.522732ZM5.33781 21.9866C5.22341 21.9866 5.10901 22.0282 5.00501 22.101C4.78662 22.2883 4.75544 22.6107 4.93224 22.8291L6.13858 24.2955C6.31537 24.5035 6.56498 24.6388 6.83537 24.67L7.01218 24.6908C7.01218 24.6908 7.05377 24.6908 7.06417 24.6908C7.32416 24.6908 7.55295 24.4932 7.58415 24.2227C7.61535 23.9419 7.40735 23.6819 7.11615 23.6507C7.11615 23.6507 7.00176 23.6403 6.96016 23.6299L6.94979 23.6091L6.90818 23.5675V23.5467H6.89777V23.5259H6.88736V23.5155C6.55457 23.1099 5.8578 22.2571 5.8578 22.2571C5.7538 22.1322 5.60822 22.0698 5.45222 22.0698L5.33781 21.9866ZM14.2504 26.7813H12.1704C11.8792 26.7813 11.6504 27.0101 11.6504 27.3013C11.6504 27.5925 11.8792 27.8213 12.1704 27.8213H14.2504C14.5416 27.8213 14.7704 27.5925 14.7704 27.3013C14.7704 27.0101 14.5416 26.7813 14.2504 26.7813ZM22.1334 26.7813H20.4902C20.199 26.7813 19.9702 27.0101 19.9702 27.3013C19.9702 27.5925 20.199 27.8213 20.4902 27.8213H22.071L22.4454 27.8629C22.4454 27.8629 22.487 27.8629 22.5078 27.8629C22.7678 27.8629 22.9966 27.6653 23.0278 27.4053C23.0589 27.1245 22.8614 26.8645 22.5702 26.8333L22.1334 26.7813ZM30.9003 26.8229C30.9003 26.8229 30.8587 26.8229 30.8379 26.8229L30.6611 26.8437L30.1931 26.8957L30.0372 26.9165L29.8708 26.9373L29.5172 26.9789L29.1428 27.0205L28.9452 27.0413L28.7476 27.0621L27.978 27.1453L27.3124 27.2181L26.8444 27.2701L26.6677 27.2909H26.6468H26.6365H26.626C26.2621 27.2493 24.6709 27.0621 24.6709 27.0621C24.6501 27.0621 24.6293 27.0621 24.6085 27.0621C24.3485 27.0621 24.1197 27.2597 24.0885 27.5197C24.0573 27.8005 24.2549 28.0605 24.5461 28.0917L26.5741 28.3309C26.5741 28.3309 26.6573 28.3309 26.6989 28.3309C26.7404 28.3309 26.782 28.3309 26.8132 28.3309L30.9835 27.8525C31.2643 27.8213 31.4723 27.5613 31.4411 27.2805C31.4099 27.0205 31.1811 26.8229 30.9211 26.8229H30.9003ZM36.6722 24.9196L35.7882 25.5124L33.0947 26.5629L32.9075 26.5837C32.6267 26.6149 32.4187 26.8749 32.4499 27.1557C32.4811 27.4157 32.7099 27.6133 32.9699 27.6133C32.9907 27.6133 33.0115 27.6133 33.0323 27.6133L33.2195 27.5925C33.3027 27.5925 33.3963 27.5613 33.4795 27.5301L36.173 26.4796C36.2458 26.4484 36.3082 26.4172 36.3706 26.3756L36.9842 25.9596H38.7625C39.0537 25.9596 39.2825 25.7308 39.2825 25.4396C39.2825 25.1484 39.0537 24.9196 38.7625 24.9196H36.6618H36.6722ZM42.8912 23.8691C42.6 23.8691 42.3712 24.1083 42.3712 24.3892V24.9404H40.8425C40.5513 24.9404 40.3225 25.1692 40.3225 25.4604C40.3225 25.7516 40.5513 25.9804 40.8425 25.9804H42.3712C42.652 25.9804 42.912 25.866 43.1096 25.6788C43.3072 25.4812 43.4112 25.2108 43.4112 24.9404V24.3892C43.4112 24.0979 43.172 23.8691 42.8912 23.8691ZM42.8496 15.5487C42.5584 15.5487 42.3296 15.7879 42.3296 16.0688C42.3296 16.0688 42.3296 16.3392 42.3296 16.6928C42.3296 16.6928 42.3296 16.7136 42.3296 16.724V16.7448V18.1489C42.3296 18.4297 42.5688 18.6689 42.8496 18.6689C43.1408 18.6689 43.3696 18.4297 43.3696 18.1489V16.0688C43.3592 15.7775 43.1304 15.5487 42.8392 15.5487H42.8496ZM42.808 7.22834C42.5168 7.22834 42.288 7.46755 42.288 7.74836V9.82846C42.2984 10.1197 42.5272 10.3485 42.8184 10.3485C43.1096 10.3485 43.3384 10.1093 43.3384 9.82846V7.74836C43.328 7.45715 43.0992 7.22834 42.808 7.22834ZM36.381 3.54656C36.1938 3.54656 36.017 3.64017 35.9234 3.81698C35.7882 4.06659 35.8818 4.38901 36.1314 4.52421C36.1314 4.52421 36.7866 4.88823 37.057 5.03383C37.057 5.03383 37.0674 5.03384 37.0778 5.04424H37.0986L37.1194 5.06503H37.1714L37.3274 5.08584H37.4418V5.09624H37.5353V5.10664H37.5665H37.629H37.6602H37.6705C37.6705 5.10664 37.6706 5.10664 37.681 5.10664H37.7017C37.7017 5.10664 37.7018 5.10664 37.7122 5.10664C37.7122 5.10664 37.8058 5.11704 37.8474 5.12744C37.8474 5.12744 37.8577 5.12744 37.8681 5.12744C39.3137 5.32505 41.9344 5.66826 41.9344 5.66826C41.9552 5.66826 41.976 5.66826 42.0072 5.66826C42.2672 5.66826 42.4856 5.48106 42.5168 5.22104C42.5584 4.94023 42.3504 4.66982 42.0696 4.63862L37.2546 3.99378L36.381 3.51536C36.2978 3.47376 36.2146 3.45296 36.1314 3.45296L36.381 3.54656ZM28.5396 0.322413C28.2588 0.322413 28.03 0.540826 28.0196 0.82164C28.0092 1.11285 28.2276 1.35206 28.5188 1.36246H28.7476L28.8724 1.40406L29.1948 1.47687L29.6524 1.58087L30.1724 1.70568L30.6923 1.83049L31.1499 1.93449L31.4723 2.0073L31.5971 2.0385L31.7011 2.0905L31.7635 2.1217L31.7947 2.1425H31.8155C31.8155 2.1425 31.8155 2.1425 31.8259 2.1425C31.8259 2.1425 31.8259 2.1425 31.8363 2.1425C32.5435 2.52732 34.2491 3.46337 34.2491 3.46337C34.3323 3.50497 34.4154 3.52577 34.4986 3.52577C34.6858 3.52577 34.8626 3.43216 34.9562 3.25535C35.0914 3.00574 34.9978 2.68332 34.7482 2.54812L32.0339 1.06085C31.9507 1.01924 31.8675 0.977644 31.7739 0.956843L28.9348 0.28081C28.8724 0.270409 28.81 0.26001 28.7372 0.24961H28.5084C28.5084 0.24961 28.498 0.239207 28.4876 0.239207L28.5396 0.322413ZM24.3901 0.135204C24.1093 0.135204 23.8805 0.353617 23.8701 0.634431C23.8597 0.925644 24.0781 1.16485 24.3693 1.17525L26.4493 1.26886C26.4493 1.26886 26.4597 1.26886 26.4701 1.26886C26.7508 1.26886 26.9796 1.05045 26.99 0.769634C27.0004 0.47842 26.782 0.239213 26.4908 0.228812L24.4109 0.135204C24.4109 0.135204 24.4005 0.135204 24.3901 0.135204Z" fill="#61B3C1"/>
<path d="M22.3415 23.1623H12.6801L10.621 21.2694L10.6834 20.3957L8.80103 20.1981L7.20988 18.274L7.08506 17.5772L5.78509 17.078L4.74512 15.0603L5.8579 12.429L6.07628 12.3666L7.03307 9.57923L9.18582 8.90319H13.7929L14.9577 8.78879L14.7184 8.37276L15.3321 5.74144L18.036 5.16942L21.3639 4.65979L28.2485 4.96141L30.2868 5.43983L36.0275 8.59118L38.6794 8.9448L38.7418 21.3214L35.5803 21.3006L34.1035 22.2886L32.2108 23.0271L26.6678 23.6719L22.3415 23.1623Z" fill="#E9EFDA"/>
<path d="M21.4163 5.70998L28.1137 6.00119L29.9129 6.42761L35.7055 9.59976L37.6502 9.85977L37.7022 20.2811H35.2687L33.6256 21.3731L31.9616 22.018L26.6681 22.6316L22.4042 22.1324H13.0861L11.6925 20.8427L11.7861 19.4698L9.33179 19.2098L8.18781 17.8161L8.01104 16.8177L6.52388 16.2457L5.88948 15.0184L6.60707 13.3023L7.39746 13.0943L7.15825 12.4079L7.84464 10.411L9.3422 9.94298H13.7933L16.9236 9.63097L16.3516 9.13174L15.8212 8.2061L16.1852 6.61482L18.2444 6.178L21.4059 5.69957M21.3019 3.61948L21.1043 3.65068L17.9428 4.12911H17.8804L17.818 4.1499L15.7588 4.58672L14.4588 4.86754L14.1573 6.1572L13.7933 7.74847L13.7725 7.86288H13.6893H9.3422H9.01981L8.71821 7.95649L7.22065 8.42451L6.22228 8.73652L5.87907 9.72457L5.2759 11.4823L5.08872 11.5343L4.69352 12.4807L3.97594 14.1968L3.60156 15.0912L4.04874 15.9545L4.68311 17.1817L5.04711 17.889L5.78548 18.1698L6.18067 18.3258L6.25348 18.7106L6.59666 19.1266L7.74063 20.5203L8.28144 21.1859L9.13419 21.2691L9.59178 21.3211L9.57099 21.6851L10.299 22.3612L11.6925 23.6508L12.2853 24.2021H22.3002L26.4393 24.6805L26.6785 24.7117L26.9177 24.6805L32.2112 24.0668L32.4816 24.0356L32.7312 23.942L34.3951 23.2972L34.6031 23.214L34.7903 23.0892L35.9031 22.3404H37.6919L39.7926 22.3612V20.2603L39.7302 9.83897V8.02929L37.9207 7.79008L36.3607 7.58207L30.9112 4.59713L30.6616 4.46192L30.3912 4.39951L28.5921 3.9731L28.4049 3.93149H28.2073L21.5099 3.62988H21.3123L21.3019 3.61948Z" fill="#121212"/>
</svg>
