<svg width="46" height="33" viewBox="0 0 46 33" fill="none" xmlns="http://www.w3.org/2000/svg">
<path d="M17.2253 31.3054L13.6582 27.3116L12.0983 26.8332L7.90718 24.3891L7.99036 18.0656L7.564 17.2232L7.4288 14.4358L6.29523 14.1966L1.85453 11.7837L0.772949 4.07694L6.36801 0.967194L11.4639 1.51842L16.7365 3.51531L23.0492 5.13778L28.5194 7.78991L34.1665 9.5996L45.7414 14.3942L37.4216 31.0974L32.7313 29.4957L32.1489 29.787L28.8938 30.515L25.2539 30.0366L24.2348 29.8182L21.9884 31.3054H17.2253Z" fill="#E9EFDA"/>
<path d="M18.838 27.6859L15.6764 24.1497L13.5549 23.5049L11.5478 22.3297L11.5894 19.1471L12.2237 18.4295L11.1318 16.2766L11.0174 14.0093L12.5669 12.6572L12.0677 12.4388L9.81098 11.2635L7.56467 10.7747L5.18312 9.47465L4.69434 6.02169L7.11746 4.68002L10.6222 5.05444L15.6452 6.95773L21.8019 8.54901L27.1785 11.1491L32.888 12.9796L40.7918 16.2454L35.6023 26.6563L33.3144 25.8762L32.0248 25.793L30.912 26.365L28.7385 26.8539L25.9098 26.4794L22.8939 25.8346L22.717 26.4899L20.9075 27.6859H18.838Z" fill="#E9EFDA"/>
<path d="M7.33553 5.75146L10.3826 6.07387L15.3329 7.94596L21.4375 9.51643L26.783 12.1062L32.5652 13.9574L39.3563 16.776L35.0716 25.3668L33.522 24.8364L31.8061 24.7324L30.5581 25.3772L28.6862 25.7932L26.0446 25.4396L22.1447 24.5971L21.8119 25.8348L20.5952 26.646H19.3056L16.2585 23.2451L13.9809 22.5482L12.5978 21.737L12.629 19.5425L13.4714 18.5857L12.161 16.0063L12.0882 14.4567L13.5338 13.1982L15.5201 12.8654L15.5409 12.803L12.4834 11.4821L10.1746 10.2653L7.92829 9.77644L6.13953 8.7988L5.82755 6.5731L7.33553 5.74106M6.89872 3.61935L6.32675 3.94177L4.81878 4.77381L3.5708 5.47064L3.7684 6.88511L4.08041 9.11081L4.22599 10.1509L5.15158 10.6501L6.94033 11.6277L7.20033 11.7733L7.49152 11.8357L9.45705 12.2622L10.705 12.9174L9.95625 13.5726L10.0082 14.5815L10.081 16.1311L10.1018 16.5784L10.2994 16.9736L10.965 18.2944L10.5386 18.7729V19.5425L10.497 21.737V22.9539L11.5266 23.5675L12.9098 24.3787L13.1178 24.5035L13.3466 24.5764L15.0729 25.1068L17.7353 28.0813L18.3592 28.7781H21.1983L21.7183 28.4349L22.9351 27.6237L23.5903 27.1869L23.6111 27.1037L25.587 27.5301L25.6702 27.5509H25.7534L28.395 27.9149L28.7589 27.9669L29.1229 27.8837L30.9949 27.4677L31.2549 27.4053L31.4941 27.2805L32.2324 26.8957L33.0956 26.9477L34.3852 27.3949L36.1115 27.9877L36.9227 26.3548L41.2074 17.764L42.2058 15.7671L40.1466 14.9143L33.3556 12.0958L33.2724 12.0646L33.1892 12.0334L27.5526 10.2341L22.3423 7.70675L22.1551 7.61315L21.9575 7.56114L15.9569 6.01147L11.1106 4.18098L10.861 4.08738L10.5906 4.05617L7.5435 3.73376L6.88831 3.66096L6.89872 3.61935Z" fill="#121212"/>
<path d="M17.2253 31.3054L13.6582 27.3116L12.0983 26.8332L7.90718 24.3891L7.99036 18.0656L7.564 17.2232L7.4288 14.4358L6.29523 14.1966L1.85453 11.7837L0.772949 4.07694L6.36801 0.967194L11.4639 1.51842L16.7365 3.51531L23.0492 5.13778L28.5194 7.78991L34.1665 9.5996L45.7414 14.3942L37.4216 31.0974L32.7313 29.4957L32.1489 29.787L28.8938 30.515L25.2539 30.0366L24.2348 29.8182L21.9884 31.3054H17.2253Z" fill="#E9EFDA"/>
<path d="M6.11828 0C6.03508 0 5.9415 0.0207984 5.8687 0.0624004L4.04875 1.07125C3.79915 1.20646 3.70555 1.52887 3.85115 1.77848C3.94475 1.94489 4.12154 2.0489 4.30874 2.0489C4.39194 2.0489 4.47513 2.02809 4.55832 1.98649L6.37827 0.977641C6.62787 0.842434 6.72147 0.520019 6.57587 0.270407C6.48227 0.103999 6.30548 0 6.11828 0ZM0.523225 5.53306C0.523225 5.53306 0.471219 5.53306 0.450419 5.53306C0.169627 5.57466 -0.0279605 5.83467 0.00323865 6.11549L0.29443 8.17479C0.336029 8.4348 0.554444 8.62201 0.804038 8.62201C0.824837 8.62201 0.856012 8.62201 0.876812 8.62201C1.1576 8.58041 1.35522 8.32039 1.32402 8.03957L1.0328 5.98028C0.991202 5.72027 0.772818 5.53306 0.523225 5.53306ZM3.76793 12.8966C3.58074 12.8966 3.40394 12.9902 3.31034 13.167C3.17515 13.4166 3.26876 13.739 3.51835 13.8743L5.34871 14.8623C5.43191 14.9039 5.5151 14.9247 5.5983 14.9247C5.78549 14.9247 5.96229 14.8311 6.05589 14.6543C6.19108 14.4047 6.09747 14.0823 5.84788 13.9471C5.84788 13.9471 5.03671 13.5102 4.49593 13.2086L4.04875 12.9694C3.96555 12.9278 3.88233 12.907 3.79913 12.907L3.76793 12.8966ZM6.92946 14.3527H6.90867C6.61748 14.3631 6.39907 14.6127 6.40947 14.8935L6.52389 17.2648C6.52389 17.4104 6.56547 17.556 6.63827 17.6808L6.95025 18.2945L6.91905 20.957C6.91905 21.2482 7.14786 21.477 7.42866 21.4874C7.70945 21.4874 7.94864 21.2586 7.94864 20.9778L7.99022 18.0553L7.56386 17.2128L7.44945 14.8311C7.43905 14.5503 7.21025 14.3423 6.92946 14.3423V14.3527ZM7.40784 22.5379C7.12704 22.5379 6.88785 22.7667 6.88785 23.0475L6.86706 24.3788C6.86706 24.7532 7.05426 25.0964 7.38705 25.294L11.5781 27.7381C11.6509 27.7797 11.7237 27.8109 11.7965 27.8317L11.8589 27.8525C11.8589 27.8525 11.9629 27.8733 12.0149 27.8733C12.2333 27.8733 12.4413 27.7277 12.5141 27.5093C12.5973 27.2389 12.4413 26.9477 12.1709 26.8645C12.1709 26.8645 12.1293 26.8541 12.1189 26.8437L7.92782 24.3995L7.94864 23.0683C7.94864 22.7771 7.71983 22.5483 7.43904 22.5483L7.40784 22.5379ZM13.6061 27.5197C13.4813 27.5197 13.3565 27.5613 13.2629 27.6549C13.0445 27.8421 13.0341 28.1749 13.2213 28.3933L14.6045 29.943C14.7085 30.0574 14.854 30.1198 14.9892 30.1198C15.114 30.1198 15.2388 30.0782 15.3324 29.9846C15.5508 29.7974 15.5612 29.4646 15.374 29.2462L13.9909 27.6965C13.8869 27.5821 13.7413 27.5197 13.6061 27.5197ZM22.945 30.775C22.8514 30.775 22.7474 30.8063 22.6538 30.8583C22.6538 30.8583 22.0714 31.2431 21.9986 31.2951H20.7195C20.4283 31.2951 20.1995 31.5239 20.1995 31.8151C20.1995 32.1063 20.4283 32.3351 20.7195 32.3351H21.9986C22.2066 32.3351 22.4043 32.2727 22.5707 32.1583L23.2362 31.7215C23.4754 31.5655 23.5378 31.2431 23.3818 31.0039C23.2778 30.8479 23.1114 30.775 22.945 30.775ZM30.672 30.1302C30.672 30.1302 30.5992 30.1302 30.5576 30.1406C30.5576 30.1406 29.2473 30.4318 28.9457 30.5046H28.9249H28.9041L28.5401 30.463C28.5193 30.463 28.4985 30.463 28.4673 30.463C28.2073 30.463 27.9889 30.6502 27.9577 30.9103C27.9161 31.1911 28.1241 31.4615 28.4049 31.4927L28.7689 31.5447C28.7689 31.5447 28.8625 31.5447 28.9041 31.5447C28.9769 31.5447 29.0601 31.5447 29.1329 31.5239L30.7968 31.1495C31.0776 31.0871 31.2544 30.8062 31.192 30.5254C31.14 30.2862 30.9216 30.1198 30.6824 30.1198L30.672 30.1302ZM32.7312 29.4958L32.5648 29.579C32.3048 29.7142 32.2112 30.0262 32.336 30.2758C32.3568 30.3174 32.388 30.359 32.4296 30.4006L32.4088 30.463L37.0991 32.0751C37.2135 32.1167 37.3278 32.1271 37.4318 32.1271C37.8166 32.1271 38.1806 31.9087 38.3678 31.5551L38.8462 30.5878C38.971 30.3278 38.867 30.0158 38.6174 29.891C38.5446 29.8494 38.4614 29.839 38.3886 29.839C38.2014 29.839 38.0142 29.943 37.9206 30.1302L37.4422 31.0975L36.9118 30.9103L36.7559 30.8583L36.5479 30.7854L35.3311 30.3694L35.1647 30.3174H35.1231V30.307H35.0919V30.2966L32.9704 29.5686L32.7832 29.5062H32.7728L32.7312 29.4958ZM42.0805 22.4027C41.8933 22.4027 41.7061 22.5067 41.6125 22.6939L39.5014 26.9269L39.4806 26.9581C39.4806 26.9581 39.4806 26.9685 39.4806 26.9789V26.9893V26.9997V27.0205C39.4806 27.0205 39.4702 27.0517 39.4598 27.0725C39.4598 27.0725 39.4598 27.0725 39.4598 27.0829C39.4598 27.0829 39.4598 27.1037 39.4494 27.1141C39.127 27.7693 38.8982 28.2269 38.8982 28.2269C38.7734 28.4869 38.8774 28.799 39.127 28.9238C39.1998 28.9654 39.283 28.9758 39.3558 28.9758C39.543 28.9758 39.7302 28.8718 39.8238 28.6846L42.6109 23.0995C42.7357 22.8395 42.6317 22.5275 42.3821 22.4027C42.3093 22.361 42.2261 22.3506 42.1533 22.3506L42.0805 22.4027ZM43.9317 18.6793C43.7445 18.6793 43.5573 18.7833 43.4637 18.9705L42.6317 20.645V20.6554V20.6762H42.6213V20.6866V20.697C42.5901 20.7594 42.5797 20.7906 42.5797 20.7906C42.4549 21.0506 42.5589 21.3626 42.8085 21.4874C42.8813 21.529 42.9645 21.5394 43.0373 21.5394C43.2245 21.5394 43.4117 21.4354 43.5053 21.2482L44.4309 19.3865C44.5557 19.1265 44.4517 18.8145 44.2021 18.6897C44.1293 18.6481 44.0461 18.6377 43.9733 18.6377L43.9317 18.6793ZM42.9749 12.1686C42.7669 12.1686 42.5797 12.2934 42.4965 12.491C42.3821 12.751 42.5173 13.063 42.7773 13.167L43.5157 13.4686H43.5261C44.0565 13.687 44.6701 13.9471 44.6701 13.9471C44.7325 13.9783 44.8053 13.9887 44.8677 13.9887C45.0757 13.9887 45.2628 13.8639 45.346 13.6662C45.4604 13.3958 45.3253 13.0942 45.0653 12.9902L43.1413 12.1894C43.0789 12.1582 43.0061 12.1478 42.9437 12.1478L42.9749 12.1686ZM35.2895 8.97562C35.0815 8.97562 34.8943 9.10042 34.8111 9.29803C34.6967 9.55805 34.8215 9.87006 35.0919 9.97407L36.5687 10.5877C36.7975 10.6813 36.9535 10.7437 36.9535 10.7437C37.0159 10.7749 37.0887 10.7853 37.1511 10.7853C37.359 10.7853 37.5462 10.6605 37.6294 10.4629C37.7438 10.1925 37.6086 9.89086 37.3487 9.78686L35.4247 8.98602C35.3623 8.95482 35.2895 8.94442 35.2271 8.94442L35.2895 8.97562ZM27.4897 6.18829C27.2921 6.18829 27.1153 6.29229 27.0217 6.4795C26.8969 6.73951 27.0009 7.05153 27.2609 7.17633L28.5193 7.78997L28.5713 7.81076L28.6337 7.83157L28.6961 7.85237H28.7065C28.7065 7.85237 28.7065 7.85237 28.7169 7.85237C28.7169 7.85237 28.7273 7.85237 28.7377 7.85237C29.8297 8.20598 32.9808 9.21484 32.9808 9.21484C33.0328 9.23564 33.0848 9.23563 33.1368 9.23563C33.3552 9.23563 33.5631 9.09003 33.6359 8.87162C33.7191 8.6012 33.5736 8.30999 33.3032 8.21638L28.7585 6.76032L27.5729 6.18829C27.5001 6.15709 27.4273 6.13628 27.3441 6.13628L27.4897 6.18829ZM19.6587 3.20335C19.4299 3.20335 19.2115 3.35936 19.1595 3.59857C19.0867 3.87938 19.2531 4.1602 19.5339 4.233C19.5339 4.233 22.3626 4.96103 22.945 5.11704C22.945 5.11704 22.945 5.11704 22.9554 5.11704H22.9762H23.0074H23.0178C23.2882 5.25225 25.3266 6.24029 25.3266 6.24029C25.3994 6.2715 25.4722 6.29229 25.5554 6.29229C25.753 6.29229 25.9298 6.18829 26.0234 6.00108C26.1482 5.74107 26.0442 5.42905 25.7842 5.30425L23.4442 4.17059C23.3818 4.13939 23.3194 4.11859 23.2466 4.09779L19.7211 3.19295C19.7211 3.19295 19.6379 3.17214 19.5859 3.17214L19.6587 3.20335ZM15.7276 2.0489C15.5196 2.0489 15.322 2.1737 15.2388 2.38171C15.1348 2.65213 15.27 2.95374 15.5404 3.04734C15.5404 3.04734 16.5388 3.42176 16.7052 3.49457H16.7156L17.4852 3.69217C17.4852 3.69217 17.5684 3.71297 17.61 3.71297C17.8388 3.71297 18.0572 3.55696 18.1092 3.31775C18.182 3.03694 18.0156 2.75612 17.7348 2.68332L17.0172 2.49611L15.8732 2.05929C15.8108 2.03849 15.7484 2.02809 15.686 2.02809L15.7276 2.0489ZM7.58465 0.0624004C7.32465 0.0624004 7.09586 0.260007 7.06466 0.530419C7.03346 0.811233 7.24146 1.07125 7.52225 1.10245C7.52225 1.10245 8.08383 1.16485 8.62462 1.21686L9.56059 1.32086C9.56059 1.32086 9.59177 1.32086 9.61257 1.32086C9.87257 1.32086 10.1014 1.12325 10.1326 0.85284C10.1638 0.572027 9.95579 0.312011 9.675 0.28081L7.60543 0.0624004C7.60543 0.0624004 7.56385 0.0624004 7.55345 0.0624004H7.58465Z" fill="#61B3C1"/>
<path d="M18.838 27.6859L15.6764 24.1497L13.5549 23.5049L11.5478 22.3297L11.5894 19.1471L12.2237 18.4295L11.1318 16.2766L11.0174 14.0093L12.5669 12.6572L12.0677 12.4388L9.81098 11.2635L7.56467 10.7747L5.18312 9.47465L4.69434 6.02169L7.11746 4.68002L10.6222 5.05444L15.6452 6.95773L21.8019 8.54901L27.1785 11.1491L32.888 12.9796L40.7918 16.2454L35.6023 26.6563L33.3144 25.8762L32.0248 25.793L30.912 26.365L28.7385 26.8539L25.9098 26.4794L22.8939 25.8346L22.717 26.4899L20.9075 27.6859H18.838Z" fill="#E9EFDA"/>
<path d="M7.33553 5.75146L10.3826 6.07387L15.3329 7.94596L21.4375 9.51643L26.783 12.1062L32.5652 13.9574L39.3563 16.776L35.0716 25.3668L33.522 24.8364L31.8061 24.7324L30.5581 25.3772L28.6862 25.7932L26.0446 25.4396L22.1447 24.5971L21.8119 25.8348L20.5952 26.646H19.3056L16.2585 23.2451L13.9809 22.5482L12.5978 21.737L12.629 19.5425L13.4714 18.5857L12.161 16.0063L12.0882 14.4567L13.5338 13.1982L15.5201 12.8654L15.5409 12.803L12.4834 11.4821L10.1746 10.2653L7.92829 9.77644L6.13953 8.7988L5.82755 6.5731L7.33553 5.74106M6.89872 3.61935L6.32675 3.94177L4.81878 4.77381L3.5708 5.47064L3.7684 6.88511L4.08041 9.11081L4.22599 10.1509L5.15158 10.6501L6.94033 11.6277L7.20033 11.7733L7.49152 11.8357L9.45705 12.2622L10.705 12.9174L9.95625 13.5726L10.0082 14.5815L10.081 16.1311L10.1018 16.5784L10.2994 16.9736L10.965 18.2944L10.5386 18.7729V19.5425L10.497 21.737V22.9539L11.5266 23.5675L12.9098 24.3787L13.1178 24.5035L13.3466 24.5764L15.0729 25.1068L17.7353 28.0813L18.3592 28.7781H21.1983L21.7183 28.4349L22.9351 27.6237L23.5903 27.1869L23.6111 27.1037L25.587 27.5301L25.6702 27.5509H25.7534L28.395 27.9149L28.7589 27.9669L29.1229 27.8837L30.9949 27.4677L31.2549 27.4053L31.4941 27.2805L32.2324 26.8957L33.0956 26.9477L34.3852 27.3949L36.1115 27.9877L36.9227 26.3548L41.2074 17.764L42.2058 15.7671L40.1466 14.9143L33.3556 12.0958L33.2724 12.0646L33.1892 12.0334L27.5526 10.2341L22.3423 7.70675L22.1551 7.61315L21.9575 7.56114L15.9569 6.01147L11.1106 4.18098L10.861 4.08738L10.5906 4.05617L7.5435 3.73376L6.88831 3.66096L6.89872 3.61935Z" fill="#121212"/>
<path d="M18.3589 19.0952L16.5078 18.7624L14.0638 18.9288L13.9702 17.5143L16.5806 17.3375L18.7229 17.7223L20.6052 18.3568L23.2884 18.0968L25.0979 17.3583L25.6283 18.6688L23.642 19.4904L20.4493 19.8024L18.3589 19.0952Z" fill="#121212"/>
<path d="M20.5016 19.3242L18.5048 18.6481L16.5289 18.2945L14.5009 18.4297L14.4697 17.9513L16.5497 17.8057L18.64 18.1801L20.5536 18.8353L23.4031 18.5545L24.8383 17.9617L25.0254 18.4193L23.5279 19.033L20.5016 19.3242Z" fill="#121212"/>
<path d="M13.5644 20.6865L13.5332 21.2378L14.1468 21.7266L16.5387 22.4858L16.9131 22.361L17.2355 21.6122L16.9963 21.113L14.0844 20.4161L13.5644 20.6865Z" fill="#121212"/>
</svg>
