<svg width="108" height="77" viewBox="0 0 108 77" fill="none" xmlns="http://www.w3.org/2000/svg">
<path d="M76.5986 72.3447C61.4269 72.3447 49.1279 57.2475 49.1279 38.624C49.1279 20.0006 61.4269 4.90332 76.5986 4.90332C91.7702 4.90332 104.069 20.0006 104.069 38.624C104.069 57.2475 91.7702 72.3447 76.5986 72.3447Z" fill="#F8F8F8"/>
<path d="M31.3746 72.3447C16.203 72.3447 3.90395 57.2475 3.90395 38.624C3.90395 20.0006 16.203 4.90332 31.3746 4.90332C46.5462 4.90332 58.8452 20.0006 58.8452 38.624C58.8452 57.2475 46.5462 72.3447 31.3746 72.3447Z" fill="#F8F8F8"/>
<path d="M31.6832 76.9446C40.1842 76.9446 48.1039 72.947 53.9978 65.8219C59.8917 72.947 67.8114 76.9446 76.3124 76.9446C93.784 76.9446 108 59.6872 108 38.4723C108 17.2574 93.7884 0 76.3169 0C67.8158 0 59.8962 3.99759 54.0023 11.1227C48.1083 3.99759 40.1887 0 31.6877 0C14.2161 0 0 17.2574 0 38.4723C0 59.6872 14.2161 76.9446 31.6877 76.9446H31.6832ZM53.9978 53.4231L51.0687 58.1078C46.3196 65.7014 39.254 70.0559 31.6832 70.0559C18.0216 70.0559 6.90459 55.8903 6.90459 38.4768C6.90459 21.0632 18.0216 6.89762 31.6832 6.89762C39.254 6.89762 46.3196 11.2521 51.0687 18.8458L53.9978 23.5304L56.9269 18.8458C61.676 11.2521 68.7415 6.89762 76.3124 6.89762C89.9739 6.89762 101.091 21.0632 101.091 38.4768C101.091 55.8903 89.9739 70.0559 76.3124 70.0559C68.7415 70.0559 61.676 65.7014 56.9269 58.1078L53.9978 53.4231Z" fill="#121212"/>
<path d="M78.1952 55.761L82.5016 50.3714L66.9306 37.9994L82.3943 26.6536L78.3025 21.1034L55.5676 37.7808L78.1952 55.761Z" fill="#121212"/>
<path d="M25.9461 55.6941C20.3102 55.6941 15.7413 47.9837 15.7413 38.4724C15.7413 28.961 20.3102 21.2506 25.9461 21.2506C31.5821 21.2506 36.1509 28.961 36.1509 38.4724C36.1509 47.9837 31.5821 55.6941 25.9461 55.6941Z" fill="#121212"/>
</svg>
