<svg width="109" height="77" viewBox="0 0 109 77" fill="none" xmlns="http://www.w3.org/2000/svg">
<path d="M76.6967 72.2258C61.5056 72.2258 49.1909 57.1533 49.1909 38.5605C49.1909 19.9677 61.5056 4.89526 76.6967 4.89526C91.8877 4.89526 104.203 19.9677 104.203 38.5605C104.203 57.1533 91.8877 72.2258 76.6967 72.2258Z" fill="#F8F8F8"/>
<path d="M31.4148 72.2258C16.2237 72.2258 3.90897 57.1533 3.90897 38.5605C3.90897 19.9677 16.2237 4.89526 31.4148 4.89526C46.6058 4.89526 58.9206 19.9677 58.9206 38.5605C58.9206 57.1533 46.6058 72.2258 31.4148 72.2258Z" fill="#F8F8F8"/>
<path d="M31.7238 76.818C40.2357 76.818 48.1655 72.827 54.0669 65.7136C59.9684 72.827 67.8982 76.818 76.4101 76.818C93.904 76.818 108.138 59.589 108.138 38.409C108.138 17.2291 93.9085 0 76.4146 0C67.9027 0 59.9729 3.99101 54.0714 11.1045C48.17 3.99101 40.2401 0 31.7282 0C14.2343 0 3.05176e-05 17.2291 3.05176e-05 38.409C3.05176e-05 59.589 14.2343 76.818 31.7282 76.818H31.7238ZM54.0669 53.3352L51.1341 58.0122C46.3789 65.5933 39.3043 69.9407 31.7238 69.9407C18.0447 69.9407 6.91346 55.7984 6.91346 38.4135C6.91346 21.0285 18.0447 6.88627 31.7238 6.88627C39.3043 6.88627 46.3789 11.2336 51.1341 18.8148L54.0669 23.4917L56.9998 18.8148C61.755 11.2336 68.8295 6.88627 76.4101 6.88627C90.0891 6.88627 101.22 21.0285 101.22 38.4135C101.22 55.7984 90.0891 69.9407 76.4101 69.9407C68.8295 69.9407 61.755 65.5933 56.9998 58.0122L54.0669 53.3352Z" fill="#121212"/>
<path d="M25.9792 55.6024C20.3361 55.6024 15.7614 47.9047 15.7614 38.409C15.7614 28.9133 20.3361 21.2156 25.9792 21.2156C31.6224 21.2156 36.1971 28.9133 36.1971 38.409C36.1971 47.9047 31.6224 55.6024 25.9792 55.6024Z" fill="#121212"/>
<path d="M69.1393 55.1827C63.4962 55.1827 58.9215 47.485 58.9215 37.9893C58.9215 28.4937 63.4962 20.7959 69.1393 20.7959C74.7825 20.7959 79.3572 28.4937 79.3572 37.9893C79.3572 47.485 74.7825 55.1827 69.1393 55.1827Z" fill="#121212"/>
</svg>
