<svg width="109" height="77" viewBox="0 0 109 77" fill="none" xmlns="http://www.w3.org/2000/svg">
<path d="M31.4416 72.2256C46.6327 72.2256 58.9474 57.1532 58.9474 38.5604C58.9474 19.9676 46.6327 4.89514 31.4416 4.89514C16.2506 4.89514 3.93579 19.9676 3.93579 38.5604C3.93579 57.1532 16.2506 72.2256 31.4416 72.2256Z" fill="#F8F8F8"/>
<path d="M76.7236 72.2256C91.9146 72.2256 104.229 57.1532 104.229 38.5604C104.229 19.9676 91.9146 4.89514 76.7236 4.89514C61.5325 4.89514 49.2177 19.9676 49.2177 38.5604C49.2177 57.1532 61.5325 72.2256 76.7236 72.2256Z" fill="#F8F8F8"/>
<path d="M76.4145 76.818C67.9026 76.818 59.9728 72.827 54.0714 65.7136C48.1699 72.827 40.2401 76.818 31.7282 76.818C14.2343 76.818 0 59.589 0 38.409C0 17.2291 14.2298 0 31.7237 0C40.2356 0 48.1654 3.99101 54.0669 11.1045C59.9683 3.99101 67.8982 0 76.4101 0C93.904 0 108.138 17.2291 108.138 38.409C108.138 59.589 93.904 76.818 76.4101 76.818H76.4145ZM54.0714 53.3352L57.0042 58.0122C61.7594 65.5933 68.834 69.9407 76.4145 69.9407C90.0936 69.9407 101.225 55.7984 101.225 38.4135C101.225 21.0285 90.0936 6.88627 76.4145 6.88627C68.834 6.88627 61.7594 11.2336 57.0042 18.8148L54.0714 23.4917L51.1385 18.8148C46.3834 11.2336 39.3088 6.88627 31.7282 6.88627C18.0492 6.88627 6.91788 21.0285 6.91788 38.4135C6.91788 55.7984 18.0492 69.9407 31.7282 69.9407C39.3088 69.9407 46.3834 65.5933 51.1385 58.0122L54.0714 53.3352Z" fill="#121212"/>
<path d="M26.3414 50.6032L37.1514 29.8074L47.1372 50.6032" stroke="#121212" stroke-width="7"/>
<path d="M70.0127 50.6032L80.8227 29.8074L90.8085 50.6032" stroke="#121212" stroke-width="7"/>
</svg>
