<svg width="314" height="272" viewBox="0 0 314 272" fill="none" xmlns="http://www.w3.org/2000/svg">
<path d="M263.561 36.8564L249.292 37.8658L245.436 38.1172L245.689 41.9532C245.697 42.0686 246.248 53.4242 239.434 60.6636C235.181 65.1836 228.549 67.4745 219.731 67.4745C209.327 67.4745 201.743 63.6838 196.557 55.8841C195.05 53.6138 193.956 51.2899 193.178 49.2462H219.926V31.1456H191.214V0H173.019V25.27C171.379 21.3969 169.038 17.4496 165.708 13.8855C157.872 5.50064 146.742 1.24846 132.631 1.24846C111.768 1.24846 100.258 11.9613 94.2809 20.9519C91.5804 25.0145 89.6917 29.1555 88.3994 32.9214C87.1071 29.1596 85.2184 25.0145 82.5179 20.9519C76.5369 11.9654 65.0307 1.24846 44.1679 1.24846C30.0563 1.24846 18.927 5.50064 11.0905 13.8855C-1.19443 27.0335 -0.0015602 45.3525 0.0564267 46.123L0.338077 49.9714L1.24516 49.9055V51.8956C1.24516 71.154 16.9927 86.8195 36.3521 86.8195C55.7114 86.8195 71.459 71.154 71.459 51.8956L71.4217 48.0307V39.5881C72.337 42.4518 72.685 44.718 72.685 45.4679V86.8277H104.114V45.4679C104.114 44.0381 105.394 37.05 109.457 30.9437C114.647 23.1439 122.226 19.3532 132.631 19.3532C141.449 19.3532 148.08 21.6441 152.334 26.1641C159.148 33.4035 158.597 44.7633 158.588 44.8539L158.336 48.6982L167.386 49.3245L174.282 49.8272C175.479 54.5243 177.658 60.2804 181.385 65.88C187.366 74.8664 198.873 85.5834 219.736 85.5834C233.847 85.5834 244.976 81.3312 252.813 72.9464C265.094 59.8066 263.905 41.4835 263.847 40.7089L263.565 36.8605L263.561 36.8564ZM53.2221 30.8366V48.0307H18.4176L18.2105 44.8745C18.2022 44.7592 17.6513 33.4035 24.4648 26.1641C28.7185 21.6441 35.3497 19.3532 44.1679 19.3532C54.5268 19.3532 62.0858 23.1109 67.2715 30.8366H53.2262H53.2221Z" fill="#A0DCEA"/>
<path d="M67.5324 34.7014H57.1072V51.8956H61.3154H11.3846H5.13029C5.13029 69.0197 19.1341 82.9546 36.3521 82.9546C53.57 82.9546 67.5739 69.0238 67.5739 51.8956H67.5366V34.7014H67.5324Z" fill="#121212"/>
<path d="M44.1638 5.11719C31.1748 5.11719 21.0063 8.95322 13.9361 16.5223C2.79433 28.4465 3.87951 45.1421 3.93336 45.8467L14.3296 45.1091C14.3213 44.9814 13.5675 32.0848 21.6276 23.5227C26.6476 18.191 34.2315 15.4881 44.1679 15.4881C55.815 15.4881 64.7036 19.971 70.5851 28.8091C75.1536 35.6777 76.5743 43.4198 76.5743 45.4635V82.9585H86.9995V45.4635C86.9995 42.468 85.612 32.6039 79.279 23.086C73.8241 14.8865 63.3078 5.11719 44.1679 5.11719H44.1638Z" fill="#121212"/>
<path d="M132.892 4.78101C113.742 4.78101 103.22 14.5943 97.7624 22.8231C91.4261 32.3799 90.0378 42.2842 90.0378 45.2919V82.9399H100.469V45.2919C100.469 43.2399 101.89 35.462 106.461 28.5696C112.346 19.6913 121.239 15.1942 132.892 15.1942C142.834 15.1942 150.422 17.9082 155.445 23.2616C163.505 31.8545 162.755 44.8037 162.747 44.9361L167.947 45.296L173.148 45.6766C173.198 44.9692 174.288 28.2055 163.14 16.2326C156.066 8.63682 145.888 4.78101 132.896 4.78101H132.892Z" fill="#121212"/>
<path d="M249.657 41.5384C249.666 41.6667 250.42 54.6159 242.355 63.2129C237.332 68.5664 229.744 71.2803 219.802 71.2803C208.148 71.2803 199.255 66.7791 193.37 57.905C190.415 53.4493 188.778 48.6254 187.991 45.2164H216.11V34.8032H187.382V3.53052H176.951V41.1785C176.951 44.1862 178.339 54.0905 184.675 63.6473C190.133 71.8802 200.656 81.6894 219.806 81.6894C232.803 81.6894 242.977 77.8377 250.051 70.2378C261.199 58.2649 260.113 41.5012 260.06 40.7938L249.657 41.5343V41.5384Z" fill="#121212"/>
<path d="M287.635 220.283C273.648 220.283 262.27 231.602 262.27 245.516C262.27 259.43 273.648 270.749 287.635 270.749C301.622 270.749 313 259.43 313 245.516C313 231.602 301.622 220.283 287.635 220.283ZM287.262 256.278H287.229C284.727 256.266 282.524 254.968 281.256 253.015L290.145 253.052V253.41L292.97 253.423C291.665 255.149 289.59 256.274 287.258 256.274L287.262 256.278Z" fill="#A0DCEA"/>
<path d="M258.878 217.671L244.609 218.681L240.79 218.965L241.001 222.768C241.009 222.883 241.56 234.239 234.747 241.478C230.493 245.998 223.862 248.289 215.044 248.289C204.639 248.289 197.055 244.499 191.87 236.699C190.362 234.428 189.269 232.105 188.49 230.061H215.238V211.96H186.527V180.815H168.331V222.175C168.331 226.303 170.079 236.744 176.694 246.686C182.675 255.673 194.181 266.39 215.044 266.39C229.155 266.39 240.285 262.138 248.121 253.753C260.402 240.613 259.213 222.29 259.155 221.515L258.874 217.667L258.878 217.671Z" fill="#A0DCEA"/>
<path d="M167.47 229.624L108.973 210.349C109.491 209.336 110.141 208.26 110.953 207.197C114.946 201.968 121.175 199.319 129.472 199.319C137.13 199.319 142.676 201.095 145.961 204.597C150.132 209.043 149.829 215.533 149.825 215.561L149.693 219.311L153.383 219.653L167.644 220.831L167.967 216.979C168.087 215.541 168.866 202.628 159.405 192.397C152.542 184.976 142.469 181.214 129.472 181.214C111.591 181.214 101.597 189.459 96.3654 196.373C91.1549 203.258 88.7816 211.491 88.7816 216.229V222.764L149.005 242.607C148.442 244.396 147.51 246.316 145.965 247.964C142.68 251.466 137.134 253.242 129.476 253.242C121.18 253.242 114.95 250.592 110.957 245.364C107.64 241.021 107.023 236.546 106.981 236.208L106.931 232.463H88.7857V236.328C88.7857 241.062 91.159 249.295 96.3696 256.184C101.605 263.098 111.595 271.342 129.476 271.342C142.473 271.342 152.542 267.581 159.41 260.16C168.87 249.933 168.091 237.02 167.971 235.578L167.474 229.616L167.47 229.624Z" fill="#A0DCEA"/>
<path d="M85.7247 180.704H67.5293V267.527H85.7247V180.704Z" fill="#A0DCEA"/>
<path opacity="0.6" d="M287.635 264.816C276.941 264.816 268.239 256.159 268.239 245.52C268.239 234.882 276.941 226.225 287.635 226.225C298.33 226.225 307.032 234.882 307.032 245.52C307.032 256.159 298.33 264.816 287.635 264.816Z" fill="#F8F8F8"/>
<path d="M287.635 228.297C297.195 228.297 304.944 236.007 304.944 245.516C304.944 255.026 297.195 262.735 287.635 262.735C278.076 262.735 270.326 255.026 270.326 245.516C270.326 236.007 278.076 228.297 287.635 228.297ZM287.635 224.152C275.789 224.152 266.155 233.736 266.155 245.52C266.155 257.305 275.789 266.888 287.635 266.888C299.481 266.888 309.115 257.305 309.115 245.52C309.115 233.736 299.481 224.152 287.635 224.152Z" fill="#121212"/>
<path d="M292.03 249.2L282.491 249.159L281.12 249.155L279.364 249.146L276.237 249.134C276.212 255.183 281.133 260.123 287.213 260.152H287.263C293.318 260.152 298.259 255.265 298.288 249.233L292.034 249.204L292.03 249.2Z" fill="#121212"/>
<path d="M294.09 234.38L294.024 249.567L298.195 249.585L298.261 234.398L294.09 234.38Z" fill="#121212"/>
<path d="M81.8398 184.568H71.4146V263.662H81.8398V184.568Z" fill="#121212"/>
<path d="M153.702 215.796L164.09 216.653C164.131 216.146 165.026 204.181 156.543 195.013C150.446 188.42 141.334 185.079 129.472 185.079C113.194 185.079 104.173 192.483 99.4675 198.697C94.4765 205.293 92.6624 212.792 92.6624 216.224V219.97L153.528 240.023C153.147 242.908 152.024 247.156 148.798 250.6C144.747 254.918 138.244 257.11 129.467 257.11C119.891 257.11 112.618 253.946 107.855 247.704C103.974 242.619 103.096 237.189 103.088 236.332H92.6624C92.6624 239.764 94.4724 247.263 99.4675 253.86C104.169 260.073 113.19 267.477 129.472 267.477C141.338 267.477 150.446 264.136 156.543 257.543C165.026 248.375 164.135 236.406 164.09 235.903L163.804 232.487L103.825 212.722C104.5 210.534 105.722 207.642 107.855 204.852C112.618 198.61 119.891 195.446 129.467 195.446C138.244 195.446 144.747 197.634 148.798 201.956C154.199 207.72 153.702 215.746 153.698 215.829V215.796H153.702Z" fill="#121212"/>
<path d="M255.287 221.8L244.89 222.537C244.899 222.665 245.652 235.562 237.592 244.124C232.572 249.455 224.988 252.158 215.052 252.158C203.405 252.158 194.516 247.675 188.635 238.837C185.682 234.4 184.046 229.595 183.259 226.2H211.361V215.829H182.65V184.684H172.225V222.179C172.225 225.174 173.612 235.038 179.945 244.556C185.4 252.756 195.916 262.525 215.056 262.525C228.045 262.525 238.214 258.689 245.284 251.12C256.426 239.196 255.34 222.5 255.287 221.796V221.8Z" fill="#121212"/>
<path d="M259.487 81.9104H3.75159V91.2895H259.487V81.9104Z" fill="#A0DCEA"/>
<path d="M259.487 105.671H3.75154V115.05H259.487V105.671Z" fill="#A0DCEA"/>
<path d="M259.487 128.806H3.75154V138.81H259.487V128.806Z" fill="#A0DCEA"/>
<path d="M259.487 150.69H3.75154V160.695H259.487V150.69Z" fill="#A0DCEA"/>
<path d="M259.487 175.701H3.75154V185.08H259.487V175.701Z" fill="#A0DCEA"/>
<path d="M41.2161 185.119L39.7039 183.105C31.2852 171.873 26.2613 153.624 26.2613 134.289C26.2613 114.955 31.412 95.6156 39.7039 84.5501L41.2161 82.5359H64.0416L59.2563 90.1889C52.7913 100.527 48.7773 117.424 48.7773 134.289C48.7773 151.155 52.6949 166.971 59.2563 177.466L64.0416 185.119H41.2161Z" fill="#A0DCEA"/>
<path d="M43.7434 87.5432C36.1264 97.7051 31.3005 115.813 31.3005 134.289C31.3005 152.765 36.1315 169.949 43.7434 180.111H54.9785C48.1075 169.116 43.7434 152.488 43.7434 134.289C43.7434 116.09 48.1075 98.5381 54.9785 87.5432H43.7434Z" fill="#121212"/>
<path d="M198.836 184.494L203.622 176.841C210.183 166.346 214.101 150.207 214.101 133.664C214.101 117.121 210.087 99.902 203.622 89.5634L198.836 81.9104H221.662L223.174 83.9246C231.466 94.9901 236.617 114.047 236.617 133.664C236.617 153.281 231.593 171.247 223.174 182.479L221.662 184.494H198.836Z" fill="#A0DCEA"/>
<path d="M207.899 86.9182C214.77 97.9131 219.134 115.465 219.134 133.664C219.134 151.863 214.77 168.491 207.899 179.486H219.134C226.751 169.324 231.577 152.14 231.577 133.664C231.577 115.188 226.746 97.0801 219.134 86.9182H207.899Z" fill="#121212"/>
<circle cx="275.432" cy="110.36" r="7.19062" fill="#A0DCEA"/>
<circle cx="275.432" cy="155.38" r="7.19062" fill="#A0DCEA"/>
<line x1="292.25" y1="81.9104" x2="292.25" y2="185.08" stroke="#A0DCEA" stroke-width="8"/>
<line x1="305.754" y1="81.9104" x2="305.754" y2="185.08" stroke="#A0DCEA" stroke-width="15"/>
</svg>
