<svg width="431" height="143" viewBox="0 0 431 143" fill="none" xmlns="http://www.w3.org/2000/svg">
<path d="M430.055 60.9592L406.793 62.6038L400.507 63.0133L400.919 69.2628C400.932 69.4508 401.83 87.951 390.723 99.7453C383.788 107.109 372.978 110.841 358.602 110.841C341.64 110.841 329.276 104.666 320.822 91.9585C318.365 88.2598 316.582 84.4738 315.312 81.1443H358.919V51.6553H312.112V0.913818H282.449V42.083C279.775 35.773 275.96 29.3422 270.531 23.5357C257.755 9.87531 239.612 2.94777 216.606 2.94777C182.595 2.94777 163.83 20.4009 154.086 35.048C149.684 41.6668 146.605 48.4131 144.498 54.5485C142.391 48.4198 139.312 41.6668 134.91 35.048C125.159 20.4076 106.401 2.94777 72.3896 2.94777C49.3843 2.94777 31.2407 9.87531 18.4653 23.5357C-1.56223 44.956 0.0299669 77.0412 0.0299571 77.6099C0.0299473 78.1786 0.370065 81.211 0.600675 83.2966C4.62488 119.692 28.0874 142.358 59.6479 142.358C91.2084 142.358 116.881 116.836 116.881 85.4606L116.82 79.1641V65.4097C118.312 70.075 118.88 73.767 118.88 74.9888V142.371H170.116V74.9888C170.116 72.6594 172.203 61.2747 178.827 51.3264C187.288 38.6192 199.645 32.4435 216.606 32.4435C230.982 32.4435 241.793 36.1758 248.727 43.5396C259.835 55.3339 258.937 73.8409 258.923 73.9886L258.512 80.2515L273.265 81.2719L284.508 82.0908C286.46 89.7433 290.011 99.121 296.088 108.244C305.839 122.884 324.597 140.344 358.609 140.344C381.614 140.344 399.757 133.416 412.533 119.756C432.554 98.3491 430.616 68.4975 430.521 67.2356L430.062 60.9659L430.055 60.9592ZM87.1502 51.1519V79.1641H30.4102L30.0726 74.0221C30.0591 73.8342 29.161 55.3339 40.2686 43.5396C47.2033 36.1758 58.0138 32.4435 72.3896 32.4435C89.2772 32.4435 101.6 38.5655 110.054 51.1519H87.157H87.1502Z" fill="#A0DCEA"/>
<path d="M110.186 57.7312H93.1521V85.5285H18.4461H7.28088C10.1409 113.29 31.108 135.741 59.2404 135.741C87.3727 135.741 110.253 113.219 110.253 85.5285H110.193V57.7312H110.186Z" fill="#121212"/>
<path d="M71.7722 8.84546C50.6416 8.84546 34.0996 15.0989 22.5978 27.4378C4.47237 46.8765 6.23774 74.0933 6.32533 75.2419H23.2767C23.2632 75.0337 21.9981 52.8075 35.1104 38.8498C43.2769 30.1582 55.6143 25.7519 71.7789 25.7519C90.7263 25.7519 105.186 33.0599 114.754 47.4676C122.186 58.6646 124.498 71.2857 124.498 74.6173V135.741H141.457V74.6173C141.457 69.7341 139.2 53.6538 128.897 38.1378C120.023 24.7712 102.916 8.84546 71.7789 8.84546H71.7722Z" fill="#121212"/>
<path d="M216.338 8.84546C185.2 8.84546 168.092 24.7779 159.218 38.1378C148.915 53.6538 146.658 69.7341 146.658 74.6172V135.741H163.618V74.6172C163.618 71.2857 165.929 58.6579 173.361 47.4676C182.93 33.0531 197.39 25.7519 216.338 25.7519C232.502 25.7519 244.84 30.1581 253.007 38.8498C266.113 52.8008 264.893 73.8247 264.879 74.0396L273.336 74.624L281.792 75.2419C281.873 74.0933 283.645 46.8765 265.52 27.4378C254.017 15.1056 237.469 8.84546 216.344 8.84546H216.338Z" fill="#121212"/>
<path d="M406.334 68.4732C406.347 68.6814 407.574 89.7053 394.461 103.663C386.294 112.355 373.956 116.761 357.79 116.761C338.842 116.761 324.381 109.453 314.813 95.0452C310.008 87.8111 307.347 79.9792 306.066 74.4445H351.786V57.5381H305.076V6.76514H288.115V67.8888C288.115 72.772 290.373 88.8522 300.676 104.368C309.55 117.735 326.659 133.661 357.797 133.661C378.929 133.661 395.471 127.407 406.974 115.068C425.1 95.6296 423.335 68.4128 423.247 67.2642L406.334 68.4665V68.4732Z" fill="#121212"/>
</svg>
