<svg width="391" height="146" viewBox="0 0 391 146" fill="none" xmlns="http://www.w3.org/2000/svg">
<path d="M350.72 63.9204C328.508 63.9204 310.44 81.947 310.44 104.108C310.44 126.269 328.508 144.295 350.72 144.295C372.932 144.295 391 126.269 391 104.108C391 81.947 372.932 63.9204 350.72 63.9204ZM350.128 121.249H350.075C346.103 121.229 342.603 119.162 340.591 116.051L354.706 116.11V116.681L359.192 116.701C357.12 119.45 353.824 121.242 350.121 121.242L350.128 121.249Z" fill="#A0DCEA"/>
<path opacity="0.6" d="M350.72 134.846C333.737 134.846 319.918 121.058 319.918 104.114C319.918 87.1707 333.737 73.3833 350.72 73.3833C367.703 73.3833 381.522 87.1707 381.522 104.114C381.522 121.058 367.703 134.846 350.72 134.846Z" fill="white"/>
<path d="M350.72 76.6842C365.901 76.6842 378.207 88.9622 378.207 104.108C378.207 119.254 365.901 131.532 350.72 131.532C335.539 131.532 323.233 119.254 323.233 104.108C323.233 88.9622 335.539 76.6842 350.72 76.6842ZM350.72 70.0825C331.909 70.0825 316.61 85.3464 316.61 104.115C316.61 122.883 331.909 138.146 350.72 138.146C369.531 138.146 384.83 122.883 384.83 104.115C384.83 85.3464 369.531 70.0825 350.72 70.0825Z" fill="#121212"/>
<path d="M367.739 86.3999L367.636 110.026L367.637 110.027C367.591 119.634 359.744 127.417 350.128 127.417H350.05C340.394 127.372 332.58 119.503 332.619 109.87L337.585 109.889L340.374 109.902L342.551 109.909L357.699 109.974L357.705 109.981L360.867 109.995L360.97 86.3706L367.739 86.3999Z" fill="#121212"/>
<path d="M304.554 59.7602L281.894 61.3679L275.83 61.8207L276.165 67.8777C276.179 68.0614 277.053 86.1471 266.234 97.677C259.479 104.876 248.948 108.524 234.945 108.524C218.423 108.524 206.379 102.487 198.144 90.0648C195.75 86.449 194.014 82.7478 192.777 79.4929H235.254V50.6648H189.66V1.06055H160.765V66.9327C160.765 73.5081 163.541 90.137 174.045 105.972C183.543 120.284 201.815 137.353 234.945 137.353C257.354 137.353 275.028 130.58 287.472 117.226C306.974 96.2989 305.086 67.1165 304.994 65.8828L304.547 59.7536L304.554 59.7602Z" fill="#A0DCEA"/>
<path d="M159.477 78.8648L66.5044 48.0989C67.3265 46.4846 68.3592 44.7718 69.6484 43.0788C75.989 34.7512 85.8814 30.5317 99.0559 30.5317C111.217 30.5317 120.025 33.36 125.241 38.938C131.864 46.0187 131.384 56.3543 131.377 56.4002L131.167 62.3719L137.027 62.9166L159.673 64.7934L160.186 58.6576C160.377 56.3674 161.613 35.8012 146.591 19.5071C135.692 7.68839 119.696 1.69702 99.0559 1.69702C70.6613 1.69702 54.7901 14.8281 46.4828 25.8397C38.2085 36.8052 34.4396 49.9167 34.4396 57.4633V67.8711L130.075 99.475C129.18 102.323 127.7 105.381 125.247 108.006C120.031 113.584 111.224 116.412 99.0625 116.412C85.8879 116.412 75.9956 112.193 69.655 103.865C64.3865 96.9485 63.4065 89.8219 63.3407 89.2838L63.2618 83.3187H34.4462V89.4741C34.4462 97.0142 38.215 110.126 46.4894 121.098C54.8032 132.109 70.6679 145.24 99.0625 145.24C119.702 145.24 135.692 139.249 146.597 127.43C161.62 111.143 160.384 90.5766 160.193 88.2798L159.477 78.8648Z" fill="#A0DCEA"/>
<path d="M29.5855 0.883301H0.69104V139.164H29.5855V0.883301Z" fill="#A0DCEA"/>
<path d="M137.534 56.7741L154.03 58.1391C154.096 57.3319 155.516 38.275 142.046 23.674C132.364 13.1743 117.894 7.85229 99.0561 7.85229C73.2069 7.85229 58.8814 19.6447 51.4095 29.5406C43.4837 40.0468 40.6028 51.9902 40.6028 57.4566V63.4217L137.258 95.3603C136.652 99.9539 134.87 106.72 129.746 112.206C123.314 119.083 112.987 122.574 99.0495 122.574C83.8426 122.574 72.2927 117.534 64.7287 107.592C58.5657 99.4946 57.1713 90.8455 57.1581 89.4805H40.6028C40.6028 94.9469 43.4771 106.89 51.4095 117.396C58.8748 127.292 73.2003 139.085 99.0561 139.085C117.9 139.085 132.364 133.763 142.046 123.263C155.516 108.662 154.102 89.5987 154.03 88.7981L153.576 83.3579L58.3289 51.8786C59.401 48.3941 61.3413 43.7874 64.7287 39.3447C72.2927 29.4028 83.8426 24.363 99.0495 24.363C112.987 24.363 123.314 27.8476 129.746 34.7314C138.323 43.912 137.534 56.6954 137.527 56.8266V56.7741H137.534Z" fill="#121212"/>
<path d="M298.851 66.3352L282.342 67.5099C282.355 67.7133 283.552 88.2532 270.752 101.89C262.78 110.381 250.737 114.686 234.958 114.686C216.462 114.686 202.347 107.546 193.008 93.4702C188.318 86.4027 185.72 78.751 184.47 73.3437H229.098V56.8265H183.503V7.22217H166.948V66.9389C166.948 71.7097 169.151 87.4198 179.208 102.579C187.87 115.638 204.571 131.197 234.965 131.197C255.591 131.197 271.739 125.087 282.966 113.032C300.66 94.0412 298.936 67.4508 298.851 66.3286V66.3352Z" fill="#121212"/>
<path d="M23.4161 7.03882H6.86084V133.008H23.4161V7.03882Z" fill="#121212"/>
</svg>
