<svg width="192" height="50" viewBox="0 0 192 50" fill="none" xmlns="http://www.w3.org/2000/svg">
<path d="M38.7563 20.1516H32.4095V30.848H4.5704H0.766357C0.766357 41.3326 9.29266 49.8596 19.7765 49.8596C30.2603 49.8596 38.7866 41.3326 38.7866 30.848H38.7664V20.1516H38.7563Z" fill="#121212"/>
<path d="M24.5294 1.52588e-05C16.6186 1.52588e-05 10.4333 2.35123 6.1247 6.98301C-0.65598 14.2788 -0.000104201 24.5011 0.0301667 24.935L6.35678 24.9047C6.35678 24.824 5.89262 16.5089 10.7965 11.2717C13.8539 8.0123 18.4651 6.35737 24.5193 6.35737C31.6128 6.35737 37.0212 9.10213 40.6032 14.5109C43.3882 18.7189 44.2458 23.4516 44.2458 24.7029V46.8628H50.5926V24.7029C50.5926 22.8663 49.745 16.8319 45.8905 11.0093C42.5708 5.99409 36.1635 0.0101065 24.5193 0.0101065L24.5294 1.52588e-05Z" fill="#121212"/>
<path d="M80.7824 0.746399C69.4813 0.746399 63.2657 6.54875 60.0469 11.4126C56.3034 17.0636 55.4861 22.9265 55.4861 24.7025V46.9633H61.6412V24.7025C61.6412 23.4916 62.4786 18.8901 65.1728 14.8133C68.6438 9.56596 73.9009 6.90193 80.7724 6.90193C86.6449 6.90193 91.125 8.5064 94.0815 11.675C98.8441 16.7609 98.4001 24.42 98.39 24.4906L101.457 24.7025L104.525 24.9245C104.555 24.5108 105.201 14.5913 98.612 7.51748C94.4346 3.02697 88.4309 0.746399 80.7522 0.746399H80.7824Z" fill="#121212"/>
<path d="M149.861 22.4828C149.861 22.5636 150.315 30.2126 145.553 35.2984C142.586 38.467 138.106 40.0715 132.244 40.0715C125.362 40.0715 120.115 37.4075 116.644 32.1601C114.898 29.5264 113.93 26.6706 113.466 24.6524H130.064V18.4969H113.102V0H106.947V22.2608C106.947 24.0368 107.765 29.8997 111.508 35.5507C114.727 40.4146 120.942 46.2169 132.244 46.2169C139.912 46.2169 145.926 43.9364 150.103 39.4459C156.682 32.3619 156.047 22.4526 156.016 22.0388L149.871 22.4727L149.861 22.4828Z" fill="#121212"/>
<path d="M185.651 1.98764C181.978 6.91207 179.647 15.6913 179.647 24.642C179.647 33.5928 181.978 41.928 185.651 46.8524H191.069C187.76 41.5243 185.651 33.4616 185.651 24.642C185.651 15.8224 187.76 7.31571 191.069 1.98764H185.651Z" fill="#121212"/>
</svg>
