<svg width="20" height="21" viewBox="0 0 20 21" fill="none" xmlns="http://www.w3.org/2000/svg">
<path d="M19.1229 0.191284L7.71606 3.83331V14.385C6.92391 13.6396 5.77091 13.1671 4.48292 13.1671C2.09499 13.1671 0.15918 14.7816 0.15918 16.7734C0.15918 18.7653 2.09499 20.3798 4.48292 20.3798C6.07741 20.3798 7.46687 19.6579 8.21657 18.5859C8.3227 18.45 8.41822 18.3083 8.49251 18.1536C8.57402 17.9838 8.64067 17.7897 8.69543 17.5759C8.71538 17.5029 8.73109 17.4287 8.74552 17.3545C8.75741 17.2942 8.7693 17.2334 8.77948 17.1696C8.78118 17.1562 8.78373 17.1432 8.78543 17.1298C8.83679 16.794 8.86396 16.4175 8.86396 15.9966V7.11729L17.9419 4.19596V11.1496C17.1536 10.4528 16.0392 10.016 14.8 10.016C12.4121 10.016 10.4763 11.6305 10.4763 13.6224C10.4763 15.6142 12.4121 17.2288 14.8 17.2288C17.188 17.2288 19.1238 15.6142 19.1238 13.6224C19.1238 13.541 19.1157 13.461 19.1093 13.3809C19.1182 13.2178 19.1238 13.0493 19.1238 12.8694L19.1229 0.191284Z" fill="#61B3C1"/>
</svg>
