<svg width="143" height="102" viewBox="0 0 143 102" fill="none" xmlns="http://www.w3.org/2000/svg">
<path d="M41.5396 95.7021C61.6096 95.7021 77.8796 75.7305 77.8796 51.0942C77.8796 26.458 61.6096 6.48633 41.5396 6.48633C21.4696 6.48633 5.19971 26.458 5.19971 51.0942C5.19971 75.7305 21.4696 95.7021 41.5396 95.7021Z" fill="#F8F8F8"/>
<path d="M101.365 95.7021C121.435 95.7021 137.705 75.7305 137.705 51.0942C137.705 26.458 121.435 6.48633 101.365 6.48633C81.2948 6.48633 65.0249 26.458 65.0249 51.0942C65.0249 75.7305 81.2948 95.7021 101.365 95.7021Z" fill="#F8F8F8"/>
<path d="M100.957 101.787C89.7111 101.787 79.2344 96.4989 71.4376 87.0733C63.6407 96.4989 53.1641 101.787 41.9184 101.787C18.8059 101.787 0 78.958 0 50.8936C0 22.8292 18.8 0 41.9125 0C53.1582 0 63.6348 5.28826 71.4317 14.7139C79.2285 5.28826 89.7052 0 100.951 0C124.063 0 142.869 22.8292 142.869 50.8936C142.869 78.958 124.063 101.787 100.951 101.787H100.957ZM71.4376 70.6715L75.3124 76.8686C81.5948 86.914 90.9416 92.6744 100.957 92.6744C119.029 92.6744 133.735 73.9353 133.735 50.8995C133.735 27.8637 119.029 9.12461 100.957 9.12461C90.9416 9.12461 81.5948 14.885 75.3124 24.9304L71.4376 31.1276L67.5628 24.9304C61.2804 14.885 51.9337 9.12461 41.9184 9.12461C23.8461 9.12461 9.13971 27.8637 9.13971 50.8995C9.13971 73.9353 23.8461 92.6744 41.9184 92.6744C51.9337 92.6744 61.2804 86.914 67.5628 76.8686L71.4376 70.6715Z" fill="#121212"/>
</svg>
