<svg width="144" height="47" viewBox="0 0 144 47" fill="none" xmlns="http://www.w3.org/2000/svg">
<path d="M83.3959 18.5476L89.5308 19.0522C89.551 18.7495 90.0858 11.6454 85.0709 6.19621C81.4686 2.28089 76.0905 0.292953 69.0777 0.292953C59.4617 0.292953 54.134 4.69265 51.3592 8.37587C48.4128 12.2912 47.3433 16.7514 47.3433 18.7797V20.9998L83.295 30.6367C83.073 32.3522 82.407 34.8749 80.5 36.9133C78.1085 39.4764 74.2641 40.7782 69.0777 40.7782C63.4171 40.7782 59.1287 38.9013 56.3135 35.1978C54.0231 32.1806 53.5084 28.9515 53.4983 28.4469H47.3433C47.3433 30.4853 48.4128 34.9355 51.3592 38.8508C54.134 42.5441 59.4617 46.9337 69.0777 46.9337C76.0905 46.9337 81.4686 44.9458 85.0709 41.0305C90.0858 35.5813 89.551 28.4772 89.5308 28.1745L89.3593 26.1462L53.9323 16.6808C54.3258 15.3791 55.0523 13.6636 56.3135 12.0086C59.1287 8.30524 63.4272 6.4283 69.0777 6.4283C74.2641 6.4283 78.1085 7.73005 80.5 10.2932C83.6885 13.714 83.3959 18.4871 83.3959 18.5275V18.5073V18.5476Z" fill="#121212"/>
<path d="M143.403 22.1099L137.258 22.5438C137.258 22.6245 137.712 30.2735 132.95 35.3594C129.983 38.528 125.503 40.1325 119.641 40.1325C112.759 40.1325 107.512 37.4685 104.041 32.2211C102.295 29.5874 101.327 26.7316 100.863 24.7134H117.461V18.5579H100.499V0.0609894H94.3442V22.3218C94.3442 24.0978 95.1615 29.9607 98.905 35.6117C102.124 40.4756 108.339 46.2779 119.641 46.2779C127.309 46.2779 133.323 43.9974 137.5 39.5068C144.079 32.4229 143.444 22.5135 143.413 22.0998L143.403 22.1099Z" fill="#121212"/>
<path d="M40.9466 0H34.7915V46.2876H40.9466V0Z" fill="#121212"/>
<path d="M0 1.43356C3.30962 6.76163 5.41848 15.2684 5.41848 24.0879C5.41848 32.9075 3.30962 40.9702 0 46.2983H5.41848C9.09135 41.3739 11.4222 33.0488 11.4222 24.0879C11.4222 15.1271 9.09135 6.35799 5.41848 1.43356H0Z" fill="#121212"/>
</svg>
