<svg width="211" height="211" viewBox="0 0 211 211" fill="none" xmlns="http://www.w3.org/2000/svg">
<g filter="url(#filter0_d_3137_252)">
<rect x="4" width="203" height="203" fill="url(#paint0_linear_3137_252)"/>
</g>
<path d="M105.613 194.424C156.871 194.424 198.424 152.871 198.424 101.613C198.424 50.3552 156.871 8.80225 105.613 8.80225C54.3547 8.80225 12.8018 50.3552 12.8018 101.613C12.8018 152.871 54.3547 194.424 105.613 194.424Z" fill="url(#paint1_linear_3137_252)"/>
<circle cx="105.775" cy="100.675" r="64.3659" fill="#121212"/>
<path d="M105.613 152.398C133.661 152.398 156.398 129.661 156.398 101.613C156.398 73.565 133.661 50.8276 105.613 50.8276C77.5646 50.8276 54.8271 73.565 54.8271 101.613C54.8271 129.661 77.5646 152.398 105.613 152.398Z" fill="#E090A5"/>
<g filter="url(#filter1_f_3137_252)">
<path d="M104.949 151.838C132.142 151.838 154.186 129.793 154.186 102.6C154.186 75.4075 132.142 53.3633 104.949 53.3633C77.7561 53.3633 55.7119 75.4075 55.7119 102.6C55.7119 129.793 77.7561 151.838 104.949 151.838Z" fill="#C06379"/>
</g>
<circle cx="105.775" cy="100.675" r="17.0542" fill="#89263D"/>
<g filter="url(#filter2_i_3137_252)">
<path d="M105.781 106.853C109.221 106.853 112.01 104.063 112.01 100.623C112.01 97.1822 109.221 94.3931 105.781 94.3931C102.34 94.3931 99.5508 97.1822 99.5508 100.623C99.5508 104.063 102.34 106.853 105.781 106.853Z" fill="white"/>
</g>
<circle cx="105.775" cy="101.775" r="82.3205" stroke="#4B4B4B" stroke-width="1.5"/>
<circle cx="105.775" cy="101.775" r="86.1714" stroke="#4B4B4B" stroke-width="1.5"/>
<circle cx="105.775" cy="101.775" r="79.0196" stroke="#4B4B4B" stroke-width="1.5"/>
<path d="M105.775 32.6577C143.641 32.6579 174.342 63.4765 174.342 101.5C174.342 139.523 143.641 170.342 105.775 170.342C67.9096 170.342 37.208 139.523 37.208 101.5C37.2082 63.4764 67.9098 32.6577 105.775 32.6577Z" stroke="#4B4B4B" stroke-width="1.5"/>
<defs>
<filter id="filter0_d_3137_252" x="0" y="0" width="211" height="211" filterUnits="userSpaceOnUse" color-interpolation-filters="sRGB">
<feFlood flood-opacity="0" result="BackgroundImageFix"/>
<feColorMatrix in="SourceAlpha" type="matrix" values="0 0 0 0 0 0 0 0 0 0 0 0 0 0 0 0 0 0 127 0" result="hardAlpha"/>
<feOffset dy="4"/>
<feGaussianBlur stdDeviation="2"/>
<feComposite in2="hardAlpha" operator="out"/>
<feColorMatrix type="matrix" values="0 0 0 0 0 0 0 0 0 0 0 0 0 0 0 0 0 0 0.25 0"/>
<feBlend mode="normal" in2="BackgroundImageFix" result="effect1_dropShadow_3137_252"/>
<feBlend mode="normal" in="SourceGraphic" in2="effect1_dropShadow_3137_252" result="shape"/>
</filter>
<filter id="filter1_f_3137_252" x="51.7119" y="49.3633" width="106.475" height="106.474" filterUnits="userSpaceOnUse" color-interpolation-filters="sRGB">
<feFlood flood-opacity="0" result="BackgroundImageFix"/>
<feBlend mode="normal" in="SourceGraphic" in2="BackgroundImageFix" result="shape"/>
<feGaussianBlur stdDeviation="2" result="effect1_foregroundBlur_3137_252"/>
</filter>
<filter id="filter2_i_3137_252" x="98.5508" y="94.3931" width="13.46" height="13.4595" filterUnits="userSpaceOnUse" color-interpolation-filters="sRGB">
<feFlood flood-opacity="0" result="BackgroundImageFix"/>
<feBlend mode="normal" in="SourceGraphic" in2="BackgroundImageFix" result="shape"/>
<feColorMatrix in="SourceAlpha" type="matrix" values="0 0 0 0 0 0 0 0 0 0 0 0 0 0 0 0 0 0 127 0" result="hardAlpha"/>
<feOffset dx="-1" dy="1"/>
<feGaussianBlur stdDeviation="1.5"/>
<feComposite in2="hardAlpha" operator="arithmetic" k2="-1" k3="1"/>
<feColorMatrix type="matrix" values="0 0 0 0 0 0 0 0 0 0 0 0 0 0 0 0 0 0 0.25 0"/>
<feBlend mode="normal" in2="shape" result="effect1_innerShadow_3137_252"/>
</filter>
<linearGradient id="paint0_linear_3137_252" x1="105.5" y1="0" x2="105.5" y2="51.4377" gradientUnits="userSpaceOnUse">
<stop stop-color="#E9E9E9"/>
<stop offset="0.120192" stop-color="#EFEFEF"/>
<stop offset="1" stop-color="#F8F8F8"/>
</linearGradient>
<linearGradient id="paint1_linear_3137_252" x1="51.5863" y1="24.4811" x2="157.762" y2="181.82" gradientUnits="userSpaceOnUse">
<stop stop-color="#2F2F2F"/>
<stop offset="0.158654" stop-color="#2F2F2F"/>
<stop offset="0.485577" stop-color="#959595"/>
<stop offset="0.846154" stop-color="#2F2F2F"/>
<stop offset="1" stop-color="#2F2F2F"/>
</linearGradient>
</defs>
</svg>
