<svg width="148" height="122" viewBox="0 0 148 122" fill="none" xmlns="http://www.w3.org/2000/svg">
<path d="M37.4077 48.0527V104.69" stroke="#121212" stroke-width="2" stroke-miterlimit="10"/>
<path d="M20.5521 120.053C31.3505 120.053 40.1043 113.175 40.1043 104.691C40.1043 96.2061 31.3505 89.3281 20.5521 89.3281C9.75379 89.3281 1 96.2061 1 104.691C1 113.175 9.75379 120.053 20.5521 120.053Z" fill="#D8E0C2" stroke="#121212" stroke-width="2" stroke-miterlimit="10"/>
<path d="M25.1977 104.415C29.0543 104.415 32.1807 100.564 32.1807 95.8139C32.1807 91.0638 29.0543 87.2131 25.1977 87.2131C21.3412 87.2131 18.2148 91.0638 18.2148 95.8139C18.2148 100.564 21.3412 104.415 25.1977 104.415Z" fill="#F8F8F8"/>
<path d="M36.7012 104.415C40.5577 104.415 43.6841 100.564 43.6841 95.8139C43.6841 91.0638 40.5577 87.2131 36.7012 87.2131C32.8446 87.2131 29.7183 91.0638 29.7183 95.8139C29.7183 100.564 32.8446 104.415 36.7012 104.415Z" fill="#F8F8F8"/>
<path d="M36.6188 105.576C34.4617 105.576 32.4429 104.553 30.9495 102.741C29.4561 104.553 27.4373 105.576 25.2802 105.576C20.8416 105.576 17.2188 101.179 17.2188 95.7722C17.2188 90.3657 20.8277 85.9685 25.2802 85.9685C27.4373 85.9685 29.4561 86.9917 30.9495 88.8032C32.4429 86.9917 34.4617 85.9685 36.6188 85.9685C41.0574 85.9685 44.6803 90.3657 44.6803 95.7722C44.6803 101.179 41.0713 105.576 36.6188 105.576ZM30.9495 99.5748L31.6962 100.764C32.8992 102.7 34.6968 103.806 36.6326 103.806C40.1033 103.806 42.938 100.197 42.938 95.7584C42.938 91.3198 40.1172 87.7108 36.6326 87.7108C34.7106 87.7108 32.913 88.817 31.6962 90.7528L30.9495 91.942L30.2028 90.7528C28.9998 88.817 27.2022 87.7108 25.2664 87.7108C21.7957 87.7108 18.961 91.3198 18.961 95.7584C18.961 100.197 21.7818 103.806 25.2664 103.806C27.1884 103.806 28.986 102.7 30.2028 100.764L30.9495 99.5748Z" fill="#121212"/>
<path d="M38.0844 96.5055C39.5202 96.5055 40.684 94.5368 40.684 92.1083C40.684 89.6799 39.5202 87.7112 38.0844 87.7112C36.6487 87.7112 35.4849 89.6799 35.4849 92.1083C35.4849 94.5368 36.6487 96.5055 38.0844 96.5055Z" fill="#121212"/>
<path d="M27.1181 96.5055C28.5538 96.5055 29.7177 94.5368 29.7177 92.1083C29.7177 89.6799 28.5538 87.7112 27.1181 87.7112C25.6824 87.7112 24.5186 89.6799 24.5186 92.1083C24.5186 94.5368 25.6824 96.5055 27.1181 96.5055Z" fill="#121212"/>
<path d="M110.396 30.5078V87.1316" stroke="#121212" stroke-width="2" stroke-miterlimit="10"/>
<path d="M126.754 46.7424C137.553 46.7424 146.306 39.8644 146.306 31.38C146.306 22.8956 137.553 16.0176 126.754 16.0176C115.956 16.0176 107.202 22.8956 107.202 31.38C107.202 39.8644 115.956 46.7424 126.754 46.7424Z" fill="#E090A5" stroke="#121212" stroke-width="2" stroke-miterlimit="10"/>
<path d="M110.423 48.1805C114.28 48.1805 117.406 44.3298 117.406 39.5797C117.406 34.8297 114.28 30.979 110.423 30.979C106.567 30.979 103.44 34.8297 103.44 39.5797C103.44 44.3298 106.567 48.1805 110.423 48.1805Z" fill="#F8F8F8"/>
<path d="M121.914 48.1805C125.77 48.1805 128.896 44.3298 128.896 39.5797C128.896 34.8297 125.77 30.979 121.914 30.979C118.057 30.979 114.931 34.8297 114.931 39.5797C114.931 44.3298 118.057 48.1805 121.914 48.1805Z" fill="#F8F8F8"/>
<path d="M121.845 49.3553C119.688 49.3553 117.669 48.332 116.176 46.5206C114.682 48.332 112.663 49.3553 110.506 49.3553C106.068 49.3553 102.445 44.9581 102.445 39.5515C102.445 34.145 106.054 29.7478 110.506 29.7478C112.663 29.7478 114.682 30.771 116.176 32.5824C117.669 30.771 119.688 29.7478 121.845 29.7478C126.284 29.7478 129.906 34.145 129.906 39.5515C129.906 44.9581 126.297 49.3553 121.845 49.3553ZM116.162 43.3541L116.908 44.5433C118.111 46.4791 119.909 47.5853 121.845 47.5853C125.316 47.5853 128.15 43.9763 128.15 39.5377C128.15 35.0991 125.329 31.4901 121.845 31.4901C119.923 31.4901 118.125 32.5963 116.908 34.5321L116.162 35.7213L115.415 34.5321C114.212 32.5963 112.414 31.4901 110.479 31.4901C107.008 31.4901 104.173 35.0991 104.173 39.5377C104.173 43.9763 106.994 47.5853 110.479 47.5853C112.401 47.5853 114.198 46.4791 115.415 44.5433L116.162 43.3541Z" fill="#121212"/>
<path d="M120.158 47.5722C121.593 47.5722 122.757 45.6035 122.757 43.175C122.757 40.7465 121.593 38.7778 120.158 38.7778C118.722 38.7778 117.558 40.7465 117.558 43.175C117.558 45.6035 118.722 47.5722 120.158 47.5722Z" fill="#121212"/>
<path d="M108.418 47.5722C109.854 47.5722 111.018 45.6035 111.018 43.175C111.018 40.7465 109.854 38.7778 108.418 38.7778C106.983 38.7778 105.819 40.7465 105.819 43.175C105.819 45.6035 106.983 47.5722 108.418 47.5722Z" fill="#121212"/>
<path d="M21.1934 43.2031C22.0392 41.5799 23.0088 39.933 24.0044 38.412C33.1954 24.514 46.7572 14.2861 61.9219 8.8488C77.1532 3.34553 93.8769 2.72099 110.446 4.99173C112.263 5.2363 114.091 5.51612 115.968 5.8419C114.176 5.19394 112.416 4.6044 110.65 4.06376C94.5886 -0.882581 76.6073 -1.78782 60.2298 4.14382C43.9163 9.93015 30.0704 22.4787 23.1691 37.9595C22.4229 39.6498 21.7308 41.4532 21.1934 43.2031Z" fill="#121212"/>
</svg>
