<svg width="106" height="73" viewBox="0 0 106 73" fill="none" xmlns="http://www.w3.org/2000/svg">
<path d="M37.4106 0V56.6238" stroke="#121212" stroke-width="2" stroke-miterlimit="10"/>
<path d="M20.5521 71.9863C31.3505 71.9863 40.1043 65.1083 40.1043 56.6239C40.1043 48.1395 31.3505 41.2615 20.5521 41.2615C9.75379 41.2615 1 48.1395 1 56.6239C1 65.1083 9.75379 71.9863 20.5521 71.9863Z" fill="#B4E6F1" stroke="#121212" stroke-width="2" stroke-miterlimit="10"/>
<path d="M25.2017 56.3477C29.0582 56.3477 32.1846 52.497 32.1846 47.747C32.1846 42.9969 29.0582 39.1462 25.2017 39.1462C21.3451 39.1462 18.2188 42.9969 18.2188 47.747C18.2188 52.497 21.3451 56.3477 25.2017 56.3477Z" fill="#F8F8F8"/>
<path d="M36.7051 56.3477C40.5616 56.3477 43.688 52.497 43.688 47.747C43.688 42.9969 40.5616 39.1462 36.7051 39.1462C32.8485 39.1462 29.7222 42.9969 29.7222 47.747C29.7222 52.497 32.8485 56.3477 36.7051 56.3477Z" fill="#F8F8F8"/>
<path d="M36.6203 57.5088C34.4632 57.5088 32.4443 56.4856 30.951 54.6742C29.4576 56.4856 27.4388 57.5088 25.2817 57.5088C20.843 57.5088 17.2202 53.1117 17.2202 47.7051C17.2202 42.2985 20.8292 37.9014 25.2817 37.9014C27.4388 37.9014 29.4576 38.9246 30.951 40.736C32.4443 38.9246 34.4632 37.9014 36.6203 37.9014C41.0589 37.9014 44.6817 42.2985 44.6817 47.7051C44.6817 53.1117 41.0727 57.5088 36.6203 57.5088ZM30.9371 51.5077L31.6838 52.6968C32.8868 54.6327 34.6844 55.7389 36.6203 55.7389C40.091 55.7389 42.9256 52.1299 42.9256 47.6913C42.9256 43.2526 40.1048 39.6436 36.6203 39.6436C34.6982 39.6436 32.9007 40.7498 31.6838 42.6857L30.9371 43.8749L30.1905 42.6857C28.9875 40.7498 27.1899 39.6436 25.254 39.6436C21.7833 39.6436 18.9487 43.2526 18.9487 47.6913C18.9487 52.1299 21.7695 55.7389 25.254 55.7389C27.1761 55.7389 28.9736 54.6327 30.1905 52.6968L30.9371 51.5077Z" fill="#121212"/>
<path d="M24.7862 52.1163L23.6938 50.7336L27.6485 47.5809L23.7215 44.6909L24.7586 43.2805L30.5385 47.5256L24.7862 52.1163Z" fill="#121212"/>
<path d="M38.0747 52.1032C39.5104 52.1032 40.6743 50.1345 40.6743 47.706C40.6743 45.2775 39.5104 43.3088 38.0747 43.3088C36.639 43.3088 35.4751 45.2775 35.4751 47.706C35.4751 50.1345 36.639 52.1032 38.0747 52.1032Z" fill="#121212"/>
<path d="M97.9331 0V56.6238" stroke="#121212" stroke-width="2" stroke-miterlimit="10"/>
<path d="M81.0629 71.9858C91.8612 71.9858 100.615 65.1078 100.615 56.6234C100.615 48.139 91.8612 41.261 81.0629 41.261C70.2645 41.261 61.5107 48.139 61.5107 56.6234C61.5107 65.1078 70.2645 71.9858 81.0629 71.9858Z" fill="#E090A5" stroke="#121212" stroke-width="2" stroke-miterlimit="10"/>
<path d="M85.7075 56.346C89.5641 56.346 92.6904 52.4953 92.6904 47.7453C92.6904 42.9952 89.5641 39.1445 85.7075 39.1445C81.851 39.1445 78.7246 42.9952 78.7246 47.7453C78.7246 52.4953 81.851 56.346 85.7075 56.346Z" fill="#F8F8F8"/>
<path d="M97.2119 56.346C101.068 56.346 104.195 52.4953 104.195 47.7453C104.195 42.9952 101.068 39.1445 97.2119 39.1445C93.3554 39.1445 90.229 42.9952 90.229 47.7453C90.229 52.4953 93.3554 56.346 97.2119 56.346Z" fill="#F8F8F8"/>
<path d="M97.1437 57.5076C94.9866 57.5076 92.9678 56.4844 91.4744 54.673C89.981 56.4844 87.9622 57.5076 85.8051 57.5076C81.3665 57.5076 77.7437 53.1104 77.7437 47.7039C77.7437 42.2973 81.3526 37.9001 85.8051 37.9001C87.9622 37.9001 89.981 38.9234 91.4744 40.7348C92.9678 38.9234 94.9866 37.9001 97.1437 37.9001C101.582 37.9001 105.205 42.2973 105.205 47.7039C105.205 53.1104 101.596 57.5076 97.1437 57.5076ZM91.4606 51.5203L92.2073 52.7094C93.4103 54.6453 95.2078 55.7515 97.1437 55.7515C100.614 55.7515 103.449 52.1425 103.449 47.7039C103.449 43.2652 100.628 39.6562 97.1437 39.6562C95.2217 39.6562 93.4241 40.7624 92.2073 42.6983L91.4606 43.8875L90.7139 42.6983C89.5109 40.7624 87.7133 39.6562 85.7775 39.6562C82.3067 39.6562 79.4721 43.2652 79.4721 47.7039C79.4721 52.1425 82.2929 55.7515 85.7775 55.7515C87.6995 55.7515 89.4971 54.6453 90.7139 52.7094L91.4606 51.5203Z" fill="#121212"/>
<path d="M85.3062 52.1151L84.2139 50.7323L88.1685 47.5797L84.2415 44.6897L85.2786 43.2793L91.0585 47.5244L85.3062 52.1151Z" fill="#121212"/>
<path d="M100.725 52.1561L101.817 50.7872L97.8626 47.6345L101.79 44.7445L100.753 43.3203L94.9727 47.5792L100.725 52.1561Z" fill="#121212"/>
<rect x="37.4844" width="60.5108" height="7.11892" fill="#121212"/>
</svg>
