<svg width="45" height="73" viewBox="0 0 45 73" fill="none" xmlns="http://www.w3.org/2000/svg">
<path d="M7.95117 15.4902V72.114" stroke="#121212" stroke-width="2" stroke-miterlimit="10"/>
<path d="M24.3104 31.7248C35.1088 31.7248 43.8626 24.8468 43.8626 16.3624C43.8626 7.87798 35.1088 1 24.3104 1C13.5121 1 4.7583 7.87798 4.7583 16.3624C4.7583 24.8468 13.5121 31.7248 24.3104 31.7248Z" fill="#8ACBD6" stroke="#121212" stroke-width="2" stroke-miterlimit="10"/>
<path d="M7.97901 33.1629C11.8356 33.1629 14.9619 29.3122 14.9619 24.5622C14.9619 19.8121 11.8356 15.9614 7.97901 15.9614C4.12245 15.9614 0.996094 19.8121 0.996094 24.5622C0.996094 29.3122 4.12245 33.1629 7.97901 33.1629Z" fill="#F8F8F8"/>
<path d="M19.4683 33.1629C23.3248 33.1629 26.4512 29.3122 26.4512 24.5622C26.4512 19.8121 23.3248 15.9614 19.4683 15.9614C15.6117 15.9614 12.4854 19.8121 12.4854 24.5622C12.4854 29.3122 15.6117 33.1629 19.4683 33.1629Z" fill="#F8F8F8"/>
<path d="M19.4 34.3374C17.2429 34.3374 15.2241 33.3142 13.7308 31.5028C12.2374 33.3142 10.2186 34.3374 8.06146 34.3374C3.62282 34.3374 0 29.9403 0 24.5337C0 19.1271 3.60899 14.73 8.06146 14.73C10.2186 14.73 12.2374 15.7532 13.7308 17.5646C15.2241 15.7532 17.2429 14.73 19.4 14.73C23.8387 14.73 27.4615 19.1271 27.4615 24.5337C27.4615 29.9403 23.8525 34.3374 19.4 34.3374ZM13.7169 28.3363L14.4636 29.5255C15.6666 31.4613 17.4642 32.5675 19.4 32.5675C22.8708 32.5675 25.7054 28.9585 25.7054 24.5199C25.7054 20.0812 22.8846 16.4722 19.4 16.4722C17.478 16.4722 15.6804 17.5785 14.4636 19.5143L13.7169 20.7035L12.9702 19.5143C11.7672 17.5785 9.96966 16.4722 8.0338 16.4722C4.56309 16.4722 1.72844 20.0812 1.72844 24.5199C1.72844 28.9585 4.54926 32.5675 8.0338 32.5675C9.95583 32.5675 11.7534 31.4613 12.9702 29.5255L13.7169 28.3363Z" fill="#121212"/>
<path d="M17.7138 32.5546C19.1495 32.5546 20.3134 30.5859 20.3134 28.1574C20.3134 25.7289 19.1495 23.7603 17.7138 23.7603C16.2781 23.7603 15.1143 25.7289 15.1143 28.1574C15.1143 30.5859 16.2781 32.5546 17.7138 32.5546Z" fill="#121212"/>
<path d="M5.97361 32.5546C7.40932 32.5546 8.57317 30.5859 8.57317 28.1574C8.57317 25.7289 7.40932 23.7603 5.97361 23.7603C4.5379 23.7603 3.37402 25.7289 3.37402 28.1574C3.37402 30.5859 4.5379 32.5546 5.97361 32.5546Z" fill="#121212"/>
</svg>
