<svg width="628" height="127" viewBox="0 0 628 127" fill="none" xmlns="http://www.w3.org/2000/svg">
<path d="M221.814 15.4902V72.114" stroke="#121212" stroke-width="2" stroke-miterlimit="10"/>
<path d="M238.173 31.7248C248.972 31.7248 257.725 24.8468 257.725 16.3624C257.725 7.87798 248.972 1 238.173 1C227.375 1 218.621 7.87798 218.621 16.3624C218.621 24.8468 227.375 31.7248 238.173 31.7248Z" fill="#8ACBD6" stroke="#121212" stroke-width="2" stroke-miterlimit="10"/>
<path d="M221.842 33.1629C225.698 33.1629 228.825 29.3122 228.825 24.5622C228.825 19.8121 225.698 15.9614 221.842 15.9614C217.985 15.9614 214.859 19.8121 214.859 24.5622C214.859 29.3122 217.985 33.1629 221.842 33.1629Z" fill="#F8F8F8"/>
<path d="M233.331 33.1629C237.188 33.1629 240.314 29.3122 240.314 24.5622C240.314 19.8121 237.188 15.9614 233.331 15.9614C229.475 15.9614 226.348 19.8121 226.348 24.5622C226.348 29.3122 229.475 33.1629 233.331 33.1629Z" fill="#F8F8F8"/>
<path d="M233.263 34.3374C231.106 34.3374 229.087 33.3142 227.594 31.5028C226.1 33.3142 224.081 34.3374 221.924 34.3374C217.486 34.3374 213.863 29.9403 213.863 24.5337C213.863 19.1271 217.472 14.73 221.924 14.73C224.081 14.73 226.1 15.7532 227.594 17.5646C229.087 15.7532 231.106 14.73 233.263 14.73C237.701 14.73 241.324 19.1271 241.324 24.5337C241.324 29.9403 237.715 34.3374 233.263 34.3374ZM227.58 28.3363L228.326 29.5255C229.529 31.4613 231.327 32.5675 233.263 32.5675C236.734 32.5675 239.568 28.9585 239.568 24.5199C239.568 20.0812 236.747 16.4722 233.263 16.4722C231.341 16.4722 229.543 17.5785 228.326 19.5143L227.58 20.7035L226.833 19.5143C225.63 17.5785 223.832 16.4722 221.897 16.4722C218.426 16.4722 215.591 20.0812 215.591 24.5199C215.591 28.9585 218.412 32.5675 221.897 32.5675C223.819 32.5675 225.616 31.4613 226.833 29.5255L227.58 28.3363Z" fill="#121212"/>
<path d="M231.577 32.5546C233.012 32.5546 234.176 30.5859 234.176 28.1574C234.176 25.7289 233.012 23.7603 231.577 23.7603C230.141 23.7603 228.977 25.7289 228.977 28.1574C228.977 30.5859 230.141 32.5546 231.577 32.5546Z" fill="#121212"/>
<path d="M219.836 32.5546C221.272 32.5546 222.436 30.5859 222.436 28.1574C222.436 25.7289 221.272 23.7603 219.836 23.7603C218.401 23.7603 217.237 25.7289 217.237 28.1574C217.237 30.5859 218.401 32.5546 219.836 32.5546Z" fill="#121212"/>
<path d="M37.4106 53.502V110.126" stroke="#121212" stroke-width="2" stroke-miterlimit="10"/>
<path d="M20.5521 125.488C31.3505 125.488 40.1043 118.61 40.1043 110.126C40.1043 101.641 31.3505 94.7634 20.5521 94.7634C9.75379 94.7634 1 101.641 1 110.126C1 118.61 9.75379 125.488 20.5521 125.488Z" fill="#B4E6F1" stroke="#121212" stroke-width="2" stroke-miterlimit="10"/>
<path d="M25.2017 109.85C29.0582 109.85 32.1846 105.999 32.1846 101.249C32.1846 96.4989 29.0582 92.6482 25.2017 92.6482C21.3451 92.6482 18.2188 96.4989 18.2188 101.249C18.2188 105.999 21.3451 109.85 25.2017 109.85Z" fill="#F8F8F8"/>
<path d="M36.7051 109.85C40.5616 109.85 43.688 105.999 43.688 101.249C43.688 96.4989 40.5616 92.6482 36.7051 92.6482C32.8485 92.6482 29.7222 96.4989 29.7222 101.249C29.7222 105.999 32.8485 109.85 36.7051 109.85Z" fill="#F8F8F8"/>
<path d="M36.6203 111.011C34.4632 111.011 32.4443 109.988 30.951 108.176C29.4576 109.988 27.4388 111.011 25.2817 111.011C20.843 111.011 17.2202 106.614 17.2202 101.207C17.2202 95.8005 20.8292 91.4033 25.2817 91.4033C27.4388 91.4033 29.4576 92.4266 30.951 94.238C32.4443 92.4266 34.4632 91.4033 36.6203 91.4033C41.0589 91.4033 44.6817 95.8005 44.6817 101.207C44.6817 106.614 41.0727 111.011 36.6203 111.011ZM30.9371 105.01L31.6838 106.199C32.8868 108.135 34.6844 109.241 36.6203 109.241C40.091 109.241 42.9256 105.632 42.9256 101.193C42.9256 96.7546 40.1048 93.1456 36.6203 93.1456C34.6982 93.1456 32.9007 94.2518 31.6838 96.1876L30.9371 97.3768L30.1905 96.1876C28.9875 94.2518 27.1899 93.1456 25.254 93.1456C21.7833 93.1456 18.9487 96.7546 18.9487 101.193C18.9487 105.632 21.7695 109.241 25.254 109.241C27.1761 109.241 28.9736 108.135 30.1905 106.199L30.9371 105.01Z" fill="#121212"/>
<path d="M24.7862 105.618L23.6938 104.236L27.6485 101.083L23.7215 98.1929L24.7586 96.7825L30.5385 101.028L24.7862 105.618Z" fill="#121212"/>
<path d="M38.0747 105.605C39.5104 105.605 40.6743 103.636 40.6743 101.208C40.6743 98.7795 39.5104 96.8108 38.0747 96.8108C36.639 96.8108 35.4751 98.7795 35.4751 101.208C35.4751 103.636 36.639 105.605 38.0747 105.605Z" fill="#121212"/>
<path d="M97.9331 53.502V110.126" stroke="#121212" stroke-width="2" stroke-miterlimit="10"/>
<path d="M81.0629 125.488C91.8612 125.488 100.615 118.61 100.615 110.125C100.615 101.641 91.8612 94.7629 81.0629 94.7629C70.2645 94.7629 61.5107 101.641 61.5107 110.125C61.5107 118.61 70.2645 125.488 81.0629 125.488Z" fill="#E090A5" stroke="#121212" stroke-width="2" stroke-miterlimit="10"/>
<path d="M85.7075 109.848C89.5641 109.848 92.6904 105.997 92.6904 101.247C92.6904 96.4972 89.5641 92.6465 85.7075 92.6465C81.851 92.6465 78.7246 96.4972 78.7246 101.247C78.7246 105.997 81.851 109.848 85.7075 109.848Z" fill="#F8F8F8"/>
<path d="M97.2119 109.848C101.068 109.848 104.195 105.997 104.195 101.247C104.195 96.4972 101.068 92.6465 97.2119 92.6465C93.3554 92.6465 90.229 96.4972 90.229 101.247C90.229 105.997 93.3554 109.848 97.2119 109.848Z" fill="#F8F8F8"/>
<path d="M97.1437 111.01C94.9866 111.01 92.9678 109.986 91.4744 108.175C89.981 109.986 87.9622 111.01 85.8051 111.01C81.3665 111.01 77.7437 106.612 77.7437 101.206C77.7437 95.7993 81.3526 91.4021 85.8051 91.4021C87.9622 91.4021 89.981 92.4253 91.4744 94.2368C92.9678 92.4253 94.9866 91.4021 97.1437 91.4021C101.582 91.4021 105.205 95.7993 105.205 101.206C105.205 106.612 101.596 111.01 97.1437 111.01ZM91.4606 105.022L92.2073 106.211C93.4103 108.147 95.2078 109.253 97.1437 109.253C100.614 109.253 103.449 105.644 103.449 101.206C103.449 96.7672 100.628 93.1582 97.1437 93.1582C95.2217 93.1582 93.4241 94.2644 92.2073 96.2003L91.4606 97.3894L90.7139 96.2003C89.5109 94.2644 87.7133 93.1582 85.7775 93.1582C82.3067 93.1582 79.4721 96.7672 79.4721 101.206C79.4721 105.644 82.2929 109.253 85.7775 109.253C87.6995 109.253 89.4971 108.147 90.7139 106.211L91.4606 105.022Z" fill="#121212"/>
<path d="M85.3062 105.617L84.2139 104.234L88.1685 101.082L84.2415 98.1917L85.2786 96.7812L91.0585 101.026L85.3062 105.617Z" fill="#121212"/>
<path d="M100.725 105.658L101.817 104.289L97.8626 101.136L101.79 98.2465L100.753 96.8223L94.9727 101.081L100.725 105.658Z" fill="#121212"/>
<rect x="37.4844" y="53.502" width="60.5108" height="7.11892" fill="#121212"/>
<path d="M517.408 53.502V110.14" stroke="#121212" stroke-width="2" stroke-miterlimit="10"/>
<path d="M500.552 125.502C511.351 125.502 520.104 118.624 520.104 110.14C520.104 101.655 511.351 94.7773 500.552 94.7773C489.754 94.7773 481 101.655 481 110.14C481 118.624 489.754 125.502 500.552 125.502Z" fill="#D8E0C2" stroke="#121212" stroke-width="2" stroke-miterlimit="10"/>
<path d="M505.198 109.864C509.054 109.864 512.181 106.013 512.181 101.263C512.181 96.513 509.054 92.6624 505.198 92.6624C501.341 92.6624 498.215 96.513 498.215 101.263C498.215 106.013 501.341 109.864 505.198 109.864Z" fill="#F8F8F8"/>
<path d="M516.701 109.864C520.558 109.864 523.684 106.013 523.684 101.263C523.684 96.513 520.558 92.6624 516.701 92.6624C512.845 92.6624 509.718 96.513 509.718 101.263C509.718 106.013 512.845 109.864 516.701 109.864Z" fill="#F8F8F8"/>
<path d="M516.619 111.025C514.462 111.025 512.443 110.002 510.949 108.191C509.456 110.002 507.437 111.025 505.28 111.025C500.842 111.025 497.219 106.628 497.219 101.221C497.219 95.8149 500.828 91.4177 505.28 91.4177C507.437 91.4177 509.456 92.441 510.949 94.2524C512.443 92.441 514.462 91.4177 516.619 91.4177C521.057 91.4177 524.68 95.8149 524.68 101.221C524.68 106.628 521.071 111.025 516.619 111.025ZM510.949 105.024L511.696 106.213C512.899 108.149 514.697 109.255 516.633 109.255C520.103 109.255 522.938 105.646 522.938 101.208C522.938 96.769 520.117 93.16 516.633 93.16C514.711 93.16 512.913 94.2662 511.696 96.2021L510.949 97.3912L510.203 96.2021C509 94.2662 507.202 93.16 505.266 93.16C501.796 93.16 498.961 96.769 498.961 101.208C498.961 105.646 501.782 109.255 505.266 109.255C507.188 109.255 508.986 108.149 510.203 106.213L510.949 105.024Z" fill="#121212"/>
<path d="M518.084 101.955C519.52 101.955 520.684 99.986 520.684 97.5576C520.684 95.1291 519.52 93.1604 518.084 93.1604C516.649 93.1604 515.485 95.1291 515.485 97.5576C515.485 99.986 516.649 101.955 518.084 101.955Z" fill="#121212"/>
<path d="M507.118 101.955C508.554 101.955 509.718 99.986 509.718 97.5576C509.718 95.1291 508.554 93.1604 507.118 93.1604C505.682 93.1604 504.519 95.1291 504.519 97.5576C504.519 99.986 505.682 101.955 507.118 101.955Z" fill="#121212"/>
<path d="M590.396 35.957V92.5808" stroke="#121212" stroke-width="2" stroke-miterlimit="10"/>
<path d="M606.754 52.1916C617.553 52.1916 626.306 45.3136 626.306 36.8292C626.306 28.3448 617.553 21.4668 606.754 21.4668C595.956 21.4668 587.202 28.3448 587.202 36.8292C587.202 45.3136 595.956 52.1916 606.754 52.1916Z" fill="#E090A5" stroke="#121212" stroke-width="2" stroke-miterlimit="10"/>
<path d="M590.423 53.6297C594.28 53.6297 597.406 49.779 597.406 45.029C597.406 40.2789 594.28 36.4282 590.423 36.4282C586.567 36.4282 583.44 40.2789 583.44 45.029C583.44 49.779 586.567 53.6297 590.423 53.6297Z" fill="#F8F8F8"/>
<path d="M601.914 53.6297C605.77 53.6297 608.896 49.779 608.896 45.029C608.896 40.2789 605.77 36.4282 601.914 36.4282C598.057 36.4282 594.931 40.2789 594.931 45.029C594.931 49.779 598.057 53.6297 601.914 53.6297Z" fill="#F8F8F8"/>
<path d="M601.845 54.8045C599.688 54.8045 597.669 53.7812 596.176 51.9698C594.682 53.7812 592.663 54.8045 590.506 54.8045C586.068 54.8045 582.445 50.4073 582.445 45.0008C582.445 39.5942 586.054 35.197 590.506 35.197C592.663 35.197 594.682 36.2203 596.176 38.0317C597.669 36.2203 599.688 35.197 601.845 35.197C606.284 35.197 609.906 39.5942 609.906 45.0008C609.906 50.4073 606.297 54.8045 601.845 54.8045ZM596.162 48.8033L596.908 49.9925C598.111 51.9284 599.909 53.0345 601.845 53.0345C605.316 53.0345 608.15 49.4256 608.15 44.9869C608.15 40.5483 605.329 36.9393 601.845 36.9393C599.923 36.9393 598.125 38.0455 596.908 39.9814L596.162 41.1705L595.415 39.9814C594.212 38.0455 592.414 36.9393 590.479 36.9393C587.008 36.9393 584.173 40.5483 584.173 44.9869C584.173 49.4256 586.994 53.0345 590.479 53.0345C592.401 53.0345 594.198 51.9284 595.415 49.9925L596.162 48.8033Z" fill="#121212"/>
<path d="M600.158 53.0214C601.593 53.0214 602.757 51.0527 602.757 48.6242C602.757 46.1957 601.593 44.2271 600.158 44.2271C598.722 44.2271 597.558 46.1957 597.558 48.6242C597.558 51.0527 598.722 53.0214 600.158 53.0214Z" fill="#121212"/>
<path d="M588.418 53.0214C589.854 53.0214 591.018 51.0527 591.018 48.6242C591.018 46.1957 589.854 44.2271 588.418 44.2271C586.983 44.2271 585.819 46.1957 585.819 48.6242C585.819 51.0527 586.983 53.0214 588.418 53.0214Z" fill="#121212"/>
<path d="M501.193 48.6523C502.039 47.0291 503.009 45.3822 504.004 43.8612C513.195 29.9632 526.757 19.7353 541.922 14.298C557.153 8.79475 573.877 8.17021 590.446 10.441C592.263 10.6855 594.091 10.9653 595.968 11.2911C594.176 10.6432 592.416 10.0536 590.65 9.51298C574.589 4.56664 556.607 3.6614 540.23 9.59304C523.916 15.3794 510.07 27.9279 503.169 43.4087C502.423 45.099 501.731 46.9024 501.193 48.6523Z" fill="#121212"/>
</svg>
